<svg width="406" height="452" viewBox="0 0 406 452" fill="none" xmlns="http://www.w3.org/2000/svg">
<g filter="url(#filter0_d_476_675)">
<path d="M126.097 32.8019C128.567 21.4439 139.778 14.2392 151.136 16.7098L235.745 35.1143C242.259 36.5313 247.717 40.9505 250.457 47.0274L259.18 66.368C261.437 71.3725 265.931 75.0118 271.296 76.1787L496.248 125.111C507.606 127.582 514.81 138.792 512.34 150.15L475.712 318.537C473.241 329.895 462.031 337.099 450.673 334.629L98.6381 258.053C87.2801 255.582 80.0754 244.372 82.546 233.014L126.097 32.8019Z" fill="#F8F8F8"/>
</g>
<path d="M148.314 87.6991L147.442 91.7105L152.828 92.8823L152.275 95.4267L146.888 94.255L145.966 98.4957L152.04 99.817L151.472 102.43L142.188 100.411L145.673 84.3878L154.957 86.4072L154.389 89.0204L148.314 87.6991ZM171.783 90.0912L162.434 104.815L158.537 103.967L156.149 86.6906L159.588 87.4385L161.222 101.118L168.367 89.3482L171.783 90.0912ZM175.894 93.6983L175.021 97.7098L180.408 98.8816L179.855 101.426L174.468 100.254L173.546 104.495L179.62 105.816L179.052 108.429L169.768 106.41L173.253 90.3871L182.537 92.4065L181.969 95.0197L175.894 93.6983ZM195.194 111.941L191.985 111.243L187.107 98.6822L184.719 109.662L181.51 108.964L184.995 92.9411L188.204 93.6392L193.077 106.223L195.471 95.2198L198.68 95.9179L195.194 111.941ZM212.276 98.8994L211.713 101.49L207.449 100.562L204.532 113.972L201.323 113.274L204.24 99.8642L199.976 98.9367L200.54 96.3465L212.276 98.8994ZM216.168 116.671C215.053 116.429 214.086 116.018 213.267 115.44C212.464 114.865 211.881 114.162 211.517 113.331C211.154 112.5 211.071 111.593 211.268 110.612L214.707 111.36C214.61 112.027 214.726 112.596 215.055 113.068C215.4 113.543 215.939 113.861 216.673 114.02C217.422 114.183 218.048 114.135 218.553 113.877C219.06 113.603 219.377 113.176 219.504 112.595C219.607 112.122 219.546 111.7 219.322 111.332C219.098 110.963 218.783 110.646 218.377 110.382C217.989 110.105 217.436 109.777 216.718 109.397C215.746 108.865 214.962 108.382 214.368 107.949C213.793 107.504 213.333 106.932 212.989 106.233C212.664 105.522 212.611 104.662 212.83 103.653C213.036 102.706 213.452 101.932 214.079 101.332C214.706 100.732 215.487 100.342 216.422 100.161C217.361 99.9656 218.381 99.9873 219.481 100.227C221.132 100.586 222.381 101.281 223.228 102.314C224.095 103.335 224.425 104.575 224.22 106.035L220.69 105.267C220.779 104.71 220.64 104.208 220.273 103.76C219.925 103.3 219.392 102.992 218.674 102.836C218.047 102.7 217.508 102.75 217.056 102.988C216.619 103.229 216.335 103.655 216.202 104.267C216.109 104.695 216.168 105.084 216.38 105.434C216.61 105.772 216.912 106.078 217.285 106.351C217.676 106.612 218.229 106.94 218.943 107.336C219.916 107.867 220.697 108.358 221.288 108.806C221.879 109.255 222.344 109.836 222.685 110.551C223.026 111.265 223.088 112.119 222.872 113.112C222.686 113.968 222.292 114.714 221.689 115.351C221.086 115.988 220.309 116.436 219.357 116.693C218.408 116.934 217.345 116.927 216.168 116.671Z" fill="black"/>
<g filter="url(#filter1_d_476_675)">
<rect x="136.781" y="117.655" width="346.029" height="24.1416" rx="12.0708" transform="rotate(12.272 136.781 117.655)" fill="#CFCFCF"/>
<path d="M290.803 159.847L289.404 166.278L288.559 166.094L289.602 161.299L286.421 165.629L285.827 165.5L284.725 160.228L283.68 165.033L282.834 164.849L284.233 158.418L285.144 158.616L286.366 164.449L289.902 159.651L290.803 159.847ZM295.895 164.819C295.86 164.98 295.814 165.148 295.756 165.324L291.686 164.438C291.608 164.947 291.693 165.377 291.94 165.73C292.196 166.077 292.546 166.3 292.993 166.397C293.358 166.476 293.68 166.458 293.958 166.344C294.243 166.224 294.467 166.033 294.628 165.769L295.539 165.967C295.296 166.427 294.936 166.767 294.46 166.988C293.985 167.203 293.444 167.244 292.837 167.112C292.354 167.007 291.944 166.804 291.607 166.504C291.276 166.205 291.045 165.833 290.915 165.39C290.785 164.94 290.778 164.452 290.893 163.925C291.007 163.398 291.213 162.96 291.51 162.609C291.807 162.258 292.167 162.019 292.591 161.89C293.022 161.757 293.485 161.744 293.981 161.852C294.464 161.957 294.869 162.156 295.195 162.447C295.521 162.739 295.742 163.092 295.86 163.507C295.985 163.917 295.997 164.354 295.895 164.819ZM295.06 164.452C295.13 164.13 295.119 163.839 295.027 163.579C294.935 163.312 294.778 163.093 294.556 162.921C294.342 162.745 294.086 162.624 293.788 162.56C293.361 162.467 292.966 162.524 292.603 162.73C292.246 162.938 291.993 163.279 291.845 163.753L295.06 164.452ZM301.472 166.032C301.437 166.193 301.391 166.361 301.333 166.537L297.263 165.651C297.185 166.16 297.27 166.59 297.517 166.943C297.773 167.29 298.123 167.513 298.569 167.61C298.935 167.689 299.257 167.672 299.535 167.557C299.82 167.437 300.044 167.246 300.205 166.982L301.115 167.18C300.873 167.64 300.513 167.981 300.037 168.201C299.562 168.416 299.021 168.457 298.414 168.325C297.931 168.22 297.52 168.017 297.184 167.717C296.853 167.418 296.622 167.047 296.492 166.603C296.362 166.153 296.355 165.665 296.469 165.138C296.584 164.612 296.79 164.173 297.087 163.822C297.384 163.472 297.744 163.232 298.168 163.104C298.599 162.97 299.062 162.958 299.558 163.065C300.041 163.17 300.446 163.369 300.772 163.66C301.098 163.952 301.319 164.305 301.437 164.72C301.562 165.13 301.573 165.567 301.472 166.032ZM300.637 165.665C300.707 165.343 300.696 165.052 300.603 164.792C300.512 164.525 300.355 164.306 300.133 164.135C299.918 163.958 299.662 163.838 299.365 163.773C298.938 163.68 298.542 163.737 298.18 163.943C297.823 164.151 297.57 164.492 297.422 164.966L300.637 165.665ZM303.794 164.804L303.141 167.806C303.087 168.054 303.102 168.242 303.184 168.37C303.268 168.492 303.44 168.581 303.7 168.638L304.323 168.773L304.167 169.489L303.405 169.323C302.934 169.221 302.604 169.036 302.416 168.768C302.228 168.5 302.188 168.118 302.296 167.622L302.948 164.62L302.289 164.477L302.44 163.78L303.1 163.923L303.379 162.641L304.225 162.825L303.946 164.107L305.275 164.396L305.123 165.093L303.794 164.804ZM306.73 163.847C306.569 163.812 306.445 163.726 306.358 163.591C306.27 163.455 306.244 163.306 306.279 163.145C306.314 162.984 306.4 162.86 306.535 162.773C306.671 162.686 306.82 162.659 306.981 162.695C307.136 162.728 307.254 162.812 307.335 162.947C307.422 163.082 307.448 163.231 307.413 163.392C307.378 163.553 307.293 163.677 307.157 163.764C307.027 163.853 306.885 163.881 306.73 163.847ZM306.959 164.763L305.851 169.855L305.006 169.671L306.113 164.579L306.959 164.763ZM310.716 165.483C311.335 165.618 311.796 165.916 312.098 166.377C312.401 166.832 312.476 167.413 312.322 168.119L311.67 171.121L310.833 170.939L311.46 168.058C311.57 167.55 311.528 167.135 311.332 166.814C311.137 166.486 310.82 166.274 310.38 166.178C309.934 166.081 309.547 166.143 309.22 166.364C308.899 166.586 308.681 166.964 308.565 167.497L307.952 170.312L307.107 170.129L308.214 165.036L309.06 165.22L308.902 165.945C309.126 165.721 309.396 165.569 309.712 165.488C310.034 165.409 310.369 165.407 310.716 165.483ZM316.091 166.662C316.531 166.757 316.894 166.937 317.181 167.201C317.474 167.465 317.669 167.761 317.767 168.087L317.969 167.158L318.824 167.344L317.692 172.548C317.591 173.012 317.402 173.403 317.126 173.719C316.848 174.042 316.501 174.265 316.085 174.388C315.675 174.513 315.225 174.522 314.735 174.416C314.066 174.27 313.543 173.991 313.166 173.578C312.789 173.165 312.619 172.677 312.657 172.114L313.493 172.296C313.519 172.626 313.657 172.916 313.908 173.165C314.157 173.421 314.486 173.593 314.895 173.682C315.36 173.783 315.769 173.719 316.124 173.492C316.485 173.265 316.722 172.888 316.837 172.362L317.069 171.293C316.837 171.554 316.536 171.748 316.164 171.875C315.793 172.002 315.387 172.017 314.947 171.922C314.495 171.823 314.107 171.622 313.784 171.318C313.467 171.016 313.247 170.64 313.124 170.192C313.001 169.743 312.995 169.262 313.107 168.748C313.22 168.227 313.425 167.795 313.72 167.45C314.017 167.099 314.372 166.855 314.785 166.718C315.203 166.582 315.639 166.563 316.091 166.662ZM317.417 169.695C317.501 169.311 317.496 168.959 317.403 168.641C317.31 168.322 317.147 168.059 316.913 167.853C316.686 167.641 316.415 167.501 316.099 167.432C315.783 167.364 315.479 167.375 315.186 167.467C314.894 167.559 314.639 167.731 314.422 167.982C314.205 168.234 314.055 168.551 313.971 168.936C313.886 169.326 313.89 169.683 313.981 170.008C314.074 170.327 314.234 170.592 314.46 170.804C314.688 171.009 314.96 171.146 315.276 171.215C315.592 171.283 315.896 171.272 316.189 171.18C316.489 171.083 316.747 170.908 316.964 170.657C317.183 170.4 317.333 170.079 317.417 169.695ZM320.744 173.183C320.354 173.098 320.018 172.956 319.736 172.759C319.456 172.555 319.252 172.316 319.123 172.042C318.996 171.761 318.957 171.464 319.006 171.15L319.879 171.34C319.849 171.599 319.922 171.832 320.097 172.039C320.279 172.248 320.543 172.389 320.89 172.465C321.212 172.535 321.482 172.519 321.699 172.417C321.916 172.315 322.048 172.155 322.095 171.939C322.143 171.716 322.08 171.53 321.905 171.381C321.731 171.227 321.448 171.052 321.055 170.856C320.699 170.675 320.411 170.508 320.191 170.357C319.978 170.2 319.807 170.004 319.676 169.768C319.554 169.527 319.528 169.242 319.599 168.914C319.656 168.654 319.785 168.432 319.987 168.249C320.189 168.066 320.446 167.943 320.758 167.881C321.072 167.813 321.411 167.819 321.777 167.898C322.34 168.021 322.765 168.263 323.05 168.623C323.335 168.984 323.436 169.414 323.353 169.915L322.507 169.731C322.546 169.461 322.484 169.224 322.321 169.019C322.164 168.817 321.921 168.679 321.593 168.608C321.289 168.542 321.034 168.554 320.826 168.645C320.618 168.736 320.491 168.887 320.445 169.098C320.409 169.265 320.431 169.416 320.512 169.55C320.601 169.68 320.718 169.796 320.864 169.9C321.018 169.998 321.232 170.119 321.506 170.263C321.85 170.442 322.125 170.605 322.333 170.754C322.542 170.897 322.706 171.082 322.825 171.309C322.951 171.538 322.983 171.807 322.922 172.119C322.861 172.397 322.729 172.631 322.526 172.821C322.322 173.01 322.064 173.139 321.751 173.207C321.445 173.27 321.109 173.262 320.744 173.183Z" fill="black"/>
</g>
<g filter="url(#filter2_d_476_675)">
<g clip-path="url(#clip0_476_675)">
<rect x="130.557" y="146.27" width="193.752" height="80.7113" rx="4.33311" transform="rotate(12.272 130.557 146.27)" fill="white"/>
<path d="M139.3 163.658L139.151 164.346L137.385 163.962L136.126 169.752L135.28 169.568L136.539 163.778L134.764 163.392L134.914 162.704L139.3 163.658ZM140.949 170.888C140.472 170.785 140.062 170.582 139.719 170.28C139.382 169.98 139.145 169.607 139.008 169.162C138.879 168.712 138.872 168.224 138.986 167.697C139.099 167.177 139.311 166.743 139.62 166.395C139.937 166.042 140.313 165.803 140.749 165.677C141.187 165.545 141.647 165.532 142.13 165.637C142.614 165.742 143.027 165.945 143.37 166.247C143.714 166.542 143.955 166.913 144.092 167.358C144.235 167.804 144.249 168.291 144.135 168.817C144.02 169.344 143.801 169.783 143.478 170.134C143.163 170.481 142.783 170.72 142.339 170.85C141.896 170.981 141.432 170.994 140.949 170.888ZM141.111 170.145C141.414 170.211 141.715 170.202 142.012 170.117C142.31 170.033 142.57 169.865 142.793 169.615C143.022 169.367 143.181 169.038 143.27 168.629C143.359 168.22 143.354 167.856 143.255 167.536C143.156 167.216 142.991 166.959 142.761 166.766C142.531 166.567 142.265 166.435 141.961 166.369C141.652 166.301 141.351 166.311 141.06 166.397C140.776 166.478 140.526 166.644 140.309 166.895C140.092 167.146 139.939 167.476 139.85 167.885C139.76 168.3 139.758 168.667 139.845 168.984C139.938 169.303 140.096 169.561 140.319 169.759C140.543 169.95 140.807 170.079 141.111 170.145ZM144.747 168.941C144.86 168.42 145.064 167.988 145.36 167.643C145.657 167.293 146.011 167.049 146.424 166.911C146.843 166.775 147.282 166.757 147.74 166.857C148.137 166.943 148.485 167.116 148.785 167.376C149.087 167.63 149.295 167.925 149.41 168.262L149.997 165.567L150.852 165.753L149.356 172.629L148.501 172.443L148.709 171.486C148.476 171.753 148.173 171.95 147.802 172.077C147.432 172.198 147.027 172.21 146.587 172.115C146.134 172.016 145.747 171.815 145.424 171.511C145.107 171.209 144.886 170.833 144.763 170.385C144.64 169.936 144.635 169.455 144.747 168.941ZM149.057 169.888C149.14 169.504 149.135 169.152 149.043 168.834C148.95 168.515 148.786 168.252 148.552 168.046C148.326 167.834 148.054 167.694 147.738 167.625C147.422 167.557 147.118 167.568 146.826 167.66C146.533 167.753 146.278 167.924 146.062 168.176C145.845 168.427 145.694 168.745 145.611 169.129C145.526 169.519 145.529 169.877 145.621 170.201C145.714 170.52 145.873 170.785 146.1 170.997C146.328 171.202 146.6 171.339 146.916 171.408C147.232 171.476 147.536 171.465 147.828 171.373C148.129 171.276 148.387 171.102 148.604 170.85C148.822 170.593 148.973 170.272 149.057 169.888ZM150.841 170.266C150.954 169.746 151.158 169.313 151.454 168.969C151.751 168.618 152.106 168.374 152.518 168.237C152.937 168.101 153.373 168.082 153.825 168.18C154.271 168.278 154.637 168.458 154.924 168.721C155.211 168.985 155.403 169.28 155.5 169.606L155.703 168.676L156.558 168.862L155.45 173.955L154.595 173.769L154.801 172.821C154.569 173.082 154.264 173.275 153.887 173.401C153.516 173.522 153.111 173.534 152.672 173.438C152.219 173.34 151.835 173.139 151.518 172.837C151.201 172.534 150.981 172.159 150.858 171.71C150.735 171.262 150.729 170.78 150.841 170.266ZM155.151 171.213C155.234 170.829 155.23 170.478 155.137 170.159C155.044 169.841 154.88 169.578 154.646 169.371C154.42 169.16 154.149 169.02 153.833 168.951C153.517 168.882 153.212 168.894 152.92 168.986C152.627 169.078 152.373 169.25 152.156 169.501C151.939 169.752 151.789 170.07 151.705 170.454C151.62 170.845 151.623 171.202 151.715 171.527C151.808 171.846 151.968 172.111 152.194 172.322C152.422 172.528 152.694 172.665 153.01 172.733C153.326 172.802 153.63 172.79 153.923 172.698C154.223 172.601 154.481 172.427 154.698 172.176C154.916 171.918 155.067 171.598 155.151 171.213ZM162.187 170.087L157.491 176.91L156.618 176.72L158.155 174.485L157.197 169.002L158.135 169.206L158.836 173.679L161.314 169.897L162.187 170.087ZM163.528 175.8C163.138 175.715 162.802 175.574 162.521 175.376C162.24 175.173 162.036 174.934 161.908 174.659C161.781 174.378 161.741 174.081 161.79 173.767L162.664 173.957C162.633 174.217 162.706 174.45 162.881 174.657C163.063 174.865 163.328 175.007 163.675 175.082C163.997 175.152 164.266 175.136 164.483 175.034C164.7 174.932 164.832 174.773 164.879 174.556C164.928 174.333 164.864 174.147 164.689 173.999C164.515 173.844 164.232 173.669 163.84 173.473C163.483 173.292 163.195 173.126 162.975 172.974C162.763 172.817 162.591 172.621 162.461 172.385C162.338 172.144 162.312 171.86 162.384 171.531C162.44 171.271 162.57 171.049 162.772 170.866C162.974 170.683 163.231 170.561 163.543 170.499C163.856 170.431 164.195 170.436 164.561 170.516C165.125 170.638 165.549 170.88 165.834 171.24C166.119 171.601 166.22 172.032 166.137 172.533L165.291 172.349C165.331 172.078 165.269 171.841 165.105 171.637C164.948 171.434 164.706 171.297 164.377 171.225C164.074 171.159 163.818 171.172 163.61 171.263C163.402 171.354 163.275 171.505 163.229 171.715C163.193 171.883 163.215 172.033 163.296 172.168C163.385 172.297 163.502 172.414 163.649 172.517C163.802 172.615 164.016 172.736 164.29 172.88C164.634 173.059 164.91 173.223 165.117 173.372C165.326 173.514 165.49 173.699 165.61 173.927C165.735 174.155 165.767 174.425 165.706 174.736C165.646 175.015 165.514 175.249 165.31 175.438C165.107 175.627 164.848 175.756 164.535 175.824C164.229 175.888 163.894 175.879 163.528 175.8ZM176.674 171.837L175.275 178.267L174.429 178.083L175.472 173.288L172.292 177.619L171.697 177.489L170.595 172.218L169.55 177.022L168.705 176.838L170.103 170.408L171.014 170.606L172.237 176.439L175.772 171.641L176.674 171.837ZM181.766 176.808C181.731 176.969 181.685 177.138 181.627 177.313L177.557 176.428C177.478 176.936 177.563 177.367 177.811 177.719C178.066 178.067 178.417 178.289 178.863 178.386C179.229 178.466 179.55 178.448 179.828 178.333C180.114 178.214 180.337 178.022 180.498 177.759L181.409 177.957C181.166 178.417 180.807 178.757 180.33 178.978C179.856 179.192 179.314 179.234 178.707 179.102C178.224 178.997 177.814 178.794 177.477 178.493C177.146 178.194 176.916 177.823 176.785 177.379C176.656 176.929 176.648 176.441 176.763 175.915C176.878 175.388 177.083 174.949 177.38 174.599C177.677 174.248 178.037 174.008 178.461 173.88C178.892 173.747 179.356 173.734 179.851 173.842C180.335 173.947 180.739 174.145 181.065 174.437C181.391 174.728 181.613 175.081 181.73 175.496C181.855 175.906 181.867 176.344 181.766 176.808ZM180.931 176.442C181.001 176.12 180.99 175.828 180.897 175.568C180.806 175.302 180.649 175.083 180.427 174.911C180.212 174.735 179.956 174.614 179.659 174.549C179.231 174.456 178.836 174.513 178.473 174.72C178.116 174.928 177.864 175.268 177.715 175.742L180.931 176.442ZM187.343 178.021C187.308 178.182 187.261 178.351 187.204 178.526L183.133 177.641C183.055 178.15 183.14 178.58 183.388 178.932C183.643 179.28 183.994 179.502 184.44 179.599C184.805 179.679 185.127 179.661 185.405 179.546C185.691 179.427 185.914 179.235 186.075 178.972L186.986 179.17C186.743 179.63 186.384 179.97 185.907 180.191C185.432 180.406 184.891 180.447 184.284 180.315C183.801 180.21 183.391 180.007 183.054 179.707C182.723 179.407 182.493 179.036 182.362 178.592C182.233 178.143 182.225 177.654 182.34 177.128C182.454 176.601 182.66 176.163 182.957 175.812C183.254 175.461 183.614 175.222 184.038 175.093C184.469 174.96 184.933 174.947 185.428 175.055C185.912 175.16 186.316 175.358 186.642 175.65C186.968 175.941 187.19 176.295 187.307 176.709C187.432 177.119 187.444 177.557 187.343 178.021ZM186.508 177.655C186.578 177.333 186.566 177.041 186.474 176.781C186.383 176.515 186.226 176.296 186.004 176.124C185.789 175.948 185.533 175.827 185.236 175.762C184.808 175.669 184.413 175.726 184.05 175.933C183.693 176.141 183.441 176.482 183.292 176.955L186.508 177.655ZM189.665 176.794L189.012 179.796C188.958 180.043 188.972 180.231 189.054 180.36C189.138 180.482 189.31 180.571 189.57 180.628L190.193 180.763L190.037 181.479L189.275 181.313C188.804 181.21 188.475 181.025 188.287 180.757C188.098 180.489 188.058 180.107 188.166 179.612L188.819 176.61L188.159 176.466L188.311 175.77L188.97 175.913L189.249 174.631L190.095 174.815L189.816 176.097L191.145 176.386L190.993 177.083L189.665 176.794ZM192.6 175.836C192.439 175.801 192.315 175.716 192.228 175.58C192.141 175.444 192.115 175.296 192.15 175.135C192.185 174.974 192.27 174.85 192.406 174.762C192.542 174.675 192.69 174.649 192.851 174.684C193.006 174.718 193.124 174.802 193.205 174.936C193.292 175.072 193.318 175.22 193.283 175.382C193.248 175.543 193.163 175.667 193.027 175.754C192.898 175.843 192.755 175.87 192.6 175.836ZM192.829 176.752L191.722 181.845L190.876 181.661L191.984 176.569L192.829 176.752ZM196.586 177.472C197.206 177.607 197.667 177.905 197.969 178.367C198.272 178.822 198.347 179.403 198.193 180.109L197.54 183.111L196.704 182.929L197.33 180.048C197.441 179.54 197.398 179.125 197.202 178.803C197.007 178.476 196.69 178.264 196.25 178.168C195.804 178.071 195.417 178.133 195.09 178.354C194.77 178.576 194.551 178.953 194.435 179.486L193.823 182.302L192.977 182.118L194.085 177.026L194.931 177.209L194.773 177.934C194.997 177.711 195.267 177.558 195.583 177.478C195.905 177.399 196.239 177.397 196.586 177.472ZM201.962 178.651C202.402 178.747 202.765 178.927 203.051 179.19C203.344 179.455 203.539 179.75 203.637 180.077L203.839 179.147L204.694 179.333L203.562 184.537C203.461 185.002 203.272 185.392 202.996 185.709C202.718 186.031 202.371 186.254 201.955 186.378C201.545 186.503 201.095 186.512 200.606 186.405C199.937 186.26 199.414 185.981 199.036 185.568C198.659 185.155 198.489 184.667 198.527 184.104L199.364 184.286C199.389 184.616 199.527 184.906 199.778 185.155C200.028 185.41 200.357 185.582 200.766 185.671C201.23 185.772 201.64 185.709 201.994 185.481C202.355 185.255 202.593 184.878 202.707 184.351L202.94 183.283C202.708 183.544 202.406 183.738 202.035 183.864C201.663 183.991 201.257 184.007 200.818 183.911C200.365 183.813 199.978 183.612 199.654 183.308C199.337 183.005 199.117 182.63 198.994 182.181C198.871 181.733 198.866 181.251 198.978 180.737C199.091 180.217 199.295 179.784 199.591 179.44C199.888 179.089 200.242 178.845 200.655 178.708C201.074 178.572 201.509 178.553 201.962 178.651ZM203.287 181.684C203.371 181.3 203.366 180.949 203.273 180.63C203.181 180.311 203.017 180.049 202.783 179.842C202.556 179.631 202.285 179.491 201.969 179.422C201.653 179.353 201.349 179.365 201.057 179.457C200.764 179.549 200.509 179.721 200.292 179.972C200.076 180.223 199.925 180.541 199.842 180.925C199.757 181.315 199.76 181.673 199.852 181.998C199.945 182.317 200.104 182.582 200.331 182.793C200.559 182.998 200.831 183.135 201.147 183.204C201.463 183.273 201.767 183.261 202.059 183.169C202.359 183.072 202.618 182.898 202.835 182.647C203.053 182.389 203.204 182.068 203.287 181.684Z" fill="#272626"/>
<path d="M131.501 178.373C131.608 177.88 131.816 177.461 132.123 177.118C132.432 176.769 132.802 176.525 133.233 176.386C133.668 176.247 134.121 176.229 134.59 176.331C135.142 176.451 135.594 176.689 135.948 177.045C136.301 177.4 136.519 177.843 136.602 178.373L135.81 178.201C135.736 177.865 135.584 177.587 135.354 177.364C135.128 177.143 134.832 176.992 134.464 176.912C134.111 176.835 133.776 176.849 133.459 176.952C133.143 177.056 132.872 177.242 132.646 177.512C132.421 177.778 132.264 178.114 132.176 178.52C132.088 178.922 132.091 179.292 132.185 179.632C132.279 179.967 132.449 180.247 132.694 180.472C132.938 180.698 133.238 180.849 133.591 180.926C133.959 181.006 134.29 180.995 134.586 180.892C134.888 180.785 135.143 180.595 135.349 180.32L136.141 180.492C135.847 180.935 135.465 181.245 134.996 181.422C134.528 181.594 134.018 181.619 133.466 181.499C132.997 181.397 132.592 181.195 132.252 180.893C131.918 180.588 131.683 180.215 131.546 179.774C131.408 179.334 131.393 178.867 131.501 178.373ZM136.847 180.091C136.935 179.685 137.095 179.347 137.326 179.078C137.558 178.804 137.835 178.613 138.157 178.506C138.484 178.4 138.825 178.385 139.178 178.462C139.526 178.538 139.812 178.679 140.036 178.884C140.26 179.09 140.41 179.321 140.487 179.575L140.644 178.849L141.312 178.995L140.447 182.972L139.779 182.827L139.94 182.087C139.759 182.291 139.521 182.442 139.226 182.54C138.937 182.634 138.621 182.644 138.277 182.569C137.924 182.492 137.623 182.335 137.376 182.099C137.128 181.863 136.956 181.569 136.86 181.219C136.764 180.869 136.76 180.493 136.847 180.091ZM140.213 180.831C140.279 180.531 140.275 180.257 140.202 180.008C140.13 179.759 140.002 179.554 139.819 179.392C139.642 179.227 139.431 179.118 139.184 179.064C138.937 179.01 138.699 179.019 138.471 179.091C138.242 179.163 138.043 179.297 137.874 179.494C137.705 179.69 137.587 179.938 137.522 180.238C137.456 180.543 137.458 180.822 137.53 181.076C137.602 181.325 137.727 181.532 137.904 181.697C138.082 181.857 138.294 181.964 138.541 182.018C138.788 182.072 139.026 182.063 139.254 181.991C139.489 181.915 139.69 181.779 139.86 181.583C140.03 181.382 140.148 181.131 140.213 180.831ZM143.247 177.956L142.079 183.327L141.418 183.184L142.586 177.812L143.247 177.956ZM144.888 178.313L143.72 183.684L143.059 183.541L144.227 178.169L144.888 178.313ZM153.949 180.611L151.382 185.351L150.642 185.19L150.352 180.862L148.247 184.669L147.512 184.517L147.199 179.143L147.903 179.296L148.073 183.825L150.225 179.801L150.966 179.962L151.197 184.49L153.238 180.456L153.949 180.611ZM154.773 181.246C154.647 181.219 154.55 181.152 154.482 181.046C154.414 180.94 154.394 180.824 154.421 180.698C154.448 180.573 154.515 180.476 154.621 180.407C154.727 180.339 154.843 180.319 154.969 180.346C155.09 180.373 155.182 180.438 155.245 180.543C155.313 180.649 155.334 180.765 155.306 180.891C155.279 181.017 155.212 181.114 155.106 181.182C155.005 181.251 154.894 181.273 154.773 181.246ZM154.952 181.962L154.087 185.939L153.426 185.796L154.291 181.818L154.952 181.962ZM156.62 182.895L156.11 185.239C156.068 185.433 156.079 185.58 156.143 185.68C156.209 185.775 156.343 185.845 156.546 185.889L157.033 185.995L156.911 186.554L156.316 186.424C155.948 186.344 155.691 186.2 155.544 185.99C155.396 185.781 155.365 185.483 155.449 185.095L155.959 182.751L155.444 182.639L155.562 182.094L156.078 182.207L156.296 181.205L156.956 181.349L156.738 182.35L157.776 182.576L157.658 183.12L156.62 182.895ZM160.421 183.075C160.721 183.141 160.978 183.265 161.192 183.448C161.406 183.627 161.553 183.859 161.633 184.145C161.718 184.432 161.72 184.759 161.64 185.127L161.13 187.471L160.477 187.329L160.966 185.079C161.052 184.682 161.019 184.358 160.866 184.107C160.714 183.851 160.466 183.686 160.122 183.611C159.774 183.535 159.472 183.584 159.217 183.756C158.966 183.93 158.796 184.224 158.705 184.641L158.227 186.84L157.566 186.696L158.734 181.325L159.395 181.469L158.969 183.428C159.144 183.254 159.357 183.135 159.608 183.073C159.865 183.013 160.136 183.013 160.421 183.075ZM168.068 183.682L167.951 184.219L166.572 183.919L165.588 188.441L164.928 188.298L165.912 183.776L164.525 183.474L164.642 182.937L168.068 183.682ZM171.73 187.535C171.703 187.661 171.667 187.792 171.622 187.929L168.443 187.238C168.382 187.635 168.448 187.971 168.641 188.246C168.841 188.518 169.115 188.691 169.463 188.767C169.749 188.829 170 188.815 170.217 188.726C170.44 188.632 170.614 188.483 170.74 188.277L171.452 188.432C171.262 188.791 170.981 189.057 170.609 189.229C170.238 189.397 169.816 189.429 169.341 189.326C168.964 189.244 168.644 189.086 168.381 188.851C168.122 188.617 167.942 188.327 167.84 187.981C167.739 187.629 167.733 187.248 167.823 186.837C167.912 186.425 168.073 186.083 168.305 185.809C168.537 185.535 168.818 185.348 169.149 185.248C169.486 185.143 169.848 185.134 170.235 185.218C170.613 185.3 170.929 185.455 171.183 185.682C171.438 185.91 171.611 186.186 171.702 186.51C171.8 186.83 171.809 187.172 171.73 187.535ZM171.078 187.248C171.133 186.997 171.124 186.769 171.052 186.566C170.98 186.358 170.858 186.187 170.684 186.053C170.517 185.915 170.317 185.821 170.085 185.77C169.751 185.698 169.442 185.742 169.159 185.903C168.88 186.066 168.683 186.332 168.567 186.702L171.078 187.248ZM172.179 187.784C172.268 187.373 172.428 187.033 172.659 186.764C172.891 186.49 173.171 186.3 173.498 186.194C173.83 186.088 174.185 186.077 174.562 186.159C175.051 186.265 175.427 186.471 175.69 186.777C175.957 187.083 176.096 187.458 176.106 187.901L175.395 187.746C175.38 187.49 175.288 187.27 175.121 187.086C174.957 186.904 174.731 186.781 174.44 186.718C174.063 186.636 173.73 186.7 173.441 186.911C173.153 187.117 172.957 187.457 172.854 187.931C172.75 188.41 172.785 188.806 172.961 189.117C173.136 189.429 173.413 189.626 173.79 189.708C174.08 189.771 174.337 189.756 174.56 189.663C174.783 189.57 174.958 189.405 175.086 189.169L175.797 189.324C175.602 189.707 175.318 189.987 174.945 190.165C174.573 190.337 174.147 190.371 173.668 190.267C173.291 190.185 172.973 190.027 172.715 189.794C172.461 189.561 172.286 189.272 172.189 188.927C172.092 188.581 172.088 188.2 172.179 187.784ZM179.11 187.141C179.41 187.206 179.667 187.33 179.881 187.514C180.095 187.692 180.242 187.924 180.322 188.21C180.407 188.497 180.409 188.824 180.329 189.192L179.819 191.537L179.166 191.395L179.655 189.144C179.742 188.748 179.708 188.424 179.555 188.172C179.403 187.916 179.155 187.751 178.812 187.676C178.463 187.6 178.161 187.649 177.906 187.821C177.655 187.995 177.485 188.29 177.394 188.706L176.916 190.905L176.255 190.761L177.424 185.39L178.084 185.534L177.658 187.494C177.833 187.319 178.046 187.201 178.297 187.139C178.554 187.078 178.825 187.079 179.11 187.141ZM183.572 188.111C184.056 188.216 184.416 188.449 184.651 188.81C184.888 189.165 184.947 189.619 184.827 190.171L184.317 192.515L183.663 192.373L184.153 190.123C184.239 189.726 184.206 189.402 184.053 189.151C183.901 188.895 183.653 188.729 183.309 188.655C182.961 188.579 182.659 188.627 182.403 188.8C182.153 188.973 181.982 189.268 181.892 189.684L181.413 191.884L180.753 191.74L181.618 187.762L182.279 187.906L182.155 188.472C182.33 188.297 182.541 188.178 182.788 188.116C183.04 188.054 183.301 188.052 183.572 188.111ZM186.597 188.169C186.472 188.141 186.375 188.075 186.306 187.969C186.238 187.863 186.218 187.747 186.245 187.621C186.273 187.495 186.339 187.398 186.445 187.33C186.551 187.262 186.667 187.241 186.793 187.269C186.914 187.295 187.006 187.361 187.07 187.466C187.138 187.572 187.158 187.688 187.131 187.813C187.103 187.939 187.037 188.036 186.931 188.104C186.829 188.174 186.718 188.195 186.597 188.169ZM186.776 188.884L185.911 192.862L185.25 192.718L186.116 188.741L186.776 188.884ZM187.079 191.025C187.168 190.614 187.329 190.274 187.559 190.005C187.791 189.731 188.071 189.541 188.398 189.435C188.73 189.33 189.085 189.318 189.462 189.4C189.951 189.506 190.327 189.712 190.59 190.018C190.858 190.324 190.996 190.699 191.007 191.142L190.295 190.988C190.28 190.731 190.189 190.511 190.021 190.327C189.858 190.145 189.631 190.022 189.341 189.959C188.963 189.877 188.63 189.941 188.341 190.152C188.053 190.358 187.857 190.698 187.754 191.172C187.65 191.651 187.685 192.047 187.861 192.359C188.036 192.67 188.313 192.867 188.69 192.949C188.981 193.013 189.237 192.998 189.46 192.904C189.683 192.811 189.858 192.646 189.986 192.41L190.697 192.565C190.502 192.948 190.218 193.229 189.845 193.406C189.473 193.578 189.048 193.613 188.569 193.508C188.191 193.426 187.873 193.268 187.615 193.035C187.361 192.802 187.186 192.513 187.089 192.168C186.992 191.822 186.988 191.442 187.079 191.025ZM191.344 191.946C191.433 191.539 191.592 191.201 191.823 190.932C192.055 190.658 192.332 190.468 192.655 190.361C192.982 190.254 193.322 190.24 193.675 190.317C194.024 190.392 194.31 190.533 194.534 190.739C194.757 190.945 194.907 191.175 194.984 191.43L195.142 190.704L195.809 190.849L194.944 194.827L194.276 194.682L194.438 193.941C194.256 194.145 194.018 194.296 193.723 194.394C193.434 194.488 193.118 194.498 192.774 194.423C192.421 194.346 192.121 194.19 191.873 193.953C191.625 193.717 191.454 193.424 191.357 193.074C191.261 192.723 191.257 192.347 191.344 191.946ZM194.711 192.685C194.776 192.385 194.772 192.111 194.7 191.862C194.627 191.613 194.499 191.408 194.317 191.247C194.14 191.081 193.928 190.972 193.681 190.918C193.434 190.865 193.197 190.874 192.968 190.946C192.74 191.018 192.541 191.152 192.371 191.348C192.202 191.544 192.085 191.792 192.019 192.092C191.953 192.397 191.956 192.677 192.027 192.93C192.1 193.179 192.224 193.386 192.401 193.551C192.579 193.712 192.792 193.819 193.039 193.873C193.285 193.926 193.523 193.917 193.751 193.845C193.986 193.769 194.188 193.633 194.357 193.437C194.528 193.236 194.645 192.985 194.711 192.685ZM197.744 189.81L196.576 195.182L195.915 195.038L197.084 189.667L197.744 189.81ZM203.561 191.403L203.444 191.94L202.065 191.64L201.081 196.162L200.421 196.018L201.404 191.496L200.018 191.194L200.135 190.657L203.561 191.403ZM207.223 195.255C207.196 195.381 207.16 195.512 207.114 195.65L203.935 194.958C203.874 195.355 203.94 195.692 204.134 195.967C204.333 196.238 204.607 196.412 204.956 196.488C205.241 196.55 205.493 196.536 205.71 196.446C205.933 196.353 206.107 196.203 206.233 195.998L206.944 196.152C206.755 196.512 206.474 196.777 206.102 196.95C205.731 197.117 205.308 197.15 204.834 197.047C204.457 196.964 204.136 196.806 203.873 196.571C203.615 196.338 203.435 196.048 203.333 195.701C203.232 195.35 203.226 194.969 203.316 194.557C203.405 194.146 203.566 193.803 203.798 193.529C204.029 193.255 204.311 193.068 204.642 192.968C204.979 192.864 205.341 192.854 205.728 192.938C206.105 193.02 206.421 193.175 206.676 193.403C206.93 193.631 207.103 193.906 207.195 194.23C207.293 194.551 207.302 194.892 207.223 195.255ZM206.571 194.969C206.626 194.717 206.617 194.49 206.544 194.287C206.473 194.078 206.351 193.907 206.177 193.773C206.009 193.636 205.809 193.541 205.577 193.491C205.243 193.418 204.935 193.463 204.651 193.624C204.373 193.786 204.175 194.052 204.059 194.423L206.571 194.969ZM207.673 195.497C207.761 195.091 207.921 194.753 208.152 194.484C208.384 194.21 208.661 194.02 208.983 193.912C209.31 193.806 209.651 193.792 210.004 193.868C210.352 193.944 210.638 194.085 210.862 194.291C211.086 194.497 211.236 194.727 211.312 194.982L211.47 194.256L212.138 194.401L211.273 198.379L210.605 198.233L210.766 197.493C210.585 197.697 210.347 197.848 210.052 197.946C209.763 198.04 209.447 198.05 209.103 197.975C208.75 197.898 208.449 197.742 208.202 197.505C207.954 197.269 207.782 196.976 207.686 196.625C207.59 196.275 207.586 195.899 207.673 195.497ZM211.039 196.237C211.105 195.937 211.101 195.663 211.028 195.414C210.956 195.165 210.828 194.96 210.645 194.799C210.468 194.633 210.257 194.524 210.01 194.47C209.763 194.417 209.525 194.426 209.297 194.498C209.068 194.57 208.869 194.704 208.7 194.9C208.531 195.096 208.413 195.344 208.348 195.644C208.282 195.949 208.284 196.228 208.356 196.482C208.428 196.731 208.553 196.938 208.73 197.103C208.908 197.264 209.12 197.371 209.367 197.424C209.614 197.478 209.852 197.469 210.08 197.397C210.314 197.321 210.516 197.185 210.686 196.989C210.856 196.788 210.974 196.537 211.039 196.237ZM217.908 195.58C218.218 195.648 218.48 195.773 218.693 195.956C218.908 196.135 219.057 196.367 219.142 196.654C219.226 196.941 219.229 197.269 219.149 197.636L218.639 199.981L217.985 199.839L218.475 197.589C218.561 197.192 218.528 196.868 218.375 196.617C218.227 196.362 217.987 196.198 217.653 196.125C217.309 196.05 217.012 196.102 216.76 196.281C216.509 196.454 216.339 196.749 216.248 197.165L215.772 199.357L215.118 199.215L215.608 196.965C215.694 196.568 215.661 196.244 215.508 195.993C215.36 195.738 215.12 195.574 214.786 195.502C214.442 195.427 214.145 195.479 213.893 195.657C213.642 195.831 213.472 196.125 213.381 196.542L212.904 198.734L212.244 198.59L213.109 194.612L213.77 194.756L213.645 195.329C213.821 195.15 214.03 195.028 214.272 194.964C214.519 194.901 214.775 194.899 215.041 194.957C215.375 195.029 215.654 195.168 215.878 195.374C216.102 195.58 216.245 195.842 216.308 196.159C216.48 195.903 216.711 195.725 217.001 195.626C217.291 195.527 217.594 195.512 217.908 195.58Z" fill="#7A7A7A"/>
<rect x="126.186" y="201.311" width="178.895" height="14.2373" rx="7.11867" transform="rotate(12.272 126.186 201.311)" fill="#4CD292" fill-opacity="0.22"/>
<path d="M196.22 221.41L196.341 220.857L197.594 221.13L196.546 225.948L195.932 225.815L196.86 221.55L196.22 221.41ZM198.225 222.537C198.345 222.136 198.572 221.85 198.907 221.681C199.241 221.512 199.635 221.476 200.088 221.575C200.391 221.641 200.638 221.753 200.832 221.911C201.031 222.066 201.166 222.249 201.236 222.46C201.311 222.671 201.323 222.895 201.272 223.13C201.212 223.406 201.08 223.626 200.877 223.791C200.678 223.957 200.445 224.042 200.179 224.044L200.172 224.078C200.445 224.212 200.644 224.401 200.767 224.647C200.891 224.892 200.916 225.184 200.842 225.522C200.787 225.775 200.68 225.991 200.52 226.17C200.361 226.345 200.153 226.465 199.897 226.531C199.641 226.596 199.35 226.593 199.026 226.523C198.555 226.42 198.195 226.214 197.946 225.904C197.698 225.589 197.606 225.202 197.669 224.741L198.255 224.868C198.228 225.142 198.29 225.383 198.44 225.592C198.59 225.802 198.82 225.94 199.131 226.008C199.442 226.076 199.695 226.047 199.89 225.922C200.09 225.793 200.218 225.6 200.274 225.342C200.346 225.009 200.288 224.745 200.097 224.55C199.907 224.355 199.588 224.209 199.139 224.111L198.986 224.078L199.096 223.571L199.256 223.606C199.665 223.691 199.989 223.691 200.226 223.608C200.463 223.52 200.612 223.338 200.672 223.063C200.723 222.827 200.687 222.622 200.562 222.446C200.442 222.271 200.24 222.152 199.955 222.09C199.68 222.03 199.442 222.053 199.243 222.159C199.043 222.264 198.901 222.433 198.818 222.667L198.225 222.537ZM201.53 227.074C201.414 227.049 201.325 226.988 201.262 226.89C201.2 226.793 201.181 226.687 201.206 226.571C201.231 226.456 201.293 226.367 201.39 226.304C201.487 226.241 201.594 226.223 201.709 226.248C201.82 226.272 201.905 226.332 201.963 226.429C202.026 226.526 202.044 226.632 202.019 226.748C201.994 226.863 201.933 226.952 201.836 227.015C201.743 227.079 201.641 227.098 201.53 227.074ZM202.15 224.222C202.034 224.197 201.945 224.135 201.883 224.038C201.82 223.941 201.802 223.834 201.827 223.719C201.852 223.603 201.913 223.514 202.01 223.452C202.108 223.389 202.214 223.37 202.33 223.395C202.441 223.42 202.525 223.48 202.584 223.576C202.646 223.674 202.665 223.78 202.64 223.896C202.615 224.011 202.553 224.1 202.456 224.163C202.363 224.226 202.261 224.246 202.15 224.222ZM203.065 224.791C203.232 224.027 203.486 223.458 203.827 223.086C204.17 222.709 204.652 222.588 205.274 222.724C205.891 222.858 206.278 223.168 206.433 223.653C206.589 224.133 206.584 224.756 206.418 225.52C206.248 226.298 205.993 226.875 205.65 227.252C205.307 227.628 204.827 227.75 204.21 227.615C203.588 227.48 203.199 227.17 203.044 226.685C202.889 226.2 202.896 225.568 203.065 224.791ZM205.818 225.39C205.902 225.003 205.946 224.671 205.951 224.393C205.961 224.111 205.904 223.87 205.78 223.671C205.66 223.473 205.451 223.342 205.154 223.277C204.851 223.211 204.603 223.243 204.407 223.373C204.216 223.503 204.064 223.698 203.952 223.958C203.845 224.214 203.749 224.535 203.665 224.921C203.578 225.321 203.53 225.662 203.52 225.944C203.514 226.226 203.571 226.467 203.691 226.665C203.815 226.864 204.028 226.996 204.33 227.062C204.628 227.127 204.872 227.094 205.064 226.963C205.259 226.834 205.411 226.639 205.519 226.378C205.631 226.119 205.731 225.789 205.818 225.39ZM207.117 225.672C207.283 224.908 207.537 224.34 207.878 223.967C208.221 223.59 208.703 223.47 209.325 223.605C209.943 223.739 210.329 224.049 210.484 224.534C210.64 225.015 210.635 225.637 210.469 226.401C210.3 227.179 210.044 227.756 209.701 228.133C209.359 228.51 208.879 228.631 208.261 228.497C207.639 228.361 207.251 228.051 207.096 227.566C206.941 227.081 206.948 226.45 207.117 225.672ZM209.869 226.271C209.953 225.884 209.998 225.552 210.002 225.274C210.012 224.992 209.955 224.752 209.831 224.553C209.711 224.354 209.503 224.223 209.205 224.158C208.903 224.092 208.654 224.124 208.458 224.254C208.267 224.385 208.115 224.58 208.003 224.839C207.896 225.095 207.801 225.416 207.717 225.803C207.63 226.202 207.581 226.543 207.571 226.825C207.565 227.107 207.622 227.348 207.742 227.546C207.866 227.745 208.079 227.878 208.382 227.943C208.679 228.008 208.924 227.975 209.115 227.845C209.311 227.715 209.462 227.52 209.57 227.26C209.682 227 209.782 226.671 209.869 226.271ZM213.044 225.07L213.165 224.517L214.418 224.79L213.37 229.608L212.756 229.474L213.684 225.209L213.044 225.07ZM214.365 228.701L214.465 228.241L217.508 225.511L218.235 225.669L217.545 228.841L218.211 228.986L218.097 229.512L217.43 229.367L217.197 230.44L216.597 230.31L216.831 229.237L214.365 228.701ZM217.524 226.177L215.179 228.326L216.972 228.716L217.524 226.177ZM218.62 230.792C218.505 230.767 218.416 230.705 218.353 230.608C218.291 230.511 218.272 230.404 218.297 230.289C218.322 230.173 218.383 230.084 218.481 230.022C218.578 229.959 218.685 229.94 218.8 229.965C218.911 229.99 218.996 230.05 219.054 230.146C219.117 230.244 219.135 230.35 219.11 230.466C219.085 230.581 219.024 230.67 218.926 230.733C218.833 230.796 218.731 230.816 218.62 230.792ZM219.241 227.94C219.125 227.914 219.036 227.853 218.974 227.756C218.911 227.658 218.892 227.552 218.918 227.436C218.943 227.321 219.004 227.232 219.101 227.169C219.199 227.107 219.305 227.088 219.421 227.113C219.532 227.137 219.616 227.198 219.674 227.294C219.737 227.391 219.756 227.498 219.731 227.613C219.705 227.729 219.644 227.818 219.547 227.88C219.454 227.944 219.352 227.964 219.241 227.94ZM219.708 229.863L219.808 229.403L222.852 226.673L223.578 226.831L222.888 230.003L223.555 230.148L223.44 230.675L222.774 230.53L222.54 231.603L221.94 231.472L222.174 230.399L219.708 229.863ZM222.867 227.339L220.522 229.489L222.315 229.878L222.867 227.339ZM227.685 228.227L225.346 227.718L225.015 229.237C225.148 229.118 225.325 229.035 225.544 228.989C225.764 228.94 225.99 228.94 226.221 228.99C226.589 229.07 226.872 229.213 227.07 229.419C227.268 229.62 227.389 229.854 227.434 230.119C227.484 230.382 227.479 230.648 227.42 230.919C227.351 231.239 227.228 231.513 227.053 231.74C226.878 231.967 226.651 232.127 226.37 232.219C226.094 232.313 225.773 232.32 225.409 232.241C224.942 232.139 224.591 231.937 224.354 231.634C224.118 231.332 224.012 230.973 224.037 230.56L224.63 230.689C224.632 230.955 224.712 231.179 224.867 231.362C225.023 231.545 225.243 231.667 225.527 231.729C225.878 231.805 226.165 231.758 226.388 231.588C226.613 231.414 226.762 231.153 226.838 230.806C226.913 230.46 226.882 230.174 226.745 229.949C226.609 229.719 226.368 229.567 226.021 229.491C225.786 229.44 225.566 229.453 225.364 229.53C225.166 229.603 225.006 229.729 224.884 229.907L224.311 229.782L224.902 227.063L227.801 227.694L227.685 228.227Z" fill="black"/>
</g>
</g>
<g filter="url(#filter3_d_476_675)">
<rect x="327.785" y="188.977" width="144.23" height="81.091" rx="4.33311" transform="rotate(12.272 327.785 188.977)" fill="#E1E1E1"/>
</g>
<g filter="url(#filter4_bd_476_675)">
<rect x="55.502" y="86.4895" width="79.4128" height="77.5303" rx="10.0373" transform="rotate(-9.21384 55.502 86.4895)" fill="white" fill-opacity="0.76" shape-rendering="crispEdges"/>
<g clip-path="url(#clip1_476_675)">
<path fill-rule="evenodd" clip-rule="evenodd" d="M105.32 120.947L112.112 124.135C112.775 124.446 113.05 125.258 112.747 125.904C112.434 126.57 111.663 126.867 110.98 126.547L104.073 123.305C103.444 123.886 102.623 124.27 101.704 124.348C99.5044 124.535 97.5699 122.903 97.383 120.704C97.2356 118.97 98.2184 117.401 99.7187 116.722L98.6849 104.558C98.6221 103.82 99.187 103.169 99.8987 103.108C100.632 103.046 101.279 103.614 101.34 104.332L102.374 116.497C103.967 116.912 105.2 118.293 105.348 120.027C105.374 120.34 105.364 120.649 105.32 120.947ZM103.509 145.587C117.439 144.403 127.771 132.151 126.587 118.222C125.403 104.292 113.151 93.9597 99.2218 95.1436C85.2922 96.3274 74.9597 108.579 76.1436 122.509C77.3274 136.439 89.5793 146.771 103.509 145.587Z" fill="#2F2A2A"/>
</g>
</g>
<g filter="url(#filter5_bd_476_675)">
<rect x="263" y="253" width="243.429" height="170.22" rx="16.0944" transform="rotate(-23.3156 263 253)" fill="white" fill-opacity="0.43" shape-rendering="crispEdges"/>
</g>
<defs>
<filter id="filter0_d_476_675" x="70.0605" y="6.70055" width="454.764" height="342.89" filterUnits="userSpaceOnUse" color-interpolation-filters="sRGB">
<feFlood flood-opacity="0" result="BackgroundImageFix"/>
<feColorMatrix in="SourceAlpha" type="matrix" values="0 0 0 0 0 0 0 0 0 0 0 0 0 0 0 0 0 0 127 0" result="hardAlpha"/>
<feOffset dy="2.47606"/>
<feGaussianBlur stdDeviation="6"/>
<feComposite in2="hardAlpha" operator="out"/>
<feColorMatrix type="matrix" values="0 0 0 0 0 0 0 0 0 0 0 0 0 0 0 0 0 0 0.29 0"/>
<feBlend mode="normal" in2="BackgroundImageFix" result="effect1_dropShadow_476_675"/>
<feBlend mode="normal" in="SourceGraphic" in2="effect1_dropShadow_476_675" result="shape"/>
</filter>
<filter id="filter1_d_476_675" x="128.617" y="117.098" width="349.32" height="103.206" filterUnits="userSpaceOnUse" color-interpolation-filters="sRGB">
<feFlood flood-opacity="0" result="BackgroundImageFix"/>
<feColorMatrix in="SourceAlpha" type="matrix" values="0 0 0 0 0 0 0 0 0 0 0 0 0 0 0 0 0 0 127 0" result="hardAlpha"/>
<feOffset dy="2.47606"/>
<feGaussianBlur stdDeviation="1.51659"/>
<feComposite in2="hardAlpha" operator="out"/>
<feColorMatrix type="matrix" values="0 0 0 0 0 0 0 0 0 0 0 0 0 0 0 0 0 0 0.08 0"/>
<feBlend mode="normal" in2="BackgroundImageFix" result="effect1_dropShadow_476_675"/>
<feBlend mode="normal" in="SourceGraphic" in2="effect1_dropShadow_476_675" result="shape"/>
</filter>
<filter id="filter2_d_476_675" x="110.615" y="145.96" width="212.052" height="125.621" filterUnits="userSpaceOnUse" color-interpolation-filters="sRGB">
<feFlood flood-opacity="0" result="BackgroundImageFix"/>
<feColorMatrix in="SourceAlpha" type="matrix" values="0 0 0 0 0 0 0 0 0 0 0 0 0 0 0 0 0 0 127 0" result="hardAlpha"/>
<feOffset dy="2.47606"/>
<feGaussianBlur stdDeviation="1.39278"/>
<feComposite in2="hardAlpha" operator="out"/>
<feColorMatrix type="matrix" values="0 0 0 0 0 0 0 0 0 0 0 0 0 0 0 0 0 0 0.12 0"/>
<feBlend mode="normal" in2="BackgroundImageFix" result="effect1_dropShadow_476_675"/>
<feBlend mode="normal" in="SourceGraphic" in2="effect1_dropShadow_476_675" result="shape"/>
</filter>
<filter id="filter3_d_476_675" x="308.586" y="189.489" width="162.098" height="113.824" filterUnits="userSpaceOnUse" color-interpolation-filters="sRGB">
<feFlood flood-opacity="0" result="BackgroundImageFix"/>
<feColorMatrix in="SourceAlpha" type="matrix" values="0 0 0 0 0 0 0 0 0 0 0 0 0 0 0 0 0 0 127 0" result="hardAlpha"/>
<feOffset dy="2.47606"/>
<feGaussianBlur stdDeviation="1.39278"/>
<feComposite in2="hardAlpha" operator="out"/>
<feColorMatrix type="matrix" values="0 0 0 0 0 0 0 0 0 0 0 0 0 0 0 0 0 0 0.12 0"/>
<feBlend mode="normal" in2="BackgroundImageFix" result="effect1_dropShadow_476_675"/>
<feBlend mode="normal" in="SourceGraphic" in2="effect1_dropShadow_476_675" result="shape"/>
</filter>
<filter id="filter4_bd_476_675" x="45.1025" y="64.9187" width="111.602" height="110.044" filterUnits="userSpaceOnUse" color-interpolation-filters="sRGB">
<feFlood flood-opacity="0" result="BackgroundImageFix"/>
<feGaussianBlur in="BackgroundImageFix" stdDeviation="2.29701"/>
<feComposite in2="SourceAlpha" operator="in" result="effect1_backgroundBlur_476_675"/>
<feColorMatrix in="SourceAlpha" type="matrix" values="0 0 0 0 0 0 0 0 0 0 0 0 0 0 0 0 0 0 127 0" result="hardAlpha"/>
<feOffset dy="1.54421"/>
<feGaussianBlur stdDeviation="5.19973"/>
<feComposite in2="hardAlpha" operator="out"/>
<feColorMatrix type="matrix" values="0 0 0 0 0 0 0 0 0 0 0 0 0 0 0 0 0 0 0.42 0"/>
<feBlend mode="normal" in2="effect1_backgroundBlur_476_675" result="effect2_dropShadow_476_675"/>
<feBlend mode="normal" in="SourceGraphic" in2="effect2_dropShadow_476_675" result="shape"/>
</filter>
<filter id="filter5_bd_476_675" x="246.658" y="142.786" width="323.606" height="285.352" filterUnits="userSpaceOnUse" color-interpolation-filters="sRGB">
<feFlood flood-opacity="0" result="BackgroundImageFix"/>
<feGaussianBlur in="BackgroundImageFix" stdDeviation="3.68314"/>
<feComposite in2="SourceAlpha" operator="in" result="effect1_backgroundBlur_476_675"/>
<feColorMatrix in="SourceAlpha" type="matrix" values="0 0 0 0 0 0 0 0 0 0 0 0 0 0 0 0 0 0 127 0" result="hardAlpha"/>
<feMorphology radius="3.09507" operator="dilate" in="SourceAlpha" result="effect2_dropShadow_476_675"/>
<feOffset dy="2.47606"/>
<feGaussianBlur stdDeviation="6.62346"/>
<feComposite in2="hardAlpha" operator="out"/>
<feColorMatrix type="matrix" values="0 0 0 0 0 0 0 0 0 0 0 0 0 0 0 0 0 0 0.25 0"/>
<feBlend mode="normal" in2="effect1_backgroundBlur_476_675" result="effect2_dropShadow_476_675"/>
<feBlend mode="normal" in="SourceGraphic" in2="effect2_dropShadow_476_675" result="shape"/>
</filter>
<clipPath id="clip0_476_675">
<rect x="130.557" y="146.27" width="193.752" height="80.7113" rx="4.33311" transform="rotate(12.272 130.557 146.27)" fill="white"/>
</clipPath>
<clipPath id="clip1_476_675">
<rect width="50.6255" height="50.6255" fill="white" transform="translate(74 97.2871) rotate(-4.85779)"/>
</clipPath>
</defs>
</svg>
