<svg width="620" height="592" viewBox="0 0 620 592" fill="none" xmlns="http://www.w3.org/2000/svg">
<g filter="url(#filter0_d_498_671)">
<path d="M132.458 107.46C132.458 95.9919 134.939 85.7923 139.901 76.8607C144.863 67.8189 151.755 60.817 160.576 55.855C169.508 50.7828 179.597 48.2467 190.844 48.2467C204.627 48.2467 216.426 51.8854 226.24 59.163C236.053 66.4406 242.614 76.3645 245.922 88.9349H214.827C212.511 84.0832 209.203 80.3893 204.903 77.8531C200.713 75.317 195.916 74.049 190.513 74.049C181.802 74.049 174.745 77.0813 169.342 83.1459C163.939 89.2106 161.238 97.3151 161.238 107.46C161.238 117.604 163.939 125.709 169.342 131.773C174.745 137.838 181.802 140.87 190.513 140.87C195.916 140.87 200.713 139.602 204.903 137.066C209.203 134.53 212.511 130.836 214.827 125.984H245.922C242.614 138.555 236.053 148.479 226.24 155.756C216.426 162.924 204.627 166.507 190.844 166.507C179.597 166.507 169.508 164.026 160.576 159.064C151.755 153.992 144.863 146.99 139.901 138.058C134.939 129.127 132.458 118.927 132.458 107.46ZM281.602 43.2847V165.68H253.319V43.2847H281.602ZM383.309 73.3874V165.68H355.026V153.11C352.159 157.19 348.245 160.498 343.283 163.034C338.431 165.46 333.028 166.673 327.074 166.673C320.017 166.673 313.787 165.129 308.384 162.041C302.981 158.844 298.79 154.268 295.813 148.313C292.836 142.359 291.347 135.357 291.347 127.308V73.3874H319.465V123.503C319.465 129.678 321.064 134.475 324.262 137.893C327.46 141.311 331.76 143.02 337.163 143.02C342.676 143.02 347.032 141.311 350.23 137.893C353.427 134.475 355.026 129.678 355.026 123.503V73.3874H383.309ZM421.985 86.4539C424.631 82.1535 428.435 78.6801 433.397 76.0337C438.359 73.3874 444.038 72.0642 450.433 72.0642C458.042 72.0642 464.933 73.9938 471.108 77.8531C477.283 81.7125 482.135 87.2258 485.663 94.3931C489.302 101.56 491.121 109.885 491.121 119.368C491.121 128.851 489.302 137.231 485.663 144.509C482.135 151.676 477.283 157.245 471.108 161.214C464.933 165.074 458.042 167.003 450.433 167.003C443.927 167.003 438.249 165.735 433.397 163.199C428.545 160.553 424.741 157.079 421.985 152.779V165.68H393.701V43.2847H421.985V86.4539ZM462.342 119.368C462.342 112.311 460.357 106.798 456.388 102.828C452.528 98.7486 447.732 96.7087 441.998 96.7087C436.374 96.7087 431.578 98.7486 427.608 102.828C423.749 106.908 421.819 112.477 421.819 119.534C421.819 126.591 423.749 132.159 427.608 136.239C431.578 140.319 436.374 142.359 441.998 142.359C447.621 142.359 452.418 140.319 456.388 136.239C460.357 132.049 462.342 126.425 462.342 119.368Z" fill="#5A62FF"/>
</g>
<g filter="url(#filter1_d_498_671)">
<path d="M70.2662 344.349C61.7757 344.349 54.1673 342.97 47.4411 340.214C40.7148 337.457 35.3118 333.377 31.2319 327.974C27.2624 322.571 25.1673 316.065 24.9468 308.457H55.0494C55.4905 312.757 56.9791 316.065 59.5152 318.381C62.0514 320.586 65.3593 321.689 69.4392 321.689C73.6293 321.689 76.9373 320.752 79.3631 318.877C81.789 316.892 83.0019 314.191 83.0019 310.773C83.0019 307.906 82.0095 305.535 80.0247 303.66C78.1502 301.786 75.7795 300.242 72.9126 299.029C70.1559 297.816 66.1863 296.438 61.0038 294.894C53.5057 292.579 47.3859 290.263 42.6445 287.948C37.9031 285.632 33.8232 282.214 30.4049 277.693C26.9867 273.172 25.2776 267.273 25.2776 259.995C25.2776 249.189 29.192 240.754 37.0209 234.689C44.8498 228.514 55.0494 225.427 67.6198 225.427C80.4107 225.427 90.7206 228.514 98.5495 234.689C106.378 240.754 110.568 249.244 111.12 260.16H80.5209C80.3004 256.411 78.9221 253.489 76.386 251.394C73.8498 249.189 70.597 248.086 66.6274 248.086C63.2091 248.086 60.4525 249.024 58.3574 250.898C56.2624 252.662 55.2148 255.254 55.2148 258.672C55.2148 262.421 56.9791 265.343 60.5076 267.438C64.0361 269.533 69.5495 271.794 77.0476 274.219C84.5457 276.756 90.6103 279.181 95.2415 281.497C99.9829 283.813 104.063 287.176 107.481 291.586C110.899 295.997 112.608 301.676 112.608 308.622C112.608 315.238 110.899 321.248 107.481 326.651C104.173 332.054 99.3213 336.354 92.9259 339.552C86.5304 342.75 78.9772 344.349 70.2662 344.349ZM162.102 344.514C153.06 344.514 144.9 342.584 137.622 338.725C130.455 334.866 124.776 329.353 120.586 322.185C116.506 315.018 114.467 306.638 114.467 297.045C114.467 287.562 116.562 279.237 120.752 272.069C124.942 264.792 130.676 259.223 137.953 255.364C145.231 251.505 153.391 249.575 162.432 249.575C171.474 249.575 179.634 251.505 186.911 255.364C194.189 259.223 199.923 264.792 204.113 272.069C208.303 279.237 210.398 287.562 210.398 297.045C210.398 306.527 208.248 314.908 203.948 322.185C199.757 329.353 193.968 334.866 186.581 338.725C179.303 342.584 171.143 344.514 162.102 344.514ZM162.102 320.035C167.505 320.035 172.081 318.05 175.83 314.081C179.689 310.111 181.619 304.432 181.619 297.045C181.619 289.657 179.744 283.978 175.995 280.008C172.356 276.039 167.835 274.054 162.432 274.054C156.919 274.054 152.343 276.039 148.704 280.008C145.065 283.868 143.246 289.546 143.246 297.045C143.246 304.432 145.01 310.111 148.539 314.081C152.178 318.05 156.699 320.035 162.102 320.035ZM209.855 297.045C209.855 287.451 211.785 279.071 215.644 271.904C219.614 264.737 225.072 259.223 232.019 255.364C239.076 251.505 247.125 249.575 256.167 249.575C267.745 249.575 277.393 252.607 285.112 258.672C292.941 264.737 298.068 273.282 300.494 284.309H270.392C267.855 277.252 262.949 273.723 255.671 273.723C250.489 273.723 246.354 275.763 243.266 279.843C240.179 283.813 238.635 289.546 238.635 297.045C238.635 304.543 240.179 310.332 243.266 314.411C246.354 318.381 250.489 320.366 255.671 320.366C262.949 320.366 267.855 316.837 270.392 309.78H300.494C298.068 320.586 292.941 329.077 285.112 335.252C277.283 341.427 267.635 344.514 256.167 344.514C247.125 344.514 239.076 342.584 232.019 338.725C225.072 334.866 219.614 329.353 215.644 322.185C211.785 315.018 209.855 306.638 209.855 297.045ZM319.924 241.305C314.962 241.305 310.882 239.871 307.684 237.005C304.597 234.027 303.053 230.389 303.053 226.088C303.053 221.678 304.597 218.039 307.684 215.172C310.882 212.195 314.962 210.706 319.924 210.706C324.775 210.706 328.745 212.195 331.832 215.172C335.03 218.039 336.629 221.678 336.629 226.088C336.629 230.389 335.03 234.027 331.832 237.005C328.745 239.871 324.775 241.305 319.924 241.305ZM333.982 250.898V343.191H305.699V250.898H333.982ZM338.932 296.879C338.932 287.396 340.696 279.071 344.224 271.904C347.863 264.737 352.77 259.223 358.945 255.364C365.12 251.505 372.011 249.575 379.62 249.575C386.125 249.575 391.804 250.898 396.656 253.544C401.618 256.191 405.422 259.664 408.068 263.965V250.898H436.352V343.191H408.068V330.124C405.312 334.425 401.452 337.898 396.49 340.545C391.639 343.191 385.96 344.514 379.454 344.514C371.956 344.514 365.12 342.584 358.945 338.725C352.77 334.756 347.863 329.187 344.224 322.02C340.696 314.742 338.932 306.362 338.932 296.879ZM408.068 297.045C408.068 289.987 406.084 284.419 402.114 280.339C398.255 276.259 393.513 274.219 387.89 274.219C382.266 274.219 377.47 276.259 373.5 280.339C369.641 284.309 367.711 289.822 367.711 296.879C367.711 303.936 369.641 309.56 373.5 313.75C377.47 317.83 382.266 319.87 387.89 319.87C393.513 319.87 398.255 317.83 402.114 313.75C406.084 309.67 408.068 304.102 408.068 297.045ZM475.173 220.795V343.191H446.889V220.795H475.173ZM561.333 227.081V249.74H514.029V274.219H549.424V296.218H514.029V343.191H485.745V227.081H561.333ZM594.557 227.081V343.191H566.274V227.081H594.557Z" fill="#5A62FF"/>
</g>
<g filter="url(#filter2_d_498_671)">
<path d="M214.281 404.591V427.251H183.517V520.702H155.234V427.251H124.47V404.591H214.281ZM305.552 473.067C305.552 475.713 305.387 478.47 305.056 481.337H241.046C241.487 487.07 243.307 491.481 246.505 494.569C249.813 497.546 253.837 499.034 258.579 499.034C265.636 499.034 270.543 496.057 273.299 490.103H303.402C301.858 496.167 299.046 501.626 294.967 506.477C290.997 511.329 285.98 515.133 279.915 517.89C273.851 520.647 267.069 522.025 259.571 522.025C250.529 522.025 242.48 520.095 235.423 516.236C228.366 512.377 222.852 506.863 218.883 499.696C214.913 492.529 212.928 484.148 212.928 474.555C212.928 464.962 214.858 456.582 218.717 449.415C222.687 442.247 228.2 436.734 235.257 432.875C242.314 429.015 250.419 427.086 259.571 427.086C268.503 427.086 276.442 428.96 283.389 432.709C290.335 436.458 295.738 441.806 299.598 448.753C303.567 455.7 305.552 463.804 305.552 473.067ZM276.607 465.624C276.607 460.772 274.953 456.913 271.645 454.046C268.337 451.179 264.202 449.745 259.24 449.745C254.499 449.745 250.474 451.124 247.166 453.88C243.968 456.637 241.984 460.551 241.212 465.624H276.607ZM304.925 474.555C304.925 464.962 306.855 456.582 310.714 449.415C314.684 442.247 320.142 436.734 327.089 432.875C334.146 429.015 342.195 427.086 351.237 427.086C362.815 427.086 372.463 430.118 380.182 436.183C388.011 442.247 393.138 450.793 395.564 461.82H365.462C362.925 454.762 358.019 451.234 350.741 451.234C345.558 451.234 341.424 453.274 338.336 457.354C335.249 461.323 333.705 467.057 333.705 474.555C333.705 482.053 335.249 487.842 338.336 491.922C341.424 495.892 345.558 497.877 350.741 497.877C358.019 497.877 362.925 494.348 365.462 487.291H395.564C393.138 498.097 388.011 506.588 380.182 512.762C372.353 518.937 362.705 522.025 351.237 522.025C342.195 522.025 334.146 520.095 327.089 516.236C320.142 512.377 314.684 506.863 310.714 499.696C306.855 492.529 304.925 484.148 304.925 474.555ZM457.501 427.416C468.087 427.416 476.577 430.945 482.973 438.002C489.368 444.949 492.566 454.542 492.566 466.781V520.702H464.448V470.586C464.448 464.411 462.849 459.614 459.651 456.196C456.454 452.778 452.153 451.069 446.75 451.069C441.347 451.069 437.047 452.778 433.849 456.196C430.651 459.614 429.052 464.411 429.052 470.586V520.702H400.769V398.306H429.052V440.814C431.919 436.734 435.834 433.481 440.796 431.055C445.758 428.629 451.326 427.416 457.501 427.416Z" fill="#5A62FF"/>
</g>
<g filter="url(#filter3_d_498_671)">
<path d="M440.207 59.7552C437.95 62.0283 437.964 65.7001 440.237 67.9565C442.51 70.213 446.182 70.1995 448.438 67.9265L440.207 59.7552ZM529.565 195.354C530.274 198.478 533.381 200.435 536.504 199.726L587.402 188.17C590.526 187.461 592.483 184.354 591.774 181.23C591.064 178.107 587.958 176.15 584.834 176.859L539.592 187.131L529.32 141.889C528.611 138.765 525.504 136.808 522.381 137.517C519.257 138.226 517.3 141.333 518.009 144.456L529.565 195.354ZM448.438 67.9265C479.272 36.866 504.047 23.0384 522.33 20.4225C531.325 19.1355 538.658 20.566 544.558 23.8788C550.493 27.211 555.42 32.6984 559.124 40.243C566.607 55.4842 568.734 78.4648 564.155 105.353C559.6 132.099 548.502 162.106 530.314 190.979L540.127 197.161C559.085 167.067 570.764 135.631 575.589 107.301C580.389 79.1138 578.498 53.3867 569.536 35.1316C565.017 25.9281 558.616 18.4701 550.236 13.7654C541.822 9.04109 531.856 7.34292 520.687 8.94092C498.644 12.095 471.638 28.0923 440.207 59.7552L448.438 67.9265Z" fill="#FCBC03"/>
</g>
<g filter="url(#filter4_d_498_671)">
<path d="M34.8453 482.989C35.2028 486.174 38.0747 488.466 41.2599 488.109C44.4451 487.751 46.7374 484.879 46.3799 481.694L34.8453 482.989ZM197.583 521.377C198.216 518.235 196.183 515.174 193.041 514.541L141.84 504.216C138.698 503.582 135.638 505.616 135.004 508.758C134.37 511.9 136.404 514.96 139.546 515.594L185.058 524.772L175.88 570.283C175.246 573.425 177.28 576.486 180.422 577.12C183.564 577.753 186.624 575.72 187.258 572.578L197.583 521.377ZM46.3799 481.694C41.8352 441.202 65.7728 423.979 82.1596 425.8C90.3497 426.71 98.129 432.195 101.67 443.852C105.296 455.792 104.48 474.503 93.7103 500.882L104.456 505.269C115.763 477.574 117.475 455.949 112.776 440.479C107.991 424.725 96.5901 415.726 83.4417 414.264C57.1513 411.342 29.7766 437.827 34.8453 482.989L46.3799 481.694ZM93.7103 500.882C88.0812 514.67 85.1371 525.746 84.6015 534.509C84.0649 543.288 85.9231 550.52 90.8395 555.471C95.7022 560.368 102.434 561.891 109.096 561.833C115.796 561.775 123.263 560.126 130.706 557.734C145.629 552.938 161.774 544.716 174.03 537.815C180.194 534.345 185.446 531.168 189.161 528.856C191.02 527.699 192.496 526.758 193.512 526.102C194.02 525.775 194.414 525.518 194.682 525.342C194.817 525.254 194.92 525.186 194.991 525.139C195.026 525.116 195.054 525.098 195.073 525.085C195.082 525.079 195.09 525.074 195.095 525.07C195.098 525.069 195.101 525.067 195.102 525.066C195.104 525.065 195.105 525.064 191.894 520.23C188.682 515.396 188.683 515.396 188.683 515.396C188.682 515.396 188.681 515.397 188.68 515.398C188.677 515.399 188.672 515.403 188.665 515.407C188.651 515.417 188.629 515.431 188.599 515.451C188.538 515.491 188.446 515.552 188.322 515.633C188.075 515.795 187.705 516.036 187.221 516.348C186.252 516.973 184.829 517.881 183.029 519.001C179.426 521.243 174.322 524.33 168.336 527.701C156.291 534.482 140.954 542.249 127.155 546.683C120.238 548.906 114.034 550.183 108.995 550.227C103.918 550.271 100.844 549.073 99.0754 547.292C97.3606 545.565 95.7623 542.163 96.1869 535.217C96.6123 528.257 99.0468 518.519 104.456 505.269L93.7103 500.882Z" fill="#FCBC03"/>
</g>
<g filter="url(#filter5_bd_498_671)">
<ellipse cx="53.4524" cy="53.8767" rx="53.4524" ry="53.8767" transform="matrix(0.988426 -0.151706 0.125883 0.992045 402.83 312.575)" fill="white" fill-opacity="0.7" shape-rendering="crispEdges"/>
</g>
<path fill-rule="evenodd" clip-rule="evenodd" d="M466.435 346.772C464.97 348.627 462.482 349.679 460.118 349.62C458.081 349.224 455.186 350.629 453.141 353.218C451.129 355.766 450.209 358.791 450.97 360.608C451.507 362.759 450.956 365.338 449.515 367.162C447.285 369.986 443.238 370.607 440.475 368.55C437.713 366.493 437.281 362.537 439.51 359.714C441.141 357.649 444.028 356.402 446.542 356.687L446.552 356.674C448.515 356.731 451.027 355.407 452.881 353.059C454.88 350.528 455.554 347.949 454.761 346.28L454.761 346.28C453.741 343.994 454.205 341.031 455.878 338.912C458.159 336.024 462.372 335.442 465.287 337.612C468.202 339.782 468.716 343.883 466.435 346.772Z" fill="#4385F5"/>
<path fill-rule="evenodd" clip-rule="evenodd" d="M486.282 361.559C484.821 363.41 482.34 364.461 479.98 364.407C477.943 364.004 475.041 365.41 472.994 368.003C470.992 370.537 470.071 373.542 470.809 375.362C471.36 377.52 470.811 380.115 469.362 381.949C467.133 384.772 463.086 385.393 460.323 383.336C457.56 381.279 457.128 377.323 459.358 374.5C460.989 372.435 463.876 371.189 466.39 371.474L466.4 371.461C468.363 371.518 470.875 370.194 472.729 367.845C474.728 365.315 475.402 362.736 474.609 361.067L474.609 361.066C473.588 358.781 474.053 355.817 475.726 353.699C478.007 350.811 482.219 350.228 485.135 352.399C488.05 354.569 488.563 358.67 486.282 361.559Z" fill="#FCBC03"/>
<ellipse cx="6.82318" cy="6.63186" rx="6.82318" ry="6.63186" transform="matrix(0.988425 -0.151706 0.108608 0.994085 435.508 340.046)" fill="#EA4235"/>
<ellipse cx="6.82318" cy="6.63186" rx="6.82318" ry="6.63186" transform="matrix(0.988425 -0.151706 0.108608 0.994085 471.385 334.538)" fill="#109D59"/>
<ellipse cx="6.82318" cy="6.63186" rx="6.82318" ry="6.63186" transform="matrix(0.988425 -0.151706 0.108608 0.994085 475.221 369.61)" fill="#EA4235"/>
<path fill-rule="evenodd" clip-rule="evenodd" d="M468.263 364.326C466.814 366.16 464.366 367.209 462.025 367.175C460.013 366.701 457.158 368.007 455.091 370.624C453.045 373.215 452.011 376.351 452.801 378.176C453.332 380.324 452.781 382.896 451.343 384.717C449.113 387.54 445.066 388.161 442.304 386.104C439.541 384.047 439.109 380.091 441.338 377.268C442.719 375.519 445.002 374.357 447.195 374.216C447.548 374.265 447.926 374.271 448.321 374.236C448.337 374.238 448.354 374.239 448.37 374.241L448.379 374.23C450.386 374.033 452.801 372.779 454.452 370.688C456.44 368.17 457.27 365.561 456.558 363.873L456.589 363.834C455.569 361.548 456.034 358.585 457.706 356.467C459.988 353.578 464.2 352.996 467.115 355.166C470.03 357.337 470.544 361.438 468.263 364.326Z" fill="#109D59"/>
<g filter="url(#filter6_bd_498_671)">
<path d="M111.676 13.0018C105.083 45.0582 103.682 61.6853 103.832 89.7896" stroke="#FCBC03" stroke-width="12.34" stroke-linecap="round"/>
<path d="M85.4081 65.1923C117.333 72.3937 133.931 74.1105 162.033 74.495" stroke="#FCBC03" stroke-width="12.34" stroke-linecap="round"/>
<path d="M148.645 13.12C136.926 49.1271 135.344 61.9584 140.8 89.9078" stroke="#FCBC03" stroke-width="12.34" stroke-linecap="round"/>
<path d="M86.2264 28.2333C122.004 40.6348 134.803 42.4597 162.851 37.536" stroke="#FCBC03" stroke-width="12.34" stroke-linecap="round"/>
</g>
<g filter="url(#filter7_bd_498_671)">
<ellipse cx="189.085" cy="229.197" rx="55.7817" ry="51.4923" transform="rotate(10.5479 189.085 229.197)" fill="white" fill-opacity="0.59"/>
<ellipse cx="191.614" cy="214.111" rx="8.1702" ry="7.54194" transform="rotate(10.5479 191.614 214.111)" fill="#EA4235"/>
<path d="M171.823 247.388C178.054 213.928 205.707 221.385 198.021 252.266" stroke="#635656" stroke-width="3.29053" stroke-linecap="round"/>
<ellipse cx="211.341" cy="217.778" rx="8.1702" ry="7.54194" transform="rotate(10.5479 211.341 217.778)" fill="#109D59"/>
<ellipse cx="8.1702" cy="7.54194" rx="8.1702" ry="7.54194" transform="matrix(-0.983102 -0.183057 -0.183056 0.983102 180.613 204.389)" fill="#FCBC03"/>
<path d="M198.142 233.807C203.801 223.702 225.414 225.054 217.728 255.935" stroke="#635656" stroke-width="3.29053" stroke-linecap="round"/>
<path d="M177.734 230.005C176.091 218.54 155.44 212.023 151.496 243.601" stroke="#635656" stroke-width="3.29053" stroke-linecap="round"/>
</g>
<defs>
<filter id="filter0_d_498_671" x="107.577" y="26.9828" width="408.426" height="173.482" filterUnits="userSpaceOnUse" color-interpolation-filters="sRGB">
<feFlood flood-opacity="0" result="BackgroundImageFix"/>
<feColorMatrix in="SourceAlpha" type="matrix" values="0 0 0 0 0 0 0 0 0 0 0 0 0 0 0 0 0 0 127 0" result="hardAlpha"/>
<feOffset dy="8.57992"/>
<feGaussianBlur stdDeviation="12.4409"/>
<feComposite in2="hardAlpha" operator="out"/>
<feColorMatrix type="matrix" values="0 0 0 0 0 0 0 0 0 0 0 0 0 0 0 0 0 0 0.21 0"/>
<feBlend mode="normal" in2="BackgroundImageFix" result="effect1_dropShadow_498_671"/>
<feBlend mode="normal" in="SourceGraphic" in2="effect1_dropShadow_498_671" result="shape"/>
</filter>
<filter id="filter1_d_498_671" x="0.0654907" y="194.404" width="619.373" height="183.572" filterUnits="userSpaceOnUse" color-interpolation-filters="sRGB">
<feFlood flood-opacity="0" result="BackgroundImageFix"/>
<feColorMatrix in="SourceAlpha" type="matrix" values="0 0 0 0 0 0 0 0 0 0 0 0 0 0 0 0 0 0 127 0" result="hardAlpha"/>
<feOffset dy="8.57992"/>
<feGaussianBlur stdDeviation="12.4409"/>
<feComposite in2="hardAlpha" operator="out"/>
<feColorMatrix type="matrix" values="0 0 0 0 0 0 0 0 0 0 0 0 0 0 0 0 0 0 0.21 0"/>
<feBlend mode="normal" in2="BackgroundImageFix" result="effect1_dropShadow_498_671"/>
<feBlend mode="normal" in="SourceGraphic" in2="effect1_dropShadow_498_671" result="shape"/>
</filter>
<filter id="filter2_d_498_671" x="99.587" y="382.004" width="417.861" height="173.482" filterUnits="userSpaceOnUse" color-interpolation-filters="sRGB">
<feFlood flood-opacity="0" result="BackgroundImageFix"/>
<feColorMatrix in="SourceAlpha" type="matrix" values="0 0 0 0 0 0 0 0 0 0 0 0 0 0 0 0 0 0 127 0" result="hardAlpha"/>
<feOffset dy="8.57992"/>
<feGaussianBlur stdDeviation="12.4409"/>
<feComposite in2="hardAlpha" operator="out"/>
<feColorMatrix type="matrix" values="0 0 0 0 0 0 0 0 0 0 0 0 0 0 0 0 0 0 0.21 0"/>
<feBlend mode="normal" in2="BackgroundImageFix" result="effect1_dropShadow_498_671"/>
<feBlend mode="normal" in="SourceGraphic" in2="effect1_dropShadow_498_671" result="shape"/>
</filter>
<filter id="filter3_d_498_671" x="431.531" y="8.35596" width="167.379" height="205.499" filterUnits="userSpaceOnUse" color-interpolation-filters="sRGB">
<feFlood flood-opacity="0" result="BackgroundImageFix"/>
<feColorMatrix in="SourceAlpha" type="matrix" values="0 0 0 0 0 0 0 0 0 0 0 0 0 0 0 0 0 0 127 0" result="hardAlpha"/>
<feOffset dy="6.99218"/>
<feGaussianBlur stdDeviation="3.49609"/>
<feComposite in2="hardAlpha" operator="out"/>
<feColorMatrix type="matrix" values="0 0 0 0 0 0 0 0 0 0 0 0 0 0 0 0 0 0 0.02 0"/>
<feBlend mode="normal" in2="BackgroundImageFix" result="effect1_dropShadow_498_671"/>
<feBlend mode="normal" in="SourceGraphic" in2="effect1_dropShadow_498_671" result="shape"/>
</filter>
<filter id="filter4_d_498_671" x="27.2422" y="414.045" width="177.449" height="177.175" filterUnits="userSpaceOnUse" color-interpolation-filters="sRGB">
<feFlood flood-opacity="0" result="BackgroundImageFix"/>
<feColorMatrix in="SourceAlpha" type="matrix" values="0 0 0 0 0 0 0 0 0 0 0 0 0 0 0 0 0 0 127 0" result="hardAlpha"/>
<feOffset dy="6.99218"/>
<feGaussianBlur stdDeviation="3.49609"/>
<feComposite in2="hardAlpha" operator="out"/>
<feColorMatrix type="matrix" values="0 0 0 0 0 0 0 0 0 0 0 0 0 0 0 0 0 0 0.18 0"/>
<feBlend mode="normal" in2="BackgroundImageFix" result="effect1_dropShadow_498_671"/>
<feBlend mode="normal" in="SourceGraphic" in2="effect1_dropShadow_498_671" result="shape"/>
</filter>
<filter id="filter5_bd_498_671" x="401.989" y="296.998" width="120.915" height="129.353" filterUnits="userSpaceOnUse" color-interpolation-filters="sRGB">
<feFlood flood-opacity="0" result="BackgroundImageFix"/>
<feGaussianBlur in="BackgroundImageFix" stdDeviation="3.42435"/>
<feComposite in2="SourceAlpha" operator="in" result="effect1_backgroundBlur_498_671"/>
<feColorMatrix in="SourceAlpha" type="matrix" values="0 0 0 0 0 0 0 0 0 0 0 0 0 0 0 0 0 0 127 0" result="hardAlpha"/>
<feOffset dy="7.18495"/>
<feGaussianBlur stdDeviation="3.59248"/>
<feComposite in2="hardAlpha" operator="out"/>
<feColorMatrix type="matrix" values="0 0 0 0 0 0 0 0 0 0 0 0 0 0 0 0 0 0 0.25 0"/>
<feBlend mode="normal" in2="effect1_backgroundBlur_498_671" result="effect2_dropShadow_498_671"/>
<feBlend mode="normal" in="SourceGraphic" in2="effect2_dropShadow_498_671" result="shape"/>
</filter>
<filter id="filter6_bd_498_671" x="72.2441" y="-0.161612" width="103.77" height="110.225" filterUnits="userSpaceOnUse" color-interpolation-filters="sRGB">
<feFlood flood-opacity="0" result="BackgroundImageFix"/>
<feGaussianBlur in="BackgroundImageFix" stdDeviation="3.49609"/>
<feComposite in2="SourceAlpha" operator="in" result="effect1_backgroundBlur_498_671"/>
<feColorMatrix in="SourceAlpha" type="matrix" values="0 0 0 0 0 0 0 0 0 0 0 0 0 0 0 0 0 0 127 0" result="hardAlpha"/>
<feOffset dy="6.99218"/>
<feGaussianBlur stdDeviation="3.49609"/>
<feComposite in2="hardAlpha" operator="out"/>
<feColorMatrix type="matrix" values="0 0 0 0 0 0 0 0 0 0 0 0 0 0 0 0 0 0 0.25 0"/>
<feBlend mode="normal" in2="effect1_backgroundBlur_498_671" result="effect2_dropShadow_498_671"/>
<feBlend mode="normal" in="SourceGraphic" in2="effect2_dropShadow_498_671" result="shape"/>
</filter>
<filter id="filter7_bd_498_671" x="105.498" y="149.61" width="167.176" height="159.176" filterUnits="userSpaceOnUse" color-interpolation-filters="sRGB">
<feFlood flood-opacity="0" result="BackgroundImageFix"/>
<feGaussianBlur in="BackgroundImageFix" stdDeviation="13.968"/>
<feComposite in2="SourceAlpha" operator="in" result="effect1_backgroundBlur_498_671"/>
<feColorMatrix in="SourceAlpha" type="matrix" values="0 0 0 0 0 0 0 0 0 0 0 0 0 0 0 0 0 0 127 0" result="hardAlpha"/>
<feOffset dy="5.73044"/>
<feGaussianBlur stdDeviation="2.86522"/>
<feComposite in2="hardAlpha" operator="out"/>
<feColorMatrix type="matrix" values="0 0 0 0 0 0 0 0 0 0 0 0 0 0 0 0 0 0 0.25 0"/>
<feBlend mode="normal" in2="effect1_backgroundBlur_498_671" result="effect2_dropShadow_498_671"/>
<feBlend mode="normal" in="SourceGraphic" in2="effect2_dropShadow_498_671" result="shape"/>
</filter>
</defs>
</svg>
