<svg width="80" height="79" viewBox="0 0 80 79" fill="none" xmlns="http://www.w3.org/2000/svg">
<g filter="url(#filter0_d_475_574)">
<rect x="6.44531" y="0.512207" width="67.111" height="67.111" rx="33.5555" fill="#109D59"/>
<path fill-rule="evenodd" clip-rule="evenodd" d="M40.8336 21.7854C40.6199 21.6861 40.3871 21.6346 40.1515 21.6346C39.9159 21.6346 39.6831 21.6861 39.4694 21.7854L24.3598 28.8005C24.0802 28.9306 23.8435 29.1379 23.6777 29.3979C23.5119 29.658 23.4238 29.9599 23.4238 30.2683C23.4238 30.5767 23.5119 30.8787 23.6777 31.1387C23.8435 31.3988 24.0802 31.606 24.3598 31.7361L27.4551 33.1737C27.2883 33.4339 27.1998 33.7366 27.2004 34.0457V41.0609C27.2006 41.4206 27.3206 41.7699 27.5414 42.0538L27.5436 42.0582L27.5458 42.0603L27.5522 42.069L27.5695 42.0905C27.64 42.18 27.7141 42.2664 27.7918 42.3496C27.9386 42.5136 28.148 42.7338 28.4221 42.995C28.9704 43.513 29.782 44.1929 30.8656 44.8642C33.0414 46.2155 36.3029 47.5365 40.6911 47.5365C45.088 47.5365 48.1164 46.209 50.0699 44.8038C50.8515 44.2456 51.56 43.5914 52.1788 42.8568C52.4329 42.5512 52.6652 42.2281 52.8738 41.8898L52.8889 41.8639L52.8954 41.8553V41.8509C52.8954 41.8488 52.8976 41.8466 51.4837 41.0609L52.8976 41.8488C53.0316 41.6078 53.1021 41.3367 53.1026 41.0609V34.0457C53.1031 33.7367 53.0146 33.434 52.8479 33.1737L55.9432 31.7361C56.2228 31.606 56.4595 31.3988 56.6253 31.1387C56.7911 30.8787 56.8792 30.5767 56.8792 30.2683C56.8792 29.9599 56.7911 29.658 56.6253 29.3979C56.4595 29.1379 56.2228 28.9306 55.9432 28.8005L40.8336 21.7854ZM49.8648 34.5595L40.8336 38.7513C40.6199 38.8506 40.3871 38.902 40.1515 38.902C39.9159 38.902 39.6831 38.8506 39.4694 38.7513L30.4382 34.5595V40.4371C31.0851 41.0741 31.802 41.636 32.5751 42.1121C34.3106 43.1914 36.985 44.2987 40.6911 44.2987C44.3887 44.2987 46.7566 43.1979 48.1769 42.1747C48.813 41.7215 49.3814 41.1801 49.8648 40.5666V34.5595ZM40.1515 35.4984L28.8862 30.2683L40.1515 25.0382L51.4168 30.2683L40.1515 35.4984Z" fill="white"/>
</g>
<defs>
<filter id="filter0_d_475_574" x="0.919506" y="0.512207" width="78.1629" height="78.1627" filterUnits="userSpaceOnUse" color-interpolation-filters="sRGB">
<feFlood flood-opacity="0" result="BackgroundImageFix"/>
<feColorMatrix in="SourceAlpha" type="matrix" values="0 0 0 0 0 0 0 0 0 0 0 0 0 0 0 0 0 0 127 0" result="hardAlpha"/>
<feOffset dy="5.52581"/>
<feGaussianBlur stdDeviation="2.7629"/>
<feComposite in2="hardAlpha" operator="out"/>
<feColorMatrix type="matrix" values="0 0 0 0 0.0627451 0 0 0 0 0.615686 0 0 0 0 0.34902 0 0 0 0.26 0"/>
<feBlend mode="normal" in2="BackgroundImageFix" result="effect1_dropShadow_475_574"/>
<feBlend mode="normal" in="SourceGraphic" in2="effect1_dropShadow_475_574" result="shape"/>
</filter>
</defs>
</svg>
