<svg width="135" height="134" viewBox="0 0 135 134" fill="none" xmlns="http://www.w3.org/2000/svg">
<path fill-rule="evenodd" clip-rule="evenodd" d="M77.1855 41.9803C74.0568 45.109 69.1799 46.4018 64.7522 45.6058C61.0004 44.2222 55.2418 46.0723 50.8495 50.4646C46.5836 54.7305 44.2332 60.2091 45.2069 63.9325L45.2053 63.9341C45.8204 68.2672 44.2529 73.1338 41.1347 76.2521C36.3561 81.0306 28.6086 81.0306 23.83 76.2521C19.0515 71.4735 19.0515 63.726 23.83 58.9474C27.1956 55.5818 32.5978 54.0228 37.1678 55.0646C37.2601 55.0888 37.3534 55.1112 37.4476 55.1319C37.5295 55.1527 37.6111 55.1743 37.6924 55.1967L37.7051 55.184C41.3873 55.8638 46.3769 54.0547 50.3441 50.0876C54.6197 45.812 56.4216 41.0541 55.2831 37.606L55.3077 37.5815C53.8565 32.8771 55.3416 27.3068 58.9268 23.7216C63.8159 18.8324 71.8667 18.9564 76.9087 23.9984C81.9507 29.0404 82.0746 37.0912 77.1855 41.9803Z" fill="#4385F5"/>
<path fill-rule="evenodd" clip-rule="evenodd" d="M111.529 76.3233C108.401 79.4514 103.525 80.7443 99.0983 79.9493C95.3466 78.564 89.5866 80.414 85.1933 84.8072C80.9273 89.0732 78.5769 94.552 79.5508 98.2754L79.5491 98.2771C80.1641 102.61 78.5967 107.477 75.4784 110.595C70.6999 115.374 62.9523 115.374 58.1738 110.595C53.3952 105.817 53.3952 98.069 58.1738 93.2904C61.5446 89.9196 66.9583 88.361 71.5328 89.4125C71.6119 89.4329 71.6916 89.4521 71.772 89.4701C71.8604 89.4923 71.9485 89.5155 72.0362 89.5398L72.0493 89.5266C75.7317 90.207 80.7219 88.398 84.6895 84.4304C88.9656 80.1543 90.7675 75.3959 89.6282 71.9477L89.6514 71.9245C88.2003 67.2202 89.6853 61.6498 93.2705 58.0646C98.1597 53.1754 106.21 53.2994 111.252 58.3414C116.294 63.3834 116.418 71.4342 111.529 76.3233Z" fill="#FCBC03"/>
<circle cx="33.2868" cy="32.7861" r="12.9109" fill="#EA4235"/>
<circle cx="101.972" cy="32.7861" r="12.9109" fill="#109D59"/>
<circle cx="101.972" cy="101.472" r="12.9109" fill="#EA4235"/>
<path fill-rule="evenodd" clip-rule="evenodd" d="M77.0595 76.3235C73.9608 79.4223 69.1471 80.7201 64.7534 79.9714C61.0631 78.4549 55.413 80.125 50.9787 84.5593C46.6286 88.9093 44.0429 94.5883 45.0878 98.338C45.6797 102.656 44.1124 107.492 41.0087 110.595C36.2301 115.374 28.4826 115.374 23.704 110.595C18.9255 105.817 18.9255 98.0692 23.704 93.2907C26.6632 90.3315 31.1969 88.7689 35.3551 89.1429C36.0123 89.3431 36.7266 89.4675 37.4804 89.5166C37.5091 89.5243 37.5378 89.5321 37.5664 89.54L37.5836 89.5228C41.4037 89.7358 46.2092 88.0343 49.7489 84.4946C54.0103 80.2332 56.1099 75.4523 55.116 71.9904L55.1817 71.9247C53.7306 67.2204 55.2156 61.6501 58.8008 58.0648C63.6899 53.1757 71.7407 53.2996 76.7827 58.3416C81.8247 63.3837 81.9487 71.4344 77.0595 76.3235Z" fill="#109D59"/>
</svg>
