<svg width="230" height="106" viewBox="0 0 230 106" fill="none" xmlns="http://www.w3.org/2000/svg">
<path fill-rule="evenodd" clip-rule="evenodd" d="M62.9659 27.5548C59.7789 30.7419 54.8109 32.0586 50.3006 31.2475C46.4791 29.8391 40.6144 31.7237 36.141 36.1971C31.7961 40.542 29.402 46.1221 30.3935 49.9146L30.3916 49.9165C31.0181 54.3301 29.4216 59.2871 26.2454 62.4633C21.378 67.3306 13.4866 67.3306 8.61924 62.4633C3.75192 57.596 3.75192 49.7045 8.61924 44.8372C12.048 41.4084 17.5519 39.8205 22.2073 40.8828C22.2999 40.907 22.3934 40.9295 22.4878 40.9503C22.5719 40.9716 22.6557 40.9937 22.7392 41.0168L22.7522 41.0038C26.5028 41.6964 31.5853 39.8537 35.6262 35.8127C39.9814 31.4576 41.8168 26.6112 40.6569 23.099L40.6817 23.0743C39.2036 18.2826 40.7162 12.6087 44.368 8.9569C49.348 3.97695 57.5483 4.10319 62.684 9.23887C67.8196 14.3745 67.9459 22.5749 62.9659 27.5548Z" fill="#4385F5"/>
<path fill-rule="evenodd" clip-rule="evenodd" d="M97.9464 62.535C94.7603 65.7212 89.7942 67.0381 85.285 66.2285C81.4636 64.8173 75.5964 66.7016 71.1215 71.1766C66.7764 75.5217 64.3823 81.1021 65.3741 84.8947L65.3721 84.8967C65.9986 89.3103 64.402 94.2673 61.2258 97.4435C56.3585 102.311 48.467 102.311 43.5997 97.4435C38.7324 92.5762 38.7324 84.6847 43.5997 79.8174C47.0358 76.3813 52.5561 74.7939 57.2179 75.8699C57.2909 75.8887 57.3645 75.9064 57.4387 75.923C57.5327 75.9466 57.6264 75.9713 57.7196 75.997L57.7333 75.9833C61.484 76.6759 66.5664 74.8332 70.6073 70.7922C74.9624 66.4371 76.7978 61.5907 75.6381 58.0786L75.6621 58.0545C74.184 53.2628 75.6966 47.589 79.3485 43.9371C84.3284 38.9572 92.5288 39.0834 97.6644 44.2191C102.8 49.3548 102.926 57.5551 97.9464 62.535Z" fill="#FCBC03"/>
<circle cx="18.2513" cy="18.1895" r="13.1507" fill="#EA4235"/>
<circle cx="88.2132" cy="18.1895" r="13.1507" fill="#109D59"/>
<circle cx="88.2132" cy="88.1519" r="13.1507" fill="#EA4235"/>
<path fill-rule="evenodd" clip-rule="evenodd" d="M62.8351 62.535C59.6779 65.6923 54.7729 67.014 50.2965 66.25C46.5376 64.7071 40.784 66.4084 36.2683 70.9241C31.8334 75.3589 29.1988 81.1499 30.2708 84.9691C30.8698 89.3645 29.2733 94.2847 26.1145 97.4435C21.2472 102.311 13.3557 102.311 8.48838 97.4435C3.62106 92.5762 3.62106 84.6847 8.48838 79.8174C11.5028 76.8029 16.1213 75.2113 20.357 75.5926C21.0263 75.7966 21.7536 75.9233 22.5212 75.9733C22.5503 75.9811 22.5793 75.989 22.6083 75.997L22.6257 75.9796C26.517 76.1972 31.4127 74.464 35.0186 70.8581C39.3597 66.517 41.4983 61.6466 40.4851 58.1203L40.5508 58.0545C39.0727 53.2628 40.5853 47.589 44.2372 43.9371C49.2171 38.9572 57.4174 39.0834 62.5531 44.2191C67.6888 49.3548 67.815 57.5551 62.8351 62.535Z" fill="#109D59"/>
<path d="M117.218 22.2349V13.7395H118.867V22.2349H117.218ZM111.521 26.7324V25.1583H114.244V26.7324H111.521ZM111.521 10.8161V9.24197H114.244V10.8161H111.521ZM111.521 10.8161V9.24197H114.244V10.8161H111.521ZM118.867 13.7395H117.218C117.218 12.8067 116.951 12.0904 116.418 11.5907C115.902 11.0743 115.177 10.8161 114.244 10.8161V9.24197C115.177 9.24197 115.985 9.43353 116.668 9.81665C117.368 10.1831 117.909 10.7078 118.292 11.3908C118.675 12.0571 118.867 12.84 118.867 13.7395ZM118.867 22.2349C118.867 23.1344 118.675 23.9256 118.292 24.6086C117.909 25.2749 117.368 25.7996 116.668 26.1827C115.985 26.5492 115.177 26.7324 114.244 26.7324V25.1583C115.177 25.1583 115.902 24.9001 116.418 24.3837C116.951 23.8673 117.218 23.151 117.218 22.2349H118.867ZM110.621 26.7324V9.24197H112.27V26.7324H110.621ZM123.397 26.7324V25.1583H130.493V26.7324H123.397ZM123.897 18.8617V17.2126H128.994V18.8617H123.897ZM122.747 9.24197H124.397V26.7324H122.747V9.24197ZM123.647 9.24197H130.243V10.8161H123.647V9.24197ZM137.299 26.7324L141.547 9.24197H143.196L138.948 26.7324H137.299ZM137.249 26.7324L133.002 9.24197H134.651L138.898 26.7324H137.249ZM147.088 26.7324V25.1583H154.184V26.7324H147.088ZM147.588 18.8617V17.2126H152.685V18.8617H147.588ZM146.439 9.24197H148.088V26.7324H146.439V9.24197ZM147.338 9.24197H153.935V10.8161H147.338V9.24197ZM158.586 26.7324V25.1583H165.182V26.7324H158.586ZM157.686 26.7324V9.24197H159.335V26.7324H157.686ZM175.649 22.6347V13.3397H177.298V22.6347H175.649ZM168.053 22.6347V13.3397H169.702V22.6347H168.053ZM177.298 13.3647H175.649C175.649 12.4319 175.382 11.7156 174.849 11.2159C174.333 10.6995 173.608 10.4413 172.675 10.4413V8.86717C173.608 8.86717 174.416 9.05873 175.099 9.44186C175.799 9.80832 176.34 10.333 176.723 11.016C177.106 11.6823 177.298 12.4652 177.298 13.3647ZM168.053 13.3647C168.053 12.4652 168.244 11.6823 168.627 11.016C169.011 10.333 169.552 9.80832 170.252 9.44186C170.951 9.05873 171.759 8.86717 172.675 8.86717V10.4413C171.742 10.4413 171.01 10.6995 170.476 11.2159C169.96 11.7156 169.702 12.4319 169.702 13.3647H168.053ZM177.298 22.6097C177.298 23.5092 177.106 24.3004 176.723 24.9834C176.34 25.6497 175.799 26.1744 175.099 26.5575C174.416 26.924 173.608 27.1072 172.675 27.1072V25.5331C173.608 25.5331 174.333 25.2749 174.849 24.7585C175.382 24.2421 175.649 23.5258 175.649 22.6097H177.298ZM168.053 22.6097H169.702C169.702 23.5258 169.96 24.2421 170.476 24.7585C171.01 25.2749 171.742 25.5331 172.675 25.5331V27.1072C171.759 27.1072 170.951 26.924 170.252 26.5575C169.552 26.1744 169.011 25.6497 168.627 24.9834C168.244 24.3004 168.053 23.5092 168.053 22.6097ZM181.832 10.8161V9.24197H184.83V10.8161H181.832ZM181.832 19.7612V18.1871H184.83V19.7612H181.832ZM187.779 15.2887V13.7395H189.428V15.2887H187.779ZM189.428 13.7395H187.779C187.779 12.8067 187.512 12.0904 186.979 11.5907C186.463 11.0743 185.738 10.8161 184.805 10.8161V9.24197C185.738 9.24197 186.546 9.43353 187.229 9.81665C187.929 10.1831 188.47 10.7078 188.853 11.3908C189.236 12.0571 189.428 12.84 189.428 13.7395ZM189.428 15.2637C189.428 16.1632 189.236 16.9544 188.853 17.6374C188.47 18.3037 187.929 18.8284 187.229 19.2115C186.546 19.578 185.738 19.7612 184.805 19.7612V18.1871C185.738 18.1871 186.463 17.9289 186.979 17.4125C187.512 16.8961 187.779 16.1798 187.779 15.2637H189.428ZM181.182 26.7324V9.24197H182.831V26.7324H181.182ZM193.324 26.7324V25.1583H200.42V26.7324H193.324ZM193.824 18.8617V17.2126H198.921V18.8617H193.824ZM192.674 9.24197H194.323V26.7324H192.674V9.24197ZM193.574 9.24197H200.17V10.8161H193.574V9.24197ZM210.418 26.7324L207.195 18.0372H208.944L212.167 26.7324H210.418ZM204.572 18.9617V17.3875H207.57V18.9617H204.572ZM204.572 10.8161V9.24197H207.57V10.8161H204.572ZM210.518 14.4891V13.7145H212.167V14.4891H210.518ZM212.167 13.7395H210.518C210.518 12.8067 210.252 12.0904 209.719 11.5907C209.202 11.0743 208.478 10.8161 207.545 10.8161V9.24197C208.478 9.24197 209.286 9.43353 209.969 9.81665C210.668 10.1831 211.21 10.7078 211.593 11.3908C211.976 12.0571 212.167 12.84 212.167 13.7395ZM212.167 14.4641C212.167 15.3636 211.976 16.1549 211.593 16.8378C211.21 17.5041 210.668 18.0288 209.969 18.412C209.286 18.7784 208.478 18.9617 207.545 18.9617V17.3875C208.478 17.3875 209.202 17.1293 209.719 16.6129C210.252 16.0966 210.518 15.3803 210.518 14.4641H212.167ZM203.922 26.7324V9.24197H205.571V26.7324H203.922ZM222.779 22.9095C222.779 22.2765 222.604 21.7102 222.254 21.2104C221.921 20.7107 221.48 20.236 220.93 19.7862C220.397 19.3365 219.822 18.8867 219.206 18.4369C218.589 17.9872 218.006 17.5041 217.457 16.9877C216.924 16.4714 216.482 15.8967 216.132 15.2637C215.799 14.614 215.633 13.8811 215.633 13.0649H217.282C217.282 13.6812 217.448 14.2476 217.782 14.764C218.131 15.2637 218.573 15.7384 219.106 16.1882C219.656 16.6379 220.239 17.0877 220.855 17.5374C221.471 17.9872 222.046 18.4703 222.579 18.9866C223.129 19.503 223.57 20.0777 223.903 20.7107C224.253 21.3437 224.428 22.0766 224.428 22.9095H222.779ZM215.633 13.1149C215.633 12.2153 215.824 11.4491 216.207 10.8161C216.591 10.1831 217.132 9.70005 217.831 9.3669C218.531 9.03375 219.339 8.86717 220.255 8.86717V10.4413C219.322 10.4413 218.589 10.6828 218.056 11.1659C217.54 11.6323 217.282 12.282 217.282 13.1149H215.633ZM224.428 22.8595C224.428 23.759 224.236 24.5253 223.853 25.1583C223.47 25.7913 222.929 26.2743 222.229 26.6075C221.546 26.9406 220.738 27.1072 219.805 27.1072V25.5331C220.738 25.5331 221.463 25.2999 221.979 24.8335C222.512 24.3504 222.779 23.6924 222.779 22.8595H224.428ZM222.879 12.6901C222.795 11.9072 222.504 11.3408 222.004 10.991C221.504 10.6245 220.921 10.4413 220.255 10.4413V8.86717C220.988 8.86717 221.654 9.02542 222.254 9.34191C222.87 9.64175 223.37 10.0499 223.753 10.5662C224.153 11.0826 224.395 11.674 224.478 12.3403L222.879 12.6901ZM216.557 22.06C216.674 23.1427 217.015 23.9923 217.582 24.6086C218.148 25.2249 218.889 25.5331 219.805 25.5331V27.1072C218.489 27.1072 217.407 26.6908 216.557 25.8579C215.724 25.025 215.216 23.8673 215.033 22.3848L216.557 22.06Z" fill="#373737"/>
<path d="M117.742 59.8028C117.742 59.1698 117.567 58.6035 117.218 58.1037C116.885 57.604 116.443 57.1293 115.893 56.6795C115.36 56.2298 114.786 55.78 114.169 55.3303C113.553 54.8805 112.97 54.3974 112.42 53.881C111.887 53.3647 111.446 52.79 111.096 52.157C110.763 51.5073 110.596 50.7744 110.596 49.9582H112.245C112.245 50.5745 112.412 51.1409 112.745 51.6573C113.095 52.157 113.536 52.6317 114.069 53.0815C114.619 53.5312 115.202 53.981 115.818 54.4307C116.435 54.8805 117.009 55.3636 117.542 55.88C118.092 56.3963 118.534 56.971 118.867 57.604C119.217 58.237 119.391 58.9699 119.391 59.8028H117.742ZM110.596 50.0082C110.596 49.1087 110.788 48.3424 111.171 47.7094C111.554 47.0764 112.095 46.5934 112.795 46.2602C113.495 45.9271 114.303 45.7605 115.219 45.7605V47.3346C114.286 47.3346 113.553 47.5762 113.02 48.0592C112.504 48.5256 112.245 49.1753 112.245 50.0082H110.596ZM119.391 59.7528C119.391 60.6524 119.2 61.4186 118.817 62.0516C118.434 62.6846 117.892 63.1676 117.193 63.5008C116.51 63.834 115.702 64.0005 114.769 64.0005V62.4264C115.702 62.4264 116.426 62.1932 116.943 61.7268C117.476 61.2437 117.742 60.5857 117.742 59.7528H119.391ZM117.842 49.5834C117.759 48.8005 117.468 48.2341 116.968 47.8843C116.468 47.5179 115.885 47.3346 115.219 47.3346V45.7605C115.952 45.7605 116.618 45.9187 117.218 46.2352C117.834 46.5351 118.334 46.9432 118.717 47.4596C119.117 47.9759 119.358 48.5673 119.441 49.2336L117.842 49.5834ZM111.521 58.9533C111.637 60.036 111.979 60.8856 112.545 61.5019C113.112 62.1182 113.853 62.4264 114.769 62.4264V64.0005C113.453 64.0005 112.37 63.5841 111.521 62.7512C110.688 61.9183 110.18 60.7606 109.997 59.2781L111.521 58.9533ZM121.821 47.7094V46.1353H131.566V47.7094H121.821ZM125.869 63.6257V46.1353H127.518V63.6257H125.869ZM141.614 59.528V46.1353H143.263V59.528H141.614ZM134.068 59.528V46.1353H135.718V59.528H134.068ZM143.263 59.503C143.263 60.4025 143.072 61.1937 142.689 61.8767C142.306 62.543 141.764 63.0677 141.065 63.4508C140.382 63.8173 139.574 64.0005 138.641 64.0005V62.4264C139.574 62.4264 140.298 62.1682 140.815 61.6518C141.348 61.1354 141.614 60.4191 141.614 59.503H143.263ZM134.068 59.503H135.718C135.718 60.4191 135.976 61.1354 136.492 61.6518C137.025 62.1682 137.758 62.4264 138.691 62.4264V64.0005C137.775 64.0005 136.967 63.8173 136.267 63.4508C135.568 63.0677 135.026 62.543 134.643 61.8767C134.26 61.1937 134.068 60.4025 134.068 59.503ZM153.865 59.1282V50.6328H155.514V59.1282H153.865ZM148.168 63.6257V62.0516H150.891V63.6257H148.168ZM148.168 47.7094V46.1353H150.891V47.7094H148.168ZM148.168 47.7094V46.1353H150.891V47.7094H148.168ZM155.514 50.6328H153.865C153.865 49.7 153.598 48.9837 153.065 48.484C152.549 47.9676 151.824 47.7094 150.891 47.7094V46.1353C151.824 46.1353 152.632 46.3268 153.315 46.71C154.015 47.0764 154.556 47.6011 154.939 48.2841C155.322 48.9504 155.514 49.7333 155.514 50.6328ZM155.514 59.1282C155.514 60.0277 155.322 60.8189 154.939 61.5019C154.556 62.1682 154.015 62.6929 153.315 63.076C152.632 63.4425 151.824 63.6257 150.891 63.6257V62.0516C151.824 62.0516 152.549 61.7934 153.065 61.277C153.598 60.7606 153.865 60.0444 153.865 59.1282H155.514ZM147.268 63.6257V46.1353H148.917V63.6257H147.268ZM160.044 63.6257V62.0516H167.14V63.6257H160.044ZM160.544 55.755V54.1059H165.641V55.755H160.544ZM159.394 46.1353H161.044V63.6257H159.394V46.1353ZM160.294 46.1353H166.89V47.7094H160.294V46.1353ZM178.013 63.6257L170.992 46.1353H172.791L179.787 63.6257H178.013ZM170.642 63.6257V46.1353H172.291V63.6257H170.642ZM178.488 63.6257V46.1353H180.137V63.6257H178.488ZM183.135 47.7094V46.1353H192.88V47.7094H183.135ZM187.183 63.6257V46.1353H188.832V63.6257H187.183Z" fill="#373737"/>
<path d="M117.742 93.6959C117.742 93.0629 117.567 92.4965 117.218 91.9968C116.885 91.4971 116.443 91.0223 115.893 90.5726C115.36 90.1228 114.786 89.6731 114.169 89.2233C113.553 88.7736 112.97 88.2905 112.42 87.7741C111.887 87.2577 111.446 86.683 111.096 86.0501C110.763 85.4004 110.596 84.6675 110.596 83.8513H112.245C112.245 84.4676 112.412 85.0339 112.745 85.5503C113.095 86.0501 113.536 86.5248 114.069 86.9746C114.619 87.4243 115.202 87.8741 115.818 88.3238C116.435 88.7736 117.009 89.2566 117.542 89.773C118.092 90.2894 118.534 90.8641 118.867 91.4971C119.217 92.1301 119.391 92.863 119.391 93.6959H117.742ZM110.596 83.9012C110.596 83.0017 110.788 82.2355 111.171 81.6025C111.554 80.9695 112.095 80.4864 112.795 80.1533C113.495 79.8201 114.303 79.6535 115.219 79.6535V81.2277C114.286 81.2277 113.553 81.4692 113.02 81.9523C112.504 82.4187 112.245 83.0684 112.245 83.9012H110.596ZM119.391 93.6459C119.391 94.5454 119.2 95.3117 118.817 95.9447C118.434 96.5776 117.892 97.0607 117.193 97.3939C116.51 97.727 115.702 97.8936 114.769 97.8936V96.3195C115.702 96.3195 116.426 96.0862 116.943 95.6198C117.476 95.1368 117.742 94.4788 117.742 93.6459H119.391ZM117.842 83.4765C117.759 82.6936 117.468 82.1272 116.968 81.7774C116.468 81.4109 115.885 81.2277 115.219 81.2277V79.6535C115.952 79.6535 116.618 79.8118 117.218 80.1283C117.834 80.4281 118.334 80.8362 118.717 81.3526C119.117 81.869 119.358 82.4603 119.441 83.1267L117.842 83.4765ZM111.521 92.8463C111.637 93.9291 111.979 94.7786 112.545 95.395C113.112 96.0113 113.853 96.3195 114.769 96.3195V97.8936C113.453 97.8936 112.37 97.4772 111.521 96.6443C110.688 95.8114 110.18 94.6537 109.997 93.1712L111.521 92.8463ZM130.292 93.421V84.1261H131.941V93.421H130.292ZM122.696 93.421V84.1261H124.345V93.421H122.696ZM131.941 84.1511H130.292C130.292 83.2183 130.025 82.502 129.492 82.0023C128.976 81.4859 128.251 81.2277 127.318 81.2277V79.6535C128.251 79.6535 129.059 79.8451 129.742 80.2282C130.441 80.5947 130.983 81.1194 131.366 81.8024C131.749 82.4687 131.941 83.2516 131.941 84.1511ZM122.696 84.1511C122.696 83.2516 122.887 82.4687 123.27 81.8024C123.654 81.1194 124.195 80.5947 124.895 80.2282C125.594 79.8451 126.402 79.6535 127.318 79.6535V81.2277C126.385 81.2277 125.652 81.4859 125.119 82.0023C124.603 82.502 124.345 83.2183 124.345 84.1511H122.696ZM131.941 93.396C131.941 94.2956 131.749 95.0868 131.366 95.7698C130.983 96.4361 130.441 96.9608 129.742 97.3439C129.059 97.7104 128.251 97.8936 127.318 97.8936V96.3195C128.251 96.3195 128.976 96.0613 129.492 95.5449C130.025 95.0285 130.292 94.3122 130.292 93.396H131.941ZM122.696 93.396H124.345C124.345 94.3122 124.603 95.0285 125.119 95.5449C125.652 96.0613 126.385 96.3195 127.318 96.3195V97.8936C126.402 97.8936 125.594 97.7104 124.895 97.3439C124.195 96.9608 123.654 96.4361 123.27 95.7698C122.887 95.0868 122.696 94.2956 122.696 93.396ZM135.575 93.421V84.1261H137.225V93.421H135.575ZM135.575 84.1261C135.575 83.2266 135.767 82.4437 136.15 81.7774C136.533 81.0944 137.075 80.5697 137.774 80.2032C138.474 79.8201 139.282 79.6286 140.198 79.6286V81.2027C139.265 81.2027 138.532 81.4609 137.999 81.9773C137.483 82.477 137.225 83.1933 137.225 84.1261H135.575ZM135.575 93.421H137.225C137.225 94.3372 137.483 95.0535 137.999 95.5699C138.532 96.0862 139.265 96.3444 140.198 96.3444V97.9186C139.282 97.9186 138.474 97.7353 137.774 97.3689C137.075 96.9858 136.533 96.461 136.15 95.7947C135.767 95.1118 135.575 94.3205 135.575 93.421ZM143.421 84.6758C143.305 83.5931 142.963 82.7435 142.397 82.1272C141.83 81.5109 141.089 81.2027 140.173 81.2027V79.6286C141.489 79.6286 142.563 80.045 143.396 80.8779C144.246 81.7108 144.762 82.8685 144.945 84.351L143.421 84.6758ZM143.421 92.8713L144.945 93.1962C144.762 94.6787 144.246 95.8364 143.396 96.6693C142.563 97.5021 141.489 97.9186 140.173 97.9186V96.3444C141.089 96.3444 141.83 96.0363 142.397 95.4199C142.963 94.8036 143.305 93.9541 143.421 92.8713ZM148.445 97.5188V80.0283H150.094V97.5188H148.445ZM155.237 97.5188V95.9447H162.333V97.5188H155.237ZM155.737 89.6481V87.999H160.834V89.6481H155.737ZM154.587 80.0283H156.237V97.5188H154.587V80.0283ZM155.487 80.0283H162.083V81.6025H155.487V80.0283ZM164.079 81.6025V80.0283H173.824V81.6025H164.079ZM168.127 97.5188V80.0283H169.776V97.5188H168.127ZM179.569 91.572L183.317 80.0283H184.966L181.218 91.572H179.569ZM179.569 97.5188V91.572H181.218V97.5188H179.569ZM179.569 91.572L175.821 80.0283H177.47L181.218 91.572H179.569Z" fill="#373737"/>
</svg>
