<svg width="79" height="80" viewBox="0 0 79 80" fill="none" xmlns="http://www.w3.org/2000/svg">
<g filter="url(#filter0_d_475_562)">
<rect x="5.5957" y="0.921021" width="67.111" height="67.111" rx="33.5555" fill="#F1C701"/>
<path d="M38.2066 31.4659C38.4753 31.2883 38.7258 31.1212 38.9532 30.9836C39.4947 30.6564 39.6689 29.9518 39.3405 29.4105C39.0141 28.8689 38.3092 28.6962 37.7681 29.0226C37.5155 29.175 37.237 29.3594 36.9397 29.5562C35.9781 30.1937 34.5154 31.1859 33.6947 30.954C33.0948 30.7844 33.0224 30.3712 32.8249 30.0717C32.4 29.2875 31.4971 28.767 30.6812 28.784C30.6812 28.784 29.9535 28.784 29.067 29.1328C25.0724 30.5574 25.0617 31.5024 25.0622 31.9647C25.0628 32.3862 25.0714 32.7935 26.2539 33.4812H24.6542L24.6504 46.8013H34.6271L35.2894 40.7052C35.2894 40.7052 31.9813 40.4615 30.3337 40.2229C28.3543 39.9363 28.0082 38.1116 28.0082 38.1116L26.9781 33.8638C27.5684 34.1513 28.3348 34.4811 29.3466 34.8711C29.4821 34.9231 29.621 34.9479 29.758 34.9479C30.2183 34.9479 30.652 34.6686 30.8276 34.2141C31.055 33.6232 30.7605 32.9598 30.17 32.7326C29.5473 32.4927 28.8502 32.1987 28.273 31.933C28.3719 31.8874 28.4804 31.8406 28.5874 31.7933L30.1876 32.429C31.1535 32.8019 31.4233 33.5834 31.1378 34.3259C30.9245 34.8799 30.281 35.5696 29.1516 35.1237C28.8029 34.9861 28.4888 34.8638 28.1914 34.7411L28.6883 37.9701C28.8298 38.8892 29.394 39.3651 30.3717 39.6285C30.8439 39.8257 35.9621 40.2141 35.9621 40.2141C35.7898 42.2193 35.4388 45.5094 35.3966 45.8941C35.2818 46.6939 35.7996 47.46 36.6003 47.6405C36.7159 47.6662 36.8317 47.6786 36.9447 47.6786C37.6595 47.6786 38.3041 47.1849 38.4675 46.4586C38.5362 46.1524 39.1367 38.9899 39.1424 38.9185C39.1785 38.4843 39.0126 38.0108 38.7187 37.6896C38.3414 37.277 38.0032 36.9124 33.9839 36.7762L33.4377 33.2309C33.6012 33.2554 33.7648 33.2718 33.9287 33.2718C35.4835 33.2718 37.0312 32.2455 38.2066 31.4659Z" fill="white"/>
<path d="M30.2011 28.6363C31.831 28.6363 33.1523 27.315 33.1523 25.6852C33.1523 24.0553 31.831 22.734 30.2011 22.734C28.5713 22.734 27.25 24.0553 27.25 25.6852C27.25 27.315 28.5713 28.6363 30.2011 28.6363Z" fill="white"/>
<path d="M54.8466 33.4812H53.2468C54.4293 32.7935 54.438 32.3862 54.4385 31.9647C54.439 31.5024 54.4284 30.5574 50.4337 29.1328C49.5471 28.784 48.8196 28.784 48.8196 28.784C48.0036 28.767 47.1008 29.2875 46.6758 30.0717C46.4783 30.3712 46.406 30.7845 45.8061 30.954C44.9853 31.186 43.5226 30.1937 42.5611 29.5562C42.2637 29.3595 41.9853 29.175 41.7325 29.0226C41.1915 28.6961 40.4867 28.8689 40.1602 29.4105C39.8317 29.9518 40.0059 30.6564 40.5475 30.9836C40.7749 31.1212 41.0255 31.2883 41.2941 31.4659C42.4695 32.2455 44.0171 33.2718 45.572 33.2718C45.7359 33.2718 45.8995 33.2555 46.0629 33.2309L45.5168 36.7763C41.4975 36.9125 41.1593 37.2771 40.782 37.6896C40.488 38.0109 40.3222 38.4843 40.3583 38.9186C40.364 38.9899 40.9645 46.1525 41.0332 46.4587C41.1966 47.1849 41.8412 47.6787 42.556 47.6787C42.669 47.6787 42.7847 47.6663 42.9004 47.6406C43.701 47.4601 44.2188 46.694 44.1042 45.8942C44.0618 45.5095 43.7107 42.2193 43.5386 40.2142C43.5386 40.2142 48.6568 39.8258 49.129 39.6286C50.1066 39.3651 50.6707 38.8893 50.8124 37.9702L51.3093 34.7412C51.0119 34.8638 50.6977 34.9861 50.3491 35.1237C49.2197 35.5696 48.5761 34.8799 48.3629 34.326C48.0772 33.5834 48.3471 32.802 49.313 32.429L50.9131 31.7933C51.0203 31.8406 51.1288 31.8874 51.2276 31.9331C50.6505 32.1987 49.9535 32.4927 49.3307 32.7327C48.7402 32.9599 48.4457 33.6233 48.673 34.2141C48.8487 34.6687 49.2824 34.9479 49.7426 34.9479C49.8795 34.9479 50.0187 34.9232 50.1541 34.8711C51.1658 34.4812 51.9322 34.1514 52.5225 33.8638L51.4924 38.1117C51.4924 38.1117 51.1463 39.9363 49.1669 40.2229C47.5194 40.4615 44.2114 40.7052 44.2114 40.7052L44.8735 46.8014H54.8503L54.8466 33.4812Z" fill="white"/>
<path d="M49.2949 28.6363C50.9248 28.6363 52.246 27.315 52.246 25.6852C52.246 24.0553 50.9248 22.734 49.2949 22.734C47.665 22.734 46.3438 24.0553 46.3438 25.6852C46.3438 27.315 47.665 28.6363 49.2949 28.6363Z" fill="white"/>
</g>
<defs>
<filter id="filter0_d_475_562" x="0.0698962" y="0.921021" width="78.1629" height="78.1627" filterUnits="userSpaceOnUse" color-interpolation-filters="sRGB">
<feFlood flood-opacity="0" result="BackgroundImageFix"/>
<feColorMatrix in="SourceAlpha" type="matrix" values="0 0 0 0 0 0 0 0 0 0 0 0 0 0 0 0 0 0 127 0" result="hardAlpha"/>
<feOffset dy="5.52581"/>
<feGaussianBlur stdDeviation="2.7629"/>
<feComposite in2="hardAlpha" operator="out"/>
<feColorMatrix type="matrix" values="0 0 0 0 0.945098 0 0 0 0 0.780392 0 0 0 0 0.00392157 0 0 0 0.37 0"/>
<feBlend mode="normal" in2="BackgroundImageFix" result="effect1_dropShadow_475_562"/>
<feBlend mode="normal" in="SourceGraphic" in2="effect1_dropShadow_475_562" result="shape"/>
</filter>
</defs>
</svg>
