<svg width="581" height="456" viewBox="0 0 581 456" fill="none" xmlns="http://www.w3.org/2000/svg">
<path d="M127.474 95.9467C127.474 85.4968 129.735 76.2024 134.256 68.0635C138.778 59.8242 145.058 53.4437 153.096 48.9221C161.235 44.3 170.429 41.989 180.678 41.989C193.238 41.989 203.989 45.3048 212.932 51.9365C221.875 58.5682 227.853 67.6114 230.867 79.0661H202.532C200.422 74.6449 197.408 71.2789 193.489 68.9678C189.671 66.6568 185.3 65.5013 180.376 65.5013C172.438 65.5013 166.008 68.2645 161.084 73.7909C156.161 79.3173 153.699 86.7025 153.699 95.9467C153.699 105.191 156.161 112.576 161.084 118.102C166.008 123.629 172.438 126.392 180.376 126.392C185.3 126.392 189.671 125.237 193.489 122.925C197.408 120.614 200.422 117.248 202.532 112.827H230.867C227.853 124.282 221.875 133.325 212.932 139.957C203.989 146.488 193.238 149.754 180.678 149.754C170.429 149.754 161.235 147.493 153.096 142.971C145.058 138.349 138.778 131.969 134.256 123.83C129.735 115.691 127.474 106.397 127.474 95.9467ZM263.381 37.4674V149H237.607V37.4674H263.381ZM356.061 64.8984V149H330.288V137.545C327.676 141.263 324.109 144.277 319.587 146.588C315.166 148.799 310.243 149.904 304.817 149.904C298.386 149.904 292.709 148.498 287.785 145.684C282.862 142.77 279.044 138.6 276.331 133.174C273.618 127.749 272.261 121.368 272.261 114.033V64.8984H297.884V110.566C297.884 116.193 299.341 120.564 302.254 123.679C305.168 126.794 309.087 128.351 314.011 128.351C319.035 128.351 323.004 126.794 325.917 123.679C328.831 120.564 330.288 116.193 330.288 110.566V64.8984H356.061ZM391.304 76.8053C393.715 72.8866 397.182 69.7214 401.704 67.3099C406.225 64.8984 411.4 63.6926 417.228 63.6926C424.161 63.6926 430.441 65.451 436.068 68.9678C441.694 72.4846 446.116 77.5086 449.331 84.0398C452.647 90.571 454.305 98.1572 454.305 106.798C454.305 115.44 452.647 123.076 449.331 129.708C446.116 136.239 441.694 141.313 436.068 144.931C430.441 148.447 424.161 150.206 417.228 150.206C411.299 150.206 406.125 149.05 401.704 146.739C397.282 144.328 393.816 141.163 391.304 137.244V149H365.531V37.4674H391.304V76.8053ZM428.079 106.798C428.079 100.368 426.271 95.3438 422.654 91.7265C419.137 88.0088 414.766 86.1499 409.541 86.1499C404.416 86.1499 400.046 88.0088 396.428 91.7265C392.912 95.4443 391.153 100.518 391.153 106.949C391.153 113.38 392.912 118.454 396.428 122.172C400.046 125.89 404.416 127.749 409.541 127.749C414.665 127.749 419.036 125.89 422.654 122.172C426.271 118.354 428.079 113.229 428.079 106.798Z" fill="#5A62FF"/>
<path d="M70.6274 282.055C62.8905 282.055 55.9574 280.799 49.8281 278.287C43.6988 275.775 38.7753 272.057 35.0576 267.134C31.4403 262.21 29.5312 256.282 29.3302 249.349H56.7612C57.1631 253.268 58.5196 256.282 60.8306 258.392C63.1417 260.402 66.1561 261.406 69.8738 261.406C73.6921 261.406 76.7065 260.552 78.917 258.844C81.1276 257.036 82.2328 254.574 82.2328 251.459C82.2328 248.846 81.3285 246.686 79.5199 244.978C77.8117 243.27 75.6514 241.863 73.0389 240.758C70.5269 239.653 66.9097 238.397 62.1871 236.99C55.3545 234.88 49.7779 232.77 45.4572 230.66C41.1366 228.55 37.4189 225.435 34.304 221.315C31.1891 217.195 29.6317 211.82 29.6317 205.188C29.6317 195.341 33.1987 187.654 40.3328 182.128C47.4668 176.501 56.7612 173.688 68.2159 173.688C79.8716 173.688 89.2664 176.501 96.4005 182.128C103.535 187.654 107.353 195.391 107.855 205.339H79.972C79.7711 201.922 78.5151 199.26 76.2041 197.351C73.893 195.341 70.9289 194.336 67.3116 194.336C64.1967 194.336 61.6847 195.19 59.7756 196.898C57.8665 198.506 56.9119 200.867 56.9119 203.982C56.9119 207.399 58.5196 210.061 61.735 211.97C64.9503 213.879 69.9743 215.939 76.8069 218.15C83.6396 220.461 89.1659 222.671 93.3861 224.782C97.7067 226.892 101.424 229.956 104.539 233.975C107.654 237.995 109.212 243.169 109.212 249.5C109.212 255.528 107.654 261.005 104.539 265.928C101.525 270.852 97.1039 274.77 91.276 277.684C85.4482 280.598 78.5653 282.055 70.6274 282.055ZM154.312 282.206C146.073 282.206 138.637 280.447 132.006 276.931C125.474 273.414 120.3 268.39 116.482 261.859C112.764 255.327 110.905 247.691 110.905 238.949C110.905 230.308 112.814 222.722 116.632 216.191C120.45 209.559 125.675 204.485 132.307 200.968C138.939 197.451 146.374 195.693 154.614 195.693C162.853 195.693 170.288 197.451 176.92 200.968C183.552 204.485 188.777 209.559 192.595 216.191C196.413 222.722 198.322 230.308 198.322 238.949C198.322 247.59 196.363 255.227 192.444 261.859C188.626 268.39 183.351 273.414 176.619 276.931C169.987 280.447 162.552 282.206 154.312 282.206ZM154.312 259.899C159.236 259.899 163.406 258.091 166.822 254.473C170.339 250.856 172.097 245.681 172.097 238.949C172.097 232.217 170.389 227.042 166.973 223.425C163.657 219.808 159.537 217.999 154.614 217.999C149.59 217.999 145.42 219.808 142.104 223.425C138.788 226.942 137.13 232.117 137.13 238.949C137.13 245.681 138.738 250.856 141.953 254.473C145.269 258.091 149.389 259.899 154.312 259.899ZM197.828 238.949C197.828 230.207 199.586 222.571 203.103 216.04C206.72 209.509 211.694 204.485 218.024 200.968C224.455 197.451 231.79 195.693 240.029 195.693C250.58 195.693 259.372 198.456 266.405 203.982C273.539 209.509 278.212 217.296 280.422 227.344H252.991C250.68 220.913 246.209 217.698 239.577 217.698C234.855 217.698 231.087 219.557 228.273 223.274C225.46 226.892 224.053 232.117 224.053 238.949C224.053 245.782 225.46 251.057 228.273 254.775C231.087 258.392 234.855 260.201 239.577 260.201C246.209 260.201 250.68 256.985 252.991 250.555H280.422C278.212 260.402 273.539 268.139 266.405 273.765C259.271 279.392 250.479 282.206 240.029 282.206C231.79 282.206 224.455 280.447 218.024 276.931C211.694 273.414 206.72 268.39 203.103 261.859C199.586 255.327 197.828 247.691 197.828 238.949ZM298.127 188.157C293.605 188.157 289.888 186.85 286.974 184.238C284.16 181.525 282.754 178.209 282.754 174.29C282.754 170.271 284.16 166.955 286.974 164.343C289.888 161.63 293.605 160.274 298.127 160.274C302.548 160.274 306.165 161.63 308.979 164.343C311.893 166.955 313.35 170.271 313.35 174.29C313.35 178.209 311.893 181.525 308.979 184.238C306.165 186.85 302.548 188.157 298.127 188.157ZM310.938 196.898V281H285.165V196.898H310.938ZM315.448 238.798C315.448 230.157 317.056 222.571 320.271 216.04C323.587 209.509 328.058 204.485 333.685 200.968C339.312 197.451 345.592 195.693 352.525 195.693C358.453 195.693 363.628 196.898 368.049 199.31C372.571 201.721 376.037 204.887 378.449 208.805V196.898H404.222V281H378.449V269.093C375.937 273.012 372.42 276.177 367.898 278.588C363.477 281 358.303 282.206 352.374 282.206C345.542 282.206 339.312 280.447 333.685 276.931C328.058 273.313 323.587 268.239 320.271 261.708C317.056 255.076 315.448 247.44 315.448 238.798ZM378.449 238.949C378.449 232.518 376.64 227.444 373.023 223.727C369.506 220.009 365.186 218.15 360.061 218.15C354.937 218.15 350.566 220.009 346.948 223.727C343.432 227.344 341.673 232.368 341.673 238.798C341.673 245.229 343.432 250.354 346.948 254.172C350.566 257.89 354.937 259.749 360.061 259.749C365.186 259.749 369.506 257.89 373.023 254.172C376.64 250.454 378.449 245.38 378.449 238.949ZM439.597 169.467V281H413.824V169.467H439.597ZM518.111 175.195V195.843H475.005V218.15H507.259V238.196H475.005V281H449.232V175.195H518.111ZM548.386 175.195V281H522.613V175.195H548.386Z" fill="#5A62FF"/>
<path d="M201.958 307.195V327.843H173.924V413H148.151V327.843H120.117V307.195H201.958ZM285.128 369.593C285.128 372.004 284.978 374.516 284.676 377.129H226.348C226.749 382.354 228.407 386.373 231.321 389.186C234.336 391.899 238.003 393.256 242.324 393.256C248.755 393.256 253.226 390.543 255.738 385.117H283.169C281.762 390.643 279.2 395.617 275.482 400.038C271.865 404.459 267.293 407.926 261.767 410.438C256.24 412.95 250.061 414.206 243.228 414.206C234.989 414.206 227.654 412.447 221.223 408.931C214.792 405.414 209.768 400.39 206.151 393.859C202.534 387.327 200.725 379.691 200.725 370.949C200.725 362.207 202.484 354.571 206 348.04C209.618 341.509 214.642 336.485 221.072 332.968C227.503 329.451 234.888 327.693 243.228 327.693C251.367 327.693 258.602 329.401 264.932 332.817C271.262 336.233 276.186 341.107 279.702 347.437C283.32 353.767 285.128 361.152 285.128 369.593ZM258.752 362.81C258.752 358.389 257.245 354.872 254.231 352.26C251.216 349.647 247.448 348.341 242.927 348.341C238.606 348.341 234.939 349.597 231.924 352.109C229.01 354.621 227.202 358.188 226.498 362.81H258.752ZM284.557 370.949C284.557 362.207 286.316 354.571 289.832 348.04C293.45 341.509 298.423 336.485 304.754 332.968C311.184 329.451 318.519 327.693 326.759 327.693C337.309 327.693 346.101 330.456 353.135 335.982C360.269 341.509 364.941 349.296 367.152 359.344H339.721C337.41 352.913 332.938 349.698 326.307 349.698C321.584 349.698 317.816 351.557 315.003 355.274C312.189 358.892 310.782 364.117 310.782 370.949C310.782 377.782 312.189 383.057 315.003 386.775C317.816 390.392 321.584 392.201 326.307 392.201C332.938 392.201 337.41 388.985 339.721 382.555H367.152C364.941 392.402 360.269 400.139 353.135 405.765C346.001 411.392 337.209 414.206 326.759 414.206C318.519 414.206 311.184 412.447 304.754 408.931C298.423 405.414 293.45 400.39 289.832 393.859C286.316 387.327 284.557 379.691 284.557 370.949ZM423.591 327.994C433.237 327.994 440.974 331.209 446.802 337.64C452.63 343.97 455.544 352.712 455.544 363.865V413H429.922V367.332C429.922 361.705 428.465 357.334 425.551 354.219C422.637 351.104 418.718 349.547 413.795 349.547C408.871 349.547 404.952 351.104 402.038 354.219C399.125 357.334 397.668 361.705 397.668 367.332V413H371.895V301.467H397.668V340.202C400.28 336.485 403.847 333.52 408.369 331.31C412.89 329.099 417.965 327.994 423.591 327.994Z" fill="#5A62FF"/>
<g filter="url(#filter0_bd_552_2192)">
<ellipse cx="196.38" cy="193.413" rx="50.8309" ry="47.9179" transform="rotate(10.5479 196.38 193.413)" fill="white" fill-opacity="0.8"/>
<ellipse cx="198.74" cy="179.375" rx="7.44507" ry="7.0184" transform="rotate(10.5479 198.74 179.375)" fill="#EA4235"/>
<path d="M180.579 210.39C186.376 179.252 211.567 186.091 204.451 214.835" stroke="#635656" stroke-width="2.99849" stroke-linecap="round"/>
<ellipse cx="216.714" cy="182.717" rx="7.44507" ry="7.0184" transform="rotate(10.5479 216.714 182.717)" fill="#109D59"/>
<ellipse cx="7.44507" cy="7.01841" rx="7.44507" ry="7.01841" transform="matrix(-0.983102 -0.183057 -0.183056 0.983102 188.742 170.373)" fill="#FCBC03"/>
<path d="M204.622 197.668C209.818 188.251 229.522 189.434 222.405 218.178" stroke="#635656" stroke-width="2.99849" stroke-linecap="round"/>
<path d="M186.024 194.204C184.566 183.548 165.757 177.56 162.051 206.939" stroke="#635656" stroke-width="2.99849" stroke-linecap="round"/>
</g>
<g filter="url(#filter1_bd_552_2192)">
<ellipse cx="48.7084" cy="49.095" rx="48.7084" ry="49.095" transform="matrix(0.988426 -0.151706 0.125883 0.992045 379.531 256.779)" fill="white" fill-opacity="0.88" shape-rendering="crispEdges"/>
</g>
<path fill-rule="evenodd" clip-rule="evenodd" d="M437.493 287.94C436.159 289.63 433.892 290.589 431.737 290.535C429.882 290.174 427.243 291.455 425.38 293.814C423.547 296.135 422.708 298.89 423.4 300.546C423.89 302.507 423.389 304.858 422.075 306.521C420.044 309.094 416.356 309.66 413.838 307.785C411.321 305.911 410.927 302.306 412.958 299.733C414.444 297.851 417.075 296.716 419.366 296.975L419.376 296.963C421.165 297.016 423.453 295.809 425.144 293.669C426.968 291.358 427.582 289.004 426.852 287.483C425.927 285.401 426.352 282.706 427.874 280.778C429.953 278.146 433.791 277.616 436.447 279.593C439.104 281.571 439.572 285.308 437.493 287.94Z" fill="#4385F5"/>
<path fill-rule="evenodd" clip-rule="evenodd" d="M455.579 301.415C454.247 303.102 451.987 304.06 449.836 304.01C447.98 303.643 445.335 304.924 443.469 307.287C441.644 309.599 440.804 312.34 441.481 313.998C441.98 315.963 441.48 318.326 440.161 319.995C438.129 322.568 434.442 323.134 431.924 321.26C429.406 319.385 429.013 315.78 431.044 313.208C432.53 311.326 435.161 310.19 437.452 310.45L437.462 310.438C439.25 310.49 441.539 309.283 443.229 307.143C445.051 304.837 445.665 302.486 444.941 300.965C444.012 298.882 444.436 296.183 445.96 294.253C448.039 291.621 451.877 291.09 454.533 293.068C457.19 295.045 457.658 298.782 455.579 301.415Z" fill="#FCBC03"/>
<ellipse cx="6.21761" cy="6.04327" rx="6.21761" ry="6.04327" transform="matrix(0.988425 -0.151706 0.108608 0.994085 409.311 281.811)" fill="#EA4235"/>
<ellipse cx="6.21761" cy="6.04327" rx="6.21761" ry="6.04327" transform="matrix(0.988425 -0.151706 0.108608 0.994085 442.004 276.792)" fill="#109D59"/>
<ellipse cx="6.21761" cy="6.04327" rx="6.21761" ry="6.04327" transform="matrix(0.988425 -0.151706 0.108608 0.994085 445.498 308.751)" fill="#EA4235"/>
<path fill-rule="evenodd" clip-rule="evenodd" d="M439.161 303.937C437.841 305.608 435.609 306.564 433.476 306.533C431.642 306.1 429.041 307.29 427.158 309.675C425.291 312.039 424.349 314.901 425.073 316.563C425.555 318.519 425.052 320.86 423.743 322.517C421.711 325.09 418.024 325.656 415.506 323.782C412.989 321.907 412.595 318.302 414.626 315.73C415.885 314.136 417.964 313.078 419.963 312.948C420.285 312.993 420.63 312.999 420.989 312.967C421.004 312.968 421.019 312.97 421.034 312.972L421.042 312.962C422.871 312.781 425.071 311.639 426.576 309.733C428.387 307.44 429.143 305.063 428.495 303.524L428.524 303.488C427.594 301.405 428.018 298.705 429.542 296.775C431.621 294.142 435.459 293.612 438.115 295.59C440.772 297.567 441.24 301.304 439.161 303.937Z" fill="#109D59"/>
<g filter="url(#filter2_b_552_2192)">
<path d="M136.37 55.7028C130.141 89.8105 124.966 106.803 113.794 134.653" stroke="#FCBC03" stroke-width="10.7853" stroke-linecap="round"/>
<path d="M141.175 116.709C107.605 112.807 90.9486 108.766 63.7356 99.42" stroke="#FCBC03" stroke-width="10.7853" stroke-linecap="round"/>
<path d="M100.669 42.8324C97.8257 82.6367 94.3136 95.923 78.0925 121.782" stroke="#FCBC03" stroke-width="10.7853" stroke-linecap="round"/>
<path d="M154.794 79.3973C115.474 79.3245 102.433 76.7058 77.3548 62.1084" stroke="#FCBC03" stroke-width="10.7853" stroke-linecap="round"/>
</g>
<g filter="url(#filter3_d_552_2192)">
<path d="M27.8199 325.131C28.1774 328.316 31.0493 330.609 34.2345 330.251C37.4197 329.894 39.712 327.022 39.3545 323.837L27.8199 325.131ZM190.557 363.519C191.191 360.377 189.158 357.317 186.016 356.683L134.815 346.358C131.673 345.725 128.612 347.758 127.979 350.9C127.345 354.042 129.378 357.103 132.52 357.736L178.032 366.914L168.854 412.426C168.221 415.568 170.254 418.628 173.396 419.262C176.538 419.896 179.599 417.862 180.232 414.72L190.557 363.519ZM39.3545 323.837C34.8098 283.344 58.7474 266.121 75.1342 267.943C83.3244 268.853 91.1036 274.338 94.6444 285.994C98.2711 297.934 97.4546 316.645 86.6849 343.024L97.4308 347.412C108.738 319.716 110.45 298.091 105.75 282.621C100.965 266.868 89.5647 257.868 76.4163 256.407C50.1259 253.484 22.7512 279.969 27.8199 325.131L39.3545 323.837ZM86.6849 343.024C81.0558 356.812 78.1117 367.888 77.5761 376.652C77.0395 385.43 78.8977 392.662 83.8141 397.613C88.6768 402.51 95.4089 404.033 102.071 403.975C108.771 403.917 116.237 402.268 123.681 399.876C138.604 395.081 154.749 386.858 167.005 379.957C173.169 376.487 178.421 373.31 182.136 370.998C183.994 369.842 185.47 368.9 186.487 368.245C186.995 367.917 187.388 367.661 187.657 367.485C187.791 367.397 187.895 367.329 187.965 367.282C188.001 367.258 188.028 367.24 188.047 367.228C188.057 367.221 188.065 367.216 188.07 367.213C188.073 367.211 188.075 367.209 188.077 367.208C188.079 367.207 188.08 367.206 184.868 362.372C181.657 357.538 181.657 357.538 181.657 357.538C181.657 357.538 181.656 357.539 181.654 357.54C181.652 357.542 181.647 357.545 181.64 357.55C181.626 357.559 181.603 357.574 181.573 357.594C181.513 357.633 181.42 357.694 181.297 357.775C181.05 357.937 180.68 358.178 180.195 358.491C179.227 359.115 177.804 360.023 176.003 361.144C172.4 363.386 167.297 366.473 161.31 369.843C149.266 376.625 133.929 384.391 120.13 388.826C113.213 391.049 107.008 392.325 101.97 392.369C96.8927 392.413 93.8186 391.215 92.05 389.434C90.3352 387.707 88.737 384.305 89.1615 377.36C89.5869 370.399 92.0214 360.661 97.4308 347.412L86.6849 343.024Z" fill="#FCBC03"/>
</g>
<g filter="url(#filter4_d_552_2192)">
<path d="M400.387 74.6971C397.858 77.2448 397.873 81.3603 400.421 83.8894C402.968 86.4185 407.084 86.4034 409.613 83.8558L400.387 74.6971ZM492.661 174.939C493.456 178.44 496.938 180.633 500.439 179.839L557.487 166.886C560.988 166.092 563.182 162.609 562.387 159.109C561.592 155.608 558.11 153.414 554.609 154.209L503.9 165.722L492.386 115.013C491.592 111.512 488.109 109.318 484.609 110.113C481.108 110.908 478.914 114.39 479.709 117.891L492.661 174.939ZM409.613 83.8558C437.617 55.6458 460.905 41.4647 478.678 36.9612C496 32.5721 507.632 37.359 514.687 47.0467C522.182 57.3391 525.5 74.505 522.395 96.4535C519.316 118.211 510.016 143.818 493.5 170.036L504.5 176.964C521.833 149.448 531.892 122.121 535.266 98.2748C538.614 74.6199 535.478 53.513 525.196 39.3938C514.473 24.67 497.004 18.9067 475.485 24.3595C454.417 29.6978 429.122 45.7506 400.387 74.6971L409.613 83.8558Z" fill="#FCBC03"/>
</g>
<defs>
<filter id="filter0_bd_552_2192" x="120.178" y="119.929" width="152.403" height="146.968" filterUnits="userSpaceOnUse" color-interpolation-filters="sRGB">
<feFlood flood-opacity="0" result="BackgroundImageFix"/>
<feGaussianBlur in="BackgroundImageFix" stdDeviation="12.7283"/>
<feComposite in2="SourceAlpha" operator="in" result="effect1_backgroundBlur_552_2192"/>
<feColorMatrix in="SourceAlpha" type="matrix" values="0 0 0 0 0 0 0 0 0 0 0 0 0 0 0 0 0 0 127 0" result="hardAlpha"/>
<feOffset dy="5.22185"/>
<feGaussianBlur stdDeviation="2.61093"/>
<feComposite in2="hardAlpha" operator="out"/>
<feColorMatrix type="matrix" values="0 0 0 0 0 0 0 0 0 0 0 0 0 0 0 0 0 0 0.25 0"/>
<feBlend mode="normal" in2="effect1_backgroundBlur_552_2192" result="effect2_dropShadow_552_2192"/>
<feBlend mode="normal" in="SourceGraphic" in2="effect2_dropShadow_552_2192" result="shape"/>
</filter>
<filter id="filter1_bd_552_2192" x="378.911" y="242.425" width="109.89" height="112.937" filterUnits="userSpaceOnUse" color-interpolation-filters="sRGB">
<feFlood flood-opacity="0" result="BackgroundImageFix"/>
<feGaussianBlur in="BackgroundImageFix" stdDeviation="3.2"/>
<feComposite in2="SourceAlpha" operator="in" result="effect1_backgroundBlur_552_2192"/>
<feColorMatrix in="SourceAlpha" type="matrix" values="0 0 0 0 0 0 0 0 0 0 0 0 0 0 0 0 0 0 127 0" result="hardAlpha"/>
<feOffset dy="4"/>
<feGaussianBlur stdDeviation="2"/>
<feComposite in2="hardAlpha" operator="out"/>
<feColorMatrix type="matrix" values="0 0 0 0 0 0 0 0 0 0 0 0 0 0 0 0 0 0 0.25 0"/>
<feBlend mode="normal" in2="effect1_backgroundBlur_552_2192" result="effect2_dropShadow_552_2192"/>
<feBlend mode="normal" in="SourceGraphic" in2="effect2_dropShadow_552_2192" result="shape"/>
</filter>
<filter id="filter2_b_552_2192" x="52.2247" y="31.3282" width="114.078" height="114.83" filterUnits="userSpaceOnUse" color-interpolation-filters="sRGB">
<feFlood flood-opacity="0" result="BackgroundImageFix"/>
<feGaussianBlur in="BackgroundImageFix" stdDeviation="3.05563"/>
<feComposite in2="SourceAlpha" operator="in" result="effect1_backgroundBlur_552_2192"/>
<feBlend mode="normal" in="SourceGraphic" in2="effect1_backgroundBlur_552_2192" result="shape"/>
</filter>
<filter id="filter3_d_552_2192" x="20.2168" y="256.188" width="177.449" height="177.175" filterUnits="userSpaceOnUse" color-interpolation-filters="sRGB">
<feFlood flood-opacity="0" result="BackgroundImageFix"/>
<feColorMatrix in="SourceAlpha" type="matrix" values="0 0 0 0 0 0 0 0 0 0 0 0 0 0 0 0 0 0 127 0" result="hardAlpha"/>
<feOffset dy="6.99218"/>
<feGaussianBlur stdDeviation="3.49609"/>
<feComposite in2="hardAlpha" operator="out"/>
<feColorMatrix type="matrix" values="0 0 0 0 0 0 0 0 0 0 0 0 0 0 0 0 0 0 0.18 0"/>
<feBlend mode="normal" in2="BackgroundImageFix" result="effect1_dropShadow_552_2192"/>
<feBlend mode="normal" in="SourceGraphic" in2="effect1_dropShadow_552_2192" result="shape"/>
</filter>
<filter id="filter4_d_552_2192" x="392.128" y="22.3376" width="176.792" height="170.407" filterUnits="userSpaceOnUse" color-interpolation-filters="sRGB">
<feFlood flood-opacity="0" result="BackgroundImageFix"/>
<feColorMatrix in="SourceAlpha" type="matrix" values="0 0 0 0 0 0 0 0 0 0 0 0 0 0 0 0 0 0 127 0" result="hardAlpha"/>
<feOffset dy="6.3716"/>
<feGaussianBlur stdDeviation="3.1858"/>
<feComposite in2="hardAlpha" operator="out"/>
<feColorMatrix type="matrix" values="0 0 0 0 0 0 0 0 0 0 0 0 0 0 0 0 0 0 0.02 0"/>
<feBlend mode="normal" in2="BackgroundImageFix" result="effect1_dropShadow_552_2192"/>
<feBlend mode="normal" in="SourceGraphic" in2="effect1_dropShadow_552_2192" result="shape"/>
</filter>
</defs>
</svg>
