<svg width="442" height="388" viewBox="0 0 442 388" fill="none" xmlns="http://www.w3.org/2000/svg">
<path d="M392.959 58.773C400.339 58.3497 407.253 53.3381 410.052 45.5429C413.712 35.3274 408.917 24.2595 399.339 20.8237C389.766 17.3878 379.034 22.8828 375.373 33.0977C372.553 40.9675 374.783 49.3022 380.325 54.305C352.173 48.8785 343.112 78.3572 343.112 78.3572L406.212 101.001C406.212 101.001 418.038 72.1441 392.959 58.773Z" fill="#FCBC03"/>
<path d="M432.74 290.045L410.158 271.988L381.538 272.107C377.757 272.49 374.586 272.403 373.548 275.389L368.38 290.257C364.79 300.581 363.981 311.768 366.492 322.765C368.606 332.02 373.25 342.407 382.857 351.323C394.438 351.612 405.308 345.43 412.706 339.482C421.499 332.415 427.802 323.138 431.391 312.813L436.04 299.442C437.521 295.185 435.953 292.309 432.74 290.045Z" fill="#4385F5"/>
<path d="M407.202 308.066C408.571 304.129 406.488 299.828 402.551 298.459C398.615 297.09 394.313 299.173 392.944 303.11C391.811 306.368 393.065 309.85 395.755 311.738L392.049 322.397L395.939 323.749L399.644 313.09C402.926 313.278 406.069 311.325 407.202 308.066Z" fill="#EBEBEB"/>
<path d="M379.225 210.239L384.295 211.738L382.973 215.593L377.809 213.851L378.961 218.883L375.039 219.712L374.003 214.612L369.996 218.338L367.269 215.34L371.296 211.916L366.218 210.375L367.498 206.529L372.671 208.313L371.552 203.23L375.475 202.4L376.468 207.51L380.475 203.784L383.244 206.773L379.225 210.239Z" fill="#109D59"/>
<path d="M398.167 206.232L403.236 207.732L401.915 211.586L396.751 209.844L397.903 214.876L393.981 215.706L392.945 210.605L388.938 214.331L386.21 211.333L390.238 207.909L385.16 206.368L386.44 202.522L391.612 204.306L390.494 199.223L394.416 198.394L395.409 203.503L399.417 199.777L402.186 202.766L398.167 206.232Z" fill="#109D59"/>
<path d="M417.109 202.225L422.179 203.725L420.857 207.579L415.694 205.838L416.845 210.869L412.923 211.699L411.888 206.599L407.88 210.324L405.153 207.326L409.181 203.902L404.102 202.361L405.382 198.516L410.555 200.299L409.437 195.216L413.359 194.387L414.352 199.496L418.359 195.77L421.128 198.759L417.109 202.225Z" fill="#109D59"/>
<path d="M191.201 355.137V383.718H232.997H279.095V355.137H191.201Z" fill="#F0F0F0"/>
<path d="M187.513 347.146V355.137H282.169V347.146H232.997H187.513Z" fill="#455A64"/>
<path d="M234.84 383.718H279.095V355.137H282.169V347.146H232.997V354.398L234.84 383.718Z" fill="#455A64"/>
<path d="M221.317 359.746H203.493V364.048H221.317V359.746Z" fill="#4B4B4B"/>
<path d="M224.087 369.427H201.2V378.512H224.087V369.427Z" fill="#A6A3A3"/>
<path d="M204.724 318.605V347.187H246.519H292.618V318.605H204.724Z" fill="#E9E7E7"/>
<path d="M201.036 310.614V318.604H295.691V310.614H246.519H201.036Z" fill="#455A64"/>
<path d="M248.363 347.186H292.617V318.604H295.691V310.614H246.519V317.866L248.363 347.186Z" fill="#455A64"/>
<path d="M234.841 323.216H217.017V327.518H234.841V323.216Z" fill="#434040"/>
<path d="M237.61 332.892H214.723V341.977H237.61V332.892Z" fill="#827D7D"/>
<path d="M393.93 387.659C393.93 387.792 305.739 387.898 196.974 387.898C88.1724 387.898 0 387.791 0 387.659C0 387.528 88.1724 387.42 196.974 387.42C305.739 387.42 393.93 387.527 393.93 387.659Z" fill="#263238"/>
<path d="M312.629 163.706H148.266C144.933 163.706 142.229 161.004 142.229 157.671V6.4528C142.229 3.11927 144.932 0.416016 148.266 0.416016H312.629C315.962 0.416016 318.664 3.11835 318.664 6.4528V157.67C318.665 161.003 315.962 163.706 312.629 163.706Z" fill="white"/>
<path d="M312.629 163.706C312.629 163.706 312.775 163.69 313.063 163.672C313.35 163.652 313.78 163.592 314.326 163.434C314.866 163.265 315.529 162.987 316.202 162.481C316.87 161.978 317.564 161.248 318.031 160.241C318.552 159.247 318.658 157.99 318.606 156.616C318.602 155.241 318.598 153.736 318.595 152.108C318.588 148.849 318.581 145.089 318.572 140.858C318.554 123.922 318.528 99.4283 318.496 69.1624C318.487 54.0268 318.478 37.4493 318.467 19.6527C318.458 15.2077 318.45 10.6863 318.442 6.09318C318.335 3.8647 316.798 1.76686 314.665 0.997658C313.609 0.557849 312.453 0.628698 311.269 0.625937C310.093 0.626857 308.911 0.62686 307.727 0.62778C298.247 0.63054 288.491 0.634219 278.485 0.637899C238.464 0.64342 194.466 0.64986 148.283 0.657221C146.893 0.659061 145.519 1.16696 144.475 2.07694C143.422 2.97588 142.718 4.26586 142.535 5.63221C142.44 6.30388 142.478 7.02893 142.47 7.74568V9.8932C142.47 11.324 142.47 12.752 142.47 14.1772C142.47 19.88 142.469 25.545 142.469 31.1696C142.468 42.4179 142.466 53.5005 142.465 64.3908C142.46 86.1714 142.456 107.18 142.451 127.193C142.448 137.2 142.445 146.958 142.441 156.439C142.446 157.028 142.426 157.634 142.467 158.194C142.529 158.759 142.644 159.321 142.864 159.847C143.289 160.901 144.027 161.817 144.952 162.462C145.88 163.102 146.988 163.467 148.109 163.492C149.266 163.495 150.418 163.499 151.566 163.501C156.164 163.503 160.69 163.506 165.14 163.508C182.938 163.518 199.516 163.528 214.652 163.537C244.917 163.569 269.41 163.595 286.343 163.614C294.803 163.633 301.372 163.649 305.835 163.659C308.058 163.669 309.755 163.677 310.903 163.683C312.043 163.689 312.629 163.706 312.629 163.706C312.629 163.706 312.043 163.722 310.902 163.73C309.753 163.736 308.057 163.743 305.833 163.754C301.371 163.765 294.801 163.78 286.341 163.799C269.408 163.818 244.916 163.844 214.65 163.876C199.514 163.885 182.936 163.894 165.138 163.905C160.689 163.907 156.163 163.91 151.564 163.912C150.413 163.91 149.256 163.907 148.096 163.905C146.897 163.88 145.708 163.489 144.713 162.804C143.721 162.114 142.929 161.134 142.473 160.004C142.239 159.441 142.113 158.838 142.046 158.232C142.001 157.613 142.023 157.036 142.018 156.44C142.014 146.959 142.011 137.201 142.008 127.194C142.003 107.181 141.999 86.1714 141.994 64.3917C141.993 53.5014 141.991 42.4179 141.99 31.1705C141.99 25.5469 141.989 19.8809 141.989 14.1781C141.989 12.752 141.989 11.324 141.989 9.89412V7.7466C141.999 7.03353 141.956 6.31676 142.059 5.56596C142.258 4.08644 143.021 2.68881 144.159 1.71626C145.288 0.73175 146.78 0.179688 148.281 0.179688C194.464 0.186128 238.463 0.192569 278.484 0.19809C288.489 0.20177 298.246 0.204532 307.725 0.208213C308.91 0.208213 310.091 0.209132 311.267 0.209132C312.418 0.212813 313.674 0.137365 314.808 0.610297C317.093 1.43747 318.736 3.68343 318.849 6.07018C318.854 10.6725 318.858 15.2013 318.862 19.6546C318.851 37.4512 318.842 54.0286 318.833 69.1643C318.801 99.4301 318.775 123.924 318.757 140.86C318.748 145.091 318.741 148.851 318.734 152.11C318.73 153.738 318.726 155.243 318.723 156.618C318.768 157.981 318.653 159.285 318.115 160.286C317.634 161.305 316.925 162.039 316.244 162.542C315.557 163.048 314.885 163.32 314.337 163.484C313.784 163.636 313.351 163.687 313.062 163.698C312.775 163.707 312.629 163.706 312.629 163.706Z" fill="#263238"/>
<path d="M155.544 11.7337C155.544 13.4184 154.179 14.7839 152.494 14.7839C150.809 14.7839 149.444 13.4184 149.444 11.7337C149.444 10.049 150.809 8.68359 152.494 8.68359C154.179 8.68359 155.544 10.049 155.544 11.7337Z" fill="#263238"/>
<path d="M161.404 14.7839C163.088 14.7839 164.454 13.4183 164.454 11.7337C164.454 10.0492 163.088 8.68359 161.404 8.68359C159.719 8.68359 158.354 10.0492 158.354 11.7337C158.354 13.4183 159.719 14.7839 161.404 14.7839Z" fill="#263238"/>
<path d="M170.312 14.7839C171.996 14.7839 173.362 13.4183 173.362 11.7337C173.362 10.0492 171.996 8.68359 170.312 8.68359C168.627 8.68359 167.262 10.0492 167.262 11.7337C167.262 13.4183 168.627 14.7839 170.312 14.7839Z" fill="#263238"/>
<path d="M318.665 20.3867C318.665 20.5192 279.165 20.6259 230.452 20.6259C181.721 20.6259 142.229 20.5183 142.229 20.3867C142.229 20.2551 181.72 20.1475 230.452 20.1475C279.165 20.1475 318.665 20.2551 318.665 20.3867Z" fill="#263238"/>
<path d="M255.369 81.8984C255.369 81.8984 255.439 81.8009 255.58 81.615C255.616 81.5681 255.655 81.5165 255.698 81.4586C255.739 81.3988 255.775 81.327 255.818 81.2525C255.904 81.1025 256.01 80.9314 256.087 80.716C256.128 80.6102 256.179 80.5008 256.221 80.3802C256.255 80.2578 256.29 80.129 256.328 79.9929C256.371 79.8585 256.394 79.7141 256.417 79.5622C256.436 79.4104 256.478 79.254 256.483 79.0875C256.555 78.425 256.511 77.6521 256.378 76.7983C256.114 75.086 255.388 73.07 254.277 70.8793C253.167 68.683 251.64 66.3211 249.763 63.8589C247.885 61.3958 245.627 58.8526 243.032 56.2984C240.434 53.747 237.492 51.1845 234.196 48.7554C232.546 47.5427 230.806 46.3668 228.972 45.2599C227.14 44.1494 225.208 43.1143 223.17 42.2172C221.132 41.3311 218.982 40.5591 216.714 40.1929C215.584 40.019 214.418 39.9344 213.271 40.1083C212.698 40.1966 212.137 40.3521 211.607 40.5895C211.086 40.8435 210.607 41.1821 210.211 41.6099C209.831 42.0515 209.547 42.5659 209.353 43.1115C209.177 43.6645 209.084 44.2405 209.062 44.8192C209.019 45.9785 209.235 47.1277 209.537 48.2309C210.158 50.4429 211.17 52.4919 212.282 54.4168C213.405 56.3398 214.654 58.1423 215.965 59.8362C217.274 61.5329 218.64 63.1283 220.033 64.629C222.822 67.6285 225.703 70.26 228.533 72.5511C231.366 74.8394 234.151 76.7927 236.812 78.3781C239.472 79.9625 241.992 81.2111 244.299 82.064C246.602 82.9188 248.688 83.4101 250.419 83.4782C251.282 83.5122 252.055 83.4681 252.704 83.3218C252.869 83.2979 253.02 83.239 253.168 83.2022C253.316 83.1626 253.458 83.123 253.586 83.0642C253.716 83.0117 253.84 82.962 253.958 82.9142C254.072 82.8581 254.176 82.7964 254.276 82.743C254.481 82.6427 254.639 82.5176 254.778 82.4155C254.847 82.364 254.915 82.3198 254.97 82.2729C255.022 82.2232 255.069 82.1772 255.111 82.1367C255.28 81.9794 255.369 81.8984 255.369 81.8984C255.369 81.8984 255.287 81.9849 255.121 82.1505C255.079 82.1919 255.032 82.2379 254.981 82.2894C254.926 82.3373 254.859 82.3823 254.791 82.4348C254.652 82.5388 254.495 82.6667 254.29 82.7697C254.189 82.8249 254.086 82.8875 253.971 82.9445C253.853 82.9933 253.729 83.0448 253.598 83.0982C253.469 83.158 253.327 83.1985 253.178 83.2399C253.029 83.2776 252.877 83.3383 252.712 83.3632C252.059 83.515 251.282 83.5638 250.415 83.5334C248.676 83.4736 246.583 82.9878 244.272 82.1376C241.956 81.2902 239.428 80.0453 236.761 78.4636C234.093 76.8811 231.302 74.9295 228.462 72.6422C225.624 70.352 222.736 67.7205 219.941 64.7182C218.545 63.2157 217.175 61.6184 215.861 59.919C214.545 58.2214 213.293 56.4153 212.165 54.4867C211.048 52.5563 210.031 50.4999 209.404 48.2696C209.101 47.1572 208.881 45.996 208.925 44.8165C208.947 44.2276 209.042 43.6387 209.222 43.071C209.421 42.5088 209.715 41.9789 210.107 41.5216C210.517 41.079 211.012 40.7294 211.547 40.4681C212.091 40.2233 212.665 40.065 213.248 39.9749C214.414 39.7982 215.592 39.8847 216.732 40.0605C219.018 40.4294 221.176 41.206 223.221 42.0957C225.264 42.9965 227.201 44.0353 229.037 45.1486C230.874 46.2601 232.617 47.4387 234.267 48.6551C237.568 51.0906 240.51 53.6605 243.109 56.2183C245.704 58.7799 247.961 61.3304 249.837 63.8009C251.713 66.2705 253.237 68.6406 254.343 70.8443C255.451 73.0442 256.171 75.0685 256.429 76.79C256.558 77.6475 256.598 78.425 256.522 79.0912C256.516 79.2586 256.473 79.416 256.453 79.5687C256.429 79.7214 256.404 79.8668 256.36 80.0021C256.321 80.1382 256.285 80.267 256.25 80.3903C256.206 80.5099 256.155 80.6204 256.112 80.7262C256.032 80.9424 255.924 81.1126 255.836 81.2626C255.79 81.3371 255.754 81.408 255.712 81.4678C255.667 81.5248 255.627 81.5763 255.59 81.6224C255.446 81.8064 255.369 81.8984 255.369 81.8984Z" fill="#FF725E"/>
<path d="M263.722 61.739C263.722 61.739 263.709 61.6194 263.691 61.3866C263.686 61.3286 263.682 61.2633 263.675 61.1906C263.665 61.1188 263.645 61.0415 263.627 60.9569C263.59 60.7876 263.557 60.5898 263.47 60.3781C263.43 60.2714 263.394 60.1564 263.347 60.0386C263.291 59.9245 263.231 59.8049 263.169 59.6789C263.112 59.55 263.033 59.4267 262.949 59.2979C262.863 59.1719 262.79 59.0274 262.682 58.8995C262.295 58.3576 261.748 57.8101 261.08 57.2618C259.744 56.1604 257.86 55.1391 255.572 54.2438C253.282 53.344 250.57 52.5978 247.53 52.0098C244.489 51.4219 241.111 51.0262 237.474 50.8477C233.837 50.6738 229.936 50.7189 225.859 51.1017C223.821 51.2949 221.74 51.5755 219.634 51.9702C217.527 52.3613 215.397 52.8756 213.278 53.562C211.168 54.2576 209.05 55.1124 207.114 56.349C206.154 56.971 205.228 57.685 204.489 58.5775C204.121 59.0237 203.805 59.5142 203.568 60.0441C203.349 60.5806 203.216 61.1519 203.206 61.7353C203.216 62.3186 203.347 62.8909 203.566 63.4273C203.803 63.9573 204.117 64.4487 204.486 64.8949C205.225 65.7893 206.151 66.5023 207.111 67.1252C209.047 68.3628 211.166 69.2185 213.277 69.9141C215.395 70.6014 217.527 71.1148 219.633 71.5068C221.739 71.9015 223.821 72.1821 225.859 72.3753C229.937 72.7572 233.838 72.8032 237.475 72.6284C241.112 72.4499 244.491 72.0542 247.532 71.4663C250.571 70.8783 253.283 70.1321 255.573 69.2323C257.86 68.337 259.744 67.3157 261.08 66.2143C261.748 65.666 262.294 65.1176 262.681 64.5766C262.789 64.4487 262.862 64.3051 262.948 64.1782C263.032 64.0493 263.112 63.926 263.168 63.7972C263.231 63.6712 263.29 63.5516 263.346 63.4375C263.394 63.3197 263.429 63.2047 263.469 63.098C263.556 62.8863 263.59 62.6885 263.626 62.5192C263.643 62.4346 263.664 62.3573 263.674 62.2855C263.68 62.2137 263.685 62.1484 263.69 62.0895C263.709 61.8586 263.722 61.739 263.722 61.739C263.722 61.739 263.718 61.8586 263.705 62.0923C263.701 62.1512 263.697 62.2165 263.693 62.2892C263.683 62.361 263.664 62.4392 263.648 62.5247C263.614 62.695 263.582 62.8946 263.498 63.1081C263.459 63.2157 263.424 63.3317 263.377 63.4504C263.321 63.5654 263.263 63.6868 263.201 63.8138C263.145 63.9435 263.066 64.0687 262.982 64.1984C262.896 64.3263 262.823 64.4717 262.716 64.6005C262.33 65.1479 261.782 65.7018 261.115 66.2557C259.778 67.3681 257.892 68.3996 255.601 69.304C253.309 70.2131 250.593 70.9667 247.55 71.561C244.506 72.1564 241.123 72.5575 237.482 72.7415C233.84 72.921 229.933 72.8796 225.848 72.5005C223.806 72.3082 221.72 72.0285 219.61 71.6347C217.498 71.2436 215.362 70.7293 213.236 70.041C211.118 69.3436 208.99 68.4861 207.038 67.2393C206.071 66.6109 205.135 65.8914 204.382 64.9823C204.007 64.5278 203.685 64.0254 203.442 63.4816C203.216 62.9296 203.081 62.3389 203.071 61.7362C203.081 61.1335 203.218 60.5428 203.443 59.9917C203.686 59.4479 204.009 58.9465 204.385 58.4919C205.138 57.5838 206.074 56.8633 207.042 56.2368C208.994 54.9909 211.121 54.1334 213.239 53.4369C215.364 52.7486 217.5 52.2343 219.611 51.8442C221.722 51.4504 223.807 51.1707 225.849 50.9784C229.933 50.5993 233.84 50.5579 237.482 50.7373C241.123 50.9213 244.506 51.3225 247.55 51.9169C250.593 52.5113 253.309 53.2648 255.601 54.1739C257.892 55.0783 259.778 56.1089 261.115 57.2222C261.782 57.7761 262.33 58.33 262.716 58.8774C262.823 59.0063 262.896 59.1516 262.982 59.2795C263.066 59.4093 263.145 59.5344 263.201 59.6651C263.263 59.792 263.322 59.9135 263.377 60.0285C263.424 60.1472 263.46 60.2631 263.498 60.3708C263.582 60.5842 263.614 60.7839 263.648 60.9541C263.664 61.0397 263.684 61.117 263.693 61.1897C263.697 61.2624 263.701 61.3277 263.705 61.3866C263.718 61.6194 263.722 61.739 263.722 61.739Z" fill="#FF725E"/>
<path d="M252.655 36.6421C252.655 36.6421 252.553 36.5786 252.358 36.4507C252.309 36.4185 252.254 36.3826 252.194 36.3431C252.132 36.3072 252.058 36.2759 251.981 36.2382C251.825 36.1637 251.648 36.0689 251.427 36.0072C251.318 35.9732 251.205 35.9309 251.083 35.8968C250.958 35.872 250.827 35.8453 250.689 35.8168C250.553 35.7827 250.406 35.7698 250.253 35.7579C250.1 35.7487 249.941 35.7183 249.774 35.7248C249.108 35.699 248.34 35.7956 247.498 35.987C245.809 36.3688 243.847 37.2319 241.737 38.4915C239.623 39.7493 237.371 41.4368 235.045 43.4785C232.717 45.5211 230.335 47.9492 227.966 50.7141C225.6 53.4818 223.246 56.5927 221.05 60.0495C219.954 61.7784 218.9 63.5956 217.922 65.502C216.941 67.4066 216.042 69.4051 215.287 71.5001C214.544 73.5943 213.922 75.7924 213.713 78.0798C213.617 79.2198 213.613 80.3883 213.866 81.5201C213.993 82.0841 214.187 82.6343 214.461 83.1459C214.75 83.6482 215.121 84.1028 215.575 84.4681C216.043 84.8168 216.574 85.0643 217.133 85.2207C217.697 85.3578 218.277 85.4112 218.856 85.3928C220.015 85.356 221.147 85.0615 222.227 84.6843C224.391 83.9123 226.366 82.7613 228.209 81.5201C230.05 80.2669 231.762 78.8978 233.362 77.4725C234.964 76.0491 236.461 74.576 237.863 73.0836C240.663 70.0952 243.09 67.0395 245.18 64.0574C247.268 61.0736 249.024 58.1614 250.423 55.3975C251.821 52.6353 252.893 50.0342 253.584 47.6732C254.278 45.3168 254.625 43.2024 254.574 41.4708C254.549 40.6077 254.451 39.8395 254.26 39.2018C254.225 39.039 254.156 38.8927 254.109 38.7473C254.059 38.6019 254.01 38.4639 253.943 38.3397C253.882 38.2136 253.824 38.0931 253.768 37.979C253.704 37.8695 253.635 37.7701 253.575 37.6735C253.461 37.4757 253.325 37.3276 253.214 37.1951C253.158 37.1298 253.109 37.0663 253.058 37.0147C253.005 36.966 252.956 36.9218 252.913 36.8832C252.742 36.7249 252.655 36.6421 252.655 36.6421C252.655 36.6421 252.747 36.7185 252.924 36.8721C252.968 36.9108 253.018 36.954 253.072 37.0019C253.123 37.0534 253.173 37.116 253.23 37.1813C253.343 37.3129 253.482 37.4601 253.599 37.6579C253.661 37.7545 253.731 37.853 253.796 37.9634C253.853 38.0784 253.913 38.1989 253.976 38.325C254.044 38.4492 254.094 38.5881 254.146 38.7335C254.194 38.8798 254.264 39.0261 254.301 39.1899C254.497 39.8312 254.599 40.6022 254.629 41.469C254.689 43.2079 254.348 45.3297 253.66 47.6944C252.974 50.0627 251.906 52.6703 250.511 55.4407C249.116 58.2111 247.362 61.1306 245.275 64.1219C243.185 67.1103 240.759 70.1724 237.957 73.1683C236.553 74.6644 235.055 76.1411 233.45 77.5682C231.847 78.9981 230.132 80.3718 228.285 81.6295C226.436 82.8763 224.455 84.0328 222.273 84.8112C221.184 85.1913 220.041 85.4903 218.862 85.528C218.273 85.5464 217.678 85.4921 217.1 85.3514C216.526 85.1913 215.976 84.9364 215.493 84.5748C215.023 84.1976 214.64 83.7274 214.343 83.2112C214.062 82.6858 213.864 82.1236 213.734 81.5486C213.477 80.3966 213.483 79.2161 213.579 78.0669C213.79 75.7611 214.416 73.5547 215.163 71.4541C215.921 69.3526 216.824 67.3496 217.808 65.4413C218.79 63.5311 219.847 61.7121 220.946 59.9814C223.148 56.5209 225.509 53.4082 227.882 50.6396C230.259 47.8738 232.648 45.4466 234.984 43.4048C237.318 41.3641 239.578 39.6794 241.7 38.4253C243.819 37.1684 245.789 36.3099 247.488 35.9345C248.334 35.7468 249.107 35.653 249.777 35.6834C249.945 35.6778 250.104 35.7091 250.258 35.7192C250.412 35.733 250.559 35.7468 250.696 35.7818C250.834 35.8113 250.966 35.8389 251.091 35.8655C251.213 35.9005 251.327 35.9447 251.436 35.9796C251.657 36.0431 251.834 36.1406 251.99 36.2179C252.067 36.2575 252.141 36.2897 252.203 36.3265C252.263 36.3679 252.317 36.4047 252.366 36.4378C252.559 36.5713 252.655 36.6421 252.655 36.6421Z" fill="#FF725E"/>
<path d="M202.807 74.2393C203.247 74.6791 203.247 75.3913 202.807 75.8302C202.368 76.2691 201.655 76.2691 201.216 75.8302C200.777 75.3913 200.777 74.6782 201.216 74.2393C201.656 73.8004 202.368 73.8004 202.807 74.2393Z" fill="#FF725E"/>
<path d="M266.282 39.3792C266.282 40.0003 265.779 40.5045 265.157 40.5045C264.536 40.5045 264.032 40.0012 264.032 39.3792C264.032 38.7581 264.535 38.2539 265.157 38.2539C265.778 38.2539 266.282 38.7581 266.282 39.3792Z" fill="#FF725E"/>
<path d="M209.914 77.94C209.914 78.0985 209.785 78.2266 209.627 78.2266C209.468 78.2266 209.34 78.0985 209.34 77.94C209.34 77.7814 209.468 77.6533 209.627 77.6533C209.785 77.6533 209.914 77.7814 209.914 77.94Z" fill="#FF725E"/>
<path d="M216.016 46.4155C216.016 46.5741 215.888 46.7022 215.729 46.7022C215.57 46.7022 215.442 46.5741 215.442 46.4155C215.442 46.257 215.57 46.1289 215.729 46.1289C215.888 46.1289 216.016 46.257 216.016 46.4155Z" fill="#FF725E"/>
<path d="M260.632 61.7388C260.632 61.8973 260.504 62.0254 260.346 62.0254C260.187 62.0254 260.059 61.8973 260.059 61.7388C260.059 61.5803 260.187 61.4521 260.346 61.4521C260.504 61.4531 260.632 61.5812 260.632 61.7388Z" fill="#FF725E"/>
<path d="M264.605 48.4087C264.605 48.5672 264.477 48.6953 264.318 48.6953C264.16 48.6953 264.032 48.5672 264.032 48.4087C264.032 48.2502 264.16 48.1221 264.318 48.1221C264.477 48.1221 264.605 48.2502 264.605 48.4087Z" fill="#FF725E"/>
<path d="M245.336 68.0238H241.8V48.7799C241.8 44.2502 238.115 40.5652 233.585 40.5652C229.055 40.5652 225.37 44.2502 225.37 48.7799V68.0238H221.834V48.7799C221.834 42.3006 227.106 37.0293 233.584 37.0293C240.063 37.0293 245.335 42.3006 245.335 48.7799V68.0238H245.336Z" fill="#EA4235"/>
<g opacity="0.3">
<path d="M245.336 68.0238H241.8V48.7799C241.8 44.2502 238.115 40.5652 233.585 40.5652C229.055 40.5652 225.37 44.2502 225.37 48.7799V68.0238H221.834V48.7799C221.834 42.3006 227.106 37.0293 233.584 37.0293C240.063 37.0293 245.335 42.3006 245.335 48.7799V68.0238H245.336Z" fill="black"/>
</g>
<path d="M247.348 79.7815H219.822C218.677 79.7815 217.75 78.854 217.75 77.7094V61.535C217.75 60.3904 218.677 59.4629 219.822 59.4629H247.348C248.492 59.4629 249.42 60.3904 249.42 61.535V77.7094C249.42 78.8531 248.492 79.7815 247.348 79.7815Z" fill="#EA4235"/>
<g opacity="0.3">
<path d="M236.232 66.9743C236.232 65.5122 235.047 64.3271 233.585 64.3271C232.123 64.3271 230.938 65.5122 230.938 66.9743C230.938 68.1842 231.754 69.1936 232.863 69.5092V73.4665H234.307V69.5092C235.416 69.1936 236.232 68.1842 236.232 66.9743Z" fill="black"/>
</g>
<path d="M219.439 77.8534C219.367 77.8534 219.308 74.4647 219.308 70.2856C219.308 66.1056 219.367 62.7178 219.439 62.7178C219.512 62.7178 219.571 66.1056 219.571 70.2856C219.57 74.4647 219.511 77.8534 219.439 77.8534Z" fill="#FAFAFA"/>
<path d="M231.512 70.3665C231.504 70.3793 231.388 70.3251 231.202 70.1907C231.015 70.0573 230.767 69.8282 230.519 69.4951C230.025 68.8474 229.574 67.6715 229.867 66.4017C230.174 65.1348 231.105 64.2864 231.837 63.9285C232.207 63.7417 232.532 63.6488 232.759 63.6129C232.986 63.5761 233.113 63.5798 233.115 63.5945C233.126 63.6442 232.613 63.692 231.926 64.0914C231.25 64.4732 230.406 65.2912 230.123 66.4615C229.851 67.6338 230.239 68.7443 230.672 69.3884C231.107 70.0545 231.544 70.3269 231.512 70.3665Z" fill="#FAFAFA"/>
<path d="M280.605 115.396H183.093C178.358 115.396 174.521 111.558 174.521 106.823V105.768C174.521 101.033 178.358 97.1953 183.093 97.1953H280.605C285.34 97.1953 289.178 101.033 289.178 105.768V106.823C289.178 111.557 285.34 115.396 280.605 115.396Z" fill="#F5F5F5"/>
<path d="M281.449 140.352H183.937C179.202 140.352 175.364 136.514 175.364 131.779V130.724C175.364 125.989 179.202 122.151 183.937 122.151H281.449C286.184 122.151 290.022 125.989 290.022 130.724V131.779C290.022 136.514 286.183 140.352 281.449 140.352Z" fill="#F5F5F5"/>
<path d="M192.642 106.151V103.515H193.732V106.11C193.732 107.005 194.122 107.374 194.781 107.374C195.447 107.374 195.831 107.005 195.831 106.11V103.515H196.906V106.151C196.906 107.535 196.113 108.303 194.775 108.303C193.436 108.303 192.642 107.536 192.642 106.151Z" fill="#263238"/>
<path d="M197.559 107.886L197.908 107.133C198.231 107.341 198.722 107.482 199.165 107.482C199.649 107.482 199.831 107.354 199.831 107.153C199.831 106.561 197.646 107.167 197.646 105.72C197.646 105.034 198.265 104.55 199.321 104.55C199.817 104.55 200.369 104.664 200.713 104.866L200.363 105.613C200.006 105.411 199.65 105.344 199.321 105.344C198.849 105.344 198.648 105.492 198.648 105.681C198.648 106.299 200.834 105.701 200.834 107.126C200.834 107.799 200.208 108.276 199.126 108.276C198.513 108.276 197.894 108.108 197.559 107.886Z" fill="#263238"/>
<path d="M205.003 106.709H202.266C202.366 107.16 202.749 107.435 203.301 107.435C203.684 107.435 203.961 107.321 204.209 107.086L204.767 107.691C204.431 108.075 203.926 108.276 203.273 108.276C202.023 108.276 201.208 107.49 201.208 106.413C201.208 105.33 202.036 104.551 203.14 104.551C204.202 104.551 205.022 105.264 205.022 106.427C205.023 106.508 205.009 106.622 205.003 106.709ZM202.253 106.097H204.035C203.961 105.64 203.618 105.344 203.147 105.344C202.67 105.344 202.326 105.633 202.253 106.097Z" fill="#263238"/>
<path d="M207.97 104.551V105.52C207.881 105.513 207.815 105.506 207.734 105.506C207.155 105.506 206.772 105.821 206.772 106.514V108.222H205.723V104.604H206.725V105.082C206.98 104.732 207.41 104.551 207.97 104.551Z" fill="#263238"/>
<path d="M212.293 106.151V108.222H211.244V106.312C211.244 105.727 210.975 105.458 210.511 105.458C210.007 105.458 209.643 105.767 209.643 106.433V108.222H208.594V104.604H209.596V105.027C209.879 104.718 210.303 104.55 210.793 104.55C211.648 104.551 212.293 105.049 212.293 106.151Z" fill="#263238"/>
<path d="M216.443 106.158V108.223H215.462V107.772C215.267 108.101 214.89 108.276 214.358 108.276C213.511 108.276 213.007 107.805 213.007 107.18C213.007 106.542 213.457 106.097 214.56 106.097H215.394C215.394 105.647 215.124 105.384 214.56 105.384C214.176 105.384 213.78 105.512 213.517 105.721L213.141 104.988C213.538 104.705 214.122 104.551 214.701 104.551C215.803 104.551 216.443 105.061 216.443 106.158ZM215.394 107.079V106.709H214.674C214.184 106.709 214.029 106.891 214.029 107.133C214.029 107.395 214.251 107.57 214.621 107.57C214.969 107.57 215.272 107.409 215.394 107.079Z" fill="#263238"/>
<path d="M223.503 106.151V108.222H222.454V106.312C222.454 105.727 222.192 105.458 221.768 105.458C221.297 105.458 220.968 105.761 220.968 106.406V108.222H219.919V106.312C219.919 105.727 219.669 105.458 219.233 105.458C218.768 105.458 218.439 105.761 218.439 106.406V108.222H217.39V104.604H218.392V105.021C218.661 104.712 219.064 104.55 219.528 104.55C220.033 104.55 220.463 104.745 220.719 105.141C221.008 104.772 221.478 104.55 222.024 104.55C222.885 104.551 223.503 105.049 223.503 106.151Z" fill="#263238"/>
<path d="M228.01 106.709H225.273C225.373 107.16 225.756 107.435 226.308 107.435C226.691 107.435 226.967 107.321 227.216 107.086L227.773 107.691C227.438 108.075 226.932 108.276 226.28 108.276C225.03 108.276 224.216 107.49 224.216 106.413C224.216 105.33 225.043 104.551 226.147 104.551C227.208 104.551 228.029 105.264 228.029 106.427C228.029 106.508 228.016 106.622 228.01 106.709ZM225.26 106.097H227.041C226.967 105.64 226.624 105.344 226.153 105.344C225.676 105.344 225.333 105.633 225.26 106.097Z" fill="#263238"/>
<path d="M234.943 106.381C234.943 107.584 234.392 108.27 233.565 108.27C233.107 108.27 232.784 108.069 232.644 107.685C232.408 108.063 232.024 108.27 231.493 108.27C230.626 108.27 229.939 107.584 229.939 106.569C229.939 105.56 230.618 104.874 231.493 104.874C231.937 104.874 232.287 105.029 232.53 105.318V104.92H233.443V107.099C233.443 107.422 233.585 107.53 233.767 107.53C234.076 107.53 234.265 107.174 234.265 106.393C234.265 105.029 233.255 104.087 231.762 104.087C230.262 104.087 229.26 105.109 229.26 106.515C229.26 107.948 230.242 108.963 231.735 108.963C232.16 108.963 232.636 108.876 233.06 108.667L233.275 109.285C232.865 109.494 232.266 109.608 231.735 109.608C229.791 109.608 228.507 108.29 228.507 106.515C228.507 104.759 229.804 103.448 231.761 103.448C233.652 103.448 234.943 104.692 234.943 106.381ZM232.543 106.569C232.543 105.984 232.186 105.655 231.702 105.655C231.212 105.655 230.869 105.998 230.869 106.569C230.869 107.147 231.212 107.497 231.702 107.497C232.186 107.497 232.543 107.161 232.543 106.569Z" fill="#263238"/>
<path d="M241.803 106.151V108.222H240.754V106.312C240.754 105.727 240.491 105.458 240.067 105.458C239.596 105.458 239.268 105.761 239.268 106.406V108.222H238.218V106.312C238.218 105.727 237.969 105.458 237.532 105.458C237.068 105.458 236.738 105.761 236.738 106.406V108.222H235.689V104.604H236.691V105.021C236.96 104.712 237.363 104.55 237.828 104.55C238.332 104.55 238.763 104.745 239.018 105.141C239.307 104.772 239.777 104.55 240.323 104.55C241.184 104.551 241.803 105.049 241.803 106.151Z" fill="#263238"/>
<path d="M245.946 106.158V108.223H244.965V107.772C244.77 108.101 244.394 108.276 243.862 108.276C243.014 108.276 242.51 107.805 242.51 107.18C242.51 106.542 242.96 106.097 244.063 106.097H244.897C244.897 105.647 244.628 105.384 244.063 105.384C243.68 105.384 243.283 105.512 243.021 105.721L242.645 104.988C243.041 104.705 243.625 104.551 244.204 104.551C245.307 104.551 245.946 105.061 245.946 106.158ZM244.897 107.079V106.709H244.177C243.687 106.709 243.532 106.891 243.532 107.133C243.532 107.395 243.754 107.57 244.124 107.57C244.473 107.57 244.776 107.409 244.897 107.079Z" fill="#263238"/>
<path d="M246.767 103.515C246.767 103.185 247.029 102.93 247.419 102.93C247.81 102.93 248.072 103.172 248.072 103.495C248.072 103.844 247.81 104.1 247.419 104.1C247.029 104.1 246.767 103.844 246.767 103.515ZM246.894 104.604H247.943V108.222H246.894V104.604Z" fill="#263238"/>
<path d="M248.918 103.232H249.967V108.222H248.918V103.232Z" fill="#263238"/>
<path d="M250.687 107.618C250.687 107.227 250.976 106.972 251.339 106.972C251.704 106.972 251.992 107.227 251.992 107.618C251.992 108 251.703 108.276 251.339 108.276C250.977 108.276 250.687 108 250.687 107.618Z" fill="#263238"/>
<path d="M252.388 106.413C252.388 105.324 253.229 104.551 254.406 104.551C255.166 104.551 255.765 104.88 256.027 105.472L255.213 105.909C255.018 105.566 254.729 105.411 254.399 105.411C253.868 105.411 253.451 105.781 253.451 106.413C253.451 107.045 253.868 107.415 254.399 107.415C254.728 107.415 255.018 107.267 255.213 106.917L256.027 107.361C255.765 107.939 255.166 108.275 254.406 108.275C253.229 108.276 252.388 107.502 252.388 106.413Z" fill="#263238"/>
<path d="M256.316 106.413C256.316 105.324 257.156 104.551 258.307 104.551C259.457 104.551 260.29 105.324 260.29 106.413C260.29 107.502 259.457 108.276 258.307 108.276C257.156 108.276 256.316 107.502 256.316 106.413ZM259.229 106.413C259.229 105.787 258.832 105.411 258.308 105.411C257.783 105.411 257.379 105.787 257.379 106.413C257.379 107.039 257.783 107.415 258.308 107.415C258.832 107.415 259.229 107.039 259.229 106.413Z" fill="#263238"/>
<path d="M267.103 106.151V108.222H266.054V106.312C266.054 105.727 265.792 105.458 265.368 105.458C264.897 105.458 264.569 105.761 264.569 106.406V108.222H263.519V106.312C263.519 105.727 263.269 105.458 262.833 105.458C262.369 105.458 262.039 105.761 262.039 106.406V108.222H260.99V104.604H261.992V105.021C262.261 104.712 262.664 104.55 263.129 104.55C263.633 104.55 264.063 104.745 264.319 105.141C264.607 104.772 265.078 104.55 265.624 104.55C266.485 104.551 267.103 105.049 267.103 106.151Z" fill="#263238"/>
<path d="M206.693 131.35L208.396 132.272L207.631 133.554L205.912 132.538L205.943 134.429H204.474L204.491 132.522L202.772 133.554L202.022 132.272L203.725 131.35L202.022 130.413L202.772 129.131L204.491 130.162L204.474 128.256H205.943L205.912 130.162L207.631 129.131L208.396 130.413L206.693 131.35Z" fill="#263238"/>
<path d="M213.785 131.35L215.488 132.272L214.722 133.554L213.003 132.538L213.035 134.429H211.565L211.582 132.522L209.863 133.554L209.113 132.272L210.817 131.35L209.113 130.413L209.863 129.131L211.582 130.162L211.565 128.256H213.035L213.003 130.162L214.722 129.131L215.488 130.413L213.785 131.35Z" fill="#263238"/>
<path d="M220.875 131.35L222.578 132.272L221.813 133.554L220.094 132.538L220.125 134.429H218.656L218.672 132.522L216.953 133.554L216.204 132.272L217.908 131.35L216.204 130.413L216.953 129.131L218.672 130.162L218.656 128.256H220.125L220.094 130.162L221.813 129.131L222.578 130.413L220.875 131.35Z" fill="#263238"/>
<path d="M227.966 131.35L229.669 132.272L228.904 133.554L227.185 132.538L227.216 134.429H225.747L225.764 132.522L224.045 133.554L223.295 132.272L224.999 131.35L223.295 130.413L224.045 129.131L225.764 130.162L225.747 128.256H227.216L227.185 130.162L228.904 129.131L229.669 130.413L227.966 131.35Z" fill="#263238"/>
<path d="M235.057 131.35L236.76 132.272L235.995 133.554L234.276 132.538L234.307 134.429H232.838L232.854 132.522L231.136 133.554L230.386 132.272L232.09 131.35L230.386 130.413L231.136 129.131L232.854 130.162L232.838 128.256H234.307L234.276 130.162L235.995 129.131L236.76 130.413L235.057 131.35Z" fill="#263238"/>
<path d="M242.148 131.35L243.851 132.272L243.086 133.554L241.367 132.538L241.398 134.429H239.929L239.945 132.522L238.226 133.554L237.476 132.272L239.18 131.35L237.476 130.413L238.226 129.131L239.945 130.162L239.929 128.256H241.398L241.367 130.162L243.086 129.131L243.851 130.413L242.148 131.35Z" fill="#263238"/>
<path d="M249.239 131.35L250.942 132.272L250.176 133.554L248.458 132.538L248.489 134.429H247.019L247.036 132.522L245.317 133.554L244.567 132.272L246.271 131.35L244.567 130.413L245.317 129.131L247.036 130.162L247.019 128.256H248.489L248.458 130.162L250.176 129.131L250.942 130.413L249.239 131.35Z" fill="#263238"/>
<path d="M256.33 131.35L258.032 132.272L257.267 133.554L255.548 132.538L255.579 134.429H254.11L254.126 132.522L252.408 133.554L251.658 132.272L253.362 131.35L251.658 130.413L252.408 129.131L254.126 130.162L254.11 128.256H255.579L255.548 130.162L257.267 129.131L258.032 130.413L256.33 131.35Z" fill="#263238"/>
<path d="M333.872 264.793H196.753C193.512 264.793 190.884 262.165 190.884 258.924V187.948C190.884 184.707 193.511 182.079 196.753 182.079H333.872C337.112 182.079 339.74 184.707 339.74 187.948V258.924C339.74 262.166 337.112 264.793 333.872 264.793Z" fill="white"/>
<path d="M333.872 264.793C333.87 264.768 334.272 264.801 335.029 264.654C335.769 264.491 336.911 264.106 337.984 263.044C338.511 262.514 338.997 261.81 339.313 260.943C339.485 260.514 339.575 260.037 339.642 259.539C339.679 259.039 339.672 258.508 339.669 257.956C339.663 255.748 339.656 253.203 339.647 250.339C339.629 238.867 339.603 222.282 339.571 201.791C339.568 199.229 339.565 196.607 339.563 193.924C339.562 192.584 339.56 191.228 339.559 189.858C339.526 188.486 339.703 187.083 339.142 185.829C338.635 184.573 337.657 183.498 336.421 182.879C335.806 182.568 335.13 182.37 334.437 182.299C333.752 182.248 333.006 182.282 332.286 182.272C329.379 182.274 326.418 182.277 323.406 182.279C311.354 182.285 298.478 182.294 284.929 182.301C257.829 182.306 228.036 182.313 196.764 182.319C195.824 182.324 194.893 182.561 194.068 183C193.255 183.458 192.539 184.1 192.035 184.885C191.539 185.669 191.206 186.569 191.148 187.499C191.101 188.429 191.135 189.424 191.124 190.381C191.124 194.243 191.124 198.079 191.124 201.887C191.123 209.504 191.121 217.008 191.12 224.383C191.118 231.756 191.116 239 191.113 246.094C191.113 249.641 191.111 253.151 191.11 256.62C191.116 257.482 191.095 258.364 191.123 259.204C191.161 260.033 191.385 260.848 191.77 261.577C192.545 263.038 193.98 264.109 195.576 264.447C196.364 264.632 197.206 264.555 198.055 264.573C198.897 264.573 199.736 264.574 200.572 264.574C202.245 264.575 203.907 264.575 205.557 264.576C208.859 264.578 212.116 264.58 215.325 264.582C221.745 264.586 227.977 264.59 234.003 264.594C246.055 264.605 257.28 264.614 267.529 264.623C288.019 264.655 304.602 264.681 316.073 264.7C321.798 264.719 326.245 264.735 329.271 264.745C330.774 264.755 331.921 264.763 332.703 264.769C333.476 264.778 333.872 264.793 333.872 264.793C333.872 264.793 333.476 264.81 332.702 264.818C331.92 264.824 330.772 264.831 329.27 264.842C326.244 264.852 321.797 264.868 316.072 264.887C304.602 264.906 288.019 264.931 267.528 264.964C257.279 264.973 246.054 264.982 234.002 264.993C227.976 264.997 221.744 265.001 215.324 265.005C212.114 265.007 208.858 265.009 205.556 265.011C203.906 265.012 202.244 265.012 200.571 265.013C199.735 265.013 198.896 265.014 198.054 265.014C197.224 264.997 196.357 265.081 195.484 264.881C193.762 264.517 192.214 263.365 191.377 261.788C190.96 261.002 190.718 260.12 190.675 259.227C190.645 258.344 190.666 257.493 190.66 256.621C190.659 253.151 190.657 249.641 190.656 246.095C190.654 239.001 190.652 231.757 190.651 224.384C190.65 217.01 190.648 209.505 190.647 201.888C190.647 198.08 190.646 194.244 190.646 190.382C190.657 189.409 190.621 188.468 190.67 187.463C190.734 186.455 191.093 185.475 191.633 184.624C192.181 183.772 192.956 183.076 193.839 182.58C194.734 182.103 195.748 181.845 196.764 181.841C228.035 181.847 257.828 181.854 284.929 181.859C298.478 181.867 311.354 181.874 323.406 181.881C326.418 181.883 329.38 181.886 332.286 181.888C333.02 181.899 333.722 181.864 334.474 181.92C335.214 181.996 335.936 182.209 336.592 182.542C337.908 183.204 338.948 184.351 339.485 185.69C339.76 186.358 339.903 187.073 339.915 187.787C339.917 188.48 339.919 189.17 339.921 189.857C339.921 191.227 339.919 192.582 339.918 193.924C339.915 196.606 339.912 199.229 339.91 201.79C339.877 222.281 339.852 238.866 339.833 250.338C339.825 253.202 339.818 255.748 339.811 257.955C339.81 258.506 339.815 259.036 339.771 259.552C339.699 260.06 339.603 260.547 339.425 260.983C339.094 261.865 338.593 262.579 338.051 263.112C336.95 264.18 335.787 264.552 335.038 264.701C334.654 264.76 334.363 264.794 334.166 264.79C333.971 264.797 333.872 264.793 333.872 264.793Z" fill="#263238"/>
<path d="M242.746 211.305V212.338H238.439V206.775H242.642V207.809H239.718V209.017H242.301V210.019H239.718V211.305H242.746Z" fill="#263238"/>
<path d="M248.875 206.775V212.338H247.819L245.045 208.961V212.338H243.773V206.775H244.838L247.603 210.153V206.775H248.875Z" fill="#263238"/>
<path d="M251.348 207.824H249.567V206.774H254.415V207.824H252.635V212.337H251.348V207.824Z" fill="#263238"/>
<path d="M259.414 211.305V212.338H255.107V206.775H259.31V207.809H256.386V209.017H258.969V210.019H256.386V211.305H259.414Z" fill="#263238"/>
<path d="M263.984 212.338L262.911 210.788H262.849H261.728V212.338H260.441V206.775H262.849C264.334 206.775 265.264 207.546 265.264 208.794C265.264 209.628 264.843 210.24 264.12 210.55L265.367 212.337H263.984V212.338ZM262.777 207.824H261.728V209.763H262.777C263.564 209.763 263.961 209.397 263.961 208.793C263.961 208.182 263.564 207.824 262.777 207.824Z" fill="#263238"/>
<path d="M268.183 209.557C268.183 207.88 269.47 206.68 271.202 206.68C272.164 206.68 272.966 207.029 273.491 207.665L272.664 208.428C272.291 207.998 271.822 207.776 271.265 207.776C270.224 207.776 269.485 208.507 269.485 209.557C269.485 210.606 270.224 211.337 271.265 211.337C271.821 211.337 272.29 211.115 272.664 210.678L273.491 211.44C272.966 212.083 272.164 212.433 271.194 212.433C269.47 212.433 268.183 211.233 268.183 209.557Z" fill="#263238"/>
<path d="M273.89 209.557C273.89 207.903 275.177 206.68 276.934 206.68C278.682 206.68 279.978 207.895 279.978 209.557C279.978 211.218 278.683 212.433 276.934 212.433C275.177 212.433 273.89 211.209 273.89 209.557ZM278.674 209.557C278.674 208.5 277.928 207.776 276.933 207.776C275.94 207.776 275.192 208.499 275.192 209.557C275.192 210.613 275.94 211.337 276.933 211.337C277.928 211.337 278.674 210.614 278.674 209.557Z" fill="#263238"/>
<path d="M280.948 206.775H283.475C285.295 206.775 286.542 207.872 286.542 209.557C286.542 211.242 285.296 212.337 283.475 212.337H280.948V206.775ZM283.412 211.281C284.516 211.281 285.24 210.621 285.24 209.557C285.24 208.492 284.516 207.833 283.412 207.833H282.236V211.281H283.412Z" fill="#263238"/>
<path d="M291.82 211.305V212.338H287.513V206.775H291.716V207.809H288.792V209.017H291.375V210.019H288.792V211.305H291.82Z" fill="#263238"/>
<path d="M221.64 249.534H208.129C206.121 249.534 204.493 247.906 204.493 245.898V224.856C204.493 222.847 206.121 221.22 208.129 221.22H221.64C223.649 221.22 225.276 222.848 225.276 224.856V245.898C225.276 247.905 223.648 249.534 221.64 249.534Z" fill="#EBEBEB"/>
<path d="M247.594 249.534H234.083C232.074 249.534 230.447 247.906 230.447 245.898V224.856C230.447 222.847 232.074 221.22 234.083 221.22H247.594C249.602 221.22 251.23 222.848 251.23 224.856V245.898C251.23 247.905 249.602 249.534 247.594 249.534Z" fill="#EBEBEB"/>
<path d="M273.547 249.534H260.037C258.029 249.534 256.401 247.906 256.401 245.898V224.856C256.401 222.847 258.029 221.22 260.037 221.22H273.547C275.556 221.22 277.183 222.848 277.183 224.856V245.898C277.184 247.905 275.556 249.534 273.547 249.534Z" fill="#EBEBEB"/>
<path d="M299.502 249.534H285.991C283.982 249.534 282.354 247.906 282.354 245.898V224.856C282.354 222.847 283.983 221.22 285.991 221.22H299.502C301.51 221.22 303.138 222.848 303.138 224.856V245.898C303.138 247.905 301.51 249.534 299.502 249.534Z" fill="#EBEBEB"/>
<path d="M325.455 249.534H311.944C309.935 249.534 308.308 247.906 308.308 245.898V224.856C308.308 222.847 309.935 221.22 311.944 221.22H325.455C327.463 221.22 329.091 222.848 329.091 224.856V245.898C329.092 247.905 327.463 249.534 325.455 249.534Z" fill="#EBEBEB"/>
<path d="M219.413 237.564C219.413 239.586 217.85 240.897 215.733 240.897C212.827 240.897 211.295 238.812 211.295 235.353C211.295 231.61 213.285 229.683 216.207 229.683C217.154 229.683 218.039 229.841 218.718 230.251L218.386 230.899C217.818 230.536 217.044 230.393 216.207 230.393C213.728 230.393 212.1 232.021 212.1 235.226C212.1 235.557 212.117 236.048 212.196 236.553C212.654 235.1 214.043 234.279 215.718 234.279C217.929 234.279 219.413 235.574 219.413 237.564ZM218.607 237.579C218.607 236 217.471 234.973 215.607 234.973C213.789 234.973 212.542 236.126 212.542 237.611C212.542 238.906 213.632 240.2 215.701 240.2C217.423 240.201 218.607 239.175 218.607 237.579Z" fill="#FF725E"/>
<path d="M245.087 237.754H242.766V240.818H241.977V237.754H235.674V237.168L241.676 229.761H242.576L236.685 237.042H241.992V234.341H242.766V237.042H245.087V237.754Z" fill="#FF725E"/>
<path d="M271.855 242.387C271.855 242.519 269.698 242.626 267.039 242.626C264.378 242.626 262.222 242.518 262.222 242.387C262.222 242.254 264.378 242.147 267.039 242.147C269.698 242.147 271.855 242.255 271.855 242.387Z" fill="#FF725E"/>
<path d="M200.334 192.589C201.579 192.589 202.588 191.58 202.588 190.335C202.588 189.091 201.579 188.082 200.334 188.082C199.09 188.082 198.081 189.091 198.081 190.335C198.081 191.58 199.09 192.589 200.334 192.589Z" fill="#263238"/>
<path d="M209.084 190.335C209.084 191.58 208.075 192.589 206.83 192.589C205.586 192.589 204.577 191.579 204.577 190.335C204.577 189.091 205.586 188.082 206.83 188.082C208.075 188.082 209.084 189.09 209.084 190.335Z" fill="#263238"/>
<path d="M213.207 192.589C214.452 192.589 215.461 191.58 215.461 190.335C215.461 189.091 214.452 188.082 213.207 188.082C211.963 188.082 210.954 189.091 210.954 190.335C210.954 191.58 211.963 192.589 213.207 192.589Z" fill="#263238"/>
<path d="M339.963 196.684C339.963 196.816 306.636 196.923 265.533 196.923C224.416 196.923 191.095 196.815 191.095 196.684C191.095 196.551 224.415 196.444 265.533 196.444C306.636 196.443 339.963 196.551 339.963 196.684Z" fill="#263238"/>
<path d="M172.764 80.5264H101.092C99.0323 80.5264 97.3633 82.1954 97.3633 84.2546V116.906C97.3633 118.965 99.0323 120.635 101.092 120.635H131.16L137.546 128.824L142.869 120.635H172.765C174.824 120.635 176.493 118.965 176.493 116.906V84.2546C176.492 82.1954 174.823 80.5264 172.764 80.5264Z" fill="white"/>
<path d="M172.764 80.5259C172.764 80.5259 172.882 80.5194 173.118 80.525C173.351 80.5489 173.706 80.582 174.14 80.7522C174.571 80.916 175.093 81.2012 175.558 81.711C176.029 82.206 176.429 82.9421 176.54 83.841C176.609 87.3981 176.597 92.5673 176.626 99.1184C176.635 102.393 176.644 106.009 176.653 109.931C176.657 111.893 176.661 113.932 176.665 116.044C176.656 116.564 176.704 117.107 176.592 117.671C176.485 118.224 176.248 118.755 175.91 119.215C175.242 120.145 174.125 120.767 172.939 120.81C163.922 120.823 153.809 120.838 142.868 120.854L143.053 120.754C141.382 123.329 139.577 126.11 137.736 128.947L137.562 129.216L137.365 128.963C135.348 126.379 133.18 123.601 130.975 120.777L131.159 120.867C122.877 120.869 114.21 120.87 105.318 120.872C104.281 120.872 103.245 120.872 102.214 120.872C101.69 120.863 101.204 120.895 100.643 120.846C100.1 120.785 99.5696 120.608 99.0994 120.332C98.1545 119.786 97.458 118.838 97.2234 117.778C97.0945 117.241 97.1295 116.702 97.124 116.208V114.689C97.1249 110.646 97.1267 106.662 97.1277 102.747C97.1295 98.8322 97.1313 94.9871 97.1332 91.2211C97.1341 89.3386 97.136 87.4754 97.1369 85.6334L97.1378 84.256C97.1405 83.7711 97.2298 83.2871 97.4046 82.8381C97.7506 81.9364 98.4351 81.181 99.2826 80.7458C99.7058 80.5277 100.167 80.3833 100.638 80.3345C101.121 80.2903 101.551 80.3133 101.998 80.3078C102.886 80.3087 103.768 80.3097 104.644 80.3106C106.397 80.3124 108.126 80.3143 109.83 80.3161C113.238 80.3207 116.546 80.3244 119.745 80.3281C126.141 80.3391 132.101 80.3483 137.542 80.3575C148.411 80.3897 157.212 80.4155 163.312 80.4339C166.343 80.4532 168.701 80.4688 170.319 80.479C171.108 80.4891 171.715 80.4974 172.141 80.5029C172.554 80.5093 172.764 80.5259 172.764 80.5259C172.764 80.5259 172.553 80.5424 172.143 80.5507C171.716 80.5562 171.11 80.5645 170.321 80.5747C168.702 80.5848 166.345 80.6004 163.314 80.6197C157.214 80.6381 148.413 80.6639 137.544 80.6961C132.103 80.7053 126.143 80.7145 119.747 80.7255C116.547 80.7292 113.239 80.7329 109.832 80.7375C108.127 80.7394 106.399 80.7412 104.646 80.743C103.77 80.7439 102.887 80.7449 102 80.7458C101.56 80.7513 101.097 80.732 100.689 80.7716C100.271 80.8157 99.8622 80.9445 99.4868 81.1387C98.7351 81.527 98.1278 82.1986 97.8233 82.9991C97.6696 83.3985 97.5905 83.8263 97.5886 84.2578L97.5896 85.6352C97.5905 87.4773 97.5923 89.3405 97.5932 91.223C97.5951 94.989 97.5969 98.8341 97.5988 102.749C97.5997 106.664 97.6015 110.648 97.6024 114.691V116.21C97.607 116.727 97.5776 117.217 97.6908 117.675C97.8969 118.606 98.5106 119.44 99.3414 119.92C99.7555 120.162 100.22 120.318 100.699 120.371C101.162 120.414 101.709 120.387 102.216 120.395C103.247 120.395 104.282 120.395 105.32 120.395C114.212 120.397 122.879 120.398 131.16 120.4H131.274L131.344 120.49C133.547 123.318 135.712 126.098 137.726 128.683L137.355 128.699C139.199 125.865 141.008 123.086 142.683 120.513L142.748 120.412H142.868C153.802 120.422 163.91 120.432 172.922 120.44C173.997 120.405 175.011 119.845 175.621 119.003C175.929 118.585 176.147 118.105 176.245 117.602C176.349 117.108 176.307 116.575 176.318 116.044C176.323 113.932 176.326 111.893 176.33 109.931C176.34 106.009 176.349 102.394 176.357 99.1184C176.374 92.5866 176.388 87.4138 176.397 83.8567C176.301 82.9908 175.927 82.2722 175.477 81.7837C175.034 81.2813 174.531 80.9915 174.113 80.8194C173.26 80.4836 172.756 80.5636 172.764 80.5259Z" fill="#263238"/>
<path d="M108.527 97.5625V90.1905H109.411V96.8569H112.845V97.5625H108.527ZM115.58 97.6889C115.068 97.6889 114.615 97.5695 114.222 97.3308C113.829 97.0921 113.523 96.7551 113.306 96.3198C113.088 95.8845 112.979 95.3755 112.979 94.7927C112.979 94.203 113.088 93.694 113.306 93.2657C113.53 92.8304 113.839 92.4934 114.232 92.2547C114.633 92.0159 115.089 91.8966 115.601 91.8966C116.121 91.8966 116.574 92.0159 116.96 92.2547C117.353 92.4934 117.659 92.8304 117.876 93.2657C118.094 93.694 118.203 94.203 118.203 94.7927C118.203 95.3755 118.09 95.8845 117.866 96.3198C117.648 96.7551 117.343 97.0921 116.949 97.3308C116.556 97.5695 116.1 97.6889 115.58 97.6889ZM115.58 96.9306C115.903 96.9306 116.195 96.8534 116.454 96.6989C116.714 96.5374 116.918 96.2987 117.065 95.9828C117.22 95.6598 117.297 95.2631 117.297 94.7927C117.297 94.3153 117.223 93.9186 117.076 93.6027C116.928 93.2867 116.725 93.0515 116.465 92.8971C116.212 92.7356 115.924 92.6549 115.601 92.6549C115.285 92.6549 114.998 92.7356 114.738 92.8971C114.478 93.0515 114.271 93.2867 114.116 93.6027C113.962 93.9186 113.885 94.3153 113.885 94.7927C113.885 95.2631 113.958 95.6598 114.106 95.9828C114.26 96.2987 114.464 96.5374 114.717 96.6989C114.977 96.8534 115.264 96.9306 115.58 96.9306ZM120.795 100.006C120.297 100.006 119.858 99.9426 119.479 99.8162C119.107 99.6969 118.816 99.5108 118.605 99.2581C118.401 99.0053 118.299 98.6929 118.299 98.3208C118.299 98.1452 118.331 97.9627 118.394 97.7731C118.464 97.5836 118.58 97.401 118.742 97.2255C118.91 97.05 119.146 96.892 119.447 96.7516L120.121 97.1096C119.721 97.2641 119.461 97.4431 119.342 97.6468C119.223 97.8504 119.163 98.0469 119.163 98.2365C119.163 98.4682 119.23 98.6613 119.363 98.8157C119.504 98.9702 119.697 99.086 119.942 99.1633C120.188 99.2405 120.472 99.2791 120.795 99.2791C121.111 99.2791 121.382 99.237 121.606 99.1527C121.838 99.0755 122.014 98.9597 122.133 98.8052C122.259 98.6578 122.323 98.4822 122.323 98.2786C122.323 97.9838 122.228 97.7521 122.038 97.5836C121.849 97.4221 121.48 97.3273 120.932 97.2992C120.504 97.2711 120.146 97.2325 119.858 97.1834C119.57 97.1342 119.332 97.0781 119.142 97.0149C118.959 96.9447 118.805 96.8674 118.679 96.7832C118.559 96.6989 118.45 96.6112 118.352 96.5199V96.2777L119.395 95.2772L120.227 95.551L119.089 96.4883L119.226 96.0881C119.303 96.1443 119.377 96.1969 119.447 96.2461C119.518 96.2952 119.612 96.3409 119.732 96.383C119.858 96.4181 120.03 96.4532 120.248 96.4883C120.472 96.5234 120.767 96.555 121.132 96.5831C121.638 96.6182 122.042 96.7024 122.344 96.8358C122.645 96.9692 122.863 97.1553 122.997 97.394C123.13 97.6257 123.197 97.91 123.197 98.247C123.197 98.5419 123.112 98.8228 122.944 99.0896C122.782 99.3564 122.523 99.574 122.165 99.7425C121.813 99.918 121.357 100.006 120.795 100.006ZM120.785 95.8353C120.336 95.8353 119.953 95.7511 119.637 95.5826C119.328 95.4071 119.093 95.1719 118.931 94.877C118.77 94.5751 118.689 94.2381 118.689 93.866C118.689 93.4939 118.77 93.1604 118.931 92.8655C119.1 92.5706 119.339 92.3354 119.648 92.1599C119.963 91.9844 120.343 91.8966 120.785 91.8966C121.241 91.8966 121.624 91.9844 121.933 92.1599C122.242 92.3354 122.477 92.5706 122.638 92.8655C122.8 93.1604 122.881 93.4939 122.881 93.866C122.881 94.2381 122.8 94.5751 122.638 94.877C122.477 95.1719 122.242 95.4071 121.933 95.5826C121.624 95.7511 121.241 95.8353 120.785 95.8353ZM120.785 95.1087C121.178 95.1087 121.484 95.0069 121.701 94.8033C121.919 94.5926 122.028 94.2802 122.028 93.866C122.028 93.4517 121.919 93.1428 121.701 92.9392C121.484 92.7356 121.178 92.6338 120.785 92.6338C120.413 92.6338 120.107 92.7356 119.869 92.9392C119.637 93.1428 119.521 93.4517 119.521 93.866C119.521 94.2802 119.633 94.5926 119.858 94.8033C120.09 95.0069 120.399 95.1087 120.785 95.1087ZM121.712 92.7707L121.448 92.023H123.618V92.6864L121.712 92.7707ZM124.136 97.5625V92.023H125.021V97.5625H124.136ZM124.578 90.9698C124.403 90.9698 124.255 90.9137 124.136 90.8013C124.024 90.682 123.967 90.5345 123.967 90.359C123.967 90.1835 124.024 90.0431 124.136 89.9377C124.255 89.8254 124.403 89.7692 124.578 89.7692C124.747 89.7692 124.891 89.8254 125.01 89.9377C125.129 90.0431 125.189 90.1835 125.189 90.359C125.189 90.5345 125.129 90.682 125.01 90.8013C124.891 90.9137 124.747 90.9698 124.578 90.9698ZM125.96 97.5625V92.023H126.761L126.803 92.8971C126.964 92.5811 127.196 92.3354 127.498 92.1599C127.807 91.9844 128.161 91.8966 128.561 91.8966C128.969 91.8966 129.323 91.9738 129.625 92.1283C129.927 92.2827 130.162 92.5179 130.331 92.8339C130.499 93.1498 130.583 93.55 130.583 94.0345V97.5625H129.699V94.1293C129.699 93.6378 129.576 93.2692 129.33 93.0235C129.091 92.7777 128.769 92.6549 128.361 92.6549C128.087 92.6549 127.835 92.7216 127.603 92.8549C127.371 92.9813 127.185 93.1709 127.045 93.4236C126.911 93.6764 126.845 93.9853 126.845 94.3504V97.5625H125.96ZM110.886 111.689C110.345 111.689 109.875 111.591 109.475 111.394C109.074 111.197 108.765 110.924 108.548 110.573C108.33 110.221 108.221 109.814 108.221 109.351H109.148C109.148 109.639 109.215 109.906 109.348 110.151C109.482 110.39 109.675 110.583 109.927 110.731C110.187 110.871 110.507 110.941 110.886 110.941C111.216 110.941 111.497 110.888 111.728 110.783C111.967 110.671 112.146 110.52 112.265 110.33C112.392 110.141 112.455 109.927 112.455 109.688C112.455 109.421 112.395 109.2 112.276 109.024C112.164 108.842 112.006 108.694 111.802 108.582C111.598 108.463 111.363 108.357 111.096 108.266C110.83 108.175 110.542 108.08 110.233 107.982C109.615 107.785 109.166 107.539 108.885 107.245C108.611 106.943 108.474 106.557 108.474 106.086C108.474 105.686 108.565 105.335 108.748 105.033C108.937 104.731 109.204 104.496 109.548 104.327C109.899 104.152 110.314 104.064 110.791 104.064C111.261 104.064 111.669 104.152 112.013 104.327C112.364 104.503 112.638 104.745 112.834 105.054C113.031 105.356 113.129 105.707 113.129 106.107H112.202C112.202 105.904 112.15 105.704 112.044 105.507C111.939 105.31 111.777 105.149 111.56 105.022C111.349 104.889 111.082 104.822 110.759 104.822C110.493 104.815 110.254 104.861 110.043 104.959C109.84 105.051 109.678 105.184 109.559 105.359C109.446 105.535 109.39 105.749 109.39 106.002C109.39 106.241 109.439 106.434 109.538 106.581C109.643 106.729 109.791 106.855 109.98 106.96C110.177 107.059 110.405 107.15 110.665 107.234C110.924 107.318 111.212 107.413 111.528 107.518C111.886 107.638 112.202 107.785 112.476 107.961C112.757 108.129 112.975 108.347 113.129 108.614C113.29 108.88 113.371 109.221 113.371 109.635C113.371 109.986 113.276 110.32 113.087 110.636C112.904 110.945 112.63 111.197 112.265 111.394C111.9 111.591 111.44 111.689 110.886 111.689ZM115.993 111.689C115.586 111.689 115.231 111.612 114.929 111.457C114.627 111.303 114.392 111.068 114.224 110.752C114.055 110.429 113.971 110.028 113.971 109.551V106.023H114.855V109.456C114.855 109.948 114.975 110.316 115.214 110.562C115.459 110.808 115.786 110.931 116.193 110.931C116.474 110.931 116.727 110.867 116.951 110.741C117.176 110.608 117.355 110.415 117.488 110.162C117.629 109.909 117.699 109.6 117.699 109.235V106.023H118.584V111.562H117.783L117.731 110.678C117.583 111.001 117.355 111.25 117.046 111.426C116.744 111.601 116.393 111.689 115.993 111.689ZM121.839 111.689C121.334 111.689 120.885 111.57 120.491 111.331C120.098 111.085 119.789 110.745 119.565 110.309C119.34 109.874 119.228 109.368 119.228 108.793C119.228 108.21 119.34 107.704 119.565 107.276C119.789 106.841 120.098 106.504 120.491 106.265C120.885 106.019 121.334 105.897 121.839 105.897C122.471 105.897 122.998 106.065 123.419 106.402C123.847 106.739 124.121 107.192 124.241 107.761H123.335C123.258 107.41 123.079 107.139 122.798 106.95C122.524 106.753 122.201 106.655 121.829 106.655C121.506 106.655 121.215 106.736 120.955 106.897C120.702 107.059 120.502 107.297 120.354 107.613C120.207 107.929 120.133 108.322 120.133 108.793C120.133 109.144 120.175 109.456 120.26 109.73C120.344 109.997 120.46 110.221 120.607 110.404C120.762 110.58 120.941 110.713 121.144 110.804C121.355 110.896 121.583 110.941 121.829 110.941C122.082 110.941 122.31 110.899 122.513 110.815C122.724 110.723 122.9 110.594 123.04 110.425C123.187 110.257 123.286 110.057 123.335 109.825H124.241C124.128 110.379 123.854 110.829 123.419 111.173C122.991 111.517 122.464 111.689 121.839 111.689ZM127.286 111.689C126.78 111.689 126.331 111.57 125.938 111.331C125.544 111.085 125.236 110.745 125.011 110.309C124.786 109.874 124.674 109.368 124.674 108.793C124.674 108.21 124.786 107.704 125.011 107.276C125.236 106.841 125.544 106.504 125.938 106.265C126.331 106.019 126.78 105.897 127.286 105.897C127.918 105.897 128.444 106.065 128.865 106.402C129.294 106.739 129.567 107.192 129.687 107.761H128.781C128.704 107.41 128.525 107.139 128.244 106.95C127.97 106.753 127.647 106.655 127.275 106.655C126.952 106.655 126.661 106.736 126.401 106.897C126.148 107.059 125.948 107.297 125.801 107.613C125.653 107.929 125.58 108.322 125.58 108.793C125.58 109.144 125.622 109.456 125.706 109.73C125.79 109.997 125.906 110.221 126.054 110.404C126.208 110.58 126.387 110.713 126.591 110.804C126.801 110.896 127.029 110.941 127.275 110.941C127.528 110.941 127.756 110.899 127.96 110.815C128.17 110.723 128.346 110.594 128.486 110.425C128.634 110.257 128.732 110.057 128.781 109.825H129.687C129.575 110.379 129.301 110.829 128.865 111.173C128.437 111.517 127.911 111.689 127.286 111.689ZM132.637 111.689C132.146 111.689 131.71 111.57 131.331 111.331C130.952 111.092 130.654 110.755 130.436 110.32C130.226 109.884 130.12 109.375 130.12 108.793C130.12 108.21 130.226 107.701 130.436 107.266C130.654 106.83 130.952 106.493 131.331 106.255C131.717 106.016 132.16 105.897 132.658 105.897C133.192 105.897 133.638 106.016 133.996 106.255C134.354 106.493 134.624 106.813 134.807 107.213C134.989 107.613 135.081 108.052 135.081 108.529C135.081 108.6 135.081 108.67 135.081 108.74C135.081 108.81 135.077 108.895 135.07 108.993H130.784V108.308H134.217C134.203 107.768 134.045 107.357 133.743 107.076C133.448 106.788 133.08 106.644 132.637 106.644C132.342 106.644 132.069 106.718 131.816 106.865C131.57 107.006 131.37 107.217 131.215 107.497C131.061 107.778 130.984 108.129 130.984 108.551V108.845C130.984 109.309 131.061 109.698 131.215 110.014C131.37 110.323 131.57 110.555 131.816 110.709C132.069 110.864 132.342 110.941 132.637 110.941C133.03 110.941 133.339 110.867 133.564 110.72C133.789 110.566 133.954 110.348 134.059 110.067H134.933C134.849 110.376 134.701 110.653 134.491 110.899C134.287 111.145 134.027 111.338 133.711 111.478C133.403 111.619 133.044 111.689 132.637 111.689ZM137.676 111.689C137.177 111.689 136.763 111.615 136.433 111.468C136.11 111.313 135.864 111.103 135.696 110.836C135.527 110.562 135.425 110.246 135.39 109.888H136.296C136.324 110.078 136.387 110.253 136.485 110.415C136.591 110.569 136.742 110.695 136.938 110.794C137.135 110.892 137.384 110.941 137.686 110.941C137.925 110.941 138.128 110.906 138.297 110.836C138.465 110.759 138.592 110.653 138.676 110.52C138.767 110.386 138.813 110.232 138.813 110.057C138.813 109.825 138.76 109.646 138.655 109.519C138.557 109.386 138.409 109.288 138.213 109.225C138.023 109.154 137.784 109.102 137.496 109.067C137.188 109.024 136.914 108.965 136.675 108.888C136.436 108.81 136.233 108.708 136.064 108.582C135.903 108.456 135.78 108.298 135.696 108.108C135.611 107.919 135.569 107.694 135.569 107.434C135.569 107.132 135.65 106.865 135.811 106.634C135.973 106.402 136.201 106.223 136.496 106.097C136.798 105.963 137.152 105.897 137.56 105.897C138.156 105.897 138.627 106.033 138.971 106.307C139.322 106.581 139.529 106.971 139.592 107.476H138.718C138.683 107.217 138.564 107.013 138.36 106.865C138.156 106.718 137.886 106.644 137.549 106.644C137.191 106.644 136.921 106.711 136.738 106.844C136.556 106.978 136.464 107.153 136.464 107.371C136.464 107.532 136.503 107.68 136.58 107.813C136.665 107.94 136.805 108.049 137.002 108.14C137.198 108.224 137.461 108.287 137.791 108.329C138.206 108.378 138.557 108.459 138.845 108.572C139.132 108.677 139.35 108.842 139.497 109.067C139.652 109.291 139.726 109.597 139.719 109.983C139.719 110.348 139.631 110.657 139.455 110.91C139.287 111.162 139.048 111.355 138.739 111.489C138.437 111.622 138.083 111.689 137.676 111.689ZM142.402 111.689C141.903 111.689 141.489 111.615 141.159 111.468C140.836 111.313 140.591 111.103 140.422 110.836C140.253 110.562 140.152 110.246 140.117 109.888H141.022C141.05 110.078 141.114 110.253 141.212 110.415C141.317 110.569 141.468 110.695 141.665 110.794C141.861 110.892 142.111 110.941 142.412 110.941C142.651 110.941 142.855 110.906 143.023 110.836C143.192 110.759 143.318 110.653 143.402 110.52C143.494 110.386 143.539 110.232 143.539 110.057C143.539 109.825 143.487 109.646 143.381 109.519C143.283 109.386 143.136 109.288 142.939 109.225C142.749 109.154 142.511 109.102 142.223 109.067C141.914 109.024 141.64 108.965 141.401 108.888C141.163 108.81 140.959 108.708 140.791 108.582C140.629 108.456 140.506 108.298 140.422 108.108C140.338 107.919 140.296 107.694 140.296 107.434C140.296 107.132 140.376 106.865 140.538 106.634C140.699 106.402 140.928 106.223 141.222 106.097C141.524 105.963 141.879 105.897 142.286 105.897C142.883 105.897 143.353 106.033 143.697 106.307C144.048 106.581 144.255 106.971 144.319 107.476H143.445C143.409 107.217 143.29 107.013 143.086 106.865C142.883 106.718 142.613 106.644 142.276 106.644C141.917 106.644 141.647 106.711 141.465 106.844C141.282 106.978 141.191 107.153 141.191 107.371C141.191 107.532 141.229 107.68 141.307 107.813C141.391 107.94 141.531 108.049 141.728 108.14C141.924 108.224 142.188 108.287 142.518 108.329C142.932 108.378 143.283 108.459 143.571 108.572C143.859 108.677 144.076 108.842 144.224 109.067C144.378 109.291 144.452 109.597 144.445 109.983C144.445 110.348 144.357 110.657 144.182 110.91C144.013 111.162 143.775 111.355 143.466 111.489C143.164 111.622 142.809 111.689 142.402 111.689ZM145.475 111.562V105.433C145.475 105.096 145.531 104.822 145.643 104.612C145.756 104.394 145.921 104.236 146.138 104.138C146.363 104.033 146.637 103.98 146.96 103.98H147.771V104.738H147.107C146.84 104.738 146.647 104.794 146.528 104.907C146.416 105.012 146.36 105.198 146.36 105.465V111.562H145.475ZM144.611 106.771V106.023H147.834V106.771H144.611ZM150.291 111.689C149.884 111.689 149.529 111.612 149.228 111.457C148.926 111.303 148.69 111.068 148.522 110.752C148.353 110.429 148.269 110.028 148.269 109.551V106.023H149.154V109.456C149.154 109.948 149.273 110.316 149.512 110.562C149.758 110.808 150.084 110.931 150.491 110.931C150.772 110.931 151.025 110.867 151.25 110.741C151.474 110.608 151.653 110.415 151.787 110.162C151.927 109.909 151.997 109.6 151.997 109.235V106.023H152.882V111.562H152.082L152.029 110.678C151.881 111.001 151.653 111.25 151.344 111.426C151.042 111.601 150.691 111.689 150.291 111.689ZM153.747 111.562V103.98H154.632V111.562H153.747Z" fill="black"/>
<path d="M31.912 387.108H23.6744L20.6196 350.026H30.3203L31.912 387.108Z" fill="#263238"/>
<path d="M103.304 387.108H111.542L114.596 350.026H104.895L103.304 387.108Z" fill="#263238"/>
<path d="M120.257 354.721L14.2279 357.21L11.0011 288.726C10.6855 282.02 16.0368 276.41 22.7498 276.41H113.087C119.903 276.41 125.292 282.187 124.82 288.986L120.257 354.721Z" fill="#FF725E"/>
<path d="M125.692 288.491C125.692 288.5 125.592 288.508 125.396 288.517C125.174 288.524 124.888 288.532 124.527 288.543C123.731 288.555 122.611 288.571 121.185 288.594C118.251 288.605 114.059 288.619 108.893 288.638C98.5154 288.655 84.1765 288.538 68.3517 288.905C52.5177 289.432 38.1678 289.342 27.7918 289.184C22.6024 289.102 18.404 289.001 15.5029 288.914C14.0777 288.865 12.9588 288.826 12.163 288.8C11.8023 288.782 11.5161 288.768 11.2944 288.757C11.0984 288.745 10.999 288.734 10.999 288.726C10.999 288.718 11.0993 288.711 11.2953 288.708C11.517 288.707 11.8041 288.705 12.1648 288.702C12.9607 288.708 14.0804 288.716 15.5066 288.726C18.4408 288.755 22.6309 288.794 27.7955 288.844C38.1733 288.915 52.5085 288.951 68.3397 288.425C84.1775 288.058 98.5172 288.228 108.894 288.297C114.06 288.342 118.25 288.38 121.185 288.405C122.611 288.421 123.731 288.435 124.527 288.444C124.887 288.454 125.174 288.46 125.396 288.466C125.592 288.475 125.692 288.483 125.692 288.491Z" fill="#263238"/>
<path d="M49.6766 277.482C49.706 277.642 46.3541 277.699 42.7924 279.547C39.204 281.347 37.1917 284.027 37.0795 283.909C37.0372 283.878 37.4714 283.172 38.3925 282.206C39.308 281.24 40.7544 280.053 42.5752 279.12C44.3989 278.194 46.2078 277.719 47.5272 277.545C48.8494 277.367 49.6766 277.429 49.6766 277.482Z" fill="#263238"/>
<path d="M90.0831 157.16C90.0831 157.16 95.5481 163.659 98.5139 168.201C101.341 172.531 104.956 179.769 104.956 179.769L103.045 180.837L122.033 170.217L131.266 173.265C131.266 173.265 107.971 198.522 104.191 199.809C100.412 201.095 93.2547 201.33 89.162 196.209C85.4356 191.547 74.5913 167.065 74.5913 167.065L90.0831 157.16Z" fill="#FFBE9D"/>
<path d="M145.268 142.424C144.93 142.006 144.399 141.795 143.867 141.869L134.837 143.111C134.045 143.233 133.343 143.687 132.906 144.359L114.155 173.178L115.597 173.984L125.581 173.67L145.551 142.777L145.268 142.424Z" fill="#263238"/>
<path d="M138.878 146.161C139.07 146.331 139.409 146.259 139.634 146.002C139.859 145.745 139.885 145.4 139.693 145.232C139.501 145.064 139.162 145.134 138.937 145.391C138.711 145.648 138.686 145.993 138.878 146.161Z" fill="white"/>
<path d="M145.552 142.767C145.557 142.804 144.935 142.925 143.807 143.112C142.586 143.3 140.973 143.551 139.021 143.852C138.001 144.002 136.895 144.164 135.713 144.338C135.145 144.39 134.641 144.683 134.318 145.16C133.971 145.698 133.615 146.25 133.249 146.816C131.773 149.093 130.157 151.583 128.461 154.197C125.05 159.427 121.938 164.144 119.661 167.543C118.553 169.179 117.636 170.531 116.943 171.554C116.29 172.494 115.915 173.005 115.883 172.984C115.852 172.963 116.168 172.414 116.765 171.438C117.422 170.391 118.29 169.007 119.339 167.333C121.533 163.88 124.595 159.13 128.006 153.9C129.714 151.294 131.342 148.812 132.83 146.542C133.203 145.978 133.568 145.427 133.923 144.889C134.319 144.298 135.011 143.935 135.641 143.892C136.827 143.742 137.938 143.601 138.962 143.471C140.926 143.239 142.549 143.046 143.777 142.901C144.915 142.78 145.547 142.73 145.552 142.767Z" fill="#455A64"/>
<path d="M136.035 150.214C136.035 150.214 135.229 150.07 134.789 152.271C134.348 154.473 132.929 160.788 132.929 160.788L128.712 158.547L123.437 159.235C123.437 159.235 122.286 160.298 123.13 160.876C123.975 161.453 127.309 162.049 127.309 162.049L129.769 165.585L122.711 162.183C122.711 162.183 120.356 162.796 121.045 164.234C121.735 165.671 126.494 170.167 126.494 170.167L122.958 169.9L118.753 167.346C118.753 167.346 117.463 167.405 117.944 168.504C118.426 169.602 122.798 173.573 122.798 173.573L128.101 176.145C128.101 176.145 130.995 175.918 131.273 175.068C131.551 174.218 131.622 173.005 131.622 173.005C131.622 173.005 133.158 172.591 133.445 171.846C133.732 171.1 133.548 169.922 133.548 169.922C133.548 169.922 135.959 170.345 136.259 169.001C136.559 167.656 136.307 165.007 136.064 163.973C135.821 162.939 137.093 153.326 136.993 153.036C136.894 152.744 137.546 149.578 136.035 150.214Z" fill="#FFBE9D"/>
<path d="M131.457 175.082C131.474 175.144 130.962 175.37 130.074 175.512C129.189 175.656 127.923 175.67 126.579 175.352C125.236 175.03 124.112 174.447 123.388 173.92C122.658 173.394 122.302 172.961 122.346 172.913C122.446 172.777 124.125 174.232 126.705 174.823C129.272 175.457 131.428 174.914 131.457 175.082Z" fill="#EB996E"/>
<path d="M130.202 173.177C130.119 173.299 129.18 172.807 128.177 171.984C127.172 171.161 126.505 170.337 126.609 170.232C126.716 170.123 127.538 170.759 128.521 171.564C129.504 172.37 130.288 173.051 130.202 173.177Z" fill="#EB996E"/>
<path d="M132.991 168.602C132.911 168.724 131.978 168.244 131.037 167.373C130.094 166.504 129.541 165.613 129.657 165.523C129.777 165.428 130.497 166.138 131.406 166.974C132.312 167.813 133.077 168.475 132.991 168.602Z" fill="#EB996E"/>
<path d="M135.926 164.912C135.782 164.974 135.249 163.978 134.408 162.894C133.576 161.803 132.752 161.033 132.847 160.909C132.929 160.791 133.955 161.408 134.839 162.563C135.729 163.714 136.061 164.863 135.926 164.912Z" fill="#EB996E"/>
<path d="M140.392 333.507C140.423 333.506 140.454 333.194 140.366 332.635C140.275 332.082 140.048 331.273 139.485 330.417C139.34 330.207 139.197 329.982 138.959 329.776C138.735 329.571 138.347 329.415 137.972 329.553C137.786 329.613 137.6 329.783 137.536 329.992C137.466 330.203 137.501 330.413 137.556 330.583C137.679 330.935 137.862 331.185 138.015 331.474C138.358 332.05 138.64 332.623 139.077 333.272C139.298 333.604 139.795 333.877 140.249 333.799C140.695 333.742 141.055 333.527 141.38 333.298C142.011 332.84 142.565 332.32 143.043 331.766C143.281 331.489 143.499 331.203 143.698 330.913C143.886 330.626 144.106 330.333 144.19 329.933C144.275 329.547 144.129 329.04 143.691 328.865C143.246 328.705 142.885 328.927 142.637 329.103C142.135 329.52 141.833 329.948 141.527 330.361C140.942 331.187 140.62 331.944 140.438 332.473C140.26 333.006 140.217 333.314 140.249 333.323C140.339 333.36 140.638 332.132 141.823 330.581C142.117 330.213 142.483 329.765 142.89 329.453C143.098 329.304 143.358 329.209 143.516 329.289C143.682 329.349 143.774 329.598 143.72 329.838C143.669 330.087 143.482 330.352 143.289 330.629C143.096 330.902 142.886 331.17 142.657 331.432C142.2 331.952 141.669 332.445 141.076 332.875C140.79 333.081 140.479 333.25 140.19 333.285C139.899 333.321 139.671 333.206 139.479 332.957C139.116 332.429 138.767 331.776 138.431 331.233C138.27 330.95 138.076 330.674 137.991 330.438C137.903 330.189 137.952 330.028 138.126 329.959C138.525 329.794 138.913 330.245 139.183 330.628C140.305 332.218 140.29 333.54 140.392 333.507Z" fill="#263238"/>
<path d="M122.338 319.779L111.111 344.111L92.9937 335.742L104.606 305.627L122.338 319.779Z" fill="#FFBE9D"/>
<path d="M115.531 338.895L108.971 351.403C108.971 351.403 125.762 368.765 124.185 372.646L84.7129 353.72L95.5572 328.63L115.531 338.895Z" fill="#455A64"/>
<path d="M97.5865 343.834C96.7225 343.676 95.7831 344.282 95.5899 345.138C95.3976 345.995 96.0049 346.956 96.8661 347.128C97.7273 347.301 98.8774 346.609 98.9731 345.735C99.0688 344.862 98.2932 343.773 97.4163 343.812" fill="#E0E0E0"/>
<g opacity="0.6">
<path d="M84.7129 353.714L86.3553 350.568L123.587 369.89C123.587 369.89 124.978 371.498 124.186 372.64L84.7129 353.714Z" fill="white"/>
</g>
<path d="M109.706 351.513C109.608 351.703 108.602 351.328 107.356 351.494C106.107 351.627 105.217 352.227 105.076 352.065C104.917 351.943 105.756 350.928 107.268 350.755C108.778 350.568 109.833 351.356 109.706 351.513Z" fill="#373737"/>
<path d="M113.026 355.206C112.981 355.414 111.989 355.341 110.943 355.843C109.883 356.314 109.295 357.115 109.107 357.015C108.912 356.959 109.32 355.765 110.631 355.167C111.938 354.557 113.11 355.02 113.026 355.206Z" fill="#373737"/>
<path d="M113.003 361.282C112.808 361.239 113.002 360.148 114.003 359.33C114.999 358.504 116.107 358.524 116.112 358.723C116.145 358.934 115.288 359.22 114.477 359.905C113.649 360.568 113.203 361.355 113.003 361.282Z" fill="#373737"/>
<path d="M111.59 346.69C111.426 346.827 110.668 346.137 109.543 345.689C108.427 345.218 107.404 345.177 107.383 344.963C107.338 344.77 108.508 344.454 109.825 345.001C111.147 345.537 111.758 346.584 111.59 346.69Z" fill="#373737"/>
<path d="M116.916 339.669L141.967 279.677C141.967 279.677 141.302 267.04 138.974 263.05C136.646 259.06 66.1472 235.781 66.1472 235.781C66.1472 235.781 48.1896 231.457 36.2182 235.781C24.2467 240.104 15.2674 255.068 16.9301 263.382C18.5927 271.696 25.6094 277.803 25.6094 277.803C25.6094 277.803 50.4215 287.449 67.1446 289.653C82.0765 291.621 105.711 289.653 105.711 289.653L94.374 324.948L116.916 339.669Z" fill="#373737"/>
<path d="M138.695 303.132L139.363 329.921L119.412 330.409L116.538 298.261L138.695 303.132Z" fill="#FFBE9D"/>
<path d="M140.551 327.524L140.186 341.644C140.186 341.644 162.917 349.81 163.216 353.988L119.443 354.431L118.097 327.131L140.551 327.524Z" fill="#455A64"/>
<path d="M126.633 339.882C125.788 340.122 125.212 341.081 125.418 341.935C125.623 342.789 126.593 343.383 127.442 343.158C128.29 342.932 129.017 341.803 128.718 340.977C128.418 340.152 127.241 339.517 126.472 339.939" fill="#E0E0E0"/>
<g opacity="0.6">
<path d="M119.443 354.43L119.528 350.882L161.465 351.784C161.465 351.784 163.422 352.612 163.216 353.986L119.443 354.43Z" fill="white"/>
</g>
<path d="M140.894 341.413C140.889 341.626 139.821 341.734 138.777 342.432C137.714 343.103 137.18 344.034 136.983 343.951C136.785 343.912 137.092 342.631 138.372 341.809C139.643 340.974 140.938 341.216 140.894 341.413Z" fill="#373737"/>
<path d="M145.503 343.275C145.553 343.481 144.631 343.854 143.914 344.765C143.171 345.656 142.998 346.635 142.785 346.627C142.584 346.663 142.424 345.413 143.337 344.297C144.239 343.173 145.496 343.071 145.503 343.275Z" fill="#373737"/>
<path d="M148.167 348.737C147.972 348.785 147.664 347.719 148.202 346.543C148.731 345.363 149.734 344.891 149.826 345.068C149.948 345.243 149.306 345.877 148.88 346.85C148.432 347.812 148.379 348.714 148.167 348.737Z" fill="#373737"/>
<path d="M140.456 336.268C140.369 336.464 139.385 336.179 138.178 336.274C136.969 336.344 136.033 336.759 135.919 336.577C135.794 336.423 136.704 335.623 138.127 335.532C139.55 335.429 140.56 336.1 140.456 336.268Z" fill="#373737"/>
<path d="M127.045 228.754C127.045 228.754 141.265 224.656 142.964 241.218C152.8 254.735 142.964 314.262 142.964 314.262L115.03 316.589L110.707 254.736L66.146 235.781C66.146 235.781 119.064 227.091 127.045 228.754Z" fill="#373737"/>
<path d="M77.7754 211.255C77.7754 211.255 85.0303 231.595 83.6484 233.862C82.2664 236.129 63.6113 245.456 63.6113 245.456L16.9309 263.384C16.9309 263.384 12.1362 255.757 12.1362 244.043C12.1362 232.328 28.3733 211.255 28.3733 211.255H77.7754Z" fill="#373737"/>
<path d="M63.939 234.745C63.9363 234.752 64.0099 234.792 64.158 234.863C64.3292 234.942 64.5472 235.043 64.8205 235.169C65.436 235.443 66.3 235.827 67.406 236.319C69.698 237.318 72.9892 238.751 77.1094 240.546C85.4354 244.13 97.105 249.154 110.609 254.967L110.458 254.755C110.882 260.864 111.34 267.463 111.814 274.29C112.949 290.249 113.996 304.964 114.824 316.605L114.839 316.815L115.049 316.797C123.545 316.052 130.517 315.44 135.399 315.011C137.799 314.787 139.685 314.611 141.002 314.488C141.622 314.423 142.108 314.373 142.466 314.336C142.796 314.298 142.966 314.273 142.965 314.263C142.964 314.252 142.793 314.257 142.46 314.273C142.101 314.296 141.613 314.327 140.991 314.365C139.672 314.462 137.783 314.601 135.378 314.776C130.493 315.162 123.516 315.712 115.013 316.384L115.237 316.576C114.438 304.932 113.429 290.215 112.333 274.254C111.852 267.428 111.388 260.829 110.957 254.721L110.946 254.568L110.805 254.508C97.2716 248.764 85.5761 243.799 77.2327 240.257C73.0876 238.519 69.7771 237.131 67.4722 236.165C66.3525 235.706 65.4784 235.347 64.8545 235.09C64.5739 234.98 64.3494 234.891 64.1746 234.823C64.0219 234.764 63.9418 234.739 63.939 234.745Z" fill="#455A64"/>
<path d="M26.8137 236.779C26.8257 236.813 27.2922 236.683 28.1239 236.421C29.0514 236.122 30.2301 235.742 31.6387 235.287C34.6042 234.347 38.7189 233.035 43.4013 232.316C48.0837 231.593 52.4165 231.816 55.4427 232.47C58.4827 233.099 60.23 233.966 60.2686 233.868C60.2815 233.84 59.8592 233.602 59.0541 233.253C58.2508 232.902 57.0501 232.476 55.5218 232.109C52.4735 231.352 48.0635 231.067 43.3231 231.799C38.5846 232.529 34.4616 233.906 31.52 234.938C30.0479 235.46 28.8674 235.909 28.0549 236.229C27.2443 236.551 26.8018 236.745 26.8137 236.779Z" fill="#455A64"/>
<path d="M33.4122 226.056C33.4251 226.139 34.9754 225.836 37.4938 226.033C38.7506 226.121 40.2467 226.314 41.9121 226.506C43.5747 226.704 45.4002 226.928 47.2901 227.286C51.0827 227.961 54.3463 229.283 56.4368 230.679C58.5475 232.053 59.5366 233.305 59.6084 233.234C59.6286 233.217 59.4152 232.882 58.9303 232.356C58.4463 231.833 57.6964 231.106 56.6429 230.373C54.5635 228.868 51.2272 227.456 47.3876 226.774C45.4738 226.411 43.6336 226.201 41.9645 226.029C40.2964 225.862 38.7902 225.707 37.5122 225.664C36.236 225.618 35.1981 225.692 34.4915 225.799C33.7839 225.906 33.4057 226.026 33.4122 226.056Z" fill="#455A64"/>
<path d="M54.1759 80.4196C48.8044 79.5069 44.0833 81.5753 39.5527 84.6024C35.0231 87.6305 31.6113 92.1997 29.6423 97.2796C27.5675 102.63 27.0633 108.65 28.6569 114.163C30.2514 119.676 34.0266 124.61 39.1433 127.21C46.1305 130.758 55.0656 129.521 61.3168 124.794C67.568 120.068 71.1417 112.253 71.4416 104.422C71.6477 99.0278 70.3587 93.5081 67.3444 89.029C64.3292 84.5509 59.518 81.2045 54.1759 80.4196Z" fill="#263238"/>
<path d="M38.9006 98.6843C39.6863 96.6297 39.3818 94.3349 39.6928 92.1571C40.3773 87.3615 44.2418 83.5155 48.7107 81.6458C52.8677 79.9068 57.9458 80.2859 62.9539 81.9053C66.3868 83.0149 69.6182 84.9499 71.9065 87.7387C74.9437 91.4403 76.0147 96.6692 74.675 101.266L50.1378 97.6924C47.8403 99.5933 45.4885 101.526 42.7024 102.585C41.8845 102.896 41.0049 103.13 40.1409 102.994C39.2769 102.857 38.4368 102.27 38.2326 101.419C38.009 100.49 38.5592 99.5777 38.9006 98.6843Z" fill="#263238"/>
<path d="M63.4778 88.6783L42.0551 93.2172C39.983 93.3552 38.3609 95.0565 38.3213 97.1331L38.5789 143.493C38.5964 146.66 39.6582 149.733 41.5987 152.235L43.6413 154.87C48.2998 160.878 57.7354 160.272 61.2935 153.556C61.5419 153.086 61.714 152.675 61.7866 152.342C61.8584 151.925 61.9688 151.65 61.9881 151.296L62.3967 146.776C62.6055 142.649 62.774 138.461 62.775 138.5C62.775 138.5 73.4104 138.293 75.6564 126.998C76.7734 121.381 77.5758 111.291 75.6564 104.916C75.4917 98.0795 70.2994 88.2229 63.4778 88.6783Z" fill="#FFBE9D"/>
<path d="M71.3983 112.301C71.3956 113.072 70.7405 113.705 69.9363 113.717C69.1331 113.729 68.4816 113.115 68.4844 112.344C68.4871 111.573 69.1423 110.939 69.9455 110.927C70.7506 110.916 71.4011 111.53 71.3983 112.301Z" fill="#263238"/>
<path d="M72.4601 108.343C72.2724 108.526 71.1996 107.666 69.6308 107.609C68.0648 107.53 66.8825 108.293 66.7196 108.094C66.6387 108.006 66.8374 107.67 67.3517 107.324C67.8596 106.98 68.7144 106.659 69.6915 106.701C70.6687 106.744 71.4765 107.136 71.9348 107.523C72.4022 107.912 72.5521 108.261 72.4601 108.343Z" fill="#263238"/>
<path d="M57.3413 111.954C57.3385 112.725 56.6834 113.358 55.8792 113.37C55.076 113.382 54.4255 112.768 54.4282 111.998C54.431 111.227 55.0861 110.593 55.8894 110.581C56.6935 110.568 57.344 111.183 57.3413 111.954Z" fill="#263238"/>
<path d="M57.5653 107.961C57.3767 108.145 56.303 107.284 54.7351 107.228C53.1691 107.149 51.9868 107.911 51.8239 107.712C51.7439 107.624 51.9399 107.288 52.4569 106.943C52.9648 106.599 53.8196 106.278 54.7968 106.319C55.773 106.362 56.5808 106.754 57.04 107.141C57.5065 107.53 57.6574 107.88 57.5653 107.961Z" fill="#263238"/>
<path d="M62.27 119.884C62.2664 119.794 63.2472 119.664 64.8353 119.523C65.2374 119.497 65.6201 119.433 65.6974 119.161C65.8032 118.875 65.6523 118.437 65.4766 117.964C65.138 116.981 64.7828 115.949 64.4102 114.868C62.9344 110.463 61.8818 106.846 62.0603 106.788C62.2378 106.73 63.5793 110.254 65.0552 114.66C65.4094 115.746 65.748 116.782 66.071 117.772C66.2053 118.233 66.4455 118.759 66.2182 119.352C66.0986 119.647 65.7959 119.852 65.5364 119.912C65.2769 119.98 65.0515 119.976 64.8528 119.98C63.2592 120.004 62.2728 119.973 62.27 119.884Z" fill="#263238"/>
<path d="M62.6326 138.499C62.6326 138.499 50.8488 139.213 43.4512 134.366C43.4512 134.366 51.0908 141.864 62.5075 141.242L62.6326 138.499Z" fill="#EB996E"/>
<path d="M61.4611 123.646C60.9256 122.879 59.954 122.431 58.9686 122.498C58.2849 122.545 57.5847 122.846 57.1495 123.385C56.7143 123.923 56.5975 124.707 56.9526 125.25C57.3529 125.862 58.2316 126.033 58.9888 125.85C59.7461 125.666 60.4085 125.198 61.0397 124.731C61.2145 124.601 61.393 124.467 61.5053 124.285C61.6185 124.102 61.6507 123.861 61.5255 123.701" fill="#EB996E"/>
<path d="M57.6121 120.788C57.8679 120.783 57.8044 122.486 59.2158 123.751C60.6227 125.02 62.4454 124.899 62.4491 125.138C62.4684 125.245 62.0323 125.453 61.2658 125.444C60.5132 125.44 59.4256 125.157 58.5626 124.383C57.7023 123.608 57.3582 122.604 57.3278 121.904C57.2901 121.188 57.4962 120.774 57.6121 120.788Z" fill="#263238"/>
<path d="M57.4781 103.306C57.307 103.726 55.7483 103.463 53.8999 103.614C52.0477 103.727 50.5433 104.208 50.3133 103.816C50.2112 103.629 50.4863 103.239 51.1018 102.848C51.7128 102.459 52.6771 102.104 53.7858 102.024C54.8954 101.946 55.9002 102.16 56.5599 102.459C57.2251 102.757 57.5517 103.106 57.4781 103.306Z" fill="#263238"/>
<path d="M72.2713 101.473C71.9815 101.818 70.916 101.407 69.6168 101.339C68.3204 101.226 67.208 101.485 66.9697 101.102C66.8657 100.917 67.0525 100.567 67.5466 100.248C68.0333 99.931 68.8366 99.6872 69.7282 99.7488C70.6197 99.8123 71.3807 100.165 71.8186 100.547C72.264 100.93 72.4001 101.304 72.2713 101.473Z" fill="#263238"/>
<path d="M34.9736 95.3764C37.1947 88.8529 46.8916 79.9647 53.7547 80.5812L64.599 87.3826C63.8602 91.109 60.9075 94.3082 57.252 95.3424C55.2995 95.8944 52.9597 96.0104 51.7728 97.6564C50.5601 99.3365 51.1996 101.832 50.0678 103.567C48.4991 105.972 44.3466 105.774 43.1542 108.387C42.6334 109.528 42.8662 110.909 42.3243 112.04C41.6029 113.548 37.7127 115.401 36.1292 114.864C34.5466 114.328 34.5954 111.614 34.1032 110.183C33.2613 107.736 33.6532 106.485 33.9734 105.134C34.7307 101.934 33.9145 98.4882 34.9736 95.3764Z" fill="#263238"/>
<path d="M40.8037 116.304C40.8341 115.457 39.9333 113.424 39.1025 113.261C36.8841 112.827 32.854 112.85 32.5964 118.516C32.2449 126.264 40.0953 125.019 40.1192 124.797C40.1367 124.624 40.697 119.226 40.8037 116.304Z" fill="#FFBE9D"/>
<path d="M37.8843 121.755C37.8512 121.728 37.7454 121.843 37.5126 121.937C37.2853 122.028 36.8998 122.082 36.5023 121.912C35.6972 121.575 35.067 120.244 35.0927 118.847C35.1047 118.14 35.2832 117.476 35.5583 116.931C35.8205 116.375 36.2051 115.995 36.6201 115.942C37.0342 115.866 37.3148 116.125 37.3994 116.348C37.4933 116.569 37.4372 116.722 37.4776 116.737C37.4979 116.758 37.6497 116.615 37.6019 116.292C37.5761 116.137 37.4942 115.95 37.3194 115.793C37.14 115.634 36.8704 115.544 36.5815 115.562C35.9825 115.577 35.4194 116.101 35.1176 116.699C34.7827 117.298 34.5655 118.044 34.5517 118.837C34.5306 120.401 35.263 121.898 36.3689 122.272C36.9072 122.439 37.37 122.295 37.6129 122.123C37.8622 121.942 37.9101 121.771 37.8843 121.755Z" fill="#EB996E"/>
<path d="M33.3146 93.3658C33.3404 90.9422 30.3132 89.3569 27.9523 88.8076C25.5913 88.2592 23.095 88.9769 20.9696 90.1418C19.7256 90.8226 18.4734 91.7924 18.1955 93.1827C17.9167 94.573 19.2555 96.2301 20.5832 95.7323C18.0391 96.6027 16.7491 100.001 18.0741 102.34C19.399 104.68 22.9764 105.322 25.0309 103.588C24.3675 105.808 22.9193 107.786 21.0027 109.088C24.9877 109.655 29.2192 107.954 31.7008 104.784C34.1832 101.614 34.8208 97.0986 33.3146 93.3658Z" fill="#263238"/>
<path d="M27.9363 105.69C27.8811 105.698 27.6741 104.82 27.6465 103.365C27.6152 101.915 27.8305 99.8869 28.539 97.7744C29.2539 95.6627 30.3102 93.9182 31.2119 92.7828C32.1136 91.641 32.8101 91.0668 32.8496 91.1064C32.9923 91.2067 30.393 93.7811 29.0257 97.9382C27.5995 102.073 28.1111 105.696 27.9363 105.69Z" fill="#FF725E"/>
<path d="M62.3477 85.0414C63.0607 88.1955 67.8545 92.2403 69.9587 94.696C73.9741 99.3812 77.0769 99.0442 77.0374 109.519C78.9328 105.901 78.0731 104.249 77.9277 100.168C77.7824 96.0863 76.2789 91.9974 73.4413 89.0604C70.6046 86.1225 66.3897 84.4553 62.3477 85.0414Z" fill="#263238"/>
<path d="M95.0604 163.604C95.0604 163.604 86.7105 151.925 84.3937 149.563C82.2213 147.348 79.4224 146.042 77.5537 145.355C76.5139 144.974 75.4209 144.712 74.3029 144.549L62.2947 142.318C62.2947 142.318 62.2735 149.194 53.6853 149.619C45.0971 150.044 37.866 140.009 37.866 140.009C37.866 140.009 23.9927 141.809 20.673 143.241C17.3533 144.674 12.1363 146.493 9.26649 158.552L7.25146 170.349L20.673 176.813L26.7466 204.416L45.3262 208.954C45.3262 208.954 79.3911 213.602 81.4926 214.077C92.0738 199.355 87.4733 175.433 87.4733 175.433C87.4733 175.433 91.564 167.622 95.0604 163.604Z" fill="#263238"/>
<path d="M82.8793 148.289C82.9151 148.277 83.1017 148.643 83.4084 149.315C83.7214 149.985 84.1208 150.972 84.5656 152.207C85.4583 154.674 86.4374 158.162 86.9918 162.087C87.5377 166.014 87.5514 169.606 87.367 172.188C87.2763 173.479 87.1615 174.521 87.0424 175.237C86.9296 175.954 86.8495 176.348 86.8126 176.344C86.7747 176.34 86.7831 175.94 86.8305 175.221C86.8843 174.502 86.9391 173.46 86.9791 172.174C87.0634 169.603 86.9886 166.043 86.4469 162.146C85.8967 158.252 84.9861 154.782 84.1925 152.304C83.7983 151.064 83.4569 150.065 83.206 149.378C82.9626 148.688 82.8435 148.3 82.8793 148.289Z" fill="#455A64"/>
<path d="M74.5761 214.22L29.5353 204.417L27.454 172.223L7.42432 170.372C7.42432 170.372 8.165 192.38 8.93604 198.924C10.0438 208.334 15.6068 221.175 18.8603 223.741C22.1147 226.306 76.5985 225.149 76.5985 225.149L74.5761 214.22Z" fill="#FFBE9D"/>
<path d="M100.143 220.056C99.8264 220.684 99.1676 221.094 98.4665 221.033C98.3266 221.021 98.1803 220.994 98.0304 220.945C97.0339 220.626 97.1277 218.597 97.1277 218.597L92.3543 217.817C92.3543 217.817 86.1473 221.82 83.939 224.473C81.7308 227.126 76.097 224.978 76.097 224.978L74.1445 214.804L82.9306 206.859C82.9306 206.859 82.3914 207.332 82.9968 205.846C83.6032 204.36 86.3635 204.922 86.3635 204.922C86.7932 204.187 88.5966 203.924 88.5966 203.924L96.3033 204.812C97.8914 204.995 99.3111 205.887 100.165 207.238L103.424 212.397C103.424 212.397 105.146 216.111 104.869 216.975C104.451 218.277 103.073 217.988 103.073 217.988C103.073 217.988 102.693 220.43 102.052 220.514C101.411 220.599 100.143 220.056 100.143 220.056Z" fill="#FFBE9D"/>
<path d="M83.7413 212.748C83.7495 212.829 84.7745 212.734 86.4206 212.805C88.063 212.885 90.3347 213.173 92.7095 213.982C93.8964 214.381 94.9914 214.863 95.9519 215.368C96.8831 215.893 97.8547 216.323 98.1528 217.002C98.3028 217.334 98.2356 217.671 98.0691 217.92C97.9062 218.168 97.6845 218.331 97.4876 218.411C97.0827 218.578 96.8205 218.464 96.8122 218.511C96.7929 218.522 97.0515 218.722 97.5502 218.591C97.7912 218.526 98.07 218.365 98.2936 218.078C98.5227 217.806 98.6543 217.319 98.4758 216.872C98.3092 216.423 97.9265 216.075 97.517 215.789C97.0975 215.514 96.6577 215.233 96.1682 214.969C95.1984 214.431 94.0823 213.925 92.8668 213.515C90.4359 212.687 88.098 212.448 86.428 212.456C84.7506 212.476 83.733 212.695 83.7413 212.748Z" fill="#EB996E"/>
<path d="M83.2012 217.663C83.2104 217.809 86.3461 217.678 90.1995 217.904C94.0547 218.116 97.1554 218.601 97.1803 218.457C97.1913 218.394 96.4286 218.19 95.1735 217.969C93.9194 217.749 92.1703 217.524 90.2271 217.413C88.2847 217.303 86.5218 217.328 85.2503 217.405C83.9787 217.484 83.1975 217.599 83.2012 217.663Z" fill="#EB996E"/>
<path d="M100.098 219.86C100.124 219.856 100.158 219.572 100.195 219.04C100.227 218.51 100.259 217.739 100.199 216.783C100.167 216.305 100.115 215.78 99.9839 215.219C99.8615 214.656 99.5928 214.064 99.2266 213.54C98.5319 212.49 97.5668 211.4 96.3384 210.583C95.1147 209.776 93.891 209.094 92.6525 208.72C91.4233 208.348 90.274 208.256 89.3236 208.213C88.3703 208.18 87.603 208.2 87.073 208.22C86.543 208.242 86.2504 208.27 86.2495 208.304C86.2458 208.383 87.4245 208.423 89.3015 208.56C90.2354 208.645 91.3515 208.773 92.5172 209.151C93.6738 209.522 94.8764 210.207 96.0596 210.987C97.2447 211.779 98.1464 212.777 98.8531 213.796C99.5984 214.768 99.7373 215.883 99.8523 216.812C100.039 218.679 99.9922 219.863 100.098 219.86Z" fill="#EB996E"/>
<path d="M88.9668 205.88C88.9659 205.954 90.1197 205.984 91.9617 206.196C93.7348 206.467 96.5724 206.598 98.189 209.042C99.939 211.265 101.428 213.365 102.078 215.087C102.768 216.797 102.708 217.981 102.808 217.972C102.835 217.973 102.88 217.683 102.853 217.155C102.831 216.629 102.718 215.862 102.404 214.966C101.812 213.149 100.333 210.97 98.5727 208.735C98.1236 208.173 97.6378 207.641 97.0747 207.22C96.5135 206.791 95.8611 206.542 95.2612 206.368C94.0458 206.025 92.9278 205.925 91.9949 205.849C90.1234 205.725 88.9659 205.819 88.9668 205.88Z" fill="#EB996E"/>
<path d="M85.6236 222.83C85.6338 222.841 85.7911 222.721 86.0809 222.48C86.4113 222.215 86.8391 221.872 87.3709 221.444C88.5091 220.564 90.2012 219.312 92.4361 217.955L92.3266 217.976C93.75 218.218 95.3556 218.493 97.0945 218.788L96.9308 218.586C96.9207 218.976 96.9427 219.357 97.02 219.752C97.1001 220.141 97.2243 220.559 97.561 220.9C97.7359 221.065 97.987 221.164 98.1941 221.19C98.4066 221.245 98.6366 221.266 98.8648 221.23C99.3203 221.165 99.7481 220.925 100.052 220.573C100.13 220.486 100.197 220.39 100.26 220.29L100.303 220.214L100.324 220.175L100.335 220.156L100.336 220.153C100.398 220.129 99.8033 220.348 100.056 220.256L100.062 220.257L100.072 220.261L100.223 220.323C100.424 220.403 100.629 220.475 100.839 220.541C101.05 220.606 101.265 220.664 101.493 220.704C101.607 220.723 101.723 220.74 101.847 220.742C101.963 220.747 102.103 220.751 102.289 220.657C102.557 220.465 102.654 220.239 102.756 220.026C102.852 219.809 102.929 219.59 102.993 219.369C103.125 218.927 103.221 218.482 103.3 218.019L103.021 218.212C103.64 218.321 104.37 218.172 104.799 217.606C104.992 217.342 105.15 217.018 105.126 216.645C105.11 216.311 105.036 216.018 104.957 215.722C104.623 214.552 104.151 213.428 103.641 212.29L103.635 212.277L103.625 212.263C103.072 211.385 102.483 210.453 101.888 209.511C101.518 208.924 101.15 208.344 100.786 207.767C100.42 207.209 100.091 206.58 99.577 206.078C99.082 205.577 98.4876 205.186 97.8472 204.928C97.2114 204.654 96.5048 204.586 95.8819 204.52C93.3286 204.233 90.894 203.959 88.6177 203.703L88.5864 203.699L88.5606 203.704C88.1144 203.779 87.6966 203.884 87.2863 204.04C86.887 204.201 86.4637 204.383 86.1794 204.813L86.4462 204.73C85.6301 204.395 84.6851 204.391 83.9711 204.868C83.2535 205.34 82.9222 206.103 82.7465 206.819L82.8045 206.719C80.2815 208.988 78.2224 210.839 76.7493 212.164C76.0702 212.79 75.5274 213.289 75.1179 213.667C74.749 214.015 74.5604 214.204 74.5723 214.218C74.5843 214.232 74.7959 214.068 75.1879 213.746C75.6139 213.387 76.1779 212.911 76.8836 212.316C78.3824 211.021 80.4775 209.211 83.0455 206.992L83.0869 206.956L83.1035 206.891C83.2654 206.259 83.5911 205.563 84.1837 205.197C84.7597 204.809 85.5868 204.821 86.2705 205.107L86.4389 205.178L86.5382 205.023C86.7029 204.767 87.0691 204.573 87.4362 204.439C87.808 204.301 88.2183 204.202 88.6232 204.136L88.5671 204.137C90.8415 204.406 93.2752 204.693 95.8267 204.994C96.4772 205.066 97.0853 205.125 97.6659 205.377C98.2447 205.611 98.782 205.966 99.2292 206.42C99.6837 206.859 99.9929 207.449 100.371 208.028C100.735 208.605 101.103 209.187 101.472 209.773C102.069 210.715 102.657 211.647 103.211 212.524L103.197 212.496C103.698 213.61 104.171 214.735 104.492 215.849C104.568 216.125 104.637 216.41 104.648 216.663C104.673 216.882 104.562 217.119 104.42 217.318C104.143 217.709 103.585 217.832 103.115 217.756L102.875 217.716L102.836 217.948C102.763 218.384 102.671 218.825 102.55 219.24C102.435 219.633 102.263 220.111 102.051 220.271C102.04 220.277 101.958 220.302 101.857 220.292C101.764 220.291 101.664 220.279 101.565 220.262C101.367 220.229 101.165 220.176 100.967 220.117C100.769 220.057 100.573 219.989 100.381 219.914L100.239 219.857L100.231 219.853L100.228 219.852C100.479 219.76 99.8825 219.976 99.9441 219.955L99.9432 219.956L99.9349 219.972L99.9183 220.003L99.8852 220.063C99.8365 220.141 99.784 220.218 99.7233 220.287C99.4859 220.567 99.151 220.755 98.8032 220.809C98.6293 220.838 98.4545 220.822 98.2787 220.778C98.0883 220.751 97.9613 220.698 97.8426 220.596C97.3881 220.122 97.3227 219.277 97.32 218.603L97.3191 218.426L97.1562 218.401C95.4135 218.128 93.8043 217.877 92.3772 217.654L92.3155 217.645L92.2668 217.676C90.0319 219.082 88.3683 220.377 87.2577 221.305C86.7048 221.773 86.2898 222.148 86.0184 222.41C85.7497 222.676 85.6126 222.819 85.6236 222.83Z" fill="#EB996E"/>
<path d="M162.3 181.914L102.973 182.396C101.048 182.396 99.2098 183.321 98.9208 185.224L92.4369 228.464H61.8785C60.8949 228.464 60.0972 229.262 60.0972 230.245C60.0972 231.229 60.8949 232.026 61.8785 232.026H91.9023H97.6014H159.477L166.147 186.39C166.506 184.035 164.682 181.914 162.3 181.914Z" fill="#E0E0E0"/>
<path d="M162.3 181.914C162.3 181.914 162.623 181.872 163.235 182.001C163.829 182.139 164.764 182.506 165.501 183.503C165.869 183.992 166.148 184.644 166.235 185.397C166.331 186.161 166.112 186.967 166.017 187.837C165.768 189.584 165.482 191.598 165.161 193.859C163.855 202.925 161.974 215.989 159.66 232.052L159.637 232.208H159.478C134.223 232.223 101.034 232.243 64.7917 232.264C63.9406 232.264 63.0914 232.264 62.243 232.264C61.8502 232.281 61.3027 232.258 60.8951 232.008C60.4737 231.776 60.1461 231.386 59.9824 230.937C59.6272 230.031 60.0514 228.922 60.9034 228.472C61.3101 228.227 61.852 228.206 62.2403 228.221H63.4953C66.838 228.222 70.1467 228.222 73.4122 228.223C79.944 228.225 86.3055 228.228 92.4362 228.23L92.208 228.426C94.5414 212.941 96.7183 198.496 98.6717 185.536C98.7389 184.715 99.1106 183.827 99.7694 183.277C100.413 182.706 101.229 182.402 102.037 182.276C102.863 182.151 103.649 182.218 104.43 182.191C105.213 182.186 105.989 182.18 106.759 182.176C109.84 182.155 112.819 182.135 115.691 182.116C121.432 182.079 126.742 182.046 131.564 182.016C141.197 181.966 148.875 181.927 154.162 181.9C156.789 181.895 158.819 181.891 160.208 181.889C160.886 181.892 161.405 181.894 161.769 181.896C162.121 181.902 162.3 181.914 162.3 181.914C162.3 181.914 162.122 181.928 161.77 181.938C161.406 181.946 160.888 181.957 160.21 181.971C158.821 181.991 156.792 182.02 154.165 182.058C148.878 182.117 141.2 182.202 131.568 182.309C126.747 182.357 121.437 182.409 115.695 182.467C112.824 182.494 109.844 182.523 106.764 182.551C105.994 182.559 105.217 182.566 104.434 182.573C103.654 182.6 102.851 182.539 102.101 182.659C101.346 182.777 100.599 183.063 100.032 183.572C99.4483 184.079 99.14 184.787 99.0664 185.597C97.1324 198.559 94.9775 213.007 92.6662 228.496L92.6367 228.693H92.438C86.3074 228.695 79.9449 228.698 73.414 228.7C70.1486 228.701 66.8399 228.701 63.4971 228.702H62.2421C61.7996 228.69 61.4692 228.707 61.1371 228.893C60.4866 229.237 60.1627 230.083 60.4341 230.773C60.5583 231.115 60.8086 231.414 61.1306 231.59C61.4646 231.779 61.7977 231.798 62.2458 231.785C63.0932 231.785 63.9425 231.785 64.7945 231.785C101.036 231.806 134.225 231.826 159.48 231.841L159.299 231.997C161.679 215.945 163.616 202.888 164.959 193.828C165.299 191.568 165.601 189.559 165.863 187.813C165.968 186.939 166.192 186.138 166.105 185.41C166.03 184.681 165.767 184.045 165.417 183.565C164.713 182.583 163.806 182.206 163.224 182.052C162.623 181.91 162.299 181.937 162.3 181.914Z" fill="#263238"/>
<path d="M94.8422 231.626C94.926 231.64 96.8149 220.629 99.0591 207.037C101.305 193.439 103.057 182.409 102.973 182.395C102.889 182.381 101.001 193.389 98.7554 206.986C96.5113 220.58 94.7585 231.613 94.8422 231.626Z" fill="#263238"/>
<path fill-rule="evenodd" clip-rule="evenodd" d="M132.788 205.174C132.476 205.493 132.009 205.61 131.594 205.506C131.246 205.342 130.693 205.514 130.256 205.962C129.832 206.397 129.583 206.969 129.656 207.369L129.656 207.369C129.693 207.833 129.521 208.343 129.211 208.661C128.736 209.149 128.003 209.115 127.575 208.586C127.146 208.057 127.184 207.234 127.66 206.746C127.993 206.404 128.51 206.262 128.936 206.39C128.947 206.394 128.958 206.398 128.969 206.401C128.976 206.403 128.982 206.406 128.989 206.408L128.99 206.407C129.335 206.495 129.815 206.324 130.21 205.92C130.635 205.484 130.829 204.986 130.738 204.614L130.74 204.612C130.626 204.105 130.794 203.52 131.15 203.154C131.636 202.655 132.397 202.704 132.849 203.261C133.301 203.819 133.274 204.676 132.788 205.174Z" fill="#4385F5"/>
<path fill-rule="evenodd" clip-rule="evenodd" d="M135.867 208.975C135.556 209.294 135.089 209.41 134.674 209.307C134.326 209.143 133.773 209.315 133.336 209.763C132.912 210.198 132.663 210.769 132.736 211.17L132.735 211.17C132.772 211.634 132.6 212.144 132.29 212.462C131.815 212.949 131.083 212.916 130.654 212.387C130.226 211.858 130.263 211.034 130.739 210.547C131.086 210.191 131.632 210.051 132.068 210.209L132.07 210.207C132.414 210.295 132.895 210.124 133.289 209.72C133.714 209.284 133.907 208.786 133.817 208.415L133.819 208.412C133.705 207.906 133.873 207.32 134.229 206.955C134.716 206.456 135.476 206.504 135.928 207.062C136.38 207.62 136.353 208.477 135.867 208.975Z" fill="#FCBC03"/>
<ellipse cx="128.682" cy="204.005" rx="1.22211" ry="1.37403" transform="rotate(2.63099 128.682 204.005)" fill="#EA4235"/>
<ellipse cx="135.176" cy="204.304" rx="1.22211" ry="1.37403" transform="rotate(2.63099 135.176 204.304)" fill="#109D59"/>
<ellipse cx="134.84" cy="211.606" rx="1.22211" ry="1.37403" transform="rotate(2.63099 134.84 211.606)" fill="#EA4235"/>
<path fill-rule="evenodd" clip-rule="evenodd" d="M132.608 208.826C132.299 209.142 131.837 209.259 131.425 209.16C131.083 208.983 130.542 209.136 130.101 209.588C129.667 210.033 129.394 210.628 129.478 211.032C129.511 211.492 129.339 211.997 129.032 212.313C128.556 212.8 127.824 212.766 127.395 212.237C126.967 211.709 127.005 210.885 127.48 210.398C127.774 210.097 128.209 209.95 128.6 210.007C128.662 210.032 128.731 210.049 128.803 210.057C128.805 210.058 128.807 210.059 128.809 210.059L128.81 210.058C129.17 210.098 129.634 209.938 129.986 209.576C130.41 209.142 130.632 208.642 130.554 208.27L130.561 208.263C130.446 207.757 130.614 207.171 130.971 206.805C131.457 206.307 132.217 206.355 132.67 206.913C133.122 207.471 133.094 208.327 132.608 208.826Z" fill="#109D59"/>
<path fill-rule="evenodd" clip-rule="evenodd" d="M63.7097 178.976C63.1468 179.667 62.2712 179.952 61.4771 179.774C60.8043 179.465 59.769 179.873 58.978 180.845C58.2101 181.789 57.7854 183.002 57.9584 183.828L57.9579 183.828C58.0662 184.789 57.7824 185.867 57.2211 186.556C56.3609 187.614 54.9701 187.61 54.1146 186.55C53.2592 185.489 53.263 183.772 54.1232 182.714C54.7276 181.972 55.6948 181.628 56.5134 181.858C56.5337 181.864 56.5542 181.87 56.575 181.876C56.5879 181.88 56.6008 181.884 56.6136 181.889L56.6157 181.886C57.2763 182.038 58.1727 181.639 58.8867 180.762C59.6562 179.816 59.982 178.763 59.7796 177.998L59.7845 177.992C59.5263 176.949 59.7956 175.715 60.441 174.922C61.3211 173.84 62.7663 173.871 63.6689 174.99C64.5715 176.11 64.5898 177.894 63.7097 178.976Z" fill="#4385F5"/>
<path fill-rule="evenodd" clip-rule="evenodd" d="M69.8562 186.603C69.294 187.293 68.42 187.578 67.6266 187.402C66.9539 187.092 65.9177 187.499 65.126 188.472C64.3586 189.415 63.934 190.628 64.1061 191.453L64.1044 191.455C64.2127 192.416 63.9289 193.494 63.3676 194.183C62.5074 195.241 61.1166 195.237 60.2611 194.176C59.4057 193.116 59.4095 191.399 60.2697 190.341C60.8989 189.568 61.9214 189.228 62.76 189.516L62.7629 189.512C63.4236 189.664 64.32 189.265 65.0341 188.388C65.8036 187.442 66.1295 186.388 65.927 185.624L65.931 185.619C65.6728 184.576 65.9421 183.342 66.5875 182.549C67.4676 181.467 68.9128 181.498 69.8154 182.617C70.718 183.737 70.7363 185.521 69.8562 186.603Z" fill="#FCBC03"/>
<ellipse cx="55.8333" cy="176.918" rx="2.3177" ry="2.8613" transform="rotate(0.127826 55.8333 176.918)" fill="#EA4235"/>
<ellipse cx="68.1634" cy="176.947" rx="2.3177" ry="2.8613" transform="rotate(0.127826 68.1634 176.947)" fill="#109D59"/>
<ellipse cx="68.1292" cy="192.17" rx="2.3177" ry="2.8613" transform="rotate(0.127826 68.1292 192.17)" fill="#EA4235"/>
<path fill-rule="evenodd" clip-rule="evenodd" d="M63.6701 186.589C63.1123 187.274 62.2474 187.56 61.459 187.392C60.7973 187.055 59.782 187.422 58.9837 188.403C58.1993 189.367 57.7321 190.627 57.9203 191.459C58.0232 192.415 57.7395 193.484 57.1815 194.17C56.3214 195.227 54.9305 195.224 54.0751 194.163C53.2196 193.102 53.2235 191.385 54.0836 190.328C54.6148 189.675 55.4263 189.331 56.1708 189.412C56.2923 189.459 56.4249 189.488 56.5651 189.499C56.5681 189.5 56.571 189.501 56.574 189.502L56.5758 189.5C57.2616 189.549 58.1257 189.174 58.7632 188.39C59.5307 187.447 59.9099 186.388 59.7326 185.62L59.7449 185.605C59.4867 184.562 59.7561 183.328 60.4015 182.535C61.2815 181.454 62.7267 181.484 63.6293 182.604C64.532 183.723 64.5502 185.507 63.6701 186.589Z" fill="#109D59"/>
<path d="M147.162 89.967L146.867 89.8974L147.103 89.6579C144.567 86.3872 143.054 82.2856 143.054 77.827C143.054 67.15 151.71 58.4943 162.387 58.4943C173.064 58.4943 181.72 67.15 181.72 77.827C181.72 88.5039 173.064 97.1596 162.387 97.1596C158.674 97.1596 155.207 96.1115 152.262 94.2972L152.073 94.1808L151.88 94.2903L145.26 98.0473L147.162 89.967Z" fill="#F3F3F3" stroke="black" stroke-width="0.750374"/>
<path d="M149.433 78.3787L154.685 74.8145L157.874 81.3802L171.944 70.875L175.321 73.5013L155.998 86.4453L149.433 78.3787Z" fill="#4385F5"/>
</svg>
