<svg width="156" height="106" viewBox="0 0 156 106" fill="none" xmlns="http://www.w3.org/2000/svg">
<g clip-path="url(#clip0_220_68)">
<path d="M156 105.047H0C87.3254 86.2514 143.23 102.989 156 105.047Z" fill="#F2F2F2"/>
<path d="M90.3878 43.4238C90.6224 43.1619 90.9499 43.0018 91.3007 42.9777C91.6515 42.9537 91.9978 43.0674 92.2661 43.2948C92.3198 43.3418 92.3697 43.3933 92.415 43.4486L96.849 41.8627L98.4453 43.8295L92.1364 45.3452C91.8925 45.5153 91.5993 45.5999 91.3023 45.5858C91.0054 45.5717 90.7214 45.4597 90.4948 45.2673C90.367 45.1566 90.2621 45.0217 90.1864 44.8705C90.1106 44.7192 90.0653 44.5545 90.0532 44.3858C90.0411 44.2171 90.0623 44.0476 90.1157 43.8871C90.169 43.7265 90.2535 43.5781 90.3642 43.4502C90.372 43.4413 90.3798 43.4325 90.3878 43.4238Z" fill="#FFCFA5"/>
<path d="M108.677 93.502L106.257 93.5019L105.105 84.1657L108.678 84.166L108.677 93.502Z" fill="#A0616A"/>
<path d="M108.762 96.0271L101.318 96.0268V95.9326C101.318 95.1643 101.624 94.4275 102.167 93.8842C102.71 93.3409 103.447 93.0357 104.216 93.0356H104.216L105.575 92.0042L108.112 93.0358L108.762 93.0358L108.762 96.0271Z" fill="#2F2E41"/>
<path d="M125.641 89.0499L123.661 90.4419L117.348 83.4671L120.271 81.4124L125.641 89.0499Z" fill="#A0616A"/>
<path d="M127.164 91.0662L121.075 95.3473L121.021 95.2703C120.579 94.6418 120.405 93.8634 120.537 93.1065C120.669 92.3496 121.096 91.6761 121.725 91.2341L121.725 91.234L122.244 89.6082L124.912 88.9929L125.444 88.6192L127.164 91.0662Z" fill="#2F2E41"/>
<path d="M118.32 47.0553L118.521 47.4849C119.843 50.3091 120.181 53.4662 119.668 56.5419C119.629 56.6619 119.637 56.7918 119.688 56.9068C120.007 57.2805 119.507 58.9041 119.22 59.8106L118.962 61.4137C118.962 61.4137 119.39 62.9026 118.74 62.7932C118.089 62.6838 119.058 64.2719 118.438 64.6698L116.828 74.6609L123.543 85.728L121.056 89.3341L111.108 76.5261L110.984 64.9616L109.491 74.2878L109.367 88.9611L104.843 88.4801L105.015 72.92L104.766 54.5804L107.253 46.0502L118.32 47.0553Z" fill="#414141"/>
<path d="M117.475 21.1906L111.133 21.3149L109.89 24.4236L107.403 25.1697L105.289 30.3924L106.532 46.9309L120.086 48.1744L119.465 46.8066C119.465 46.8066 121.951 46.9309 121.081 46.0605C120.211 45.19 118.538 45.3829 119.374 44.3538C120.211 43.3248 120.335 42.5787 120.335 42.5787L120.708 37.4803L121.641 26.5998L118.718 24.2993L117.475 21.1906Z" fill="#EA4235"/>
<path d="M123.937 56.7657C124.134 56.4741 124.209 56.1174 124.147 55.7714C124.084 55.4253 123.889 55.1173 123.603 54.9129C123.544 54.8722 123.482 54.8365 123.417 54.8061L123.871 50.1189L121.573 49.0521L121.647 55.5401C121.541 55.8182 121.531 56.1232 121.617 56.4077C121.704 56.6922 121.882 56.9401 122.124 57.1127C122.262 57.2097 122.419 57.2783 122.584 57.3148C122.749 57.3513 122.92 57.3549 123.086 57.3254C123.253 57.2958 123.412 57.2338 123.555 57.1428C123.697 57.0518 123.821 56.9336 123.917 56.7949C123.924 56.7853 123.931 56.7755 123.937 56.7657Z" fill="#FFCFA5"/>
<path d="M120.471 26.3323C120.471 26.3323 124.168 26.2605 124.294 33.0887C124.294 33.0887 128.779 42.4428 126.039 45.8123L124.265 52.6759L121.148 52.3847L120.887 46.707C120.887 46.707 116.543 40.5992 117.509 34.7376L120.471 26.3323Z" fill="#EA4235"/>
<path d="M107.65 25.0454C107.65 25.0454 105.972 26.4754 102.801 30.8898C102.801 30.8898 98.0755 37.7291 98.5729 40.4648L96.4589 41.0865L95.9615 45.8118L101.122 44.5061C101.122 44.5061 107.775 38.9726 107.526 36.2369C107.277 33.5012 107.65 25.0454 107.65 25.0454Z" fill="#EA4235"/>
<path d="M114.15 20.1894C111.747 20.1894 109.799 18.2417 109.799 15.8391C109.799 13.4365 111.747 11.4888 114.15 11.4888C116.552 11.4888 118.5 13.4365 118.5 15.8391C118.5 18.2417 116.552 20.1894 114.15 20.1894Z" fill="#FFCFA5"/>
<path d="M115.42 15.7264C115.416 15.6776 115.411 15.6288 115.405 15.58C115.399 15.6293 115.404 15.6793 115.42 15.7264Z" fill="#2F2E41"/>
<path d="M109.715 10.7514C109.845 10.2404 110.341 9.80639 110.866 9.86856C111.193 9.90711 111.472 10.1173 111.773 10.2491C112.617 10.6184 114.72 9.83249 115.631 9.95809C116.544 10.0849 117.419 10.9815 117.132 11.8569C119.496 12.1086 120.511 14.1953 119.676 16.4703C119.024 18.2494 116.544 20.0105 114.653 20.1336C114.885 19.0369 116.232 17.8095 116.464 16.714C116.548 16.4203 116.57 16.1127 116.53 15.81C116.508 15.659 116.441 15.5182 116.338 15.4057C116.235 15.2931 116.1 15.2139 115.952 15.1783C115.827 15.1648 115.702 15.1986 115.601 15.273C115.5 15.3473 115.43 15.4568 115.406 15.5799C115.36 15.243 115.23 14.9229 115.029 14.6487C114.828 14.3745 114.561 14.1547 114.254 14.0093C113.946 13.8639 113.607 13.7974 113.268 13.8159C112.928 13.8344 112.599 13.9372 112.309 14.1151L112.912 13.2944C112.091 13.6782 111.177 13.8197 110.278 13.7023C110.256 13.6255 110.249 13.5454 110.257 13.466C110.264 13.3841 110.291 13.3053 110.338 13.2373C110.384 13.1693 110.447 13.1145 110.521 13.078C110.377 13.1167 110.242 13.1842 110.125 13.2763C110.008 13.3684 109.911 13.4833 109.839 13.614C109.318 13.4952 108.859 13.1883 108.551 12.7522C108.262 12.3095 109.584 11.2625 109.715 10.7514Z" fill="#2F2E41"/>
<path d="M87.3464 40.722H94.1441C94.4908 40.722 94.8233 40.8598 95.0684 41.1049C95.3136 41.3501 95.4513 41.6826 95.4513 42.0293V42.9319C95.4513 43.2786 95.3136 43.6111 95.0684 43.8562C94.8233 44.1014 94.4908 44.2391 94.1441 44.2391H91.5457L92.485 53.1788C92.6501 53.281 92.7902 53.4189 92.8952 53.5822C93.0002 53.7455 93.0674 53.9303 93.0919 54.1229L93.955 60.8656C93.985 61.0992 93.9512 61.3367 93.8573 61.5527C93.7635 61.7688 93.6129 61.9555 93.4217 62.093L96.306 89.5438L100.431 95.5042H133.977C134.116 95.5042 134.249 95.5593 134.347 95.6573C134.445 95.7554 134.5 95.8884 134.5 96.0271C134.5 96.1657 134.445 96.2987 134.347 96.3968C134.249 96.4949 134.116 96.55 133.977 96.55H131.364C131.946 96.9858 132.376 97.5938 132.593 98.2878C132.811 98.9818 132.804 99.7266 132.574 100.417C132.344 101.107 131.903 101.707 131.314 102.132C130.724 102.557 130.015 102.786 129.288 102.786C128.561 102.786 127.852 102.557 127.262 102.132C126.672 101.707 126.231 101.107 126.001 100.417C125.772 99.7266 125.765 98.9818 125.982 98.2878C126.2 97.5938 126.63 96.9858 127.212 96.55H100.157C100.073 96.5499 99.9896 96.5294 99.9147 96.4902C99.8398 96.4509 99.7756 96.3941 99.7275 96.3246L96.3228 91.4056V95.8944C97.1869 96.0206 97.9714 96.4685 98.5193 97.1485C99.0672 97.8284 99.338 98.6902 99.2776 99.5614C99.2172 100.432 98.8299 101.249 98.1934 101.846C97.5569 102.444 96.718 102.78 95.8448 102.785C94.9716 102.791 94.1285 102.467 93.4842 101.877C92.84 101.288 92.4421 100.477 92.3703 99.6064C92.2986 98.7361 92.5581 97.8709 93.0971 97.1838C93.6361 96.4968 94.4147 96.0387 95.277 95.9012V89.7584L92.393 62.3106C92.1266 62.2555 91.8841 62.1186 91.6992 61.9191C91.5143 61.7196 91.3963 61.4673 91.3616 61.1975L90.4986 54.4548C90.4595 54.148 90.5305 53.8373 90.699 53.5779C90.8675 53.3185 91.1226 53.1274 91.4188 53.0384L90.4942 44.2391H87.3464C86.9997 44.2391 86.6672 44.1014 86.422 43.8562C86.1769 43.6111 86.0391 43.2786 86.0391 42.9319V42.0293C86.0391 41.6826 86.1769 41.3501 86.422 41.1049C86.6672 40.8598 86.9997 40.722 87.3464 40.722Z" fill="#109D59"/>
<path d="M45.6128 93.6624C45.4869 93.6814 45.3582 93.6613 45.244 93.6047C45.1299 93.5481 45.036 93.4579 44.9749 93.3461C44.9138 93.2343 44.8885 93.1065 44.9025 92.9799C44.9165 92.8533 44.9691 92.7341 45.0531 92.6384C45.0622 92.5748 45.0688 92.5292 45.0779 92.4656C44.9246 92.1706 44.6867 91.9282 44.3948 91.7692C44.1028 91.6103 43.77 91.5422 43.4391 91.5737C43.1082 91.6051 42.7942 91.7347 42.5373 91.9457C42.2805 92.1568 42.0926 92.4397 41.9976 92.7583C41.4446 94.5487 40.6824 96.422 41.3511 98.2605C37.5484 91.9884 37.749 83.6709 41.7597 77.5479C42.9581 76.7144 43.8587 75.3621 43.976 73.8889C43.3689 74.168 42.5307 73.7381 42.9346 73.0257C43.1132 72.7509 43.294 72.4779 43.4726 72.2031C40.8158 69.9069 38.3857 74.2062 41.3764 77.3675C40.6284 78.5367 40.0047 79.781 39.5154 81.0799C39.5212 79.7543 39.2122 78.4463 38.6138 77.2635C38.0178 76.1651 37.0247 75.2914 36.1353 74.381C35.0538 73.2714 33.1463 74.0349 33.1782 75.5831C34.0899 75.7806 34.3376 77.0419 33.3475 77.3216C33.9101 80.1491 36.0496 82.5779 38.7496 83.5615C38.0792 86.3226 38.0049 89.1949 38.5319 91.987C37.7343 88.7429 34.1176 88.3135 31.5113 87.2635C31.3436 87.1791 31.1549 87.1454 30.9684 87.1664C30.7818 87.1874 30.6054 87.2623 30.4607 87.3818C30.3159 87.5014 30.2091 87.6605 30.1533 87.8397C30.0974 88.019 30.0949 88.2106 30.1461 88.3912C30.5014 88.4942 30.8456 88.6322 31.1737 88.8032C31.3276 88.8848 31.4524 89.0121 31.5312 89.1674C31.6099 89.3228 31.6386 89.4987 31.6135 89.6711C31.5883 89.8435 31.5104 90.0038 31.3905 90.1302C31.2707 90.2565 31.1146 90.3427 30.9438 90.377C32.5107 93.3276 35.9453 95.06 39.2495 94.7028C39.7115 96.0499 40.3122 97.3454 41.0419 98.5683L45.9478 98.0554C45.9597 97.9991 45.9697 97.9411 45.9798 97.885C45.5287 97.961 45.0699 97.9815 44.6139 97.946C45.6666 96.398 46.5197 95.5751 45.6128 93.6624Z" fill="#F2F2F2"/>
<path d="M75.1975 97.8517C75.0678 97.5404 75.3752 97.1162 75.8842 96.9041C76.3931 96.692 76.9109 96.7724 77.0406 97.0836C77.1702 97.3948 76.8628 97.8191 76.3539 98.0312C75.8449 98.2433 75.3272 98.1629 75.1975 97.8517Z" fill="#E6E6E6"/>
<path d="M69.8772 101.557C69.7475 101.246 70.0549 100.822 70.5639 100.61C71.0728 100.398 71.5905 100.478 71.7202 100.789C71.8499 101.101 71.5425 101.525 71.0335 101.737C70.5246 101.949 70.0069 101.869 69.8772 101.557Z" fill="#3F3D56"/>
<path d="M79.1936 100.899C79.0639 100.587 79.3713 100.163 79.8803 99.9509C80.3892 99.7388 80.9069 99.8192 81.0366 100.13C81.1663 100.442 80.8589 100.866 80.3499 101.078C79.841 101.29 79.3233 101.21 79.1936 100.899Z" fill="#FF6584"/>
<path d="M82.6652 101.138C82.4899 100.886 82.5086 100.569 82.707 100.432C82.9054 100.294 83.2083 100.387 83.3837 100.639C83.559 100.892 83.5403 101.208 83.342 101.346C83.1436 101.484 82.8406 101.391 82.6652 101.138Z" fill="#E6E6E6"/>
<path d="M85.3684 103.662C85.193 103.409 85.2117 103.093 85.4101 102.955C85.6085 102.817 85.9115 102.91 86.0868 103.163C86.2621 103.416 86.2435 103.732 86.0451 103.87C85.8467 104.007 85.5437 103.914 85.3684 103.662Z" fill="#3F3D56"/>
<path d="M75.6281 102.086C75.4528 101.833 75.4715 101.517 75.6699 101.379C75.8683 101.241 76.1712 101.334 76.3466 101.587C76.5219 101.839 76.5032 102.156 76.3048 102.294C76.1064 102.431 75.8035 102.338 75.6281 102.086Z" fill="#E6E6E6"/>
<path d="M77.6086 99.3522C77.4333 99.0996 77.4519 98.7832 77.6503 98.6455C77.8487 98.5077 78.1517 98.6008 78.327 98.8534C78.5024 99.106 78.4837 99.4224 78.2853 99.5601C78.0869 99.6978 77.784 99.6047 77.6086 99.3522Z" fill="#FF6584"/>
<path d="M72.4778 99.3604C72.3024 99.1078 72.3211 98.7914 72.5195 98.6536C72.7179 98.5159 73.0208 98.609 73.1962 98.8616C73.3715 99.1142 73.3528 99.4306 73.1545 99.5683C72.9561 99.706 72.6531 99.6129 72.4778 99.3604Z" fill="#3F3D56"/>
<path d="M107.963 97.8517C107.833 97.5404 108.141 97.1162 108.65 96.9041C109.159 96.692 109.676 96.7724 109.806 97.0836C109.936 97.3949 109.628 97.8191 109.119 98.0312C108.611 98.2433 108.093 98.1629 107.963 97.8517Z" fill="#E6E6E6"/>
<path d="M102.643 101.557C102.513 101.246 102.821 100.822 103.329 100.61C103.838 100.398 104.356 100.478 104.486 100.789C104.616 101.101 104.308 101.525 103.799 101.737C103.29 101.949 102.772 101.869 102.643 101.557Z" fill="#3F3D56"/>
<path d="M111.963 100.899C111.833 100.587 112.141 100.163 112.65 99.951C113.159 99.7389 113.676 99.8193 113.806 100.13C113.936 100.442 113.628 100.866 113.119 101.078C112.611 101.29 112.093 101.21 111.963 100.899Z" fill="#FF6584"/>
<path d="M115.433 101.138C115.257 100.886 115.276 100.569 115.475 100.432C115.673 100.294 115.976 100.387 116.151 100.639C116.327 100.892 116.308 101.208 116.11 101.346C115.911 101.484 115.608 101.391 115.433 101.138Z" fill="#E6E6E6"/>
<path d="M118.134 103.662C117.959 103.409 117.977 103.093 118.176 102.955C118.374 102.817 118.677 102.91 118.852 103.163C119.028 103.416 119.009 103.732 118.811 103.87C118.612 104.007 118.309 103.914 118.134 103.662Z" fill="#3F3D56"/>
<path d="M108.396 102.086C108.22 101.833 108.239 101.517 108.437 101.379C108.636 101.241 108.939 101.334 109.114 101.587C109.289 101.84 109.271 102.156 109.072 102.294C108.874 102.431 108.571 102.338 108.396 102.086Z" fill="#E6E6E6"/>
<path d="M110.38 99.3522C110.205 99.0996 110.223 98.7832 110.422 98.6455C110.62 98.5077 110.923 98.6008 111.099 98.8534C111.274 99.106 111.255 99.4224 111.057 99.5601C110.858 99.6978 110.555 99.6047 110.38 99.3522Z" fill="#FF6584"/>
<path d="M105.245 99.3604C105.07 99.1078 105.089 98.7914 105.287 98.6536C105.485 98.5159 105.788 98.609 105.964 98.8616C106.139 99.1142 106.12 99.4306 105.922 99.5683C105.724 99.706 105.421 99.6129 105.245 99.3604Z" fill="#3F3D56"/>
<path d="M55.0099 104.335C54.8381 104.045 55.0834 103.582 55.5578 103.301C56.0323 103.02 56.5561 103.027 56.728 103.317C56.8998 103.607 56.6545 104.07 56.1801 104.351C55.7056 104.632 55.1818 104.625 55.0099 104.335Z" fill="#E6E6E6"/>
<path d="M59.7619 99.9234C59.5901 99.6333 59.8354 99.1703 60.3098 98.8893C60.7842 98.6084 61.3081 98.6158 61.4799 98.9059C61.6517 99.196 61.4064 99.659 60.932 99.9399C60.4576 100.221 59.9337 100.213 59.7619 99.9234Z" fill="#3F3D56"/>
<path d="M50.6252 101.875C50.4534 101.585 50.6987 101.122 51.1731 100.841C51.6475 100.56 52.1714 100.567 52.3432 100.857C52.515 101.147 52.2697 101.61 51.7953 101.891C51.3209 102.172 50.797 102.165 50.6252 101.875Z" fill="#FF6584"/>
<path d="M48.2339 101.698C48.025 101.472 47.9994 101.156 48.1767 100.992C48.3539 100.828 48.6669 100.878 48.8758 101.104C49.0846 101.329 49.1102 101.645 48.933 101.809C48.7557 101.973 48.4427 101.923 48.2339 101.698Z" fill="#E6E6E6"/>
<path d="M45.2026 99.5756C44.9938 99.35 44.9682 99.0341 45.1454 98.87C45.3227 98.706 45.6357 98.7559 45.8445 98.9816C46.0534 99.2073 46.079 99.5232 45.9017 99.6872C45.7245 99.8513 45.4115 99.8013 45.2026 99.5756Z" fill="#3F3D56"/>
<path d="M55.0679 99.7788C54.859 99.5531 54.8334 99.2372 55.0107 99.0731C55.1879 98.9091 55.5009 98.9591 55.7097 99.1847C55.9186 99.4104 55.9442 99.7263 55.7669 99.8903C55.5897 100.054 55.2767 100.004 55.0679 99.7788Z" fill="#E6E6E6"/>
<path d="M53.4858 102.762C53.277 102.536 53.2514 102.22 53.4286 102.056C53.6059 101.892 53.9189 101.942 54.1277 102.168C54.3366 102.394 54.3622 102.709 54.1849 102.874C54.0077 103.038 53.6947 102.988 53.4858 102.762Z" fill="#FF6584"/>
<path d="M58.5659 102.038C58.3571 101.813 58.3315 101.497 58.5087 101.333C58.686 101.169 58.999 101.218 59.2078 101.444C59.4166 101.67 59.4422 101.986 59.265 102.15C59.0877 102.314 58.7747 102.264 58.5659 102.038Z" fill="#3F3D56"/>
</g>
<defs>
<clipPath id="clip0_220_68">
<rect width="156" height="105.047" fill="white" transform="matrix(-1 0 0 1 156 0)"/>
</clipPath>
</defs>
</svg>
