<svg width="582" height="329" viewBox="0 0 582 329" fill="none" xmlns="http://www.w3.org/2000/svg">
<path d="M546.032 87.7098C549.694 86.1739 552.297 82.3976 552.318 77.9491C552.342 72.121 547.932 67.3747 542.466 67.3497C537.002 67.3247 532.552 72.0289 532.528 77.857C532.509 82.3476 535.132 86.1686 538.833 87.7098C523.605 90.0039 524.296 106.555 524.296 106.555L560.306 106.721C560.306 106.721 561.127 89.9895 546.032 87.7098Z" fill="#4F4F4F"/>
<path d="M542.306 127.925C520.452 127.925 502.672 110.146 502.672 88.2912C502.672 66.4363 520.452 48.6572 542.306 48.6572C564.16 48.6572 581.94 66.4363 581.94 88.2912C581.94 110.146 564.16 127.925 542.306 127.925ZM542.306 49.7864C521.074 49.7864 503.801 67.0595 503.801 88.2912C503.801 109.523 521.074 126.796 542.306 126.796C563.538 126.796 580.811 109.523 580.811 88.2912C580.811 67.0595 563.538 49.7864 542.306 49.7864Z" fill="#4F4F4F"/>
<path d="M114.09 36.81C117.431 35.4082 119.807 31.9636 119.827 27.9039C119.848 22.5854 115.824 18.2558 110.837 18.2325C105.852 18.2093 101.791 22.5023 101.769 27.8198C101.752 31.9171 104.145 35.4037 107.523 36.81C93.628 38.9029 94.2583 54.0044 94.2583 54.0044L127.114 54.1555C127.114 54.1555 127.863 38.8903 114.09 36.81Z" fill="#4F4F4F"/>
<path d="M110.685 73.5561C90.7177 73.5561 74.4727 57.3111 74.4727 37.3434C74.4727 17.3749 90.7177 1.12988 110.685 1.12988C130.654 1.12988 146.899 17.3749 146.899 37.3434C146.898 57.3111 130.654 73.5561 110.685 73.5561ZM110.685 2.25991C91.3399 2.25991 75.6018 17.9989 75.6018 37.3434C75.6018 56.688 91.3399 72.427 110.685 72.427C130.031 72.427 145.769 56.6889 145.769 37.3434C145.769 17.998 130.031 2.25991 110.685 2.25991Z" fill="#4F4F4F"/>
<path d="M432.952 28.1008C435.567 27.0039 437.427 24.3076 437.442 21.1303C437.459 16.9678 434.309 13.5795 430.406 13.5616C426.504 13.5437 423.326 16.9034 423.309 21.065C423.296 24.2718 425.169 27.0003 427.812 28.1008C416.938 29.7387 417.431 41.5574 417.431 41.5574L443.146 41.6763C443.146 41.6763 443.732 29.7288 432.952 28.1008Z" fill="#4F4F4F"/>
<path d="M430.287 56.9295C414.59 56.9295 401.822 44.1604 401.822 28.4643C401.822 12.7691 414.591 0 430.287 0C445.983 0 458.751 12.7691 458.751 28.4643C458.751 44.1604 445.982 56.9295 430.287 56.9295ZM430.287 1.12913C415.214 1.12913 402.951 13.3922 402.951 28.4643C402.951 43.5373 415.214 55.8004 430.287 55.8004C445.36 55.8004 457.622 43.5382 457.622 28.4643C457.622 13.3922 445.359 1.12913 430.287 1.12913Z" fill="#4F4F4F"/>
<path d="M329.686 88.7446C331.532 87.9704 332.844 86.0671 332.855 83.824C332.867 80.8854 330.643 78.493 327.888 78.4805C325.134 78.468 322.891 80.8398 322.878 83.7775C322.869 86.0411 324.19 87.9677 326.057 88.7446C318.38 89.9015 318.729 98.2443 318.729 98.2443L336.882 98.3284C336.882 98.3284 337.296 89.8943 329.686 88.7446Z" fill="#4F4F4F"/>
<path d="M327.805 109.184C316.696 109.184 307.658 100.146 307.658 89.037C307.658 77.9281 316.696 68.8896 327.805 68.8896C338.914 68.8896 347.952 77.9281 347.952 89.037C347.952 100.146 338.914 109.184 327.805 109.184ZM327.805 69.7935C317.194 69.7935 308.561 78.426 308.561 89.0379C308.561 99.6497 317.194 108.282 327.805 108.282C338.416 108.282 347.049 99.6497 347.049 89.0379C347.049 78.426 338.416 69.7935 327.805 69.7935Z" fill="#4F4F4F"/>
<path d="M20.2023 176.362C21.8821 175.657 23.0774 173.924 23.0873 171.883C23.098 169.208 21.0739 167.03 18.5663 167.019C16.0595 167.007 14.0167 169.166 14.0059 171.84C13.9979 173.901 15.2012 175.654 16.8998 176.362C9.91227 177.415 10.2287 185.01 10.2287 185.01L26.7536 185.086C26.7536 185.086 27.13 177.408 20.2023 176.362Z" fill="#4F4F4F"/>
<path d="M18.4934 195.122C8.29639 195.122 0 186.826 0 176.629C0 166.431 8.29639 158.136 18.4934 158.136C28.6905 158.136 36.9869 166.432 36.9869 176.629C36.9869 186.825 28.6905 195.122 18.4934 195.122ZM18.4934 159.265C8.91951 159.265 1.13002 167.054 1.13002 176.629C1.13002 186.203 8.91951 193.993 18.4934 193.993C28.0682 193.993 35.8577 186.203 35.8577 176.629C35.8577 167.054 28.0682 159.265 18.4934 159.265Z" fill="#4F4F4F"/>
<path d="M30.8955 162.581C30.7605 162.491 45.0011 140.779 62.6989 114.093C80.4029 87.3974 94.8599 65.8367 94.9958 65.9261C95.1308 66.0164 80.8937 87.7228 63.1888 114.419C45.491 141.105 31.0314 162.67 30.8955 162.581Z" fill="#4F4F4F"/>
<path d="M346.49 84.4363C346.422 84.3272 360.247 75.4882 377.364 64.6957C394.488 53.8988 408.42 45.2377 408.489 45.3467C408.558 45.4558 394.736 54.2931 377.612 65.0891C360.495 75.8824 346.559 84.5454 346.49 84.4363Z" fill="#4F4F4F"/>
<path d="M308.563 89.036C308.54 89.1629 271.049 82.7806 224.833 74.7828C178.602 66.7824 141.153 60.1962 141.176 60.0692C141.198 59.9423 178.681 66.3237 224.913 74.3242C271.129 82.322 308.584 88.9099 308.563 89.036Z" fill="#4F4F4F"/>
<path d="M507.654 71.0261C507.587 71.1361 496.011 64.237 481.802 55.6188C467.588 46.997 456.123 39.9218 456.19 39.8118C456.257 39.7019 467.83 46.5991 482.043 55.221C496.254 63.8383 507.721 70.9161 507.654 71.0261Z" fill="#4F4F4F"/>
<path d="M74.3733 43.1014C74.3751 43.2301 63.597 43.4643 50.304 43.6244C37.0056 43.7844 26.2275 43.8094 26.2266 43.6816C26.2248 43.5529 37.0002 43.3195 50.2986 43.1595C63.5916 42.9986 74.3724 42.9726 74.3733 43.1014Z" fill="#4F4F4F"/>
<path d="M14.0331 43.0245C15.0889 42.5819 15.839 41.493 15.8453 40.211C15.8524 38.5312 14.5802 37.1625 13.005 37.1553C11.4298 37.1481 10.1469 38.5044 10.1397 40.1842C10.1343 41.4787 10.8907 42.5801 11.9572 43.0245C7.56764 43.686 7.76701 48.4564 7.76701 48.4564L18.1473 48.5047C18.1473 48.5047 18.3851 43.6815 14.0331 43.0245Z" fill="#4F4F4F"/>
<path d="M12.9596 55.0189C6.43874 55.0189 1.13281 49.7129 1.13281 43.1921C1.13281 36.6712 6.43874 31.3652 12.9596 31.3652C19.4805 31.3652 24.7864 36.6712 24.7864 43.1921C24.7864 49.7129 19.4805 55.0189 12.9596 55.0189ZM12.9596 32.4944C7.06097 32.4944 2.26194 37.2934 2.26194 43.1921C2.26194 49.0907 7.06008 53.8897 12.9596 53.8897C18.8592 53.8897 23.6573 49.0907 23.6573 43.1921C23.6564 37.2934 18.8583 32.4944 12.9596 32.4944Z" fill="#4F4F4F"/>
<path d="M319 238.203C319 238.203 328.443 232.318 332.006 232.713L352.455 237.475C352.455 237.475 354.206 239.385 350.656 241.15C347.162 242.887 342.612 240.379 342.612 240.379L337.636 241.081L341.069 243.95L354.634 248.119C354.634 248.119 364.46 250.897 363.268 252.347C362.077 253.797 359.125 253.968 354.884 252.77C350.642 251.571 345.265 250.051 345.265 250.051C345.265 250.051 343.582 249.686 346.288 251.569C348.995 253.451 360.903 256.37 362.469 257.147C364.036 257.925 368.32 258.578 367.854 261.015C367.388 263.452 362.023 261.49 362.023 261.49L344.414 257.406C344.414 257.406 351.366 260.406 352.548 260.963C353.73 261.521 357.583 262.579 359.638 263.608C361.693 264.635 362.682 265.997 362.445 267.078C362.019 269.025 360.219 268.81 360.219 268.81L345.318 263.693C345.318 263.693 338.556 261 338.102 261.095C337.648 261.19 340.741 264.074 340.741 264.074L345.497 266.51C345.497 266.51 352.359 268.81 352.379 270.714C352.399 272.618 350.967 272.549 350.967 272.549L338.45 268.229L324.478 261.153L314.008 254.731C314.008 254.731 315.892 247.349 315.537 247.026C315.183 246.701 319 238.203 319 238.203Z" fill="#FFBE9D"/>
<path d="M323.903 252.076C323.868 251.937 325.21 251.585 327.273 250.841C329.274 250.089 332.221 248.775 333.725 245.856C334.399 244.576 334.644 243.167 334.405 241.952L334.317 241.505L334.809 241.441C336.977 241.163 338.999 240.689 340.37 240.504C341.756 240.279 342.612 240.266 342.615 240.379C342.615 240.461 341.833 240.646 340.476 241.016C339.09 241.349 337.268 241.918 334.837 242.291L335.24 241.782C335.562 243.197 335.29 244.845 334.535 246.274C333.712 247.869 332.431 249.078 331.136 249.869C329.84 250.672 328.555 251.133 327.476 251.451C325.304 252.057 323.927 252.18 323.903 252.076Z" fill="#EB996E"/>
<path d="M131.767 328.342L130.105 266.636L238.317 268.729L253.047 326.021L131.767 328.342Z" fill="#263238"/>
<path d="M185.61 94.2109L177.475 101.915C177.475 101.915 147.055 109.474 141.74 114.79C136.424 120.106 133.649 202.068 134.003 207.737C134.357 213.407 133.986 262.664 133.986 262.664C133.986 262.664 132.198 281.446 133.986 282.509C135.775 283.571 169.892 284.028 186.901 284.382C203.91 284.736 239.985 285.736 242.112 283.965C244.239 282.194 236.833 245.455 236.833 245.455L233.887 228.511L234.801 198.882L241.022 158.127L245.629 115.958C245.629 115.958 233.227 108.516 227.202 107.099C221.176 105.681 185.61 94.2109 185.61 94.2109Z" fill="#229AD2"/>
<path d="M275.329 212.544L258.797 143.128C257.485 137.618 255.589 132.263 253.112 127.169C250.548 121.899 247.374 116.158 245.628 115.956C235.376 114.775 230.035 146.077 230.035 146.077V185.768L239.714 228.752C241.199 235.348 246.07 240.661 252.512 242.711L318.126 263.595L325.729 231.024L275.329 212.544Z" fill="#229AD2"/>
<path d="M158.122 108.585C158.122 108.585 133.192 112.107 125.14 131.131C125.14 131.131 100.222 228.115 104.387 240.889C108.552 253.664 140.762 302.958 140.762 302.958L169 288.05C169 288.05 141.406 230.768 141.406 224.455C141.407 218.144 158.122 108.585 158.122 108.585Z" fill="#229AD2"/>
<path d="M168.999 288.05C168.992 288.054 168.938 287.948 168.842 287.741C168.738 287.511 168.599 287.205 168.423 286.815C168.052 285.972 167.525 284.77 166.851 283.234C165.494 280.093 163.549 275.589 161.15 270.033C156.369 258.847 149.78 243.433 142.502 226.408C142.167 225.623 141.836 224.842 141.526 224.117L141.506 224.068L141.509 224.03C141.576 222.855 141.813 221.767 142.031 220.674C142.268 219.588 142.502 218.509 142.765 217.449C143.267 215.32 143.803 213.236 144.326 211.19C145.397 207.104 146.427 203.168 147.408 199.422C149.387 191.937 151.149 185.211 152.58 179.561C154.023 173.913 155.106 169.333 155.862 166.173C156.225 164.61 156.508 163.388 156.707 162.531C156.803 162.134 156.879 161.821 156.936 161.587C156.991 161.375 157.022 161.267 157.03 161.269C157.038 161.27 157.021 161.381 156.982 161.597C156.936 161.834 156.875 162.149 156.796 162.551C156.616 163.412 156.361 164.642 156.034 166.212C155.333 169.385 154.296 173.98 152.894 179.64C151.502 185.302 149.773 192.038 147.818 199.53C146.846 203.278 145.825 207.215 144.765 211.303C144.245 213.349 143.712 215.432 143.213 217.556C142.73 219.669 142.154 221.861 141.973 224.022L141.954 223.935C142.262 224.659 142.595 225.44 142.929 226.225C150.158 243.271 156.702 258.704 161.451 269.903C163.793 275.483 165.692 280.008 167.016 283.163C167.656 284.714 168.157 285.927 168.508 286.777C168.667 287.175 168.791 287.488 168.885 287.722C168.968 287.936 169.007 288.047 168.999 288.05Z" fill="#263238"/>
<path d="M240.889 150.824C240.905 150.825 240.905 151.02 240.892 151.388C240.87 151.806 240.843 152.34 240.81 152.999C240.715 154.457 240.584 156.464 240.425 158.918C240.069 163.912 239.639 170.82 238.846 178.427C238.045 186.036 236.923 192.874 236.069 197.808C235.637 200.275 235.271 202.269 235.001 203.643C234.871 204.29 234.765 204.814 234.683 205.225C234.605 205.585 234.557 205.773 234.541 205.771C234.525 205.768 234.543 205.575 234.591 205.208C234.651 204.795 234.729 204.266 234.823 203.613C235.05 202.171 235.363 200.184 235.744 197.755C236.515 192.809 237.585 185.974 238.384 178.378C239.175 170.785 239.658 163.882 240.098 158.894C240.319 156.444 240.499 154.44 240.63 152.986C240.7 152.329 240.756 151.798 240.8 151.382C240.842 151.016 240.873 150.823 240.889 150.824Z" fill="#263238"/>
<path d="M144.488 300.992L147.284 306.148C147.284 306.148 161.153 300.864 167.746 291.96L165.926 290.208L144.488 300.992Z" fill="#FFBE9D"/>
<path d="M171.835 286.923C171.862 286.941 171.577 287.407 171.04 288.238C170.774 288.655 170.444 289.163 170.013 289.719C169.585 290.276 169.135 290.943 168.549 291.607C167.98 292.286 167.365 293.037 166.634 293.781C165.936 294.555 165.127 295.322 164.275 296.126C162.542 297.702 160.534 299.329 158.281 300.83C156.021 302.32 153.754 303.555 151.643 304.569C149.517 305.554 147.557 306.341 145.877 306.897C145.046 307.201 144.273 307.413 143.601 307.617C142.93 307.825 142.344 307.976 141.862 308.089C140.901 308.323 140.368 308.438 140.359 308.406C140.351 308.375 140.871 308.202 141.813 307.915C142.286 307.776 142.863 307.6 143.523 307.368C144.185 307.141 144.948 306.909 145.767 306.587C147.425 305.993 149.359 305.181 151.458 304.182C153.542 303.154 155.784 301.919 158.023 300.442C160.256 298.955 162.252 297.354 163.986 295.809C164.839 295.019 165.651 294.271 166.355 293.514C167.092 292.787 167.716 292.054 168.298 291.394C168.896 290.748 169.36 290.1 169.806 289.561C170.254 289.022 170.604 288.533 170.892 288.133C171.473 287.339 171.808 286.906 171.835 286.923Z" fill="#229AD2"/>
<path d="M157.745 143.21C157.639 143.193 158.014 141.572 157.935 138.93C157.911 138.27 157.876 137.549 157.75 136.783C157.677 136.009 157.477 135.204 157.298 134.353C156.858 132.667 156.211 130.857 155.286 129.07C154.334 127.297 153.205 125.74 152.062 124.426C151.461 123.796 150.91 123.176 150.312 122.68C149.75 122.142 149.175 121.707 148.644 121.314C146.508 119.757 144.958 119.151 145.005 119.054C145.017 119.025 145.4 119.176 146.085 119.477C146.431 119.62 146.847 119.813 147.301 120.092C147.758 120.363 148.302 120.638 148.835 121.047C149.386 121.429 149.984 121.857 150.567 122.391C151.186 122.884 151.759 123.505 152.38 124.14C153.563 125.463 154.726 127.045 155.697 128.855C156.641 130.677 157.289 132.531 157.714 134.253C157.887 135.125 158.075 135.948 158.133 136.737C158.244 137.519 158.26 138.255 158.264 138.926C158.301 139.596 158.22 140.2 158.185 140.731C158.159 141.262 158.083 141.714 158.006 142.08C157.868 142.814 157.777 143.216 157.745 143.21Z" fill="#263238"/>
<path d="M153.993 169.924C153.963 170.049 145.735 168.175 135.619 165.739C125.499 163.302 117.321 161.226 117.352 161.101C117.382 160.975 125.608 162.849 135.728 165.285C145.845 167.722 154.024 169.798 153.993 169.924Z" fill="white"/>
<path d="M239.121 164.798C239.124 164.927 220.6 165.347 197.753 165.737C174.899 166.127 156.375 166.339 156.373 166.21C156.371 166.081 174.891 165.661 197.745 165.271C220.591 164.882 239.119 164.67 239.121 164.798Z" fill="white"/>
<path d="M265.618 169.443C265.623 169.476 265.264 169.551 264.614 169.661C263.963 169.771 263.018 169.911 261.849 170.071C259.511 170.391 256.274 170.78 252.691 171.133C249.106 171.485 245.856 171.735 243.5 171.877C242.322 171.948 241.368 171.994 240.708 172.013C240.048 172.033 239.682 172.028 239.68 171.996C239.677 171.964 240.039 171.907 240.694 171.832C241.45 171.755 242.378 171.661 243.473 171.549C245.927 171.314 249.117 171.008 252.645 170.67C256.169 170.314 259.357 169.992 261.81 169.745C262.906 169.641 263.836 169.553 264.591 169.481C265.249 169.426 265.615 169.411 265.618 169.443Z" fill="white"/>
<path d="M142.185 220.373C142.167 220.5 134.224 219.465 124.447 218.06C114.667 216.655 106.756 215.413 106.773 215.286C106.791 215.159 114.733 216.194 124.513 217.599C134.29 219.004 142.203 220.246 142.185 220.373Z" fill="white"/>
<path d="M232.449 227.607C232.458 227.735 213.255 229.163 189.565 230.796C165.867 232.429 146.653 233.65 146.645 233.521C146.636 233.393 165.834 231.965 189.533 230.331C213.223 228.699 232.44 227.478 232.449 227.607Z" fill="white"/>
<path d="M273.568 213.659C273.588 213.684 273.198 214.03 272.476 214.633C271.688 215.284 270.654 216.139 269.405 217.171C266.808 219.309 263.235 222.276 259.341 225.616C255.447 228.959 251.972 232.041 249.464 234.283C248.254 235.361 247.252 236.253 246.489 236.932C245.783 237.555 245.383 237.887 245.36 237.864C245.338 237.841 245.697 237.463 246.365 236.8C247.032 236.136 248.015 235.193 249.241 234.04C251.694 231.735 255.139 228.61 259.037 225.263C262.935 221.919 266.547 218.989 269.197 216.915C270.522 215.878 271.604 215.05 272.362 214.491C273.121 213.931 273.548 213.634 273.568 213.659Z" fill="white"/>
<path d="M161.425 276.549C161.436 276.579 161.031 276.767 160.289 277.082C159.462 277.423 158.404 277.861 157.136 278.384C154.389 279.511 150.75 281.003 146.727 282.652C142.716 284.333 139.089 285.854 136.351 287.002C135.085 287.528 134.027 287.968 133.201 288.311C132.455 288.614 132.035 288.767 132.022 288.738C132.008 288.708 132.403 288.499 133.127 288.146C133.851 287.792 134.907 287.298 136.217 286.7C138.84 285.504 142.485 283.906 146.549 282.221C150.61 280.537 154.317 279.087 157.016 278.077C158.366 277.572 159.462 277.174 160.224 276.912C160.987 276.65 161.413 276.52 161.425 276.549Z" fill="white"/>
<path d="M311.074 227.118C311.105 227.125 311.041 227.581 310.897 228.403C310.756 229.225 310.519 230.407 310.197 231.864C309.556 234.775 308.532 238.77 307.145 243.105C305.754 247.44 304.265 251.287 303.095 254.029C302.51 255.4 302.016 256.501 301.653 257.251C301.293 258.003 301.08 258.412 301.05 258.399C301.021 258.385 301.178 257.952 301.487 257.178C301.826 256.324 302.264 255.224 302.789 253.904C303.879 251.136 305.314 247.284 306.701 242.963C308.083 238.641 309.154 234.674 309.875 231.788C310.215 230.408 310.498 229.259 310.718 228.365C310.918 227.556 311.043 227.111 311.074 227.118Z" fill="white"/>
<path d="M185.224 111.072C185.228 111.104 184.717 111.205 183.791 111.362C182.785 111.534 181.465 111.76 179.87 112.032C176.562 112.612 172.008 113.497 167.028 114.698C162.049 115.904 157.592 117.198 154.385 118.194C152.842 118.68 151.564 119.083 150.591 119.388C149.695 119.673 149.194 119.816 149.184 119.785C149.173 119.755 149.653 119.555 150.531 119.218C151.408 118.878 152.69 118.418 154.284 117.881C157.471 116.803 161.925 115.456 166.919 114.246C171.912 113.041 176.489 112.205 179.817 111.708C181.481 111.458 182.831 111.281 183.767 111.183C184.701 111.081 185.219 111.04 185.224 111.072Z" fill="white"/>
<path d="M252.915 26.2892C259.544 32.0019 255.832 40.9571 254.5 49.6058C253.169 58.2544 254.72 67.7398 255.071 76.4832C255.257 81.1061 256.393 85.8828 254.891 90.259C253.32 94.8363 249.216 97.9662 246.029 101.607C242.842 105.249 240.453 110.665 242.966 114.8C241.601 115.333 239.967 115.107 238.799 114.223C237.72 116.149 235.08 116.716 232.961 116.097C230.842 115.477 229.126 113.956 227.485 112.479C227.237 114.063 225.317 114.923 223.746 114.598C222.176 114.274 220.921 113.128 219.791 111.99C218.662 110.852 217.511 109.637 215.999 109.103C212.647 107.916 208.728 110.459 205.478 109.016C201.014 107.034 201.44 99.3152 196.82 97.7284C194.647 96.9819 192.31 98.0073 190.026 98.2576C187.741 98.5088 185.3 96.492 185.607 94.2149C181.685 95.8536 176.632 96.6341 172.642 95.1688C173.94 94.1479 174.593 92.3688 174.264 90.7506C171.369 91.2602 168.325 90.8865 165.639 89.6939C168.077 89.1021 170.222 87.399 171.352 85.1586C168.897 85.5618 166.263 84.6231 164.615 82.7582C169.588 82.8056 173.06 77.6588 174.104 72.7981C175.148 67.9365 174.785 62.7316 176.767 58.1712C178.922 53.2068 183.535 49.7497 186.337 45.1187C190.243 38.664 190.354 30.4266 194.396 24.0559C197.042 19.8845 199.569 16.3246 203.571 13.4271C208.63 9.76343 211.531 7.86367 217.777 7.94592C223.014 8.01476 231.976 9.47467 236.442 12.2112C244.385 17.0773 252.814 22.4995 256.339 31.1222" fill="#263238"/>
<path d="M194.159 64.5873C193.784 57.6802 193.449 50.731 194.268 43.8624C195.088 36.9937 197.124 30.1483 201.121 24.5018C201.727 23.6462 206.433 18.0747 207.415 18.4422C208.117 18.705 204.68 24.1567 204.879 24.8799C206.768 31.779 205.801 39.2153 203.412 45.957C201.022 52.6988 197.939 58.5152 194.159 64.5873Z" fill="#263238"/>
<path d="M210.681 134.821C200.376 131.845 180.977 111.663 183.729 101.296L200.291 38.91C204.207 22.0079 217.307 10.1989 234.093 14.5814L235.621 15.0766C251 20.0643 259.967 36.0241 256.231 51.7542C252.756 66.3819 248.73 82.4955 246.155 90.1115C240.823 105.883 224.187 103.208 224.187 103.208C224.151 103.198 223.105 106.911 221.799 111.619C218.864 122.196 212.685 132.563 210.681 134.821Z" fill="#FFBE9D"/>
<path d="M224.179 103.21C224.179 103.21 214.008 100.558 205.539 90.4268C205.539 90.4268 206.638 103.941 222.901 107.64L224.179 103.21Z" fill="#EB996E"/>
<path d="M246.434 64.6966C246.09 65.9044 244.782 66.608 243.513 66.2709C242.248 65.9339 241.498 64.6841 241.844 63.4763C242.189 62.2684 243.496 61.5631 244.762 61.8992C246.03 62.2363 246.779 63.4888 246.434 64.6966Z" fill="#263238"/>
<path d="M250.611 57.6383C250.235 57.8421 248.933 56.0183 246.498 55.2352C244.076 54.418 241.885 55.0903 241.717 54.7068C241.631 54.5325 242.088 54.0935 243.05 53.7788C243.999 53.4632 245.482 53.3381 246.997 53.8369C248.509 54.3376 249.603 55.3085 250.151 56.1175C250.712 56.9356 250.793 57.5506 250.611 57.6383Z" fill="#263238"/>
<path d="M224.244 58.2738C223.899 59.4816 222.591 60.1852 221.324 59.8472C220.059 59.5111 219.309 58.2613 219.655 57.0526C220 55.8448 221.308 55.1403 222.574 55.4764C223.841 55.8144 224.59 57.0669 224.244 58.2738Z" fill="#263238"/>
<path d="M226.56 50.4618C226.184 50.6656 224.879 48.8418 222.446 48.0596C220.025 47.2434 217.833 47.9157 217.665 47.5312C217.578 47.3569 218.034 46.917 218.998 46.6041C219.946 46.2886 221.429 46.1634 222.943 46.6614C224.456 47.162 225.55 48.1329 226.098 48.942C226.658 49.7582 226.741 50.3742 226.56 50.4618Z" fill="#263238"/>
<path d="M229.221 71.9919C229.255 71.8498 230.852 72.0787 233.404 72.5605C234.046 72.6982 234.675 72.7653 234.917 72.3755C235.208 71.9741 235.166 71.2204 235.099 70.3988C235.003 68.7056 234.903 66.931 234.796 65.0714C234.43 57.5063 234.379 51.369 234.684 51.3565C234.989 51.3448 235.533 57.4661 235.9 65.0303C235.975 66.8907 236.049 68.6653 236.116 70.3613C236.122 71.1435 236.267 72.076 235.647 72.9047C235.33 73.3151 234.764 73.5046 234.331 73.4823C233.893 73.4742 233.541 73.3678 233.228 73.2865C230.72 72.6186 229.186 72.1332 229.221 71.9919Z" fill="#263238"/>
<path d="M229.3 41.2976C228.768 41.8117 226.619 40.3929 223.765 39.3987C220.93 38.3465 218.369 38.072 218.286 37.3372C218.257 36.9903 218.924 36.5889 220.1 36.4137C221.267 36.2357 222.938 36.3421 224.644 36.9545C226.349 37.5696 227.705 38.5521 228.491 39.4318C229.285 40.3142 229.543 41.0491 229.3 41.2976Z" fill="#263238"/>
<path d="M251.872 51.7627C251.193 52.1614 249.38 50.9715 246.995 50.2071C244.633 49.373 242.459 49.2193 242.172 48.4942C242.054 48.15 242.543 47.6914 243.591 47.4384C244.625 47.1836 246.217 47.2051 247.849 47.754C249.481 48.3047 250.751 49.247 251.408 50.0721C252.079 50.9027 252.18 51.5607 251.872 51.7627Z" fill="#263238"/>
<path d="M197.771 51.0505C197.538 50.8458 187.934 44.3034 184.768 55.2407C181.603 66.1789 193.237 67.1006 193.346 66.7931C193.456 66.4846 197.771 51.0505 197.771 51.0505Z" fill="#FFBE9D"/>
<path d="M191.212 61.6841C191.174 61.635 190.983 61.7619 190.618 61.8165C190.263 61.8692 189.694 61.812 189.186 61.4338C188.153 60.6757 187.711 58.5596 188.229 56.5722C188.489 55.5691 188.971 54.6814 189.552 53.9984C190.118 53.2948 190.797 52.8853 191.409 52.9506C192.026 52.9846 192.337 53.4521 192.382 53.799C192.44 54.1468 192.308 54.3452 192.36 54.381C192.382 54.4168 192.648 54.2657 192.691 53.7883C192.708 53.5576 192.655 53.2626 192.459 52.9783C192.259 52.6886 191.904 52.4687 191.486 52.3945C190.626 52.2086 189.642 52.7646 189.005 53.5138C188.32 54.2532 187.754 55.2446 187.461 56.3711C186.894 58.5953 187.425 60.985 188.874 61.8996C189.586 62.3234 190.295 62.2769 190.7 62.1142C191.115 61.9425 191.244 61.7154 191.212 61.6841Z" fill="#EB996E"/>
<path d="M254.221 31.5868C256.27 31.104 252.553 23.8662 248.745 20.6674C242.991 15.8317 233.442 11.173 226.882 11.1954C218.984 11.2222 211.886 13.1613 206.349 18.7927C200.811 24.424 197.259 31.7969 195.344 39.4585C194.759 41.7964 194.324 44.2817 195.013 46.59C195.866 49.4428 198.377 51.7931 197.312 55.101C196.923 56.3097 196.926 57.6417 197.514 58.7673C198.923 61.4636 201.939 60.145 203.63 58.4499C207.243 54.8301 208.947 49.7772 210.535 44.9164C211.665 41.4611 212.807 37.9289 212.761 34.2939C212.736 32.3163 212.357 30.3477 212.442 28.3719C212.527 26.3953 213.173 24.306 214.752 23.1152C215.008 22.9212 215.405 22.6977 215.894 22.4635C219.761 20.6111 224.336 21.0134 227.844 23.4799C233.408 27.393 243.04 33.6073 246.38 32.2823C251.186 30.3763 252.684 28.6759 252.684 28.6759L254.221 31.5868Z" fill="#263238"/>
<path d="M222.094 71.4282C221.938 71.4086 221.683 71.9807 221.629 72.9883C221.56 73.9788 221.838 75.4674 222.709 76.761C223.558 78.0636 224.613 78.9424 225.391 79.5074C226.179 80.0697 226.726 80.3254 226.832 80.2029C226.942 80.0751 226.583 79.586 225.96 78.8789C225.342 78.1699 224.451 77.2455 223.717 76.1119C222.189 73.868 222.47 71.4497 222.094 71.4282Z" fill="#263238"/>
<path d="M197.557 52.5557C197.566 52.7747 197.572 53.0018 197.569 53.2485C197.569 53.2485 197.56 53 197.557 52.5557Z" fill="#FF725E"/>
<path d="M194.643 49.4644C194.643 49.4644 197.357 47.8829 197.557 52.555C197.509 46.5249 198.592 3.02165 240.316 14.6259C240.316 14.6259 226.855 6.59231 215.242 10.1308C215.242 10.1308 193.306 13.3421 194.643 49.4644Z" fill="#455A64"/>
<path d="M221.934 95.2893C222.024 95.4556 223.194 94.9576 224.279 93.8607C225.369 92.7691 225.858 91.5961 225.692 91.5067C225.517 91.4039 224.793 92.3435 223.775 93.36C222.764 94.3846 221.829 95.115 221.934 95.2893Z" fill="#263238"/>
<path d="M219.671 94.1956C219.818 94.3252 220.776 93.484 221.811 92.3155C222.846 91.1462 223.565 90.0939 223.418 89.9634C223.271 89.8337 222.313 90.675 221.279 91.8444C220.244 93.0128 219.525 94.066 219.671 94.1956Z" fill="#263238"/>
<path d="M218.3 92.7625C218.485 92.8269 219.008 91.8014 219.468 90.4721C219.928 89.1427 220.15 88.0135 219.965 87.9492C219.78 87.8848 219.257 88.9102 218.797 90.2396C218.337 91.5681 218.114 92.6981 218.3 92.7625Z" fill="#263238"/>
<path d="M216.215 92.3569C216.417 92.3095 216.225 90.9971 216.494 89.4317C216.741 87.8618 217.343 86.6808 217.167 86.5709C217.022 86.4537 216.072 87.5775 215.792 89.3155C215.5 91.0516 216.041 92.4212 216.215 92.3569Z" fill="#263238"/>
<path d="M213.294 90.6038C213.496 90.5689 213.414 89.2914 213.607 87.7546C213.784 86.216 214.167 84.9939 213.979 84.9125C213.812 84.8276 213.095 86.0095 212.901 87.6696C212.696 89.3289 213.112 90.6467 213.294 90.6038Z" fill="#263238"/>
<path d="M227.25 232.695C227.259 232.708 227.142 232.804 226.911 232.975C226.634 233.172 226.297 233.412 225.891 233.702C224.999 234.326 223.694 235.205 222.067 236.273C218.814 238.409 214.26 241.267 209.127 244.25C203.99 247.232 199.251 249.773 195.785 251.54C194.052 252.424 192.641 253.122 191.657 253.587C191.205 253.797 190.829 253.971 190.52 254.114C190.258 254.231 190.117 254.284 190.11 254.27C190.103 254.256 190.229 254.173 190.478 254.03C190.776 253.866 191.138 253.667 191.575 253.425C192.597 252.876 193.967 252.141 195.631 251.247C199.055 249.408 203.763 246.825 208.893 243.846C214.019 240.866 218.595 238.056 221.89 235.994C223.49 234.991 224.808 234.165 225.791 233.549C226.217 233.289 226.57 233.073 226.861 232.895C227.107 232.751 227.241 232.682 227.25 232.695Z" fill="#263238"/>
<path d="M275.295 212.435C275.373 212.568 272.207 214.087 269.115 217.025C265.995 219.936 264.289 223.003 264.161 222.918C264.112 222.891 264.474 222.094 265.244 220.907C266.011 219.722 267.222 218.171 268.796 216.686C270.372 215.205 271.994 214.09 273.223 213.396C274.453 212.698 275.272 212.385 275.295 212.435Z" fill="#263238"/>
<path d="M184.641 316.187C180.639 314.283 167.271 309.076 167.271 309.076L160.737 264.37L134.117 268.366C134.117 268.366 149.61 325.343 153.745 325.732C157.88 326.12 181.667 325.764 181.667 325.764L189.412 325.645C189.412 325.645 187.448 317.522 184.641 316.187Z" fill="#9B6E65"/>
<path d="M166.124 324.319C166.144 324.367 165.659 324.633 164.791 324.812C163.929 324.995 162.673 325.031 161.358 324.683C160.042 324.329 158.972 323.672 158.314 323.083C157.651 322.495 157.363 322.023 157.404 321.992C157.461 321.942 157.833 322.329 158.519 322.826C159.202 323.325 160.234 323.898 161.477 324.233C162.722 324.562 163.902 324.579 164.742 324.487C165.584 324.397 166.099 324.247 166.124 324.319Z" fill="#704C45"/>
<path d="M181.486 325.579C181.419 325.622 180.866 324.703 179.851 323.332C179.334 322.659 178.68 321.875 177.798 321.206C176.925 320.523 175.781 320.058 174.549 319.623C172.044 318.782 169.926 317.618 168.452 316.738C166.973 315.853 166.093 315.252 166.124 315.199C166.158 315.14 167.099 315.642 168.614 316.452C170.132 317.257 172.226 318.352 174.707 319.184C175.942 319.621 177.146 320.121 178.061 320.867C178.979 321.596 179.625 322.429 180.119 323.14C180.608 323.858 180.95 324.468 181.178 324.893C181.405 325.318 181.514 325.563 181.486 325.579Z" fill="#704C45"/>
<path d="M103.634 116.746L93.7775 123.53C93.7775 123.53 81.5269 122.792 72.6387 125.819C67.7163 127.496 61.7416 129.53 55.2744 136.075C49.3614 142.06 45.0988 149.469 42.9049 157.592L31.0379 256.704L12.9727 326.643H133.194V238.149L144.7 197.548C144.7 197.548 141.711 192.871 141.805 191C141.9 189.128 148.606 145.868 148.606 145.868L134.904 129.475L103.634 116.746Z" fill="#EA4E42"/>
<path d="M146.997 143.805C146.997 143.805 153.798 146.977 155.461 158.861C157.123 170.745 169.176 262.44 169.176 262.44C169.176 262.44 155.864 265.511 143.714 266.926L128.42 269.526L128.035 208.218L146.997 143.805Z" fill="#EA4E42"/>
<g opacity="0.2">
<path d="M55.5676 323.858C75.9992 299.36 79.2123 263.832 99.9049 239.555C95.6843 241.925 91.4646 244.296 87.244 246.666C89.488 225.555 91.6425 203.611 84.5781 183.592C80.8322 231.334 70.8506 278.584 54.9668 323.761" fill="black"/>
</g>
<path d="M88.3483 145.72C87.887 183.523 86.1527 221.311 83.1506 258.998C83.004 260.839 82.2154 264.479 81.2168 267.641C80.2862 270.589 77.3511 272.421 74.2945 271.96L49.6307 268.239C45.3403 267.514 43.7159 266.945 42.4277 264.176C41.5417 262.271 41.1823 260.164 41.2422 258.064C42.1952 224.313 39.2459 206.433 41.2789 174.528" fill="#EA4E42"/>
<path d="M41.279 174.53C41.279 174.53 41.2826 174.753 41.2665 175.188C41.2468 175.637 41.2191 176.279 41.1825 177.116C41.0922 178.81 40.9786 181.309 40.8785 184.529C40.7695 187.748 40.7006 191.689 40.6801 196.263C40.6854 200.839 40.7578 206.048 40.9179 211.806C41.2325 223.319 41.8396 237.037 41.5839 252.279C41.5437 254.183 41.5025 256.112 41.4605 258.062C41.4078 259.983 41.7099 261.945 42.4806 263.747C42.8704 264.641 43.3522 265.513 44.0817 266.142C44.7996 266.783 45.7392 267.143 46.7003 267.406C48.6385 267.925 50.692 268.157 52.7375 268.478C56.8356 269.094 61.0053 269.722 65.2375 270.359C67.3537 270.679 69.485 271 71.6306 271.323C72.6962 271.473 73.7967 271.674 74.8427 271.784C75.8932 271.848 76.9598 271.638 77.9092 271.168C78.8577 270.696 79.6749 269.977 80.2586 269.102C80.8549 268.233 81.1151 267.187 81.4208 266.142C82.0064 264.063 82.5071 261.964 82.8173 259.865C83.2115 255.63 83.4985 251.401 83.8105 247.274C84.414 239.007 84.9361 231.028 85.3902 223.425C86.2869 208.217 86.8975 194.512 87.3124 182.998C87.7316 171.485 87.9587 162.164 88.1018 155.723C88.1724 152.512 88.2269 150.016 88.2636 148.305C88.2859 147.467 88.3029 146.826 88.3145 146.376C88.3288 145.941 88.3476 145.719 88.3476 145.719C88.3476 145.719 88.3601 145.941 88.3619 146.377C88.361 146.826 88.3592 147.468 88.3574 148.306C88.3405 150.017 88.3154 152.514 88.2823 155.725C88.1956 162.168 88.0186 171.491 87.6414 183.009C87.2685 194.525 86.6919 208.236 85.8185 223.449C85.3768 231.055 84.8628 239.037 84.2656 247.307C83.9563 251.447 83.6755 255.639 83.2768 259.928C82.9612 262.066 82.4588 264.171 81.8687 266.269C81.5666 267.297 81.2957 268.409 80.6466 269.359C80.0173 270.302 79.1375 271.077 78.1166 271.585C77.0947 272.091 75.9442 272.317 74.8132 272.248C73.6877 272.129 72.6444 271.935 71.5608 271.782C69.4152 271.458 67.283 271.135 65.1669 270.816C60.9347 270.176 56.7641 269.546 52.666 268.926C50.6205 268.604 48.5786 268.374 46.5805 267.838C45.5935 267.567 44.5815 267.187 43.7858 266.477C42.9803 265.779 42.4716 264.843 42.0711 263.92C41.2737 262.048 40.967 260.02 41.0233 258.048C41.0672 256.099 41.111 254.173 41.1548 252.27C41.4337 237.042 40.8615 223.331 40.5889 211.812C40.4494 206.052 40.4011 200.838 40.4199 196.26C40.4655 191.681 40.5603 187.739 40.697 184.519C40.8249 181.298 40.9679 178.8 41.0886 177.107C41.1449 176.271 41.1887 175.63 41.2191 175.182C41.2513 174.751 41.279 174.53 41.279 174.53Z" fill="#263238"/>
<path d="M133.196 271.719C133.188 271.719 133.184 271.622 133.186 271.433C133.19 271.22 133.196 270.943 133.203 270.597C133.23 269.83 133.266 268.752 133.314 267.38C133.367 264.584 133.713 260.55 134.295 255.585C134.66 253.112 134.968 250.388 135.543 247.504C135.815 246.061 136.056 244.558 136.382 243.026C136.711 241.496 137.05 239.92 137.397 238.305C138.847 231.857 140.697 224.833 142.424 217.417C146.019 202.603 147.276 188.782 147.001 178.807C146.91 176.318 146.829 174.063 146.755 172.078C146.65 170.098 146.45 168.402 146.348 167.01C146.236 165.642 146.148 164.568 146.087 163.805C146.063 163.459 146.045 163.183 146.03 162.97C146.02 162.781 146.019 162.684 146.027 162.684C146.035 162.683 146.052 162.777 146.078 162.964C146.104 163.176 146.137 163.451 146.179 163.795C146.263 164.557 146.38 165.628 146.528 166.994C146.659 168.385 146.885 170.082 147.015 172.063C147.108 174.052 147.214 176.309 147.33 178.803C147.691 188.794 146.478 202.685 142.877 217.523C141.148 224.951 139.285 231.968 137.814 238.402C137.461 240.013 137.117 241.583 136.782 243.11C136.449 244.637 136.202 246.135 135.922 247.574C135.331 250.449 135.006 253.164 134.621 255.629C133.997 260.577 133.602 264.601 133.494 267.391C133.409 268.76 133.342 269.836 133.296 270.6C133.27 270.946 133.249 271.221 133.232 271.435C133.216 271.623 133.204 271.719 133.196 271.719Z" fill="#263238"/>
<path d="M132.341 211.509C132.353 211.52 132.233 211.661 131.995 211.918C131.717 212.209 131.366 212.576 130.934 213.028C130.01 213.988 128.638 215.344 126.913 216.989C123.466 220.28 118.543 224.667 112.823 229.166C107.097 233.66 101.669 237.404 97.6557 239.976C95.6495 241.263 94.0072 242.275 92.8558 242.945C92.314 243.258 91.8741 243.512 91.5264 243.713C91.2197 243.883 91.0552 243.966 91.0472 243.953C91.0391 243.94 91.1875 243.83 91.4781 243.632C91.8133 243.412 92.238 243.133 92.7601 242.791C93.8821 242.074 95.4949 241.021 97.4751 239.7C101.436 237.062 106.823 233.285 112.536 228.8C118.244 224.312 123.189 219.973 126.689 216.748C128.44 215.137 129.845 213.819 130.807 212.899C131.264 212.472 131.635 212.125 131.928 211.852C132.188 211.616 132.33 211.497 132.341 211.509Z" fill="#263238"/>
<g opacity="0.2">
<path d="M146.678 192.327C143.744 219.549 134.049 249.294 133.193 266.468C137.038 254.229 141.903 242.534 145.479 230.213C149.055 217.893 150.662 204.521 146.678 192.327Z" fill="black"/>
</g>
<path d="M164.396 34.013C166.407 33.3067 168.051 31.6313 168.72 29.6091C169.388 27.5859 169.066 25.2606 167.872 23.4959C166.94 22.1191 165.536 21.0972 164.698 19.6615C164.003 18.4706 163.747 17.0814 163.282 15.7824C161.789 11.6145 158.024 8.44256 153.757 7.26158C149.491 6.0797 144.817 6.7815 140.864 8.77245C139.292 9.56365 137.753 10.5721 136 10.7223C134.302 10.868 132.658 10.1841 130.983 9.87387C127.008 9.13631 122.692 10.6642 120.066 13.7378C117.44 16.8114 116.606 21.3136 117.955 25.1247C113.37 25.8909 109.659 30.2483 109.631 34.8971C109.603 39.546 113.263 43.9463 117.839 44.767C120.667 45.2739 123.55 44.5452 126.35 43.8998C137.687 41.2875 149.325 39.9867 160.959 40.0314" fill="#263238"/>
<path d="M105.692 95.2886C101.41 88.1974 99.7391 79.5675 101.066 71.39C102.392 63.2125 105.716 53.3391 112.021 47.9644C109.279 43.4657 111.576 39.5357 114.992 35.5251C118.408 31.5146 123.492 29.3038 128.582 27.944C136.16 25.919 144.162 25.4971 151.912 26.7129C158.232 27.7053 166.375 30.4356 166.321 35.1202C166.265 40.005 162.783 41.5007 162.783 41.5007C162.783 41.5007 168.65 44.509 173.048 50.8118C179.378 59.8842 180.913 68.0795 178.18 76.3267C175.447 84.574 172.308 90.7971 166.167 95.1474" fill="#EA4E42"/>
<path d="M159.159 104.094C160.146 103.433 161.463 102.908 162.71 102.799L162.478 102.729C162.709 102.721 162.936 102.748 163.163 102.773C164.058 102.773 164.888 103.015 165.494 103.637L165.471 103.63C166.672 104.425 167.604 105.663 167.941 107.071C168.526 109.522 167.456 112.218 165.509 113.816C163.817 115.204 161.333 115.79 159.381 114.797C157.589 113.885 156.586 111.826 156.492 109.818C156.389 107.621 157.331 105.32 159.159 104.094Z" fill="#455A64"/>
<path d="M103.184 123.321L113.129 57.7387C113.741 54.4506 116.768 52.1771 120.096 52.5061L155.327 50.9648C166.284 52.0475 170.685 66.7244 169.138 77.6259C167.42 89.737 164.845 104.456 161.585 113.084C155.029 130.433 140.809 129.873 140.809 129.873C140.817 129.812 138.147 142.298 136.723 148.8L129.459 174.531L103.184 123.321Z" fill="#9B6E65"/>
<path d="M162.213 91.8067C162.004 93.0306 160.796 93.8629 159.514 93.6689C158.235 93.4758 157.363 92.3288 157.572 91.1049C157.78 89.881 158.988 89.0469 160.267 89.2409C161.55 89.434 162.421 90.5828 162.213 91.8067Z" fill="#263238"/>
<path d="M164.385 84.5774C164.038 84.8188 162.562 83.1685 160.085 82.6633C157.619 82.1234 155.538 83.0209 155.333 82.6625C155.228 82.5006 155.631 82.0197 156.541 81.6066C157.438 81.1945 158.882 80.9111 160.422 81.2356C161.963 81.5628 163.142 82.3987 163.768 83.1336C164.408 83.8756 164.553 84.4719 164.385 84.5774Z" fill="#263238"/>
<path d="M138.918 87.545C138.71 88.7689 137.502 89.6012 136.22 89.4072C134.94 89.2132 134.069 88.0671 134.277 86.8432C134.485 85.6193 135.693 84.7852 136.973 84.9792C138.255 85.1732 139.126 86.322 138.918 87.545Z" fill="#263238"/>
<path d="M139.966 80.0103C139.618 80.2508 138.14 78.6013 135.665 78.0962C133.198 77.5562 131.118 78.4538 130.912 78.0953C130.809 77.9335 131.208 77.4525 132.121 77.0404C133.018 76.6274 134.462 76.3449 136.002 76.6694C137.542 76.9966 138.722 77.8325 139.347 78.5682C139.986 79.3085 140.133 79.9048 139.966 80.0103Z" fill="#263238"/>
<path d="M145.153 100.229C145.17 100.086 146.764 100.138 149.323 100.335C149.969 100.4 150.593 100.398 150.788 99.9889C151.032 99.5624 150.908 98.8275 150.753 98.0283C150.475 96.3762 150.185 94.6436 149.879 92.8288C148.7 85.4389 147.986 79.4151 148.283 79.3704C148.581 79.3257 149.78 85.2789 150.959 92.6687C151.234 94.488 151.499 96.2224 151.749 97.8808C151.84 98.6487 152.082 99.5481 151.563 100.43C151.295 100.867 150.761 101.114 150.333 101.139C149.902 101.179 149.546 101.112 149.228 101.065C146.693 100.683 145.133 100.372 145.153 100.229Z" fill="#263238"/>
<path d="M140.798 129.877C140.798 129.877 128.57 128.161 118.1 118.504C118.1 118.504 121.381 132.031 139.681 134.063L140.798 129.877Z" fill="#704C45"/>
<path d="M143.563 106.031C142.715 104.09 140.974 102.648 139.099 102.334C137.798 102.117 136.411 102.452 135.475 103.433C134.54 104.413 134.152 106.083 134.707 107.445C135.333 108.979 136.958 109.769 138.426 109.72C139.894 109.67 141.246 108.952 142.537 108.219C142.894 108.016 143.26 107.803 143.512 107.455C143.764 107.108 143.876 106.588 143.674 106.179" fill="#704C45"/>
<path d="M137.512 100.429C137.92 100.489 137.369 103.177 139.275 105.56C141.175 107.948 144.102 108.238 144.045 108.618C144.047 108.794 143.299 109.008 142.083 108.792C140.889 108.587 139.236 107.848 138.07 106.39C136.909 104.93 136.628 103.245 136.764 102.124C136.894 100.98 137.332 100.375 137.512 100.429Z" fill="#263238"/>
<path d="M142.354 73.5096C141.971 74.1327 139.565 73.3022 136.589 73.0519C133.616 72.7416 131.099 73.1073 130.839 72.4243C130.727 72.0998 131.266 71.5517 132.348 71.0958C133.421 70.6389 135.046 70.3305 136.83 70.4968C138.614 70.6667 140.152 71.2728 141.122 71.9218C142.099 72.5727 142.526 73.2119 142.354 73.5096Z" fill="#263238"/>
<path d="M164.954 77.2287C164.403 77.7007 162.818 76.7647 160.773 76.3132C158.745 75.7902 156.907 75.9083 156.629 75.2377C156.513 74.9159 156.904 74.4099 157.772 74.0335C158.629 73.658 159.969 73.4828 161.37 73.8172C162.769 74.1533 163.885 74.915 164.48 75.6383C165.085 76.3651 165.204 76.9936 164.954 77.2287Z" fill="#263238"/>
<path d="M156.664 56.5819C156.664 56.5819 139.907 52.7376 123.126 68.9951C112.067 79.7089 106.941 95.0322 106.941 95.0322L106.842 63.7643L114.624 51.1812L127.644 47.0938L149.948 50.567L157.384 56.4647" fill="#EA4E42"/>
<path d="M123.396 51.0963C151.546 50.3739 171.052 63.8162 170.491 85.6497L178.891 73.0013L168.546 53.2464L154.157 46.021L122.457 44.123L123.396 51.0963Z" fill="#EA4E42"/>
<path d="M103.268 92.2107C104.33 91.4991 105.747 90.9341 107.089 90.817L106.84 90.7419C107.089 90.733 107.333 90.7616 107.577 90.7893C108.54 90.7902 109.434 91.0494 110.085 91.7199L110.061 91.7128C111.353 92.5684 112.356 93.9004 112.718 95.4158C113.348 98.0522 112.196 100.954 110.1 102.674C108.279 104.169 105.606 104.798 103.506 103.731C101.577 102.75 100.498 100.534 100.397 98.3722C100.286 96.0058 101.3 93.5294 103.268 92.2107Z" fill="#455A64"/>
<path d="M111.646 84.0049C111.629 84.0371 111.19 83.8619 110.547 83.3121C109.92 82.7604 109.103 81.7851 108.613 80.3323C108.123 78.9091 108.013 76.9297 108.915 75.0738C109.338 74.1664 109.896 73.3037 110.258 72.3676C110.64 71.4432 110.672 70.4106 110.115 69.5542C109.574 68.6897 108.671 68.0567 107.858 67.3665C107.017 66.696 106.285 65.8432 105.818 64.9465C104.86 63.1388 104.701 61.2435 104.908 59.7505C105.104 58.2387 105.688 57.1185 106.159 56.4328C106.635 55.7373 107.025 55.4637 107.043 55.4834C107.195 55.5603 105.72 56.9147 105.434 59.8104C105.305 61.2211 105.516 62.9797 106.422 64.6139C106.877 65.4355 107.508 66.1578 108.326 66.8024C109.118 67.4711 110.08 68.1068 110.751 69.159C111.46 70.2149 111.389 71.6274 110.942 72.6305C110.526 73.6684 109.948 74.5213 109.536 75.3706C108.686 77.0361 108.725 78.8206 109.118 80.175C109.512 81.5464 110.21 82.5119 110.75 83.102C111.302 83.6911 111.682 83.9495 111.646 84.0049Z" fill="white"/>
<path d="M114.766 46.56C114.907 46.6432 113.55 47.893 113.071 50.575C112.83 51.8874 112.878 53.5413 113.511 55.1774C114.103 56.8447 115.567 58.1946 116.976 59.8128C117.666 60.6326 118.304 61.5409 118.6 62.5797C118.916 63.615 118.81 64.6985 118.543 65.6015C117.999 67.4181 117.109 68.828 116.942 70.1421C116.727 71.4581 117.003 72.5551 117.421 73.1514C117.83 73.7691 118.271 73.9175 118.229 73.9864C118.218 74.0096 118.113 73.9819 117.917 73.9023C117.73 73.8103 117.45 73.6458 117.189 73.3284C116.643 72.7151 116.252 71.5064 116.418 70.0742C116.546 68.6009 117.42 67.1159 117.878 65.4209C118.107 64.5743 118.174 63.6677 117.898 62.788C117.639 61.9048 117.068 61.0832 116.406 60.2964C115.069 58.7543 113.49 57.2774 112.867 55.4232C112.215 53.6263 112.231 51.8526 112.553 50.4731C112.85 49.0749 113.45 48.0602 113.913 47.4308C114.38 46.7934 114.745 46.5368 114.766 46.56Z" fill="white"/>
<path d="M130.88 63.3225C130.908 63.3502 130.616 63.5567 130.115 63.3368C129.879 63.2251 129.624 63.0114 129.445 62.6806C129.257 62.348 129.206 61.8867 129.29 61.4424C129.433 60.5243 130.14 59.691 130.381 58.7595C130.649 57.8378 130.001 56.8356 129.06 56.0837C128.102 55.3417 127.079 54.42 126.613 53.3516C126.113 52.3048 125.954 51.2543 125.986 50.3951C126.065 48.6447 126.771 47.7498 126.822 47.7998C126.947 47.8481 126.451 48.7913 126.516 50.3916C126.551 51.1819 126.752 52.1224 127.229 53.0405C127.697 53.9908 128.52 54.7096 129.545 55.5142C130.04 55.93 130.521 56.4208 130.825 57.0153C131.142 57.5955 131.236 58.3375 131.049 58.9329C130.67 60.1094 129.966 60.8112 129.807 61.555C129.587 62.2828 129.928 62.8469 130.262 63.0847C130.597 63.327 130.871 63.2599 130.88 63.3225Z" fill="white"/>
<path d="M139.099 49.8451C139.122 49.8075 139.288 49.8343 139.45 50.0641C139.606 50.2912 139.696 50.7078 139.551 51.1736C139.407 51.6384 139.054 52.0506 138.818 52.4708C138.586 52.8865 138.467 53.4139 138.482 53.9843C138.513 55.1358 139.052 56.1228 139.434 56.8299C139.831 57.5389 140.077 58.0002 139.989 58.0628C139.909 58.12 139.519 57.7812 138.993 57.1223C138.49 56.4732 137.779 55.4085 137.734 54.004C137.713 53.3156 137.888 52.6326 138.228 52.1158C138.568 51.6125 138.905 51.296 139.058 50.9805C139.392 50.3207 139.044 49.9094 139.099 49.8451Z" fill="white"/>
<path d="M167.968 45.7886C168.006 45.8207 167.859 46.0675 167.522 46.4501C167.193 46.8363 166.644 47.3307 166.106 48.0012C165.548 48.6673 165.216 49.5935 165.292 50.7423C165.323 51.866 165.655 53.2204 165.346 54.6687C165.061 56.092 164.334 57.3284 163.439 58.2001C162.545 59.086 161.499 59.5804 160.606 59.8298C158.779 60.3162 157.625 59.9014 157.657 59.837C157.661 59.7029 158.804 59.9049 160.446 59.3256C161.254 59.0324 162.176 58.5335 162.949 57.7155C163.727 56.9091 164.358 55.7907 164.612 54.5212C164.891 53.2607 164.609 51.9939 164.602 50.7566C164.54 49.5166 165.032 48.3177 165.702 47.6606C166.344 46.9758 166.937 46.5583 167.322 46.24C167.713 45.9289 167.928 45.7537 167.968 45.7886Z" fill="white"/>
<path d="M178.041 61.04C178.124 61.1813 177.13 61.4048 176.518 62.6555C176.213 63.3028 175.701 64.0528 175.273 64.8601C174.828 65.688 174.398 66.6776 173.662 67.5958C172.122 69.4875 169.751 69.8773 168.297 69.6404C166.779 69.407 166.056 68.7178 166.108 68.6677C166.168 68.5497 166.956 69.036 168.349 69.1138C169.698 69.2014 171.761 68.7553 173.08 67.1237C173.735 66.3138 174.18 65.3643 174.67 64.5258C175.176 63.6604 175.689 63.0158 176.065 62.3819C176.454 61.7365 177.015 61.3261 177.402 61.1804C177.793 61.0204 178.024 60.998 178.041 61.04Z" fill="white"/>
<path d="M176.633 79.4863C176.71 79.5399 176.561 79.9503 176.058 80.4277C175.569 80.9006 174.681 81.4013 173.596 81.4549C172.511 81.5059 171.579 81.091 171.047 80.6673C170.502 80.2399 170.314 79.8457 170.386 79.7849C170.518 79.6249 171.724 80.7969 173.56 80.7075C175.397 80.6208 176.486 79.3397 176.633 79.4863Z" fill="white"/>
<path d="M152.62 39.7165C152.668 39.8417 151.755 40.0974 150.76 41.1138C149.789 42.0874 148.761 43.9934 149.216 46.0872C149.441 47.1108 149.88 48.2668 149.578 49.3575C149.314 50.4231 148.634 51.1464 148.058 51.6345C146.855 52.5983 145.934 52.8405 145.904 52.7708C145.84 52.6608 146.676 52.2362 147.701 51.2438C148.193 50.745 148.733 50.0673 148.906 49.2064C149.12 48.3499 148.747 47.388 148.484 46.241C148.22 45.0582 148.416 43.8674 148.812 42.9206C149.221 41.9703 149.808 41.2265 150.398 40.7285C151.598 39.7156 152.621 39.645 152.62 39.7165Z" fill="white"/>
<path d="M132.997 49.0223C132.815 48.899 133.705 47.4212 134.147 45.3953C134.616 43.3749 134.443 41.6584 134.662 41.6253C134.847 41.569 135.379 43.3668 134.876 45.5598C134.392 47.7564 133.141 49.1529 132.997 49.0223Z" fill="white"/>
<path d="M120.923 44.6466C120.901 44.5902 121.119 44.491 121.351 44.1674C121.581 43.8509 121.827 43.2993 121.829 42.593C121.872 41.1456 120.806 39.2861 120.054 37.0323C119.689 35.8906 119.518 34.7204 119.622 33.6574C119.714 32.5953 120.11 31.6548 120.624 31.0273C121.128 30.3845 121.741 30.0403 122.188 29.9401C122.644 29.8454 122.894 29.9446 122.887 29.9848C122.885 30.0447 122.644 30.0555 122.28 30.2164C121.92 30.3845 121.444 30.7367 121.05 31.3401C120.192 32.5167 120.038 34.6623 120.767 36.807C121.466 38.9482 122.531 40.9275 122.357 42.6225C122.28 43.4513 121.908 44.0574 121.565 44.3641C121.216 44.6796 120.929 44.6877 120.923 44.6466Z" fill="white"/>
<path d="M139.696 40.2202C139.669 40.1755 139.852 40.011 140.196 39.7518C140.509 39.4889 141.112 39.1349 141.275 38.5305C141.405 37.9476 141.011 37.0393 140.52 36.2303C140.008 35.3908 139.271 34.5629 138.558 33.5912C137.885 32.6167 137.186 31.568 137.264 30.3423C137.384 29.1765 138.017 28.3746 138.507 27.7703C139.561 26.5848 140.357 26.0457 140.416 26.1038C140.505 26.1879 139.823 26.8843 138.924 28.0957C138.505 28.7027 138 29.4877 137.951 30.387C137.904 31.2489 138.51 32.2332 139.164 33.1531C140.519 34.9608 142.141 36.7845 141.782 38.6843C141.41 39.5783 140.703 39.7884 140.347 40.003C139.952 40.1862 139.724 40.264 139.696 40.2202Z" fill="white"/>
<path d="M156.918 40.8192C156.872 40.7128 157.746 40.5367 158.229 39.4129C158.472 38.8685 158.56 38.1684 158.41 37.379C158.275 36.5896 157.929 35.7466 157.581 34.8168C157.236 33.8888 156.963 32.9135 157.021 31.9828C157.072 31.0003 157.586 30.2824 158.02 29.7827C158.931 28.7161 159.956 28.7027 159.923 28.8305C159.935 28.9226 159.146 29.0862 158.431 30.1161C158.086 30.6078 157.704 31.2649 157.712 32.0096C157.696 32.791 157.947 33.6537 158.285 34.5602C158.623 35.4659 158.978 36.376 159.093 37.2762C159.227 38.1702 159.059 39.0517 158.703 39.6516C158.358 40.264 157.874 40.6243 157.511 40.7575C157.143 40.8952 156.924 40.863 156.918 40.8192Z" fill="white"/>
<path d="M162.782 41.5012C162.769 41.5512 162.033 41.4243 160.717 41.1534C159.408 40.8539 157.492 40.5285 155.123 40.1762C150.384 39.5308 143.713 39.2125 136.504 40.4534C129.296 41.6844 123.027 43.9516 118.552 45.6735C116.42 46.5246 114.645 47.2326 113.266 47.7834C112.019 48.2876 111.319 48.545 111.297 48.4977C111.276 48.4503 111.936 48.1043 113.148 47.5169C114.358 46.9251 116.134 46.1196 118.355 45.1827C122.793 43.3303 129.084 40.9621 136.38 39.7158C143.677 38.4589 150.447 38.8674 155.2 39.6532C157.578 40.0752 159.491 40.482 160.784 40.87C162.085 41.2285 162.796 41.4511 162.782 41.5012Z" fill="#263238"/>
<path d="M116.99 48.996C116.992 49.0031 117.056 48.9951 117.18 48.9745C117.328 48.9459 117.507 48.9119 117.725 48.8699C117.975 48.818 118.269 48.7572 118.608 48.6875C118.965 48.6312 119.371 48.5677 119.822 48.4971C121.65 48.2369 124.333 48.0045 127.626 48.2986C130.918 48.5606 134.8 49.3527 138.933 50.7706C141.001 51.4732 143.125 52.3467 145.305 53.3033C147.481 54.267 149.707 55.3273 151.907 56.5593C160.823 61.344 166.868 68.8948 168.99 75.1233C170.094 78.238 170.337 80.937 170.434 82.7742C170.484 83.6977 170.477 84.4165 170.469 84.9037C170.471 85.1255 170.472 85.3078 170.472 85.4589C170.476 85.5841 170.481 85.6484 170.489 85.6493C170.496 85.6502 170.506 85.5859 170.516 85.4616C170.527 85.3114 170.54 85.129 170.555 84.9073C170.59 84.4192 170.625 83.6986 170.6 82.7689C170.554 80.9201 170.357 78.1915 169.276 75.025C167.203 68.6891 161.11 61.0114 152.116 56.1864C149.9 54.9456 147.661 53.8835 145.474 52.9206C143.285 51.9667 141.146 51.096 139.06 50.3977C134.892 48.9906 130.972 48.2226 127.65 47.9973C124.327 47.7399 121.625 48.0206 119.797 48.3326C119.345 48.4184 118.941 48.4944 118.583 48.5624C118.245 48.6482 117.954 48.7224 117.705 48.7859C117.491 48.844 117.315 48.8922 117.169 48.9316C117.048 48.9664 116.988 48.9879 116.99 48.996Z" fill="#263238"/>
<path d="M152.018 56.5236C152.02 56.5093 151.818 56.4745 151.43 56.4208C151.044 56.3582 150.468 56.3153 149.726 56.2831C148.243 56.2402 146.074 56.3627 143.483 56.984C138.316 58.2079 131.49 61.4442 125.443 66.8852C122.398 69.5761 119.917 72.5585 117.724 75.2853C115.539 78.0281 113.708 80.6082 112.31 82.8637C110.899 85.1113 109.93 87.0361 109.337 88.3959C109.045 89.078 108.831 89.6126 108.709 89.9845C108.58 90.3529 108.519 90.5486 108.533 90.5531C108.547 90.5585 108.635 90.3725 108.79 90.0149C108.937 89.6546 109.175 89.1325 109.489 88.4638C110.125 87.1317 111.129 85.2409 112.565 83.0247C113.989 80.8013 115.837 78.2507 118.031 75.5311C120.237 72.8223 122.71 69.8694 125.729 67.2025C131.721 61.8099 138.459 58.5629 143.555 57.2764C146.11 56.6246 148.251 56.4566 149.724 56.4485C150.46 56.4548 151.034 56.4709 151.421 56.5048C151.81 56.5317 152.016 56.5379 152.018 56.5236Z" fill="#263238"/>
<path d="M0 323.53C0 323.53 5.47221 321.732 8.98655 320.724C10.9265 320.167 18.9538 316.612 23.8387 315.695C27.9181 314.93 39.2031 309.155 40.9571 307.98C42.7112 306.804 49.629 268.24 49.629 268.24L75.7331 272.178C75.7331 272.178 61.8125 309.362 60.9391 312.916C60.0656 316.47 56.7596 325.645 56.7596 325.645H0V323.53Z" fill="#9B6E65"/>
<path d="M45.7169 324.786C45.7044 324.703 46.5752 324.634 47.8357 324.102C49.0847 323.586 50.7225 322.501 51.8239 320.743C52.9199 318.98 53.1747 317.032 53.0889 315.684C53.0129 314.318 52.6938 313.505 52.7733 313.48C52.8001 313.469 52.9083 313.66 53.046 314.029C53.1855 314.397 53.3348 314.952 53.417 315.657C53.5913 317.049 53.383 319.118 52.2182 320.99C51.0488 322.857 49.2822 323.954 47.9555 324.409C47.2868 324.645 46.7218 324.754 46.3302 324.792C45.9378 324.828 45.7196 324.815 45.7169 324.786Z" fill="#704C45"/>
<path d="M42.2902 322.879C42.2965 322.894 42.1141 322.974 41.76 323.115C41.4042 323.251 40.8616 323.405 40.1473 323.535C38.7133 323.798 36.6025 323.712 34.0403 323.666C32.7619 323.675 31.3493 323.731 29.9216 324.165C28.4876 324.588 27.0626 325.382 25.414 325.93C22.1259 327.033 18.0376 326.862 14.4177 325.094L13.8652 324.824L14.4615 324.659C14.6278 324.614 14.8084 324.564 14.989 324.514C16.8959 323.961 18.6705 323.133 20.2458 322.123C21.8353 321.127 23.1513 319.873 24.4708 318.727C27.093 316.364 30.0709 315.059 32.5777 314.274C35.1024 313.479 37.2069 313.097 38.6534 312.828C39.3409 312.714 39.896 312.621 40.3261 312.549C40.7096 312.492 40.9125 312.469 40.9152 312.486C40.9179 312.502 40.7212 312.554 40.343 312.641C39.9175 312.735 39.3686 312.856 38.6882 313.006C37.2551 313.329 35.1659 313.76 32.6796 314.586C30.2023 315.409 27.3129 316.712 24.7516 319.05C23.4553 320.191 22.1169 321.48 20.4916 322.506C18.8833 323.545 17.0694 324.396 15.1177 324.961C14.9327 325.011 14.7485 325.062 14.5778 325.11L14.6216 324.675C18.1279 326.39 22.091 326.569 25.2808 325.524C26.8802 325.007 28.3231 324.221 29.8116 323.797C31.3028 323.363 32.752 323.328 34.043 323.34C36.6293 323.429 38.6999 323.562 40.1213 323.358C41.5392 323.164 42.2741 322.83 42.2902 322.879Z" fill="#704C45"/>
<path d="M313 327.285C313 327.442 245.837 327.569 163.007 327.569C80.1484 327.569 13 327.441 13 327.285C13 327.128 80.1484 327 163.007 327C245.837 327 313 327.127 313 327.285Z" fill="#263238"/>
</svg>
