<svg width="750" height="500" viewBox="0 0 750 500" fill="none" xmlns="http://www.w3.org/2000/svg">
<g clip-path="url(#clip0_549_1046)">
<path d="M55.4874 285.195L31.7754 268.621L37.5594 260.346L53.4594 271.46L74.0634 245.325L81.9904 251.575L55.4874 285.195Z" fill="#4385F5"/>
<path d="M713.186 253.167C711.359 245.743 704.153 239.471 696.56 240.365C692.075 240.893 688.088 243.742 685.411 247.379C684.24 248.97 683.445 250.123 682.836 251.285C682.184 250.146 681.347 249.024 680.117 247.478C677.306 243.943 673.215 241.246 668.713 240.886C661.092 240.277 654.125 246.814 652.578 254.302C651.031 261.789 653.986 269.641 658.7 275.661C663.414 281.681 671.213 289.356 684.23 292.083C692.73 289.956 703.383 280.932 707.868 274.74C712.353 268.548 715.012 260.592 713.186 253.167Z" fill="#EBEBEB"/>
<path d="M712.05 267.026C712.05 267.035 711.965 267.045 711.799 267.057C711.602 267.068 711.36 267.081 711.061 267.096C710.371 267.121 709.423 267.155 708.223 267.198C705.714 267.264 702.159 267.359 697.784 267.475L697.956 267.339C697.095 270.733 696.087 274.707 694.981 279.065L694.802 279.772L694.549 279.087C692.594 273.799 690.403 267.874 688.095 261.631C687.384 259.698 686.684 257.795 686 255.938L686.447 255.973C684.097 260.164 681.874 264.13 679.847 267.743L679.784 267.856L679.656 267.858C672.142 267.962 665.8 268.049 661.288 268.112C659.086 268.127 657.333 268.138 656.084 268.147C655.511 268.143 655.055 268.14 654.706 268.138C654.394 268.132 654.232 268.123 654.232 268.111C654.232 268.099 654.393 268.083 654.705 268.066C655.054 268.051 655.509 268.031 656.081 268.006C657.329 267.967 659.081 267.913 661.282 267.846C665.793 267.739 672.135 267.589 679.647 267.412L679.456 267.527C681.47 263.907 683.68 259.933 686.016 255.735L686.277 255.265L686.463 255.77C687.148 257.627 687.849 259.529 688.562 261.462C690.855 267.711 693.032 273.641 694.974 278.934L694.542 278.956C695.68 274.606 696.718 270.64 697.605 267.253L697.64 267.118L697.777 267.117C702.154 267.069 705.71 267.03 708.219 267.002C709.42 267 710.368 266.998 711.059 266.997C711.358 267.002 711.601 267.006 711.798 267.009C711.965 267.01 712.05 267.017 712.05 267.026Z" fill="#FAFAFA"/>
<path d="M646.639 80.4107C651.033 78.5677 654.158 74.0357 654.184 68.6967C654.212 61.7017 648.919 56.0067 642.36 55.9767C635.804 55.9457 630.463 61.5917 630.434 68.5867C630.412 73.9757 633.559 78.5617 638.001 80.4107C619.726 83.1637 620.555 103.026 620.555 103.026L663.769 103.225C663.769 103.225 664.754 83.1467 646.639 80.4107Z" fill="#FCBC03"/>
<path d="M613.236 66.8526C615.507 65.8996 617.121 63.5586 617.135 60.7996C617.15 57.1856 614.415 54.2426 611.025 54.2266C607.637 54.2106 604.877 57.1286 604.862 60.7426C604.851 63.5276 606.477 65.8966 608.772 66.8526C599.329 68.2756 599.757 78.5386 599.757 78.5386L622.088 78.6416C622.088 78.6416 622.597 68.2656 613.236 66.8526Z" fill="#FCBC03"/>
<path d="M327.347 69.934C326.943 65.818 325.015 61.939 322.311 58.81C319.662 55.745 316.177 53.306 312.234 52.379C308.044 51.395 303.462 52.217 299.876 54.595C297.743 56.01 295.98 57.963 294.749 60.206C293.609 58.18 292.035 56.398 290.141 55.051C286.633 52.557 282.081 51.587 277.862 52.434C273.889 53.231 270.328 55.556 267.581 58.533C264.776 61.572 262.722 65.386 262.185 69.487C261.513 74.623 262.416 80.271 265.012 84.753C267.754 89.486 272.246 93.346 276.884 96.244C284.684 101.118 294.958 107.228 294.958 107.228C294.958 107.228 303.831 100.815 311.786 96.198C316.516 93.452 321.132 89.741 324.026 85.1C326.765 80.705 327.851 75.089 327.347 69.934Z" fill="#FF396B"/>
<path d="M358.264 53.4947C358.127 52.0977 357.473 50.7817 356.555 49.7197C355.656 48.6797 354.474 47.8517 353.135 47.5377C351.713 47.2037 350.159 47.4827 348.942 48.2897C348.218 48.7697 347.62 49.4327 347.202 50.1937C346.815 49.5057 346.281 48.9017 345.638 48.4447C344.448 47.5987 342.903 47.2697 341.471 47.5567C340.123 47.8277 338.915 48.6157 337.982 49.6267C337.03 50.6577 336.333 51.9517 336.151 53.3437C335.923 55.0867 336.229 57.0027 337.11 58.5237C338.041 60.1297 339.564 61.4397 341.138 62.4227C343.785 64.0767 347.271 66.1497 347.271 66.1497C347.271 66.1497 350.282 63.9737 352.981 62.4067C354.586 61.4747 356.152 60.2157 357.134 58.6407C358.067 57.1497 358.436 55.2437 358.264 53.4947Z" fill="#FF3AB0"/>
<path d="M297.105 80.0331C299.449 79.0501 301.116 76.6321 301.13 73.7841C301.145 70.0531 298.322 67.0151 294.823 66.9991C291.326 66.9831 288.476 69.9941 288.461 73.7261C288.449 76.6011 290.128 79.0471 292.497 80.0331C282.749 81.5021 283.191 92.0961 283.191 92.0961L306.243 92.2021C306.243 92.2021 306.769 81.4921 297.105 80.0331Z" fill="white"/>
<path d="M234 412.705C268.502 408.734 293.266 428.626 293.266 428.626C265.747 438.928 234 412.705 234 412.705Z" fill="#109D59"/>
<path d="M334.855 420.826C332.856 442.045 317.215 455.379 317.215 455.379C314.358 437.849 334.855 420.826 334.855 420.826Z" fill="#109D59"/>
<path d="M313.824 464.389C288.35 466.92 269.025 451.695 269.025 451.695C289.022 444.321 313.824 464.389 313.824 464.389Z" fill="#109D59"/>
<path d="M285.858 405.864C286.272 405.629 295.762 421.535 307.054 441.386C318.35 461.244 327.169 477.527 326.756 477.762C326.343 477.997 316.855 462.094 305.559 442.237C294.266 422.385 285.445 406.098 285.858 405.864Z" fill="#109D59"/>
<path d="M252.473 362C252.473 362 288.423 378.645 289.851 414.011C289.851 414.011 258.981 400.232 252.473 362Z" fill="#109D59"/>
<path d="M308.074 371.365C308.074 371.365 327.016 406.159 307.082 435.407C307.082 435.407 290.51 405.941 308.074 371.365Z" fill="#109D59"/>
<path d="M244.078 195.15C268.735 198.22 282.59 216.234 282.59 216.234C261.717 218.745 244.078 195.15 244.078 195.15Z" fill="#109D59"/>
<path d="M312.821 217.84C307.845 232.254 294.719 238.881 294.719 238.881C295.695 226.211 312.821 217.84 312.821 217.84Z" fill="#109D59"/>
<path d="M290.84 244.571C272.703 242.026 261.84 228.175 261.84 228.175C276.989 226.429 290.84 244.571 290.84 244.571Z" fill="#109D59"/>
<path d="M281.285 199.159C281.612 199.065 285.522 211.727 290.018 227.436C294.515 243.15 297.894 255.961 297.567 256.054C297.24 256.148 293.331 243.489 288.834 227.774C284.339 212.065 280.959 199.252 281.285 199.159Z" fill="#109D59"/>
<path d="M265.489 163.021C265.489 163.021 287.669 180.668 282.685 205.496C282.685 205.496 263.553 190.701 265.489 163.021Z" fill="#109D59"/>
<path d="M302.56 178.928C302.56 178.928 309.849 206.318 291.048 223.283C291.048 223.283 284.506 199.998 302.56 178.928Z" fill="#109D59"/>
<path d="M434.441 167.809C448.761 182.928 448.132 201.964 448.132 201.964C433.288 192.472 434.441 167.809 434.441 167.809Z" fill="#109D59"/>
<path d="M466.84 219.103C455.943 225.78 443.92 223.077 443.92 223.077C451.3 215.398 466.84 219.103 466.84 219.103Z" fill="#109D59"/>
<path d="M438.378 224.694C427.997 213.387 428.345 198.639 428.345 198.639C439.077 205.577 438.378 224.694 438.378 224.694Z" fill="#109D59"/>
<path d="M456.384 190.22C456.646 190.334 452.432 200.609 446.974 213.169C441.514 225.733 436.878 235.822 436.617 235.709C436.356 235.596 440.569 225.322 446.028 212.758C451.486 200.198 456.123 190.106 456.384 190.22Z" fill="#109D59"/>
<path d="M465.409 158.423C465.409 158.423 470.362 181.655 453.914 195.067C453.914 195.067 449.414 175.302 465.409 158.423Z" fill="#109D59"/>
<path d="M480.925 188.46C480.925 188.46 471.054 210.066 449.852 211.03C449.852 211.03 458.02 192.478 480.925 188.46Z" fill="#109D59"/>
<path d="M648.204 351.025C666.546 385.571 657.306 419.509 657.306 419.509C635.648 394.825 648.204 351.025 648.204 351.025Z" fill="#E0E0E0"/>
<path d="M682.386 459.939C660.645 466.376 640.967 455.353 640.967 455.353C657.042 445.312 682.386 459.939 682.386 459.939Z" fill="#E0E0E0"/>
<path d="M646.688 441.606C633.069 427.647 632.275 409.232 632.275 409.232C645.962 417.731 646.688 441.606 646.688 441.606Z" fill="#E0E0E0"/>
<path d="M676.633 402.598C677.038 402.937 665.337 419.273 650.502 439.083C635.662 458.9 623.309 474.685 622.905 474.346C622.501 474.008 634.199 457.675 649.039 437.858C663.874 418.048 676.23 402.26 676.633 402.598Z" fill="#E0E0E0"/>
<path d="M705.885 349.99C705.885 349.99 704.522 394.341 670.277 410.056C670.277 410.056 670.941 372.18 705.885 349.99Z" fill="#E0E0E0"/>
<path d="M719.913 411.998C719.913 411.998 693.557 445.829 656.404 436.707C656.404 436.707 678.501 407.501 719.913 411.998Z" fill="#E0E0E0"/>
<path d="M65.8121 59.1354C66.9601 58.4414 68.1821 57.9154 69.4421 57.5574L70.1901 53.9644L76.2611 53.8584L77.1351 57.4234C78.4071 57.7364 79.6471 58.2194 80.8191 58.8724L83.8871 56.8614L88.2551 61.0794L86.3531 64.2164C87.0471 65.3644 87.5731 66.5874 87.9311 67.8474L91.5241 68.5954L91.6311 74.6664L88.0661 75.5404C87.7531 76.8124 87.2701 78.0524 86.6171 79.2234L88.6281 82.2924L84.4111 86.6604L81.2741 84.7584C80.1261 85.4524 78.9041 85.9784 77.6431 86.3354L76.8951 89.9284L70.8241 90.0344L69.9501 86.4694C68.6781 86.1564 67.4381 85.6734 66.2661 85.0204L63.1991 87.0324L58.8311 82.8144L60.7331 79.6774C60.0391 78.5294 59.5131 77.3074 59.1551 76.0464L55.5611 75.2994L55.4551 69.2284L59.0201 68.3544C59.3331 67.0824 59.8171 65.8424 60.4691 64.6714L58.4581 61.6034L62.6751 57.2354L65.8121 59.1354ZM69.0491 67.2234C66.5501 69.8114 66.6231 73.9354 69.2111 76.4344C71.7991 78.9334 75.9231 78.8604 78.4221 76.2724C80.9211 73.6844 80.8481 69.5604 78.2601 67.0614C75.6711 64.5624 71.5481 64.6354 69.0491 67.2234Z" fill="#484848"/>
<path d="M111.336 327.594C112.484 326.9 113.706 326.374 114.966 326.016L115.714 322.422L121.785 322.315L122.659 325.88C123.931 326.194 125.171 326.676 126.343 327.329L129.411 325.318L133.779 329.536L131.877 332.673C132.571 333.821 133.097 335.044 133.455 336.304L137.048 337.052L137.155 343.123L133.59 343.997C133.276 345.269 132.794 346.509 132.141 347.68L134.152 350.749L129.935 355.117L126.798 353.215C125.65 353.909 124.428 354.435 123.167 354.793L122.419 358.387L116.348 358.494L115.474 354.929C114.202 354.615 112.962 354.133 111.79 353.48L108.722 355.491L104.354 351.273L106.256 348.136C105.562 346.988 105.036 345.766 104.678 344.505L101.085 343.757L100.979 337.686L104.544 336.812C104.857 335.54 105.341 334.3 105.993 333.129L103.982 330.061L108.199 325.693L111.336 327.594ZM114.573 335.682C112.074 338.27 112.147 342.394 114.735 344.893C117.323 347.392 121.447 347.319 123.946 344.731C126.445 342.143 126.372 338.019 123.784 335.52C121.195 333.022 117.072 333.094 114.573 335.682Z" fill="#282828"/>
<path d="M119.063 53.2496C121.026 52.0636 123.116 51.1636 125.272 50.5516L126.551 44.4056L136.934 44.2236L138.428 50.3196C140.604 50.8556 142.725 51.6816 144.728 52.7986L149.976 49.3586L157.447 56.5726L154.194 61.9366C155.381 63.9006 156.28 65.9916 156.892 68.1466L163.037 69.4256L163.219 79.8086L157.123 81.3036C156.587 83.4786 155.761 85.5996 154.644 87.6036L158.083 92.8516L150.87 100.323L145.505 97.0696C143.541 98.2566 141.451 99.1556 139.295 99.7676L138.016 105.914L127.633 106.096L126.138 99.9986C123.962 99.4626 121.842 98.6366 119.838 97.5196L114.59 100.96L107.119 93.7456L110.372 88.3806C109.185 86.4166 108.286 84.3266 107.673 82.1706L101.528 80.8916L101.346 70.5086L107.443 69.0136C107.979 66.8376 108.805 64.7176 109.921 62.7136L106.482 57.4656L113.695 49.9946L119.063 53.2496ZM124.598 67.0816C120.324 71.5086 120.448 78.5606 124.875 82.8346C129.301 87.1076 136.354 86.9836 140.628 82.5576C144.901 78.1316 144.778 71.0786 140.351 66.8046C135.923 62.5316 128.871 62.6556 124.598 67.0816Z" fill="#282828"/>
<path d="M547 477.26C547 477.404 479.837 477.52 397.007 477.52C314.148 477.52 247 477.403 247 477.26C247 477.117 314.148 477 397.007 477C479.837 477 547 477.116 547 477.26Z" fill="#263238"/>
<path d="M687.227 105.922L689.841 92.9386C685.483 86.6956 682.742 79.2096 682.274 71.0516C680.928 47.5896 698.857 27.4796 722.318 26.1336C745.78 24.7876 765.891 42.7166 767.236 66.1776C768.582 89.6396 750.654 109.751 727.192 111.096C717.396 111.658 708.19 108.85 700.684 103.691L700.7 103.71L687.227 105.922Z" fill="white"/>
<path d="M687.228 105.922C687.228 105.922 687.503 105.892 688.073 105.808C688.675 105.717 689.525 105.589 690.633 105.421C692.948 105.062 696.332 104.537 700.725 103.856C700.806 103.844 700.861 103.768 700.848 103.688C700.844 103.66 700.83 103.633 700.813 103.613L700.798 103.595L700.601 103.814C705.097 106.927 711.72 110.225 720.225 111.155C722.34 111.392 724.559 111.465 726.849 111.356C729.128 111.135 731.508 110.994 733.89 110.396C738.671 109.371 743.595 107.446 748.177 104.454C752.756 101.473 756.983 97.4306 760.313 92.4776C763.645 87.5356 766.066 81.6796 767.092 75.3656C768.158 69.0586 767.661 62.3106 765.673 55.8756C763.676 49.4476 760.132 43.2866 755.11 38.3656L753.215 36.5226L751.17 34.8676L750.15 34.0436L749.063 33.3166L746.89 31.8786C746.151 31.4276 745.369 31.0536 744.614 30.6386C743.845 30.2496 743.114 29.7876 742.304 29.4956C740.713 28.8566 739.166 28.1236 737.518 27.7026C731.04 25.6866 724.263 25.2756 717.916 26.2776C711.569 27.3256 705.688 29.7816 700.742 33.1576C695.784 36.5306 691.754 40.8036 688.79 45.4166C685.814 50.0326 683.906 54.9806 682.903 59.7816C682.341 62.1786 682.184 64.5586 682 66.8476C682.034 69.1436 681.969 71.3656 682.259 73.4796C683.253 81.9836 686.581 88.5836 689.721 93.0226L689.698 92.9106C688.886 97.1416 688.26 100.404 687.831 102.638C687.63 103.705 687.476 104.527 687.367 105.107C687.266 105.657 687.228 105.922 687.228 105.922C687.228 105.922 687.304 105.621 687.426 105.056C687.552 104.468 687.731 103.639 687.962 102.56C688.427 100.357 689.105 97.1396 689.985 92.9676C689.993 92.9276 689.983 92.8856 689.961 92.8546C686.89 88.4126 683.646 81.8476 682.712 73.4286C682.436 71.3346 682.514 69.1366 682.491 66.8666C682.684 64.6046 682.85 62.2536 683.416 59.8886C684.426 55.1516 686.329 50.2756 689.279 45.7316C692.218 41.1906 696.203 36.9896 701.096 33.6776C705.977 30.3626 711.771 27.9566 718.021 26.9336C724.272 25.9566 730.942 26.3696 737.313 28.3576C738.934 28.7716 740.456 29.4966 742.021 30.1246C742.817 30.4116 743.536 30.8686 744.293 31.2506C745.036 31.6586 745.806 32.0266 746.532 32.4706L748.67 33.8866L749.739 34.6016L750.741 35.4136L752.754 37.0416L754.617 38.8556C759.559 43.6976 763.045 49.7566 765.015 56.0796C766.974 62.4086 767.474 69.0516 766.433 75.2606C765.432 81.4776 763.06 87.2476 759.788 92.1246C756.519 97.0126 752.363 101.01 747.856 103.964C743.346 106.93 738.495 108.848 733.777 109.881C731.428 110.482 729.076 110.631 726.824 110.862C724.56 110.981 722.366 110.921 720.273 110.698C711.855 109.827 705.267 106.612 700.768 103.568C700.701 103.521 700.608 103.538 700.562 103.605C700.523 103.662 700.529 103.737 700.572 103.787L700.587 103.805L700.675 103.562C696.338 104.314 692.999 104.893 690.714 105.29C689.594 105.489 688.732 105.641 688.124 105.749C687.541 105.855 687.228 105.922 687.228 105.922Z" fill="#263238"/>
<path d="M724.644 97.1051C738.539 97.1051 749.802 85.8414 749.802 71.9471C749.802 58.0527 738.539 46.7891 724.644 46.7891C710.75 46.7891 699.486 58.0527 699.486 71.9471C699.486 85.8414 710.75 97.1051 724.644 97.1051Z" fill="#FF725E"/>
<g opacity="0.3">
<path d="M724.644 97.1051C738.539 97.1051 749.802 85.8414 749.802 71.9471C749.802 58.0527 738.539 46.7891 724.644 46.7891C710.75 46.7891 699.486 58.0527 699.486 71.9471C699.486 85.8414 710.75 97.1051 724.644 97.1051Z" fill="black"/>
</g>
<path d="M734.742 92.2206C747.474 86.6545 753.282 71.8214 747.716 59.09C742.15 46.3586 727.317 40.5499 714.585 46.116C701.854 51.6821 696.045 66.5152 701.611 79.2466C707.178 91.978 722.011 97.7867 734.742 92.2206Z" fill="#FF725E"/>
<path d="M736.555 81.0862C743.135 74.5056 743.135 63.8362 736.555 57.2556C729.974 50.6749 719.305 50.6749 712.724 57.2555C706.143 63.8362 706.143 74.5056 712.724 81.0862C719.305 87.6669 729.974 87.6669 736.555 81.0862Z" fill="white"/>
<path d="M724.643 77.4149C729.198 77.4149 732.89 73.7226 732.89 69.1679C732.89 64.6132 729.198 60.9209 724.643 60.9209C720.089 60.9209 716.396 64.6132 716.396 69.1679C716.396 73.7226 720.089 77.4149 724.643 77.4149Z" fill="#FF725E"/>
<path d="M742.178 50.7502L741.494 45.3832L746.958 39.5352L747.351 45.3282L742.178 50.7502Z" fill="#455A64"/>
<path d="M753.905 46.4783L748.363 46.0273L742.807 51.3723L748.364 51.9663L753.905 46.4783Z" fill="#455A64"/>
<g opacity="0.3">
<path d="M725.744 69.0478L744.981 54.3618C744.328 53.3858 743.497 52.4058 742.573 51.4238L725.744 67.7398V69.0478Z" fill="black"/>
</g>
<path d="M747.576 44.5163C744.965 47.1273 742.355 49.7393 739.744 52.3503C735.602 56.4923 731.461 60.6353 727.319 64.7783C726.367 65.7303 725.415 66.6833 724.463 67.6353C723.558 68.5403 724.971 69.9373 725.877 69.0313C728.488 66.4203 731.098 63.8083 733.709 61.1973C737.851 57.0543 741.992 52.9123 746.134 48.7693C747.086 47.8173 748.038 46.8643 748.99 45.9123C749.895 45.0073 748.482 43.6103 747.576 44.5163Z" fill="#263238"/>
<path d="M444.639 167.83L428.079 157.47C425.545 145.197 419.31 133.509 409.299 124.195C386.713 103.179 351.431 101.885 327.399 121.231C297.214 145.532 295.874 190.759 324.571 216.802C347.585 237.686 383.189 238.306 406.967 218.297C419.126 208.065 426.354 194.355 428.607 179.986L428.611 180.021L444.639 167.83Z" fill="white"/>
<path d="M444.637 167.831C444.637 167.831 444.236 168.099 443.524 168.619C442.765 169.176 441.727 169.938 440.389 170.921C437.621 172.975 433.619 175.943 428.435 179.789L428.902 179.991L428.899 179.955C428.882 179.795 428.74 179.677 428.58 179.694C428.446 179.707 428.341 179.813 428.32 179.941C427.007 187.834 423.764 198.129 416.17 208.004C412.433 212.951 407.511 217.61 401.622 221.604C395.743 225.598 388.785 228.841 381.052 230.656C373.334 232.481 364.86 232.877 356.333 231.425C347.815 229.987 339.251 226.684 331.599 221.468C316.296 211.141 305.05 192.492 304.655 172.039L304.6 168.216L304.894 164.42C304.97 161.881 305.648 159.429 306.006 156.947C307.189 152.081 308.682 147.311 310.929 142.94C315.245 134.124 321.544 126.579 328.906 120.885C336.316 115.24 344.743 111.478 353.221 109.611C361.706 107.727 370.225 107.713 378.051 109.16C393.794 112.077 406.392 120.659 414.318 130.13C422.387 139.643 426.14 149.752 427.797 157.534C427.844 157.599 427.887 157.656 427.932 157.719C433.272 160.969 437.397 163.48 440.254 165.22C441.633 166.051 442.705 166.695 443.49 167.168C444.224 167.608 444.637 167.831 444.637 167.831C444.662 167.83 444.327 167.603 443.641 167.154C442.891 166.665 441.864 165.997 440.543 165.139C437.689 163.304 433.566 160.655 428.232 157.228L428.361 157.414C426.801 149.54 423.113 139.264 415.004 129.553C407.042 119.888 394.283 111.072 378.262 108.033C370.298 106.526 361.615 106.508 352.953 108.402C344.301 110.28 335.687 114.098 328.109 119.849C320.582 125.645 314.132 133.341 309.714 142.348C307.415 146.812 305.883 151.685 304.672 156.659C304.303 159.192 303.615 161.699 303.533 164.294L303.232 168.173L303.286 172.082C303.69 192.985 315.211 212.043 330.858 222.552C338.683 227.864 347.435 231.214 356.127 232.653C364.83 234.107 373.465 233.671 381.316 231.778C389.183 229.896 396.249 226.559 402.204 222.463C408.167 218.369 413.129 213.603 416.884 208.556C424.514 198.476 427.684 188.017 428.895 180.035L428.316 180.021L428.32 180.056C428.336 180.215 428.476 180.333 428.636 180.317C428.691 180.312 428.746 180.288 428.787 180.258C433.947 176.236 437.931 173.129 440.687 170.982C441.963 169.976 442.954 169.195 443.678 168.625C444.339 168.096 444.663 167.83 444.637 167.831Z" fill="#263238"/>
<path d="M709.876 125.812C714.382 126.096 718.81 122.572 719.545 118.118C720.281 113.664 717.22 108.904 712.863 107.724C715.504 104.728 715.965 100.009 713.952 96.5576C711.94 93.1066 707.607 91.1836 703.698 92.0066C703.334 88.0796 700.791 84.4256 697.234 82.7196C693.678 81.0146 689.236 81.3206 685.947 83.4966C681.408 79.9876 674.387 80.2026 670.071 83.9836C666.21 83.4706 662.142 85.7196 660.522 89.2606C658.902 92.8026 659.861 97.3506 662.774 99.9356" fill="#263238"/>
<path d="M668.553 93.1675L670.575 93.0675C690.922 92.0555 708.634 106.837 711.277 127.037C713.735 145.824 716.21 166.612 716.588 176.738C717.37 197.704 696.575 202.004 696.575 202.004L699.598 227.09L688.385 239.251L648.667 228.041L639.632 136.965C636.674 115.302 646.817 95.5245 668.553 93.1675Z" fill="#C17560"/>
<path d="M696.747 201.964C696.747 201.964 683.406 203.434 668.893 195.292C668.893 195.292 676.371 209.986 697.185 207.06L696.747 201.964Z" fill="#7C4236"/>
<path d="M701.752 149.339C701.887 150.916 700.662 152.331 699.017 152.501C697.375 152.671 695.933 151.534 695.799 149.956C695.664 148.379 696.889 146.963 698.531 146.792C700.175 146.622 701.617 147.763 701.752 149.339Z" fill="#263238"/>
<path d="M707.283 137.511C706.932 137.92 704.582 136.354 701.362 136.523C698.144 136.645 695.863 138.419 695.494 138.042C695.313 137.876 695.656 137.152 696.648 136.352C697.624 135.555 699.315 134.745 701.322 134.653C703.328 134.565 705.052 135.219 706.059 135.926C707.087 136.638 707.457 137.327 707.283 137.511Z" fill="#263238"/>
<path d="M674.23 150.048C674.365 151.625 673.139 153.039 671.495 153.209C669.853 153.38 668.411 152.243 668.276 150.664C668.142 149.087 669.367 147.671 671.008 147.501C672.653 147.33 674.096 148.471 674.23 150.048Z" fill="#263238"/>
<path d="M675.66 139.684C675.308 140.093 672.955 138.528 669.738 138.697C666.521 138.819 664.239 140.593 663.87 140.216C663.69 140.05 664.029 139.327 665.025 138.527C666.001 137.731 667.691 136.92 669.698 136.828C671.704 136.739 673.428 137.394 674.436 138.101C675.461 138.811 675.833 139.5 675.66 139.684Z" fill="#263238"/>
<path d="M688.533 162.983C688.508 162.8 690.493 162.355 693.715 161.779C694.533 161.654 695.303 161.452 695.414 160.883C695.578 160.28 695.19 159.41 694.744 158.473C693.872 156.522 692.959 154.477 692.002 152.333C688.182 143.587 685.374 136.379 685.727 136.228C686.081 136.078 689.464 143.044 693.283 151.791C694.205 153.949 695.087 156.006 695.925 157.973C696.282 158.892 696.87 159.925 696.512 161.179C696.321 161.804 695.74 162.281 695.22 162.449C694.701 162.636 694.239 162.668 693.833 162.712C690.578 163.049 688.554 163.164 688.533 162.983Z" fill="#263238"/>
<path d="M677.839 127.156C677.455 127.993 674.651 127.246 671.248 127.305C667.844 127.287 665.013 128.07 664.66 127.237C664.506 126.84 665.073 126.076 666.265 125.362C667.447 124.648 669.268 124.051 671.309 124.037C673.349 124.027 675.149 124.601 676.304 125.302C677.47 126 678.009 126.757 677.839 127.156Z" fill="#263238"/>
<path d="M706.777 124.226C706.135 124.991 703.44 124.364 700.242 124.487C697.042 124.517 694.364 125.272 693.704 124.538C693.413 124.18 693.802 123.426 694.95 122.675C696.081 121.927 698.002 121.266 700.201 121.213C702.399 121.162 704.336 121.73 705.485 122.424C706.65 123.119 707.059 123.854 706.777 124.226Z" fill="#263238"/>
<path d="M708.783 117.526C708.783 117.526 702.604 104.679 696.125 101.931C688.281 98.6054 685.401 107.176 678 105.499C670.599 103.822 663.109 100.628 655.93 106.641C648.071 113.223 652.112 117.366 652.07 126.688C651.898 164.482 645.544 175.484 642.703 157.826C642.392 155.892 636.917 154.613 635.708 146.435C634.141 135.83 633.089 122.911 635.092 115.231C636.78 108.757 640.195 104.172 646.471 98.9934C656.378 90.8184 670.501 89.9514 680.146 90.4404C689.79 90.9294 708.841 101.052 708.783 117.526Z" fill="#263238"/>
<path d="M644.012 157.19C643.719 153.962 640.806 151.547 637.599 152.014C633.71 152.579 629.472 155.015 630.131 163.077C631.301 177.379 645.418 173.255 645.409 172.843C645.402 172.563 644.554 163.171 644.012 157.19Z" fill="#C17560"/>
<path d="M641.857 167.716C641.79 167.676 641.622 167.911 641.216 168.138C640.821 168.36 640.125 168.547 639.357 168.328C637.8 167.897 636.332 165.603 636.052 163.03C635.909 161.732 636.081 160.47 636.458 159.406C636.809 158.323 637.426 157.538 638.175 157.341C638.918 157.104 639.493 157.515 639.702 157.903C639.926 158.287 639.859 158.58 639.937 158.599C639.98 158.632 640.224 158.334 640.061 157.753C639.979 157.474 639.784 157.15 639.425 156.903C639.059 156.652 638.543 156.551 638.018 156.652C636.921 156.818 636.012 157.914 635.597 159.082C635.122 160.26 634.899 161.681 635.059 163.139C635.386 166.014 637.082 168.59 639.198 169.019C640.226 169.199 641.04 168.827 641.446 168.455C641.859 168.065 641.908 167.738 641.857 167.716Z" fill="#7C4236"/>
<path d="M642.913 129.422C644.836 130.599 646.867 131.812 649.12 131.922C651.373 132.033 653.872 130.618 654.14 128.378C654.26 127.372 653.959 126.227 654.576 125.424C655.313 124.466 656.77 124.682 657.977 124.75C662.164 124.985 666.801 120.143 667.661 116.039C668.802 117.577 671.153 117.942 672.709 116.825C674.265 115.709 674.822 115.088 676.008 113.585C677.195 112.082 678.896 110.706 680.803 110.881C681.87 110.979 682.892 111.56 683.953 111.413C685.826 111.152 686.635 108.904 686.827 107.022C687.019 105.141 687.132 102.951 688.675 101.857C690.105 100.843 692.045 101.292 693.79 101.461C695.534 101.63 697.75 101.113 698.109 99.3971C698.298 98.4971 697.87 97.5811 697.339 96.8311C694.934 93.4301 689.992 92.1121 686.213 93.8631C684.576 89.1991 679.967 85.7351 675.031 85.4611C670.095 85.1871 665.131 88.1191 662.988 92.5731C659.824 89.9761 655.367 89.0421 651.427 90.1491C647.486 91.2561 644.168 94.3741 642.819 98.2391C639.289 97.4961 635.384 99.0401 633.318 101.998C631.252 104.956 631.146 109.154 633.058 112.213C630.556 113.812 628.479 116.48 628.573 119.448C628.667 122.416 631.702 125.226 634.525 124.304C633.484 126.67 634.58 129.757 636.88 130.935C639.181 132.114 642.327 131.201 643.638 128.973" fill="#263238"/>
<path d="M687.486 98.0248C687.498 98.0248 687.501 98.1138 687.496 98.2868C687.485 98.4598 687.488 98.7208 687.443 99.0568C687.344 99.7248 687.127 100.718 686.54 101.869C685.948 103.004 685.009 104.327 683.532 105.414C682.087 106.511 680.072 107.39 677.747 107.379L677.974 107.05C678.48 108.253 678.431 109.729 677.883 111.019C677.369 112.329 676.515 113.509 675.607 114.664C675.14 115.22 674.743 115.865 674.085 116.388C673.445 116.889 672.665 117.2 671.857 117.343C670.252 117.63 668.404 117.221 667.164 115.92L667.692 115.74C667.469 118.606 665.991 121.536 663.504 123.401C662.191 124.453 660.536 125.138 658.876 125.176C657.217 125.242 655.652 124.832 654.19 124.389L654.565 124.201C653.883 126.02 652.776 127.598 651.394 128.791C650.039 129.98 648.193 130.731 646.471 130.398C643.054 129.85 640.672 127.15 640.088 124.525L640.42 124.66C638.788 125.658 636.992 125.835 635.533 125.628C634.055 125.433 632.874 124.854 632.024 124.268C631.17 123.669 630.651 123.037 630.337 122.597C630.045 122.138 629.921 121.882 629.937 121.874C630.006 121.811 630.466 122.939 632.16 124.067C633.004 124.604 634.157 125.13 635.577 125.283C636.979 125.451 638.679 125.243 640.184 124.29L640.445 124.125L640.517 124.426C641.094 126.873 643.384 129.39 646.55 129.862C648.109 130.147 649.732 129.477 651.016 128.351C652.306 127.227 653.361 125.707 653.993 123.997L654.093 123.726L654.368 123.809C655.807 124.241 657.317 124.623 658.85 124.557C660.385 124.514 661.87 123.904 663.123 122.906C665.472 121.141 666.86 118.4 667.084 115.686L667.14 115.004L667.612 115.507C668.659 116.621 670.313 117.017 671.756 116.763C672.48 116.639 673.174 116.366 673.732 115.933C674.277 115.518 674.693 114.878 675.167 114.317C676.075 113.182 676.906 112.045 677.397 110.826C677.919 109.62 677.966 108.322 677.531 107.231L677.397 106.895L677.758 106.901C679.95 106.94 681.892 106.138 683.306 105.106C684.751 104.087 685.692 102.829 686.303 101.744C687.499 99.5118 687.381 97.9968 687.486 98.0248Z" fill="#455A64"/>
<path d="M688.378 174.036C688.271 173.506 684.784 174.417 681.524 172.086C678.257 169.762 677.669 165.942 677.175 166.044C676.943 166.053 676.716 167.05 677.086 168.63C677.439 170.182 678.525 172.299 680.519 173.726C682.516 175.146 684.747 175.395 686.208 175.137C687.701 174.885 688.462 174.269 688.378 174.036Z" fill="#263238"/>
<path d="M604.342 477.447C604.342 477.447 609.163 425.514 620.466 409.251L756.245 414.755L762.899 476.308L604.342 477.447Z" fill="#263238"/>
<path d="M647.136 212.609C647.136 212.609 649.76 226.49 684.861 235.43C684.861 235.43 700.953 224.978 697.688 211.23L738.252 235.459L747.911 349.63L760.97 430.024C720.764 450.808 663.982 445.882 609.882 429.497L625.583 379.843L624.229 359.583L606.57 252.31L638.19 220.69L647.136 212.609Z" fill="#4385F5"/>
<path d="M722.831 258.878L710.383 259.707C708.781 259.814 707.396 258.602 707.289 256.999L707.284 256.922C707.177 255.32 708.389 253.935 709.992 253.828L722.44 252.999C724.042 252.892 725.427 254.104 725.534 255.707L725.539 255.783C725.645 257.386 724.433 258.772 722.831 258.878Z" fill="#FF725E"/>
<path d="M649.481 329.249C649.459 329.352 647.983 328.962 645.554 328.844C644.341 328.774 642.892 328.833 641.301 329.025C639.714 329.25 637.988 329.63 636.239 330.236C634.497 330.865 632.916 331.655 631.54 332.477C630.182 333.328 629.018 334.194 628.119 335.011C626.304 336.63 625.402 337.859 625.319 337.793C625.29 337.772 625.503 337.458 625.915 336.905C626.116 336.625 626.375 336.293 626.713 335.938C627.046 335.579 627.404 335.147 627.869 334.74C628.751 333.875 629.913 332.96 631.286 332.069C632.676 331.207 634.286 330.387 636.065 329.745C637.851 329.126 639.62 328.751 641.242 328.548C642.869 328.378 644.347 328.359 645.577 328.477C646.195 328.501 646.745 328.612 647.229 328.682C647.715 328.746 648.126 328.843 648.459 328.934C649.127 329.104 649.49 329.214 649.481 329.249Z" fill="#7C4236"/>
<path d="M697.688 211.23C698.464 211.23 725.533 218.811 729.551 220.004C729.762 220.067 740.343 223.751 740.56 223.779C743.041 224.097 758.214 229.838 764.357 243.4C769.905 255.648 778.562 284.409 778.562 284.409L737.021 280.505L738.895 254.661L703.465 222.833L697.688 211.23Z" fill="#E0E0E0"/>
<path d="M736.83 248.887C736.866 248.884 736.941 249.349 737.046 250.196C737.154 251.042 737.274 252.269 737.392 253.789C737.629 256.828 737.805 261.041 737.717 265.695C737.624 270.35 737.283 274.553 736.927 277.581C736.75 279.095 736.582 280.317 736.441 281.158C736.303 281.999 736.21 282.462 736.174 282.457C736.138 282.452 736.164 281.981 736.24 281.133C736.325 280.183 736.432 278.98 736.56 277.545C736.821 274.515 737.103 270.324 737.195 265.686C737.283 261.049 737.166 256.85 737.023 253.813C736.951 252.374 736.891 251.167 736.843 250.215C736.801 249.363 736.794 248.891 736.83 248.887Z" fill="#263238"/>
<path d="M740.084 225.401C740.158 225.428 739.851 226.409 739.416 228.004C738.979 229.599 738.44 231.819 738.033 234.305C737.63 236.793 737.436 239.069 737.344 240.72C737.251 242.371 737.23 243.398 737.151 243.4C737.086 243.402 736.976 242.376 736.975 240.709C736.973 239.043 737.11 236.736 737.518 234.221C737.929 231.708 738.532 229.476 739.063 227.897C739.593 226.316 740.023 225.378 740.084 225.401Z" fill="#263238"/>
<path d="M728.439 263.749L653.429 267.971C651.328 268.089 649.7 269.855 649.753 271.959L652.33 374.258C652.406 377.273 654.961 379.627 657.972 379.456L731.365 375.287C734.266 375.122 736.504 372.668 736.4 369.764L732.751 267.681C732.669 265.395 730.724 263.621 728.439 263.749Z" fill="#263238"/>
<g opacity="0.3">
<path d="M628.367 376.358C636.199 380.683 645.783 380.029 654.586 378.432C666.304 376.306 677.755 372.717 688.591 367.776C695.271 364.73 701.838 361.132 709.067 359.849C720.822 357.763 737.116 359.485 748.806 357.056L748.116 347.759L706.808 342.688L628.367 376.358Z" fill="black"/>
</g>
<path d="M679.384 267.626C679.384 267.626 676.151 262.854 677.461 261.379C678.351 260.378 700.707 258.961 702.186 260.12C703.048 260.796 701.313 266.108 701.313 266.108L679.384 267.626Z" fill="#E0E0E0"/>
<path d="M679.385 267.626C679.392 267.613 679.543 267.589 679.827 267.557C680.159 267.524 680.567 267.483 681.065 267.434C682.201 267.337 683.744 267.206 685.648 267.044C689.596 266.745 695.032 266.333 701.297 265.858L701.076 266.03C701.443 264.85 701.794 263.6 702.028 262.311C702.13 261.686 702.245 260.962 702.094 260.448C702.081 260.372 702.041 260.384 702.031 260.335C701.997 260.306 701.94 260.289 701.891 260.261C701.744 260.221 701.6 260.176 701.432 260.154C701.11 260.096 700.769 260.063 700.429 260.038C696.334 259.817 692.382 260.049 688.814 260.227C685.244 260.44 682.024 260.685 679.355 261.067C679.023 261.12 678.699 261.172 678.389 261.237C678.098 261.297 677.737 261.387 677.591 261.486C677.251 261.885 677.283 262.495 677.364 262.994C677.573 264.022 677.964 264.872 678.288 265.548C678.619 266.226 678.907 266.737 679.102 267.084C679.299 267.436 679.396 267.611 679.385 267.626C679.374 267.641 679.235 267.469 679.013 267.141C678.789 266.81 678.47 266.312 678.108 265.642C677.753 264.97 677.328 264.13 677.078 263.05C676.989 262.524 676.889 261.843 677.347 261.263C677.701 261.003 677.985 260.991 678.313 260.896C678.633 260.822 678.96 260.763 679.297 260.704C681.987 260.271 685.206 259.989 688.785 259.748C692.368 259.544 696.302 259.294 700.469 259.519C700.82 259.545 701.169 259.578 701.524 259.642C701.698 259.665 701.884 259.719 702.067 259.772C702.167 259.82 702.28 259.864 702.371 259.943C702.447 260.039 702.561 260.162 702.577 260.259C702.8 261.07 702.628 261.725 702.536 262.401C702.291 263.733 701.934 264.984 701.553 266.187L701.502 266.349L701.332 266.36C695.015 266.756 689.533 267.099 685.552 267.349C683.659 267.45 682.126 267.532 680.996 267.592C680.511 267.61 680.113 267.626 679.789 267.638C679.517 267.642 679.378 267.639 679.385 267.626Z" fill="#263238"/>
<path d="M726.428 268.618C726.428 268.627 726.343 268.64 726.175 268.656C725.976 268.672 725.731 268.692 725.429 268.717C724.731 268.761 723.772 268.822 722.557 268.9C720.018 269.038 716.419 269.235 711.99 269.477C703.028 269.914 690.718 270.514 677.119 271.178C668.703 271.559 660.783 271.918 653.962 272.227L654.181 271.996C654.199 279.789 654.214 286.325 654.224 290.962C654.213 293.226 654.205 295.024 654.199 296.302C654.189 296.889 654.18 297.356 654.174 297.712C654.164 298.031 654.153 298.197 654.141 298.197C654.129 298.197 654.115 298.031 654.101 297.712C654.09 297.356 654.075 296.89 654.056 296.303C654.032 295.026 653.997 293.229 653.953 290.965C653.897 286.329 653.817 279.791 653.722 271.999L653.719 271.779L653.941 271.768C660.761 271.441 668.68 271.062 677.095 270.659C690.696 270.055 703.009 269.507 711.973 269.108C716.405 268.936 720.007 268.796 722.548 268.698C723.764 268.662 724.725 268.633 725.424 268.613C725.727 268.609 725.973 268.606 726.173 268.604C726.341 268.604 726.427 268.609 726.428 268.618Z" fill="#455A64"/>
<path d="M700.128 265.296C700.13 265.332 699.702 265.392 698.926 265.471C698.041 265.548 696.941 265.644 695.637 265.758C692.858 265.978 689.018 266.249 684.774 266.517C680.529 266.786 676.684 267.002 673.9 267.133C672.592 267.185 671.488 267.229 670.601 267.264C669.821 267.284 669.389 267.279 669.387 267.246C669.384 267.207 669.812 267.144 670.588 267.062C671.364 266.98 672.487 266.879 673.876 266.766C676.655 266.54 680.496 266.266 684.741 265.997C688.985 265.728 692.83 265.516 695.614 265.39C696.922 265.342 698.026 265.301 698.914 265.268C699.693 265.252 700.126 265.26 700.128 265.296Z" fill="#263238"/>
<path d="M676.936 266.49L677.431 272.764L703.883 271.416L703.489 264.947L676.936 266.49Z" fill="#E0E0E0"/>
<path d="M676.935 266.491C676.923 266.481 677.09 266.46 677.421 266.43C677.805 266.399 678.291 266.36 678.891 266.311C680.252 266.214 682.125 266.08 684.437 265.915C689.174 265.589 695.852 265.146 703.472 264.693L703.726 264.678L703.742 264.933C703.868 266.972 703.999 269.087 704.132 271.251L704.141 271.401L704.157 271.664L703.894 271.677C692.979 272.233 683.321 272.682 677.436 272.917L677.285 272.923L677.276 272.777C677.157 270.817 677.062 269.245 676.992 268.099C676.968 267.608 676.949 267.209 676.934 266.888C676.926 266.617 676.925 266.482 676.935 266.491C676.946 266.5 676.968 266.653 677.001 266.939C677.037 267.268 677.081 267.676 677.136 268.179C677.245 269.3 677.395 270.836 677.581 272.753L677.421 272.613C683.299 272.248 692.953 271.714 703.868 271.158L703.621 271.434L703.612 271.283C703.482 269.119 703.354 267.004 703.231 264.964L703.501 265.204C696.004 265.594 689.418 265.936 684.633 266.185C682.293 266.29 680.396 266.376 679.019 266.438C678.394 266.461 677.888 266.479 677.489 266.493C677.137 266.502 676.947 266.502 676.935 266.491Z" fill="#263238"/>
<path d="M591.699 299.473C591.699 299.473 594.918 323.51 601.786 341.753C608.654 359.995 617.668 375.877 627.755 376.521C637.842 377.165 672.61 370.941 687.204 362.786C701.798 354.631 711.67 349.05 711.67 349.05L732.702 334.456L715.103 314.711C715.103 314.711 668.746 329.09 661.02 329.52C653.294 329.949 647.15 328.661 647.15 328.661C647.15 328.661 648.358 309.56 646.212 302.049C644.066 294.537 637.413 280.373 637.413 280.373L591.699 299.473Z" fill="#C17560"/>
<path d="M716.838 309.617C716.838 309.617 718.421 303.857 720.738 298.81C723.055 293.762 723.634 287.97 723.882 284.826C724.13 281.682 723.551 275.31 725.868 273.903C728.185 272.496 733.563 272 733.729 280.026C733.895 288.052 731.344 292.355 732.33 296.079C733.316 299.803 735.219 302.285 735.219 302.285L736.954 301.093L738.554 307.761L716.838 309.617Z" fill="#C17560"/>
<path d="M648.843 296.173L665.369 304.328C665.369 304.328 693.913 312.269 706.146 310.767C718.379 309.265 738.553 307.762 738.553 307.762C738.553 307.762 734.979 292.837 736.404 281.992C736.404 281.992 745.96 273.667 760.284 275.471C774.384 277.247 778.313 283.762 778.562 284.41C781.015 290.814 790.49 339.097 775.467 349.184C760.444 359.271 716.222 350.931 705.717 347.252C696.847 344.146 672.426 334.384 663.753 330.902C661.689 330.073 659.511 329.583 657.291 329.445L646.777 328.794L646.829 320.525C646.874 313.293 645.853 306.094 643.799 299.16L641.883 291.102L648.843 296.173Z" fill="#C17560"/>
<path d="M648.843 296.173C648.843 296.173 648.688 296.076 648.39 295.867C648.084 295.649 647.643 295.336 647.062 294.922C645.88 294.071 644.135 292.815 641.839 291.162L641.954 291.085C642.408 292.964 642.94 295.168 643.547 297.681C643.82 298.947 644.236 300.254 644.604 301.662C644.968 303.069 645.313 304.562 645.621 306.139C646.237 309.292 646.705 312.786 646.89 316.582C646.99 318.479 646.985 320.454 646.97 322.487C646.961 324.522 646.951 326.626 646.94 328.796L646.787 328.631C649.102 328.771 651.496 328.915 653.968 329.065C655.205 329.141 656.461 329.219 657.736 329.298C659.019 329.405 660.312 329.625 661.59 329.979C662.875 330.316 664.115 330.848 665.364 331.345C666.618 331.845 667.889 332.352 669.176 332.865C671.752 333.888 674.393 334.936 677.096 336.01C682.513 338.13 688.18 340.348 694.071 342.654C697.023 343.79 700.035 344.94 703.113 346.071C704.655 346.632 706.201 347.211 707.796 347.669C709.392 348.134 711.02 348.551 712.667 348.94C719.264 350.475 726.165 351.668 733.291 352.538C740.415 353.383 747.786 353.935 755.303 353.668C759.056 353.52 762.852 353.173 766.593 352.37C768.455 351.941 770.306 351.417 772.082 350.681C773.84 349.918 775.547 348.972 776.917 347.634C778.314 346.31 779.328 344.613 780.146 342.85C780.986 341.086 781.552 339.189 782.018 337.27C782.91 333.415 783.326 329.419 783.449 325.395C783.682 317.558 783.034 309.811 781.991 302.269C781.453 298.498 780.828 294.77 780.044 291.111C779.652 289.283 779.237 287.465 778.715 285.698C778.588 285.262 778.442 284.806 778.282 284.417C778.089 284.052 777.815 283.672 777.531 283.329C776.954 282.636 776.303 282 775.6 281.429C772.783 279.127 769.355 277.738 765.92 276.816C762.463 275.917 758.925 275.402 755.44 275.48C751.95 275.539 748.533 276.246 745.332 277.381C742.138 278.519 739.122 280.131 736.558 282.169L736.637 282.022C736.095 286.488 736.292 290.931 736.72 295.224C737.171 299.52 737.862 303.7 738.763 307.71L738.819 307.958L738.568 307.977C730.522 308.585 722.882 309.228 715.709 309.923C712.124 310.297 708.652 310.658 705.301 311.007C701.917 311.258 698.653 311.023 695.552 310.66C689.34 309.956 683.717 308.8 678.672 307.716C673.629 306.608 669.174 305.479 665.339 304.429L665.329 304.426L665.32 304.422C659.971 301.757 655.85 299.704 653.054 298.311C651.672 297.616 650.62 297.086 649.901 296.725C649.196 296.368 648.843 296.173 648.843 296.173C648.843 296.173 649.215 296.336 649.931 296.679C650.656 297.03 651.717 297.543 653.11 298.218C655.915 299.589 660.05 301.61 665.415 304.234L665.397 304.227C669.231 305.254 673.69 306.361 678.732 307.448C683.776 308.511 689.397 309.646 695.59 310.328C698.68 310.681 701.934 310.904 705.269 310.648C708.618 310.291 712.088 309.921 715.671 309.539C722.848 308.827 730.487 308.169 738.536 307.547L738.341 307.814C737.426 303.776 736.728 299.592 736.268 295.273C735.832 290.958 735.625 286.491 736.169 281.963L736.18 281.87L736.248 281.816C738.891 279.709 741.921 278.094 745.168 276.929C748.413 275.775 751.882 275.053 755.427 274.99C758.973 274.909 762.547 275.427 766.047 276.334C769.53 277.268 773.018 278.671 775.921 281.038C776.645 281.626 777.319 282.283 777.924 283.009C778.226 283.378 778.503 283.749 778.742 284.202C778.934 284.667 779.068 285.099 779.202 285.553C779.732 287.347 780.149 289.17 780.544 291.006C781.332 294.679 781.961 298.417 782.501 302.199C783.55 309.763 784.201 317.533 783.967 325.415C783.844 329.462 783.426 333.488 782.522 337.392C782.05 339.337 781.476 341.263 780.615 343.07C779.777 344.873 778.734 346.623 777.277 348.005C774.334 350.794 770.43 351.995 766.701 352.872C762.916 353.683 759.094 354.029 755.32 354.176C747.762 354.439 740.373 353.88 733.231 353.026C726.088 352.147 719.175 350.946 712.558 349.397C710.905 349.005 709.272 348.583 707.664 348.113C706.051 347.647 704.494 347.062 702.955 346.499C699.874 345.362 696.863 344.207 693.911 343.066C688.022 340.749 682.358 338.52 676.944 336.39C674.243 335.311 671.604 334.256 669.03 333.228C667.744 332.712 666.474 332.202 665.222 331.699C663.965 331.195 662.75 330.67 661.491 330.337C660.237 329.986 658.966 329.767 657.706 329.658C656.434 329.576 655.18 329.495 653.946 329.415C651.475 329.258 649.08 329.107 646.766 328.96L646.611 328.95L646.612 328.795C646.629 326.625 646.646 324.521 646.662 322.486C646.683 320.449 646.696 318.488 646.603 316.597C646.433 312.815 645.981 309.332 645.382 306.186C645.083 304.613 644.746 303.123 644.391 301.718C644.033 300.315 643.622 298.999 643.357 297.732C642.768 295.213 642.251 293.004 641.81 291.121L641.764 290.925L641.925 291.044C644.201 292.722 645.93 293.997 647.101 294.86C647.673 295.287 648.107 295.611 648.409 295.836C648.702 296.054 648.843 296.173 648.843 296.173Z" fill="#7C4236"/>
<path d="M763.087 326.246C762.982 326.272 762.717 324.404 761.516 321.663C760.34 318.939 758.04 315.362 754.396 312.619C750.748 309.877 746.673 308.659 743.73 308.285C740.764 307.891 738.896 308.155 738.891 308.047C738.888 308.017 739.347 307.928 740.19 307.858C741.033 307.785 742.263 307.767 743.773 307.92C746.774 308.205 750.968 309.392 754.708 312.203C758.445 315.015 760.748 318.715 761.854 321.519C762.42 322.927 762.744 324.115 762.907 324.945C763.074 325.775 763.116 326.241 763.087 326.246Z" fill="#7C4236"/>
<path d="M647.136 212.609C645.562 213.659 616.017 226.003 613.125 227.48C613.125 227.48 581.566 239.434 585.308 273.081C587.382 291.726 590.802 306.962 590.802 306.962C590.802 306.962 604.289 298.822 613.845 294.907C626.111 289.882 641.004 287.665 641.004 287.665L632.608 257.84L647.136 212.609Z" fill="#E0E0E0"/>
<path d="M631.985 258.909C632.123 258.867 634.308 265.608 636.867 273.965C639.426 282.324 641.388 289.133 641.251 289.175C641.114 289.217 638.928 282.477 636.369 274.118C633.81 265.76 631.847 258.951 631.985 258.909Z" fill="#263238"/>
<path d="M627.657 249.385C627.56 249.449 626.756 247.994 624.836 246.194C624.593 245.969 624.341 245.735 624.081 245.494C623.797 245.271 623.504 245.04 623.202 244.803C622.613 244.302 621.903 243.874 621.191 243.378C619.71 242.475 618.041 241.529 616.173 240.789C612.461 239.267 608.846 238.524 606.223 238.484C603.588 238.395 602.012 238.938 601.985 238.829C601.974 238.795 602.363 238.667 603.084 238.463C603.808 238.287 604.888 238.118 606.226 238.116C608.904 238.063 612.6 238.761 616.371 240.308C618.268 241.06 619.959 242.035 621.451 242.976C622.169 243.491 622.881 243.941 623.469 244.466C623.77 244.716 624.061 244.958 624.344 245.193C624.602 245.448 624.851 245.694 625.091 245.931C625.581 246.387 625.966 246.856 626.294 247.274C626.637 247.68 626.911 248.045 627.093 248.374C627.488 249.009 627.688 249.366 627.657 249.385Z" fill="#263238"/>
<path d="M597.648 303.439C597.63 303.443 597.572 303.256 597.478 302.896C597.375 302.479 597.247 301.956 597.089 301.316C596.76 299.942 596.317 297.946 595.802 295.472C594.768 290.526 593.481 283.662 592.355 276.033C591.233 268.401 590.505 261.452 590.134 256.412C589.945 253.892 589.826 251.851 589.778 250.438C589.758 249.779 589.743 249.241 589.73 248.812C589.725 248.44 589.731 248.244 589.749 248.243C589.767 248.242 589.796 248.436 589.835 248.806C589.873 249.234 589.922 249.77 589.981 250.426C590.11 251.904 590.287 253.921 590.502 256.381C590.967 261.407 591.751 268.336 592.871 275.958C593.996 283.576 595.224 290.441 596.164 295.401C596.628 297.827 597.009 299.816 597.288 301.274C597.407 301.922 597.504 302.452 597.581 302.874C597.642 303.241 597.666 303.435 597.648 303.439Z" fill="#263238"/>
<path d="M600.852 301.248C600.834 301.251 600.784 301.054 600.704 300.675C600.62 300.24 600.513 299.69 600.382 299.015C600.116 297.499 599.752 295.424 599.307 292.89C598.429 287.713 597.269 280.552 596.085 272.629C594.898 264.703 593.92 257.513 593.306 252.297C593.005 249.688 592.769 247.576 592.646 246.112C592.59 245.426 592.544 244.868 592.508 244.426C592.482 244.04 592.477 243.837 592.495 243.835C592.513 243.833 592.553 244.033 592.612 244.415C592.674 244.854 592.751 245.408 592.847 246.089C593.051 247.613 593.33 249.701 593.671 252.25C594.378 257.451 595.414 264.628 596.6 272.552C597.794 280.44 598.875 287.579 599.671 292.832C600.048 295.377 600.357 297.461 600.583 298.983C600.675 299.665 600.749 300.22 600.808 300.659C600.854 301.042 600.87 301.245 600.852 301.248Z" fill="#263238"/>
<g opacity="0.3">
<path d="M640.768 290.283C646.275 300.806 649.091 312.723 648.877 324.598C658.352 325.482 667.536 329.266 674.884 335.313C670.478 332.28 659.576 328.602 646.777 328.793C647.412 308.942 644.961 303.567 640.768 290.283Z" fill="black"/>
</g>
<path d="M697.688 211.028C697.738 211.016 697.899 211.55 698.159 212.585C698.286 213.103 698.452 213.744 698.617 214.508C698.748 215.282 698.898 216.171 699.067 217.169C699.686 221.185 700.207 227.064 700.299 234.365C700.393 241.664 700.128 250.384 699.287 260.067C698.436 269.748 697.099 280.408 694.771 291.514L694.406 293.256L693.371 291.798C692.339 290.345 691.235 288.789 690.122 287.221C683.171 277.523 676.441 268.333 670.718 259.686C665.047 251.01 660.11 243.095 656.378 236.181C652.625 229.284 650.175 223.387 648.817 219.21C648.455 218.173 648.197 217.231 647.967 216.418C647.726 215.608 647.558 214.913 647.44 214.347C647.189 213.218 647.084 212.622 647.136 212.609C647.273 212.574 647.862 214.925 649.391 219.008C650.914 223.091 653.494 228.862 657.345 235.647C661.17 242.439 666.2 250.287 671.915 258.885C677.68 267.453 684.431 276.598 691.393 286.311C692.507 287.883 693.613 289.443 694.647 290.9L693.247 291.185C695.569 280.173 696.954 269.567 697.884 259.938C698.805 250.305 699.183 241.63 699.23 234.367C699.278 227.103 698.924 221.254 698.488 217.243C698.372 216.244 698.268 215.355 698.178 214.58C698.055 213.821 697.95 213.175 697.864 212.644C697.699 211.598 697.638 211.04 697.688 211.028Z" fill="#455A64"/>
<path d="M685.48 299.335C685.192 297.987 685.422 296.534 685.918 295.248C686.609 293.457 688.233 291.482 692.027 291.285C695.395 291.11 697.567 291.363 698.918 291.677C700.058 291.942 701.034 292.666 701.635 293.67L707.267 303.081L706.578 306.407L699.997 307.968L695.84 302.952L691.497 303.69C691.497 303.69 686.656 304.72 685.48 299.335Z" fill="#FF725E"/>
<path d="M688.78 292.067C688.774 292.05 688.854 292.008 689.016 291.941C689.18 291.887 689.413 291.757 689.745 291.709C690.385 291.545 691.422 291.502 692.546 291.997C693.648 292.496 694.792 293.508 695.521 294.922C696.289 296.285 697.122 297.763 697.995 299.314C699.086 301.294 700.112 303.154 701.01 304.783L700.75 304.675C702.688 304.154 704.311 303.732 705.453 303.452C706.595 303.172 707.256 303.034 707.269 303.081C707.282 303.128 706.646 303.354 705.525 303.71C704.404 304.065 702.799 304.55 700.873 305.114L700.702 305.164L700.612 305.005C699.697 303.386 698.652 301.536 697.541 299.568C695.705 296.532 694.598 293.253 692.39 292.331C691.37 291.834 690.409 291.812 689.78 291.91C689.144 291.996 688.796 292.116 688.78 292.067Z" fill="#263238"/>
<path d="M700.165 308.003C700.024 307.974 700.054 307.254 700.232 306.395C700.41 305.536 700.668 304.864 700.809 304.893C700.95 304.922 700.92 305.642 700.742 306.501C700.564 307.36 700.306 308.032 700.165 308.003Z" fill="#263238"/>
<path d="M690.318 303.735C690.319 303.646 690.757 303.632 691.409 303.469C692.054 303.299 692.907 302.895 693.516 302.093C693.803 301.727 694.021 301.304 694.141 300.939L694.296 300.467L694.569 300.852C695.398 302.021 695.929 302.885 695.841 302.951C695.753 303.017 695.072 302.265 694.182 301.142L694.61 301.056C694.482 301.531 694.258 301.981 693.928 302.41C693.232 303.332 692.194 303.747 691.48 303.829C690.751 303.91 690.314 303.789 690.318 303.735Z" fill="#263238"/>
<path d="M693.137 297.824C693.093 297.823 693.089 297.558 692.991 297.108C692.888 296.666 692.673 296.007 692.107 295.438C691.567 294.874 690.563 294.491 689.613 294.92C688.672 295.317 687.975 296.425 687.942 297.63C687.884 298.834 688.497 299.992 689.406 300.458C690.32 300.957 691.351 300.65 691.932 300.127C692.539 299.603 692.803 298.961 692.938 298.528C693.069 298.085 693.093 297.821 693.137 297.824C693.164 297.824 693.211 298.092 693.135 298.574C693.052 299.045 692.831 299.766 692.178 300.399C691.853 300.708 691.412 300.978 690.882 301.101C690.352 301.212 689.738 301.163 689.187 300.884C688.068 300.338 687.356 298.986 687.422 297.61C687.46 296.233 688.271 294.938 689.427 294.478C689.997 294.24 690.613 294.237 691.133 294.388C691.653 294.551 692.072 294.853 692.373 295.185C692.977 295.866 693.143 296.601 693.191 297.077C693.231 297.562 693.164 297.826 693.137 297.824Z" fill="#263238"/>
<path d="M700.887 294.366C700.884 294.351 700.924 294.318 701.02 294.321C701.109 294.312 701.272 294.412 701.339 294.556L701.628 295.025L701.802 295.321C701.851 295.39 701.983 295.615 701.9 295.822C701.866 295.922 701.8 296.016 701.705 296.08C701.609 296.15 701.481 296.165 701.428 296.177L700.978 296.267C700.651 296.329 700.321 296.393 699.984 296.457C699.243 296.586 698.479 296.72 697.677 296.86C697.492 296.876 697.299 296.793 697.184 296.645C697.06 296.455 697.077 296.43 697.019 296.318C696.938 296.136 696.859 295.955 696.78 295.777L696.664 295.513C696.63 295.463 696.549 295.217 696.609 295.075C696.652 294.914 696.768 294.779 696.916 294.712C697.094 294.642 697.16 294.663 697.251 294.643C697.898 294.57 698.523 294.5 699.133 294.431C700.208 294.325 700.877 294.295 700.887 294.366C700.897 294.437 700.247 294.596 699.186 294.794C698.581 294.898 697.962 295.006 697.32 295.116C697.083 295.15 697.116 295.152 697.091 295.201C697.058 295.183 697.169 295.39 697.247 295.568C697.328 295.745 697.41 295.924 697.493 296.105C697.524 296.171 697.6 296.344 697.593 296.321C697.603 296.334 697.62 296.342 697.641 296.34C698.428 296.216 699.179 296.098 699.907 295.983C700.247 295.935 700.579 295.887 700.909 295.84L701.364 295.779C701.525 295.763 701.506 295.754 701.556 295.695C701.626 295.636 701.431 295.336 701.371 295.156L701.16 294.647C701.089 294.381 700.884 294.408 700.887 294.366Z" fill="#263238"/>
<path d="M705.774 302.325C705.804 302.466 704.81 302.826 703.554 303.129C702.297 303.431 701.228 303.57 701.167 303.44C701.106 303.31 702.099 302.949 703.387 302.636C704.675 302.323 705.744 302.185 705.774 302.325Z" fill="#263238"/>
<path d="M455.629 477.315C455.629 477.315 450.422 468.078 457.843 429.833C462.1 407.891 480.961 379.602 480.961 379.602C480.961 379.602 571.251 381.848 571.333 383.286C571.414 384.724 598.963 412.709 602.959 441.821C606.955 470.932 606.183 477.316 606.183 477.316L455.629 477.315Z" fill="#263238"/>
<path d="M526.933 443.429C526.789 443.436 526.109 431.916 525.412 417.701C524.716 403.481 524.268 391.952 524.412 391.945C524.556 391.938 525.236 403.456 525.933 417.676C526.629 431.89 527.077 443.422 526.933 443.429Z" fill="#455A64"/>
<path d="M535.054 395.564C533.415 395.48 531.8 397.156 531.343 398.522C530.65 400.59 531.6 403.084 533.494 404.167C535.388 405.25 538.018 404.804 539.45 403.158C540.881 401.512 540.958 398.845 539.623 397.12C538.288 395.395 535.687 394.8 533.735 395.773" fill="#455A64"/>
<path d="M504.247 222.038L510.18 207.032L545.562 205.168L560.015 207.031L561.605 211.189L571.414 384.725C571.414 384.725 537.142 391.64 520.006 389.234C502.87 386.829 482.727 379.013 482.727 379.013V280.323L504.247 222.038Z" fill="#E0E0E0"/>
<path d="M557.503 229.085C557.512 229.094 557.429 229.2 557.258 229.398C557.056 229.624 556.803 229.907 556.491 230.256C555.81 230.998 554.795 232.069 553.469 233.389C550.818 236.028 546.902 239.655 541.886 243.528L541.717 243.659L541.572 243.5C538.156 239.758 534.466 235.255 530.951 230.209C530.592 229.688 530.235 229.169 529.904 228.687L530.328 228.696C527.302 232.77 524.432 236.634 521.824 240.146C521.482 240.584 521.111 241.01 520.646 241.341C520.191 241.675 519.587 241.887 519.004 241.788C518.416 241.698 517.948 241.343 517.58 240.983C517.208 240.613 516.91 240.214 516.606 239.84C515.4 238.33 514.277 236.924 513.249 235.637C511.236 233.093 509.601 231.026 508.432 229.549C507.897 228.856 507.47 228.302 507.146 227.883C506.857 227.499 506.712 227.292 506.725 227.281C506.738 227.27 506.91 227.455 507.225 227.819C507.567 228.223 508.019 228.757 508.585 229.425C509.785 230.878 511.463 232.91 513.529 235.411C514.572 236.686 515.712 238.079 516.935 239.574C517.541 240.301 518.156 241.19 519.072 241.344C519.998 241.49 520.825 240.688 521.45 239.857C524.045 236.339 526.9 232.468 529.91 228.386L530.126 228.093L530.334 228.395C530.665 228.875 531.02 229.391 531.378 229.91C534.879 234.936 538.539 239.433 541.917 243.186L541.603 243.157C546.626 239.332 550.574 235.765 553.276 233.19C554.628 231.902 555.672 230.863 556.386 230.154C556.72 229.825 556.99 229.558 557.205 229.346C557.392 229.165 557.494 229.076 557.503 229.085Z" fill="#263238"/>
<g opacity="0.3">
<path d="M517.078 240.091C517.078 240.091 521.564 245.617 522.825 244.23C524.086 242.843 530.729 232.552 531.526 232.125C532.323 231.698 540.353 246.122 543.505 245.113C546.657 244.104 557.894 232.87 557.894 232.87L558.114 228.447L541.744 243.343L530.119 228.541L520.34 241.265C520.34 241.265 518.266 242.888 517.078 240.091Z" fill="black"/>
</g>
<path d="M488.952 122.271C488.952 122.271 479.696 156.875 478.9 181.359L478.635 189.517C478.635 189.517 499.056 206.474 516.186 207.519L530.543 172.215L488.952 122.271Z" fill="#263238"/>
<path d="M579.663 143.495C575.759 126.617 574.259 106.973 560.225 95.9684C549.811 87.8024 537.944 85.5254 524.72 86.0784C518.209 86.3504 510.857 89.3554 505.186 92.5654C497.41 96.9674 494.117 105.894 490.365 114.003C482.849 130.249 483.801 152.249 488.892 158.364L556.782 194.215C570.339 187.16 578.831 184.35 580.998 166.279C581.909 158.674 581.389 150.958 579.663 143.495Z" fill="#263238"/>
<path d="M559.501 109.382L516.775 96.7756C503.012 94.7696 493.153 111.426 491.733 125.263C490.155 140.634 488.836 159.463 490.21 171.033C492.972 194.297 510.576 197.937 510.576 197.937C510.585 197.859 510.453 207.274 510.453 207.274L529.913 227.952L559.655 208.08L566.453 117.918C566.702 113.698 563.682 109.991 559.501 109.382Z" fill="#FFBF9D"/>
<path d="M499.566 146.314C499.449 147.877 500.677 149.266 502.308 149.418C503.935 149.57 505.352 148.429 505.469 146.865C505.586 145.302 504.358 143.911 502.731 143.76C501.101 143.607 499.683 144.75 499.566 146.314Z" fill="#263238"/>
<path d="M494.56 139.201C494.912 139.602 497.224 138.028 500.415 138.162C503.604 138.25 505.88 139.984 506.242 139.607C506.419 139.441 506.071 138.728 505.082 137.946C504.108 137.168 502.423 136.381 500.436 136.311C498.448 136.244 496.747 136.909 495.757 137.621C494.746 138.335 494.386 139.021 494.56 139.201Z" fill="#263238"/>
<path d="M527.59 146.314C527.473 147.878 528.701 149.266 530.331 149.418C531.958 149.57 533.375 148.429 533.493 146.865C533.61 145.302 532.382 143.911 530.754 143.759C529.124 143.607 527.707 144.75 527.59 146.314Z" fill="#263238"/>
<path d="M525.948 139.577C526.302 139.978 528.616 138.405 531.804 138.539C534.992 138.627 537.27 140.36 537.631 139.983C537.807 139.817 537.464 139.105 536.47 138.322C535.496 137.543 533.812 136.756 531.825 136.686C529.837 136.619 528.137 137.285 527.146 137.996C526.137 138.711 525.775 139.398 525.948 139.577Z" fill="#263238"/>
<path d="M513.518 160.266C513.539 160.085 511.57 159.664 508.372 159.126C507.561 159.01 506.797 158.818 506.681 158.257C506.512 157.66 506.887 156.796 507.32 155.863C508.164 153.922 509.047 151.886 509.974 149.754C513.668 141.053 516.374 133.884 516.023 133.739C515.671 133.593 512.393 140.528 508.699 149.229C507.809 151.375 506.955 153.421 506.144 155.379C505.799 156.293 505.228 157.323 505.596 158.56C505.792 159.177 506.372 159.643 506.889 159.804C507.405 159.984 507.862 160.011 508.264 160.051C511.492 160.353 513.499 160.447 513.518 160.266Z" fill="#263238"/>
<path d="M510.483 197.936C510.483 197.936 525.998 199.551 541.772 190.895C541.772 190.895 533.481 206.772 510.426 203.698L510.483 197.936Z" fill="#FF9A6C"/>
<path d="M523.867 167.354C523.095 165.981 521.63 165.217 520.103 165.107C517.902 164.948 516.025 165.631 514.514 167.607C514.002 168.175 513.98 169.833 514.164 170.297C514.348 170.763 514.2 170.532 514.544 170.861C515.787 172.049 517.103 173.239 518.742 173.699C520.381 174.159 522.435 173.706 523.58 172.131C524.597 170.734 524.639 168.727 523.867 167.354Z" fill="#FF9A6C"/>
<path d="M523.393 162.979C522.876 162.926 522.713 166.388 519.639 168.711C516.57 171.044 512.896 170.488 512.847 170.971C512.789 171.186 513.639 171.681 515.194 171.793C516.72 171.915 518.973 171.524 520.854 170.103C522.73 168.677 523.599 166.701 523.78 165.286C523.979 163.846 523.632 162.97 523.393 162.979Z" fill="#263238"/>
<path d="M524.74 127.899C524.969 128.793 528.183 128.693 531.867 129.505C535.569 130.243 538.469 131.626 539.04 130.899C539.297 130.55 538.852 129.686 537.717 128.731C536.593 127.779 534.747 126.798 532.533 126.331C530.318 125.868 528.235 126.024 526.822 126.445C525.4 126.864 524.645 127.476 524.74 127.899Z" fill="#263238"/>
<path d="M494.824 130.614C495.548 131.242 497.873 130.146 500.792 129.687C503.697 129.138 506.263 129.388 506.724 128.555C506.921 128.154 506.427 127.492 505.247 126.969C504.083 126.447 502.22 126.151 500.217 126.495C498.216 126.843 496.569 127.745 495.659 128.628C494.732 129.515 494.499 130.302 494.824 130.614Z" fill="#263238"/>
<path d="M516.629 94.2822C516.589 94.4492 516.558 94.6172 516.52 94.7842L516.6 94.8182C516.61 94.6392 516.619 94.4612 516.629 94.2822Z" fill="#263238"/>
<path d="M550.386 206.185C548.185 206.799 545.93 205.378 545.537 203.127C544.697 198.307 544.868 193.789 545.42 189.06C546.17 182.639 550.525 175.919 551.067 169.478C552.101 157.187 551.018 150.298 549.645 139.978C543.86 139.265 538.461 135.789 534.607 131.296C529.97 125.89 527.165 119.19 524.435 112.611C524.596 119.06 526.831 125.441 530.726 130.583C528.158 131.119 525.45 130.019 523.52 128.242C521.59 126.464 520.328 124.083 519.291 121.674C516.777 115.837 515.412 109.525 515.195 103.175C514.342 112.26 515.35 121.521 518.217 130.186C516.598 129.687 514.864 130.135 513.188 130.377C511.512 130.62 509.59 130.572 508.405 129.361C507.613 128.551 507.325 127.387 507.095 126.278C505.499 118.554 505.238 110.555 506.327 102.744C504.264 106.968 502.22 111.239 501.023 115.785C499.827 120.331 499.516 125.217 500.925 129.701C500.259 130.546 498.844 130.413 498.053 129.683C497.262 128.953 496.962 127.841 496.796 126.778C496.187 122.894 496.873 118.936 497.558 115.064C495.246 119.162 494.479 123.918 493.2 128.446C491.921 132.975 489.885 137.619 485.95 140.199C485.268 133.424 485.51 128.797 486.527 122.453C487.305 117.605 489.605 112.796 491.728 108.369C494.106 103.41 497.411 98.5544 501.105 95.3194C507.918 89.3514 510.766 91.9214 515.117 94.1954L515.631 94.4114C515.646 94.3044 515.651 94.1974 515.667 94.0904L515.863 93.1644C527.188 90.6134 539.198 91.1744 550.235 94.7724C558.437 97.4454 559.19 115.105 561.191 106.713C562.401 101.636 568.983 106.27 569.064 106.416C578.737 123.864 588.991 151.543 589.461 195.278L550.386 206.185Z" fill="#263238"/>
<g opacity="0.3">
<path d="M493.434 320.236C487.235 360.895 481.036 401.554 474.838 442.213L476.281 455.432C477.912 457.292 481.163 456.673 482.821 454.838C484.479 453.002 484.966 450.423 485.376 447.983C492.459 405.808 496.28 362.905 493.434 320.236Z" fill="black"/>
</g>
<path d="M492.855 217.484L471.873 221.588C462.731 223.471 455.312 230.175 452.597 239.105C451.983 241.125 451.485 243.333 451.175 245.721C449.337 259.902 440.67 298.245 440.67 298.245C440.67 298.245 421.338 307.437 420.499 315.315C419.66 323.194 427.186 337.494 427.186 337.494C427.186 337.494 435.545 359.431 446.617 364.014C458.775 369.046 467.24 353.903 467.24 353.903C467.324 355.282 467.37 356.056 467.37 356.056L435.545 428.038C443.639 442.491 458.847 459.416 474.3 463.095C474.3 463.095 492.229 351.2 493.236 326.763C494.244 302.326 509.943 207.341 509.943 207.341L492.855 217.484Z" fill="#F76466"/>
<path d="M419.204 233.956C419.204 233.956 415.839 232.614 414.902 235.423C414.294 237.246 413.056 242.052 412.262 245.202C411.796 247.052 412.166 249.012 413.274 250.564L415.833 254.148C415.833 254.148 414.289 257.791 415.426 261.258C415.426 261.258 411.477 265.28 411.983 268.798C411.983 268.798 406.921 272.01 408.21 277.375C409.499 282.74 424.485 298.969 424.485 298.969L434.065 301.977L446.393 292.628C446.393 292.628 449.179 277.614 448.679 271.16C448.078 263.4 445.174 262.635 445.174 262.635L432.281 250.496L427.677 243.954C427.677 243.954 423.35 244.636 424.133 250.229L420.266 247.49L419.235 242.88C419.237 242.879 422.113 237.094 419.204 233.956Z" fill="#FFBF9D"/>
<path d="M408.658 207.384C409.442 207.827 424.448 251.437 424.448 251.437L428.09 253.25L411.933 206.425L408.658 207.384Z" fill="#263238"/>
<path d="M422.735 259.818C422.745 259.803 422.902 259.892 423.192 260.074C423.529 260.292 423.945 260.56 424.45 260.886C425.604 261.637 427.163 262.651 429.061 263.886C430.041 264.508 431.114 265.19 432.286 265.883C432.873 266.229 433.484 266.577 434.121 266.914C434.764 267.238 435.42 267.545 436.144 267.639C436.497 267.676 436.855 267.663 437.154 267.524C437.454 267.389 437.682 267.124 437.84 266.796C438.154 266.13 438.227 265.306 438.267 264.493C438.276 264.096 438.31 263.627 438.235 263.306C438.139 262.944 437.93 262.586 437.705 262.241C437.235 261.554 436.638 260.92 436.013 260.308C433.464 257.885 430.689 255.936 428.156 254.221C425.602 252.54 423.242 251.057 421.15 250.132C420.118 249.649 419.08 250.108 418.417 250.687C417.727 251.265 417.251 251.906 416.885 252.433C416.163 253.503 415.871 254.165 415.833 254.147C415.817 254.14 415.872 253.967 416.009 253.652C416.149 253.338 416.372 252.881 416.715 252.323C417.062 251.77 417.519 251.097 418.229 250.465C418.585 250.157 419.013 249.848 419.553 249.696C420.076 249.516 420.73 249.557 421.283 249.79C423.465 250.704 425.83 252.151 428.42 253.822C430.984 255.526 433.777 257.466 436.376 259.936C437.015 260.564 437.629 261.211 438.134 261.952C438.377 262.329 438.611 262.719 438.734 263.183C438.836 263.697 438.781 264.081 438.776 264.516C438.727 265.361 438.663 266.216 438.286 267.016C438.097 267.408 437.781 267.784 437.357 267.97C436.936 268.159 436.487 268.163 436.082 268.116C435.273 268.005 434.555 267.657 433.907 267.321C433.261 266.97 432.648 266.611 432.062 266.255C430.892 265.54 429.828 264.839 428.858 264.196C426.924 262.902 425.387 261.817 424.333 261.054C423.85 260.696 423.453 260.401 423.13 260.161C422.861 259.95 422.724 259.832 422.735 259.818Z" fill="#FF9A6C"/>
<path d="M415.939 267.844C415.936 267.821 416.241 267.755 416.818 267.651C417.462 267.544 418.298 267.405 419.329 267.233L419.379 267.225L419.423 267.257C420.521 268.053 421.867 269.029 423.421 270.156L423.433 270.165L423.447 270.18C425.088 271.904 427.046 273.933 429.311 276.057C429.881 276.583 430.467 277.12 431.09 277.631C431.715 278.137 432.353 278.673 433.098 278.851C433.844 279.067 434.601 278.701 435.088 278.054C435.58 277.41 435.893 276.586 436.034 275.745C436.132 275.395 435.914 274.987 435.732 274.594C435.535 274.2 435.29 273.823 435.05 273.451C434.555 272.711 434.023 272.006 433.485 271.325C432.407 269.963 431.301 268.699 430.226 267.515C428.064 265.16 426.027 263.106 424.168 261.577C423.245 260.81 422.293 260.29 421.373 260.086C420.459 259.873 419.627 259.938 418.986 260.109C417.692 260.463 417.113 260.996 417.089 260.951C417.077 260.938 417.209 260.798 417.506 260.593C417.803 260.39 418.27 260.118 418.932 259.914C419.588 259.706 420.461 259.603 421.434 259.801C422.408 259.985 423.442 260.524 424.397 261.288C426.317 262.806 428.385 264.839 430.58 267.189C431.671 268.371 432.791 269.635 433.886 271.007C434.432 271.694 434.974 272.405 435.483 273.163C435.732 273.547 435.984 273.933 436.197 274.357C436.383 274.772 436.67 275.245 436.55 275.828C436.394 276.745 436.066 277.628 435.498 278.372C435.207 278.737 434.841 279.061 434.393 279.253C433.946 279.459 433.431 279.451 432.984 279.347C432.068 279.115 431.402 278.521 430.773 278.013C430.14 277.487 429.552 276.943 428.982 276.407C426.718 274.25 424.785 272.196 423.17 270.434L423.196 270.457C421.67 269.292 420.349 268.283 419.271 267.46L419.365 267.484C418.327 267.606 417.486 267.705 416.837 267.782C416.254 267.846 415.942 267.867 415.939 267.844Z" fill="#FF9A6C"/>
<path d="M431.687 278.088C431.722 278.095 431.638 278.398 431.452 278.949C431.346 279.225 431.27 279.557 431.07 279.955C430.862 280.349 430.404 280.692 429.87 280.809C428.789 281.057 427.557 280.877 426.194 280.633C424.817 280.263 423.499 279.548 422.11 278.802C420.471 277.896 418.972 276.973 417.687 276.136L417.978 276.103C417.88 276.201 417.784 276.295 417.69 276.389L417.718 276.354C417.385 276.797 416.941 276.948 416.555 277.076C416.16 277.204 415.78 277.269 415.424 277.321C414.711 277.417 414.088 277.437 413.576 277.437C412.554 277.431 411.964 277.327 411.977 277.258C411.991 277.239 412.118 277.244 412.395 277.231C412.748 277.213 413.134 277.193 413.567 277.171C414.07 277.133 414.681 277.077 415.364 276.953C415.704 276.887 416.066 276.81 416.421 276.681C416.772 276.562 417.152 276.379 417.338 276.105L417.351 276.086L417.366 276.07C417.458 275.974 417.551 275.877 417.647 275.777L417.775 275.644L417.938 275.745C419.231 276.545 420.739 277.448 422.362 278.345C423.727 279.082 425.059 279.807 426.306 280.165C427.594 280.425 428.842 280.631 429.786 280.45C430.261 280.364 430.621 280.116 430.822 279.803C431.012 279.483 431.133 279.133 431.26 278.884C431.5 278.368 431.651 278.08 431.687 278.088Z" fill="#FF9A6C"/>
<path d="M446.824 288.64L425.361 299.201L426.318 319.302C426.318 319.302 441.677 321.328 455.31 303.971L446.824 288.64Z" fill="#FFBF9D"/>
<path d="M435.546 428.038C435.539 428.035 435.585 427.91 435.683 427.67C435.791 427.411 435.939 427.059 436.128 426.606C436.539 425.652 437.129 424.279 437.889 422.514C439.451 418.937 441.705 413.773 444.515 407.338C450.196 394.434 458.121 376.434 467.137 355.953L467.115 356.063C466.947 350.548 466.745 344.807 466.466 338.945C465.855 325.726 465.127 313.137 464.647 301.677C464.15 290.218 463.87 279.892 463.776 271.218C463.668 262.545 463.736 255.525 463.813 250.676C463.869 248.27 463.912 246.393 463.943 245.093C463.963 244.472 463.979 243.99 463.99 243.641C464.004 243.314 464.024 243.147 464.024 243.147C464.024 243.147 464.04 243.315 464.044 243.642C464.045 243.991 464.047 244.473 464.049 245.094C464.042 246.394 464.031 248.271 464.017 250.678C464.003 255.527 463.991 262.544 464.146 271.213C464.287 279.882 464.605 290.202 465.128 301.656C465.7 313.111 466.328 325.702 466.988 338.921C467.267 344.785 467.466 350.53 467.629 356.049L467.631 356.107L467.608 356.16C458.527 376.612 450.546 394.588 444.824 407.474C441.955 413.883 439.653 419.025 438.058 422.588C437.264 424.338 436.646 425.699 436.216 426.645C436.009 427.09 435.847 427.436 435.729 427.69C435.614 427.924 435.553 428.042 435.546 428.038Z" fill="#263238"/>
<path d="M492.095 314.655C492.086 314.657 492.058 314.568 492.011 314.394C491.96 314.189 491.896 313.933 491.816 313.615C491.648 312.889 491.415 311.883 491.12 310.607C490.576 307.982 489.801 304.178 489.09 299.435C488.371 294.694 487.668 289.025 487.117 282.71C486.561 276.395 486.12 269.44 485.778 262.136C485.656 259.408 485.536 256.729 485.419 254.113C485.362 252.806 485.305 251.516 485.249 250.243C485.218 249.606 485.187 248.973 485.156 248.345L485.128 247.4L485.132 246.921C485.135 246.84 485.14 246.756 485.151 246.666C485.159 246.618 485.164 246.57 485.193 246.49C485.209 246.455 485.231 246.42 485.255 246.391C485.303 246.319 485.494 246.279 485.535 246.317C485.721 246.409 485.664 246.422 485.716 246.47L485.359 246.393C487.297 245.04 489.17 243.733 490.975 242.473L491.011 242.88C488.884 241.884 486.846 240.929 484.907 240.021L484.742 239.944L484.788 239.772C485.705 236.3 486.808 233.221 487.77 230.493C488.744 227.769 489.64 225.417 490.387 223.488C491.136 221.559 491.743 220.054 492.167 219.034C492.373 218.551 492.536 218.167 492.661 217.874C492.777 217.613 492.841 217.481 492.852 217.485C492.863 217.489 492.819 217.63 492.723 217.899C492.613 218.199 492.47 218.59 492.289 219.083C491.89 220.157 491.329 221.668 490.62 223.578C489.908 225.519 489.045 227.881 488.101 230.612C487.17 233.344 486.094 236.435 485.208 239.88L485.089 239.631C487.033 240.528 489.076 241.472 491.209 242.456L491.58 242.627L491.245 242.863C489.445 244.13 487.577 245.444 485.644 246.804L485.287 246.727C485.284 246.759 485.463 246.597 485.451 246.596C485.455 246.553 485.452 246.603 485.47 246.596C485.498 246.628 485.535 246.647 485.574 246.653L485.653 246.685V246.687C485.653 246.687 485.652 246.687 485.651 246.696L485.644 246.735L485.629 246.943L485.626 247.396L485.656 248.326C485.688 248.952 485.721 249.583 485.754 250.219C485.813 251.493 485.872 252.785 485.932 254.093C486.051 256.707 486.173 259.386 486.297 262.113C486.64 269.413 487.065 276.362 487.594 282.67C488.118 288.979 488.783 294.643 489.453 299.383C490.117 304.125 490.835 307.934 491.317 310.568C491.571 311.852 491.772 312.864 491.917 313.594C491.976 313.917 492.023 314.176 492.061 314.384C492.093 314.561 492.104 314.653 492.095 314.655Z" fill="#263238"/>
<path d="M464.807 305.633C464.715 305.642 464.68 304.73 464.186 303.388C463.709 302.059 462.663 300.297 460.891 299.05C459.115 297.808 457.102 297.425 455.69 297.428C454.261 297.42 453.391 297.697 453.368 297.608C453.346 297.562 454.191 297.15 455.681 297.06C457.147 296.96 459.298 297.3 461.19 298.624C463.078 299.953 464.13 301.859 464.535 303.272C464.957 304.703 464.857 305.638 464.807 305.633Z" fill="#263238"/>
<path d="M457.316 300.683C457.348 300.7 457.081 301.225 456.568 302.165C456.32 302.64 455.997 303.21 455.556 303.83C455.124 304.455 454.674 305.201 454.05 305.93C453.748 306.306 453.434 306.697 453.107 307.103C452.775 307.508 452.383 307.887 452.002 308.302C451.254 309.149 450.341 309.938 449.403 310.792C447.46 312.422 445.169 314.035 442.576 315.405C439.965 316.741 437.328 317.692 434.877 318.347C433.639 318.624 432.469 318.92 431.345 319.045C430.786 319.119 430.25 319.222 429.728 319.261C429.208 319.295 428.707 319.328 428.226 319.36C427.271 319.453 426.402 319.393 425.642 319.388C424.881 319.393 424.229 319.33 423.698 319.26C422.634 319.14 422.051 319.057 422.055 319.022C422.065 318.896 424.416 319.264 428.202 318.993C428.676 318.951 429.171 318.908 429.684 318.862C430.199 318.813 430.727 318.7 431.277 318.619C432.384 318.477 433.535 318.169 434.754 317.883C437.165 317.211 439.759 316.261 442.334 314.943C444.89 313.592 447.157 312.014 449.091 310.425C450.025 309.592 450.938 308.826 451.689 308.001C452.072 307.597 452.467 307.229 452.803 306.836C453.135 306.442 453.454 306.062 453.761 305.698C456.158 302.755 457.208 300.618 457.316 300.683Z" fill="#263238"/>
<path d="M433.952 278.948C434.112 278.952 434.038 281.007 434.73 283.398C435.396 285.797 436.537 287.507 436.404 287.594C436.311 287.683 434.927 286.042 434.229 283.54C433.51 281.045 433.826 278.921 433.952 278.948Z" fill="#FF9A6C"/>
<path d="M434.619 267.646C434.758 267.698 434.555 268.548 434.419 269.6C434.275 270.651 434.248 271.524 434.1 271.538C433.962 271.556 433.75 270.651 433.902 269.531C434.049 268.411 434.491 267.593 434.619 267.646Z" fill="#FF9A6C"/>
<path d="M590.613 368.289L610.984 231.205L573.384 217.422C573.384 217.422 564.576 209.325 559.88 205.124L558.232 226.319C558.232 226.319 553.146 312.997 561.148 356.649C569.151 400.301 568.022 398.826 573.88 427.22C578.144 447.888 578.844 465.938 585.266 467.756C591.688 469.575 613.894 437.041 613.894 437.041L590.613 368.289Z" fill="#F76466"/>
<path d="M610.983 231.205C610.983 231.205 622.377 236.797 624.086 252.717C625.59 266.722 628.054 352.687 627.753 359.626C627.451 366.565 621.464 386.155 610.725 386.837C593.774 387.913 589.109 374.833 589.109 374.833L593.663 330.92L610.983 231.205Z" fill="#F76466"/>
<path d="M567.866 310.015C567.857 310.013 567.867 309.925 567.895 309.756C567.931 309.557 567.975 309.311 568.03 309.007C568.168 308.311 568.358 307.353 568.599 306.14C569.055 303.643 569.746 300.036 570.382 295.543C571.724 286.568 572.865 274.074 573.524 260.24C573.678 256.981 573.828 253.795 573.974 250.714C574.043 249.173 574.111 247.657 574.177 246.172C574.216 245.43 574.256 244.697 574.295 243.971C574.309 243.61 574.322 243.251 574.335 242.894L574.338 242.368C574.336 242.283 574.333 242.196 574.325 242.122C574.322 242.088 574.313 242.041 574.313 242.041C574.311 242.031 574.312 242.044 574.327 242.068C574.339 242.083 574.33 242.073 574.361 242.104C574.397 242.14 574.466 242.162 574.515 242.156C574.575 242.171 574.669 242.086 574.655 242.096L574.667 242.081L574.318 242.156C572.364 240.779 570.496 239.463 568.719 238.211L568.4 237.986L568.754 237.823C570.926 236.823 572.973 235.881 574.877 235.004L574.767 235.233C574.114 232.503 573.821 229.982 573.522 227.78C573.237 225.575 572.961 223.678 572.657 222.14C572.356 220.602 572.035 219.424 571.791 218.632C571.671 218.264 571.575 217.969 571.498 217.735C571.433 217.532 571.403 217.426 571.413 217.422C571.422 217.418 571.47 217.517 571.554 217.714C571.633 217.912 571.764 218.202 571.901 218.595C572.183 219.378 572.541 220.554 572.877 222.094C573.216 223.633 573.525 225.534 573.839 227.735C574.167 229.933 574.486 232.444 575.154 235.135L575.194 235.295L575.046 235.365C573.148 236.256 571.108 237.213 568.944 238.229L568.978 237.841C570.761 239.084 572.637 240.391 574.598 241.758L574.249 241.833L574.3 241.765C574.296 241.756 574.417 241.663 574.494 241.67C574.553 241.668 574.631 241.694 574.677 241.735C574.717 241.771 574.713 241.774 574.731 241.797C574.759 241.84 574.769 241.873 574.772 241.885C574.798 241.969 574.801 242.012 574.808 242.066C574.819 242.168 574.822 242.26 574.826 242.354V242.903C574.814 243.264 574.8 243.628 574.787 243.993C574.751 244.72 574.714 245.454 574.677 246.197C574.614 247.681 574.551 249.195 574.486 250.736C574.344 253.819 574.196 257.006 574.046 260.266C573.386 274.109 572.183 286.622 570.746 295.598C570.062 300.091 569.317 303.694 568.799 306.181C568.517 307.387 568.294 308.339 568.133 309.03C568.058 309.329 567.997 309.572 567.947 309.768C567.902 309.933 567.874 310.017 567.866 310.015Z" fill="#263238"/>
<g opacity="0.3">
<path d="M512.568 380.675C512.568 380.675 510.002 384.011 515.647 385.037C521.292 386.063 585.265 381.334 585.265 381.334L597.421 388.396L595.834 383.289L585.696 372.473L512.568 380.675Z" fill="black"/>
</g>
<path d="M589.436 274.283L508.901 278.393C507.009 278.49 505.493 279.997 505.387 281.889L500.041 377.419C499.918 379.622 501.734 381.445 503.937 381.33L582.081 377.244C583.936 377.147 585.434 375.692 585.584 373.84L593.321 278.286C593.502 276.051 591.675 274.168 589.436 274.283Z" fill="#263238"/>
<path d="M606.337 253.347C606.355 253.351 606.309 253.646 606.207 254.205C606.091 254.808 605.934 255.621 605.736 256.644C605.31 258.809 604.71 261.858 603.972 265.604C602.501 273.173 600.578 283.65 598.738 295.269C596.904 306.893 595.502 317.453 594.567 325.107C594.113 328.898 593.744 331.983 593.482 334.174C593.354 335.208 593.253 336.029 593.178 336.639C593.103 337.202 593.055 337.497 593.037 337.495C593.019 337.493 593.032 337.195 593.074 336.629C593.125 336.017 593.194 335.192 593.281 334.154C593.468 332.005 593.78 328.899 594.202 325.065C595.044 317.397 596.389 306.82 598.224 295.189C600.065 283.562 602.047 273.087 603.611 265.533C604.392 261.756 605.053 258.705 605.538 256.603C605.776 255.588 605.965 254.782 606.105 254.184C606.24 253.631 606.32 253.344 606.337 253.347Z" fill="#263238"/>
<path d="M591.083 336.84C591.083 336.84 595.721 337.107 599.823 343.975L607.672 348.969C607.672 348.969 614.539 359.761 607.672 369.839C600.805 379.917 592.51 371.355 592.51 371.355C592.51 371.355 584.216 375.465 581.897 374.748C579.578 374.031 563.862 365.58 561.562 363.638C560.88 363.061 555.82 357.252 555.82 357.252C555.82 357.252 548.808 355.747 548.005 354.142C547.202 352.537 547.145 348.853 551.872 349.21C551.872 349.21 547.272 347.823 546.737 345.504C546.202 343.185 546.778 340.16 554.894 341.319C563.01 342.478 578.658 346.827 580.47 346.383C580.903 346.277 581.594 344.94 580.292 344.332C579.709 344.06 561.313 336.907 558.346 336.094C555.153 335.219 554.695 328.1 561.295 329.795C567.895 331.49 589.389 336.662 589.389 336.662L591.083 336.84Z" fill="#FFBF9D"/>
<path d="M578.953 364.155C578.927 364.226 577.633 363.801 575.543 363.12C573.454 362.438 570.563 361.513 567.346 360.574C564.127 359.637 561.192 358.863 559.063 358.316C556.935 357.768 555.616 357.431 555.631 357.357C555.639 357.322 555.978 357.361 556.586 357.461C557.194 357.56 558.07 357.729 559.147 357.958C561.302 358.415 564.262 359.134 567.491 360.075C570.719 361.017 573.601 362 575.664 362.773C576.696 363.159 577.525 363.487 578.091 363.73C578.658 363.972 578.966 364.122 578.953 364.155Z" fill="#FF9A6C"/>
<path d="M581.594 355.621C581.589 355.657 581.16 355.626 580.389 355.541C579.617 355.457 578.505 355.309 577.133 355.105C574.39 354.697 570.612 354.04 566.473 353.154C562.333 352.266 558.617 351.319 555.947 350.567C554.612 350.192 553.536 349.871 552.798 349.632C552.06 349.394 551.656 349.246 551.666 349.212C551.676 349.177 552.098 349.259 552.852 349.437C553.71 349.646 554.777 349.905 556.04 350.212C558.73 350.872 562.45 351.76 566.581 352.646C570.711 353.529 574.469 354.243 577.193 354.743C578.472 354.98 579.55 355.181 580.419 355.342C581.181 355.487 581.599 355.585 581.594 355.621Z" fill="#FF9A6C"/>
<path d="M603.92 353.783C603.956 353.785 603.96 354.085 603.935 354.628C603.921 355.171 603.821 355.954 603.63 356.908C603.255 358.815 602.351 361.402 600.711 363.899C599.062 366.391 597.041 368.242 595.436 369.338C594.635 369.89 593.955 370.29 593.461 370.517C592.972 370.754 592.695 370.868 592.679 370.836C592.634 370.752 593.698 370.201 595.218 369.04C596.739 367.887 598.666 366.043 600.275 363.611C601.874 361.174 602.81 358.677 603.269 356.824C603.737 354.97 603.825 353.775 603.92 353.783Z" fill="#FF9A6C"/>
<path d="M606.517 372.474C606.442 372.408 607.523 371.363 608.741 369.316C609.961 367.293 611.22 364.155 611.334 360.529C611.446 356.902 610.385 353.691 609.294 351.596C608.205 349.477 607.192 348.367 607.271 348.305C607.295 348.284 607.568 348.54 608.005 349.056C608.443 349.571 609.023 350.365 609.619 351.422C610.816 353.514 611.971 356.804 611.855 360.545C611.737 364.285 610.38 367.496 609.055 369.509C608.394 370.527 607.766 371.284 607.297 371.77C606.828 372.258 606.539 372.496 606.517 372.474Z" fill="#263238"/>
<path d="M624.658 338.184C624.597 338.27 623.344 337.303 621.073 336.196C619.944 335.633 618.538 335.092 616.943 334.617C615.338 334.175 613.537 333.819 611.621 333.663C609.702 333.532 607.868 333.617 606.215 333.815C604.566 334.048 603.096 334.374 601.895 334.763C599.486 335.521 598.103 336.291 598.055 336.197C598.038 336.165 598.375 335.962 599.003 335.619C599.314 335.442 599.702 335.239 600.174 335.049C600.643 334.853 601.167 334.6 601.78 334.413C602.984 333.973 604.472 333.602 606.149 333.339C607.83 333.11 609.702 333.009 611.66 333.143C613.615 333.301 615.451 333.679 617.079 334.156C618.698 334.665 620.114 335.253 621.24 335.867C621.819 336.142 622.299 336.471 622.734 336.734C623.172 336.992 623.526 337.25 623.808 337.471C624.377 337.904 624.68 338.156 624.658 338.184Z" fill="#263238"/>
<g opacity="0.3">
<path d="M572.019 219.157C572.019 219.157 578.809 234.989 577.866 236.309C576.924 237.629 573.342 238.571 573.342 238.571C573.342 238.571 579.19 241.097 579.185 243.343C579.176 247.811 572.914 274.278 572.914 274.278L574.459 241.957L568.85 238.026L574.962 235.184L572.019 219.157Z" fill="black"/>
</g>
<path d="M589.109 277.683C589.109 277.683 588.957 277.709 588.658 277.735C588.336 277.759 587.896 277.793 587.331 277.835C586.138 277.913 584.422 278.026 582.225 278.171C577.764 278.441 571.353 278.83 563.44 279.31C555.5 279.772 546.058 280.322 535.576 280.932C530.331 281.231 524.827 281.546 519.121 281.872C517.694 281.953 516.255 282.035 514.804 282.117C514.078 282.158 513.35 282.199 512.619 282.241C512.263 282.264 511.865 282.277 511.542 282.309C511.226 282.353 510.924 282.489 510.68 282.697C510.438 282.906 510.25 283.182 510.16 283.49C510.064 283.778 510.08 284.162 510.043 284.534C509.993 285.276 509.943 286.02 509.892 286.766C509.791 288.259 509.689 289.762 509.587 291.274C507.921 315.46 506.413 337.352 505.319 353.226C504.749 361.132 504.287 367.539 503.966 371.996C503.796 374.191 503.664 375.905 503.572 377.097C503.523 377.661 503.484 378.101 503.456 378.423C503.427 378.721 503.399 378.874 503.399 378.874C503.399 378.874 503.392 378.72 503.403 378.42C503.419 378.097 503.44 377.656 503.467 377.091C503.536 375.898 503.636 374.181 503.764 371.983C504.046 367.523 504.452 361.113 504.952 353.202C506.007 337.325 507.461 315.43 509.068 291.24C509.17 289.728 509.272 288.225 509.373 286.732C509.424 285.986 509.474 285.241 509.525 284.5C509.564 284.136 509.535 283.762 509.664 283.339C509.783 282.936 510.028 282.575 510.344 282.303C510.662 282.031 511.057 281.854 511.47 281.797C511.878 281.757 512.215 281.751 512.59 281.726C513.321 281.685 514.05 281.645 514.775 281.604C516.226 281.523 517.665 281.443 519.092 281.364C524.798 281.049 530.303 280.744 535.549 280.454C546.034 279.886 555.478 279.374 563.42 278.944C571.336 278.534 577.751 278.202 582.214 277.971C584.414 277.868 586.132 277.788 587.326 277.733C587.892 277.712 588.333 277.696 588.656 277.684C588.954 277.674 589.109 277.683 589.109 277.683Z" fill="#455A64"/>
<path d="M353.505 143.805C353.871 149.074 353.227 151.937 350.905 155.938C350.75 156.204 350.938 156.542 351.245 156.544C359.56 156.596 371.791 157.543 380.096 157.593C380.396 157.594 380.589 157.272 380.451 157.005C379.797 155.735 378.31 152.671 377.932 150.353C377.634 148.524 377.904 146.098 378.283 144.008C378.369 143.532 377.295 143.102 377.034 143.509C374.453 147.536 370.034 153.184 365.556 153.184C360.316 153.184 356.421 147.213 354.516 143.527C354.303 143.115 353.473 143.341 353.505 143.805Z" fill="black" stroke="black" stroke-width="0.13166"/>
<path d="M354.01 144.011C354.537 150.268 353.569 153.015 350.922 157.456C350.817 157.632 350.94 157.857 351.145 157.858C359.538 157.894 372.069 158.875 380.455 158.91C380.655 158.91 380.781 158.696 380.688 158.518C380.103 157.4 378.466 154.118 378.067 151.669C377.625 148.957 377.784 145.61 377.931 143.746C377.954 143.455 377.514 143.312 377.366 143.564C375.565 146.626 370.575 154.299 365.691 154.5C360.784 154.702 356.311 147.153 354.589 143.842C354.451 143.575 353.985 143.712 354.01 144.011Z" fill="#FFC042" stroke="black" stroke-width="0.13166"/>
<path d="M365.452 159.498C360.072 159.774 352.268 162.255 349.732 163.104C349.346 163.233 348.956 162.914 348.993 162.508C349.474 157.137 348.536 152.488 345.207 144.639C344.973 144.088 345.697 143.548 346.158 143.928C349.064 146.321 354.402 150.29 357.412 149.892C360.708 149.456 364.254 142.869 365.713 139.858C365.943 139.383 366.689 139.443 366.843 139.948C367.806 143.099 370.272 149.892 373.655 149.892C376.658 149.892 382.174 145.613 385.379 142.892C385.853 142.489 386.614 143.086 386.333 143.642C382.259 151.721 380.64 157.151 381.546 162.948C381.624 163.448 381.033 163.852 380.598 163.593C378.143 162.128 372.252 159.149 365.452 159.498Z" fill="black" stroke="black" stroke-width="0.137645"/>
<path d="M365.755 159.239C360.172 159.083 352.154 161.731 350.029 162.472C349.768 162.563 349.498 162.366 349.499 162.089C349.512 156.758 348.931 152.344 345.496 144.682C345.312 144.273 345.889 143.855 346.218 144.16C349.34 147.059 355.791 152.422 358.678 150.22C361.76 147.87 364.821 142.328 365.954 140.139C366.12 139.818 366.61 139.854 366.726 140.197C367.709 143.095 370.892 151.419 374.708 150.22C378.034 149.175 382.869 145.283 385.302 143.199C385.631 142.916 386.144 143.303 385.963 143.697C381.822 152.689 380.806 156.877 381.061 162.559C381.074 162.85 380.783 163.063 380.511 162.957C378.402 162.132 371.006 159.385 365.755 159.239Z" fill="#FFBE43" stroke="black" stroke-width="0.13166"/>
<path d="M365.952 159.239C361.764 159.122 353.757 161.421 350.711 162.349C350.109 162.532 349.502 162.077 349.503 161.447C349.509 158.563 349.383 156.15 348.474 152.811C348.199 151.799 349.798 150.834 350.552 151.564C353.369 154.289 356.954 157.089 358.71 155.75C360.822 154.14 363.531 149.092 365.077 145.962C365.474 145.159 366.744 145.293 366.975 146.159C368.013 150.057 370.168 156.577 372.798 155.75C375.025 155.05 378.804 152.031 381.482 149.718C382.228 149.073 383.423 149.9 383.08 150.825C381.232 155.82 380.883 157.921 381.02 161.366C381.046 162.018 380.417 162.509 379.793 162.315C376.895 161.415 369.852 159.348 365.952 159.239Z" fill="#F7A924"/>
<path d="M375.63 148.905C374.75 149.444 373.129 149.761 373.129 149.761C373.129 149.761 373.51 149.875 373.919 149.826C374.476 149.761 374.939 149.598 375.565 149.366C376.459 149.033 377.737 148.247 377.737 148.247V146.732C377.737 146.732 376.639 148.288 375.63 148.905Z" fill="#CE860A"/>
<path d="M356.012 149.102C356.893 149.641 358.053 149.563 358.053 149.563C358.053 149.563 357.855 149.76 357.329 149.826C356.771 149.896 356.111 149.861 355.485 149.629C354.591 149.296 354.103 149.102 354.103 149.102L354.235 147.588C354.235 147.588 355.004 148.485 356.012 149.102Z" fill="#CE860A"/>
<path fill-rule="evenodd" clip-rule="evenodd" d="M368.678 170.422C367.812 171.287 366.464 171.645 365.239 171.425C364.202 171.041 362.608 171.552 361.393 172.768C360.211 173.95 359.561 175.468 359.833 176.498C360.002 177.695 359.568 179.039 358.707 179.901C357.385 181.222 355.243 181.222 353.921 179.901C352.599 178.579 352.599 176.436 353.921 175.115C354.848 174.187 356.334 173.756 357.595 174.037C357.63 174.047 357.665 174.055 357.701 174.063C357.719 174.067 357.737 174.072 357.755 174.077L357.758 174.074C358.776 174.262 360.156 173.762 361.253 172.665C362.436 171.482 362.934 170.166 362.619 169.213L362.627 169.205C362.225 167.904 362.636 166.364 363.628 165.372C364.98 164.02 367.207 164.054 368.601 165.449C369.996 166.843 370.03 169.07 368.678 170.422Z" fill="#4385F5"/>
<path fill-rule="evenodd" clip-rule="evenodd" d="M378.178 179.92C377.312 180.785 375.964 181.143 374.739 180.923C373.702 180.539 372.108 181.051 370.893 182.266C369.711 183.448 369.061 184.966 369.333 185.996C369.502 187.193 369.068 188.537 368.207 189.399C366.885 190.72 364.743 190.72 363.421 189.399C362.099 188.077 362.099 185.934 363.421 184.613C364.348 183.685 365.834 183.254 367.095 183.535C367.13 183.545 367.165 183.553 367.201 183.561C367.219 183.565 367.237 183.57 367.255 183.575L367.258 183.572C368.276 183.76 369.656 183.26 370.753 182.163C371.936 180.98 372.434 179.664 372.119 178.711L372.127 178.703C371.725 177.402 372.136 175.862 373.128 174.87C374.48 173.518 376.707 173.552 378.101 174.947C379.496 176.341 379.53 178.568 378.178 179.92Z" fill="#FCBC03"/>
<circle cx="356.538" cy="167.878" r="3.5708" fill="#EA4235"/>
<circle cx="375.536" cy="167.878" r="3.5708" fill="#109D59"/>
<circle cx="375.536" cy="186.875" r="3.5708" fill="#EA4235"/>
<path fill-rule="evenodd" clip-rule="evenodd" d="M368.644 179.92C367.788 180.777 366.457 181.136 365.242 180.929C364.221 180.509 362.659 180.971 361.432 182.198C360.232 183.398 359.517 184.965 359.801 186.002C359.967 187.198 359.534 188.539 358.674 189.399C357.352 190.72 355.209 190.72 353.888 189.399C352.566 188.077 352.566 185.934 353.888 184.613C354.707 183.793 355.963 183.361 357.114 183.466C357.294 183.52 357.489 183.554 357.695 183.568C357.704 183.57 357.713 183.573 357.722 183.575L357.727 183.57C358.784 183.629 360.113 183.158 361.092 182.179C362.271 181 362.852 179.678 362.576 178.72L362.594 178.703C362.192 177.402 362.603 175.862 363.595 174.87C364.947 173.518 367.173 173.552 368.568 174.947C369.962 176.341 369.997 178.568 368.644 179.92Z" fill="#109D59"/>
</g>
<defs>
<clipPath id="clip0_549_1046">
<rect width="750" height="500" fill="white"/>
</clipPath>
</defs>
</svg>
